<svg width="293" height="470" viewBox="0 0 293 470" fill="none" xmlns="http://www.w3.org/2000/svg"><path fill-rule="evenodd" clip-rule="evenodd" d="M150.778 7.05A5.005 5.005 0 00146 .572a5 5 0 00-4.939 5.785L20.288 71.483l.173.32H8.323a3.5 3.5 0 00-2.959 1.63L.158 81.665l.117.074A1.99 1.99 0 000 82.752v385.237a2 2 0 002 2h280.058a2 2 0 00.682-.119l.05.075 8.418-5.56a3.5 3.5 0 001.571-2.921V75.303a3.5 3.5 0 00-3.5-3.5h-17.746l.172-.324L150.778 7.05zm-8.377 1.993a4.985 4.985 0 003.599 1.53 4.98 4.98 0 003.055-1.042l116.878 62.272H26.015l116.386-62.76zM4.286 80.752h277.622l5.949-5.95H8.323a.5.5 0 00-.423.234l-3.614 5.716zm279.772 2.093v382.667l5.497-3.63a.502.502 0 00.224-.418V77.124l-5.721 5.72zM3 466.989V83.752h278.058v383.237H3zm15-362.417v342h248v-342H18zm-1-3a2 2 0 00-2 2v344a2 2 0 002 2h250a2 2 0 002-2v-344a2 2 0 00-2-2H17z" fill="#000"/></svg>