<svg width="265" height="258" viewBox="0 0 265 258" fill="none" xmlns="http://www.w3.org/2000/svg"><path fill-rule="evenodd" clip-rule="evenodd" d="M62.21 19.093c-1.533-.287-2.81.49-3.13 1.907l-1.201 5.323.08.038c-.001.064 0 .13.005.197l11.517 165.111c.076 1.102 1.019 2.16 2.104 2.364l48.835 9.157.928 13.304c.013.197-.088.354-.259.401l-6.09 1.676 1.394 2.958 6.09-1.676c1.199-.33 1.909-1.429 1.813-2.806l-.928-13.304 74.995 14.063c.471.088.891.002 1.21-.215l.126.233 4.67-1.727c1.077-.398 1.692-1.452 1.601-2.741l-11.725-166.06c-.136-1.928-1.785-3.778-3.684-4.134L62.211 19.093zm137.843 195.118l2.74-1.013c.154-.057.242-.208.229-.392L191.409 48.348l-2.792 2.358c.029.12.048.24.056.362l11.38 163.143zM185.928 48.584l3.233-2.731L62.419 22.086c-.22-.041-.401.07-.447.272l-.646 2.861 124.602 23.365zM123.16 200.75l74.012 13.879-11.378-163.116L60.982 28.108 72.36 191.225l47.852 8.973-10.68-153.123 2.948.553 10.68 153.122z" fill="#000"/><path d="M59.438 26.834c-.02-.275.185-.457.457-.407l126.778 23.774a.68.68 0 01.526.59l11.516 165.112c.022.309-.184.458-.424.413-15.314-2.865-68.875-12.844-79.785-14.877-1.928-.359-3.309.958-3.167 2.869l1.069 14.378c.029.384-.363.55-.705.297l-32.179-23.766a4.286 4.286 0 00-1.75-.783l-10.293-1.902a.683.683 0 01-.527-.592L59.438 26.834z" fill="#C9E6E3" stroke="#000" stroke-width="3"/><path d="M75.317 62.702l-.937-12.926 3.18.483c.77.117 1.391.353 1.866.71.484.346.85.802 1.1 1.366.25.564.402 1.224.457 1.979.049.68-.03 1.253-.236 1.716a1.86 1.86 0 01-.96 1.006c-.444.196-1.014.24-1.71.135l-1.408-.213.436 6.016-1.788-.272zm1.258-7.037l.822.125c.517.078.919.081 1.206.01a.81.81 0 00.589-.511c.105-.279.138-.684.1-1.216-.046-.617-.127-1.098-.246-1.442-.109-.343-.31-.6-.604-.77-.294-.171-.741-.302-1.342-.393l-.839-.128.314 4.325zm6.343 8.191L81.98 50.93l4.968.754.097 1.34-3.18-.482.31 4.277 2.579.391.092 1.277-2.578-.392.344 4.74 3.21.487.095 1.293-5-.759zm6.442.978l-.938-12.926 5.505.836.095 1.308-3.717-.564.295 4.07.395.06c.928.14 1.701.368 2.318.682a3.261 3.261 0 011.443 1.34c.345.589.554 1.378.625 2.368.049.67.011 1.232-.112 1.687-.124.444-.344.795-.659 1.052-.305.259-.704.424-1.2.497-.486.063-1.076.041-1.772-.064l-2.278-.346zm1.694-1.021l.506.076c.527.08.955.088 1.284.022.339-.075.574-.281.706-.619.143-.336.189-.855.138-1.557-.064-.883-.279-1.537-.643-1.96-.354-.422-.985-.702-1.892-.84l-.458-.07.359 4.948zm5.331 2.087l2.268-5.4c-.588-.342-1.077-.832-1.467-1.47-.381-.647-.605-1.433-.672-2.358-.05-.692.032-1.284.247-1.778.213-.504.604-.866 1.172-1.085.569-.218 1.348-.253 2.34-.102l2.594.394.938 12.926-1.788-.272-.389-5.362-1.012-.153-.206-.032a4.212 4.212 0 00-.207-.047l-1.824 5.042-1.994-.303zm4.485-5.9l.664.1-.361-4.978-.712-.108c-.801-.122-1.395-.038-1.78.25-.376.29-.534.84-.475 1.648.066.915.3 1.624.701 2.127.402.503 1.056.823 1.963.96zm6.334 7.543l-.84-11.586-2.167-.329-.097-1.34 6.058.92.097 1.34-2.103-.32.84 11.586-1.788-.271zm4.431.672l1.783-12.513 1.724.262 3.675 13.341-1.693-.257-.821-3.344-2.61-.396-.381 3.162-1.677-.255zm2.201-4.164l2.136.325-1.499-5.988-.637 5.663zM76.62 80.655l-.938-12.926 7.055 1.071.938 12.926-1.788-.271-.844-11.634-3.48-.528.844 11.634-1.787-.272zm9.052 1.374l-.937-12.926 3.18.483c.77.117 1.391.353 1.865.71.484.346.851.802 1.1 1.366.25.564.403 1.223.457 1.979.05.68-.029 1.253-.235 1.716-.196.465-.516.8-.96 1.006-.444.196-1.015.24-1.71.135l-1.409-.214.437 6.017-1.788-.272zm1.258-7.037l.822.125c.517.078.919.081 1.206.01a.81.81 0 00.588-.511c.105-.279.138-.684.1-1.216-.045-.617-.127-1.098-.246-1.442a1.307 1.307 0 00-.603-.77c-.294-.171-.742-.302-1.343-.394l-.838-.127.314 4.325zm9.627 8.832c-.864-.132-1.567-.407-2.109-.825a3.81 3.81 0 01-1.212-1.62c-.268-.673-.433-1.434-.495-2.285l-.355-4.9c-.062-.85-.004-1.562.174-2.135.187-.582.522-.994 1.005-1.236.493-.252 1.172-.312 2.037-.18.864.13 1.562.4 2.092.806.53.407.928.93 1.193 1.57.276.642.445 1.388.507 2.24l.356 4.914c.061.84-.002 1.557-.188 2.15-.176.594-.504 1.028-.985 1.302-.482.264-1.155.33-2.02.199zm-.103-1.42c.475.072.827.03 1.055-.124.228-.166.372-.418.43-.756a5.3 5.3 0 00.036-1.241l-.411-5.665a5.65 5.65 0 00-.216-1.248 1.794 1.794 0 00-.548-.873c-.257-.228-.622-.378-1.097-.45-.474-.072-.831-.032-1.07.121-.23.144-.374.385-.433.724-.06.327-.072.73-.037 1.21l.41 5.664c.035.48.108.906.219 1.28.11.364.293.666.55.905.267.23.638.38 1.112.453zm5.346 2.074l-.938-12.926 4.873.74.097 1.34-3.085-.469.84 11.586-1.787-.271zm6.102.926l-.938-12.926 3.18.482c.77.117 1.392.354 1.866.71.484.347.851.802 1.101 1.366.249.564.401 1.224.456 1.98.049.68-.029 1.252-.235 1.715-.196.465-.516.8-.96 1.007-.445.195-1.015.24-1.711.135l-1.408-.214.436 6.016-1.787-.271zm1.257-7.038l.823.125c.517.079.918.082 1.205.01a.81.81 0 00.589-.51c.105-.28.138-.685.1-1.217-.045-.617-.127-1.097-.246-1.442a1.31 1.31 0 00-.603-.77c-.294-.17-.742-.302-1.343-.393l-.838-.127.313 4.324zm6.343 8.192l-.937-12.927 4.967.754.097 1.34-3.179-.482.31 4.277 2.578.392.093 1.276-2.579-.391.344 4.74 3.211.487.094 1.292-4.999-.758zm9.664 1.608c-.907-.137-1.628-.436-2.162-.896a4.091 4.091 0 01-1.156-1.706 8.563 8.563 0 01-.442-2.214l-.331-4.564c-.063-.872-.024-1.618.119-2.239.153-.618.465-1.065.935-1.341.48-.285 1.174-.359 2.081-.22.801.12 1.445.366 1.93.734.497.37.865.847 1.105 1.43.251.586.405 1.266.461 2.043l.075 1.022-1.693-.258-.066-.91a9.437 9.437 0 00-.171-1.272c-.069-.379-.216-.685-.442-.92-.225-.233-.586-.388-1.082-.463-.506-.077-.867-.021-1.083.167-.216.177-.347.463-.391.856-.035.384-.033.842.006 1.374l.371 5.122c.047.65.137 1.173.271 1.572.132.389.325.68.579.877.255.197.587.326.999.389.485.073.825.02 1.02-.161.195-.191.305-.475.33-.85a9.733 9.733 0 00-.018-1.328l-.07-.958 1.693.257.069.958c.058.787.013 1.47-.133 2.047-.146.567-.439.986-.879 1.255-.44.26-1.082.326-1.925.198zm8.141 1.236c-.907-.137-1.627-.436-2.161-.896a4.084 4.084 0 01-1.157-1.706 8.563 8.563 0 01-.442-2.214l-.331-4.564c-.063-.872-.024-1.619.119-2.239.154-.618.465-1.066.935-1.341.48-.285 1.174-.359 2.081-.221.801.121 1.445.367 1.931.735.496.37.864.847 1.105 1.43.251.585.404 1.266.461 2.043l.074 1.021-1.693-.257-.066-.91a9.611 9.611 0 00-.17-1.272c-.07-.379-.217-.685-.443-.92-.225-.233-.586-.388-1.081-.463-.507-.077-.868-.022-1.083.167-.217.177-.348.462-.392.856-.035.384-.033.842.006 1.374l.371 5.122c.047.649.137 1.173.271 1.572.132.388.325.68.58.877.254.197.586.326.998.388.485.074.825.02 1.021-.16.194-.192.304-.475.329-.85a9.733 9.733 0 00-.018-1.328l-.069-.958 1.692.257.07.958c.057.787.012 1.47-.134 2.047-.146.567-.439.985-.878 1.255-.441.26-1.082.325-1.926.197zm4.919.605l-.937-12.926 1.582.24.649 8.953 3.1-8.384 1.281.195.938 12.926-1.566-.238-.66-9.096-3.058 8.532-1.329-.202zm8.62 1.308l-.937-12.926 2.942.447a5.92 5.92 0 011.517.42 3.54 3.54 0 011.118.753c.304.31.54.682.707 1.118.167.425.27.914.31 1.467.039.532.004.985-.105 1.357-.099.364-.277.637-.535.819-.248.183-.58.275-.997.275.525.195.956.46 1.294.796.336.324.594.721.774 1.19.19.46.307 1 .352 1.616a5.29 5.29 0 01-.08 1.487c-.093.439-.265.797-.516 1.074-.241.28-.565.477-.974.594-.399.108-.883.119-1.453.032l-3.417-.519zm1.694-1.02l1.202.182c.802.121 1.321.016 1.558-.316.246-.342.339-.933.278-1.773-.04-.543-.146-1.006-.32-1.39a2.086 2.086 0 00-.74-.933c-.32-.238-.744-.397-1.271-.477l-1.06-.161.353 4.867zm-.452-6.24l1.059.16c.507.077.897.068 1.172-.027.274-.106.457-.31.55-.61.093-.302.121-.708.084-1.22-.043-.595-.164-1.04-.363-1.333-.199-.293-.49-.5-.874-.622-.385-.132-.884-.244-1.495-.337l-.427-.065.294 4.054zm7.054 8.52l-.938-12.926 1.788.271.405 5.585 3.29.5-.405-5.585 1.788.27.937 12.927-1.787-.272-.439-6.048-3.29-.499.439 6.048-1.788-.271zm8.867 1.346l-.937-12.926 1.787.271.39 5.378.506.077c.928.14 1.701.368 2.318.683a3.26 3.26 0 011.427 1.337c.345.59.554 1.378.626 2.368.048.67.011 1.233-.113 1.687-.124.444-.344.795-.659 1.052-.304.26-.704.425-1.2.497-.485.063-1.076.042-1.772-.064l-2.373-.36zm1.694-1.022l.585.09c.538.081.971.089 1.3.023.339-.075.58-.28.722-.616.143-.336.189-.856.138-1.558-.064-.883-.279-1.536-.643-1.96-.365-.423-1-.704-1.907-.841l-.554-.085.359 4.948zm6.026 2.194l-.938-12.927 1.788.272.937 12.926-1.787-.271zm3.789.575l-.938-12.926 4.968.754.097 1.34-3.18-.483.31 4.277 2.579.392.092 1.276-2.578-.391.344 4.74 3.211.487.094 1.293-4.999-.76zm-97.596 2.94l-.938-12.926 1.582.24.65 8.953 3.1-8.384 1.28.195.938 12.926-1.566-.238-.66-9.096-3.057 8.532-1.33-.202zm12.235 1.857l-.938-12.926 7.055 1.071.938 12.926-1.788-.271-.844-11.633-3.48-.529.844 11.634-1.787-.272zm9.052 1.374l-.937-12.926 3.179.483c.77.117 1.392.353 1.866.71.485.347.851.802 1.101 1.366.249.564.401 1.224.456 1.979.05.68-.029 1.253-.235 1.716-.196.465-.516.8-.96 1.007-.444.195-1.015.24-1.711.134l-1.408-.213.437 6.016-1.788-.272zm1.258-7.037l.822.125c.517.078.919.081 1.205.01a.808.808 0 00.589-.511c.105-.279.138-.684.1-1.216-.045-.617-.127-1.098-.246-1.442a1.311 1.311 0 00-.603-.77c-.294-.171-.742-.302-1.343-.393l-.838-.128.314 4.325zm6.343 8.191l-.938-12.926 4.967.754.097 1.34-3.179-.482.31 4.277 2.578.391.093 1.277-2.578-.392.343 4.74 3.212.487.093 1.293-4.998-.759zm6.441.978l-.937-12.926 1.787.271.417 5.745.664.101 1.878-5.397 1.787.272-2.085 5.76 3.339 7.214-1.788-.272-3.051-6.697-.68-.103.457 6.303-1.788-.271zm8.033 1.219l-.937-12.926 3.179.483c.77.117 1.392.353 1.867.71.484.347.851.802 1.1 1.366.25.564.402 1.224.456 1.979.05.68-.029 1.253-.235 1.716-.196.465-.515.8-.959 1.006-.445.196-1.016.24-1.712.135l-1.407-.214.436 6.017-1.788-.272zm1.258-7.037l.822.125c.517.078.919.081 1.206.01a.806.806 0 00.588-.511c.105-.279.139-.684.1-1.216-.045-.617-.127-1.098-.245-1.442-.109-.343-.31-.6-.604-.77-.294-.171-.741-.302-1.342-.393l-.839-.128.314 4.325zm5.461 8.057l1.784-12.513 1.724.262 3.674 13.342-1.692-.257-.822-3.345-2.61-.396-.381 3.162-1.677-.255zm2.202-4.164l2.135.325-1.498-5.988-.637 5.663zm9.502 6.083c-.907-.138-1.627-.436-2.161-.896a4.087 4.087 0 01-1.157-1.707 8.56 8.56 0 01-.442-2.213l-.331-4.564c-.063-.873-.024-1.619.119-2.24.154-.618.465-1.065.935-1.34.48-.285 1.174-.36 2.081-.221.801.121 1.445.366 1.931.735.496.37.864.846 1.105 1.43.251.585.404 1.266.461 2.043l.074 1.021-1.693-.257-.066-.91a9.609 9.609 0 00-.17-1.272c-.07-.379-.217-.686-.443-.92-.225-.234-.586-.388-1.081-.464-.507-.077-.868-.02-1.083.167-.217.178-.348.463-.392.856-.035.384-.033.842.006 1.374l.371 5.123c.047.649.137 1.173.271 1.572.132.388.325.68.58.877.254.196.586.326.998.388.485.074.825.02 1.021-.161.194-.191.304-.474.329-.849a9.742 9.742 0 00-.018-1.329l-.069-.957 1.692.257.07.957c.057.788.012 1.47-.134 2.048-.146.567-.439.985-.878 1.255-.441.259-1.082.325-1.926.197zm4.919.605l-.937-12.926 1.787.271.405 5.585 3.291.5-.405-5.586 1.787.272.938 12.926-1.788-.272-.438-6.048-3.291-.499.439 6.048-1.788-.271zm12.152 1.986c-.864-.131-1.567-.406-2.109-.825a3.813 3.813 0 01-1.212-1.62c-.268-.672-.433-1.434-.495-2.285l-.355-4.899c-.062-.851-.004-1.563.174-2.136.187-.581.522-.994 1.005-1.236.493-.251 1.172-.311 2.036-.18.865.131 1.563.4 2.093.807.53.406.928.93 1.193 1.57.276.641.445 1.388.507 2.239l.356 4.915c.061.84-.002 1.557-.188 2.149-.176.594-.504 1.029-.985 1.303-.482.263-1.155.33-2.02.198zm-.103-1.42c.475.072.827.031 1.055-.124.228-.165.372-.417.43-.755.059-.349.07-.763.036-1.242l-.411-5.665a5.657 5.657 0 00-.216-1.248 1.8 1.8 0 00-.548-.872c-.257-.229-.622-.379-1.097-.45-.474-.073-.831-.032-1.07.12-.23.145-.374.386-.433.724-.06.328-.072.731-.037 1.21l.411 5.665c.034.479.107.905.218 1.28.109.364.293.665.55.904.267.23.638.381 1.112.453zm-74.64 7.83c-.697-.106-1.286-.327-1.77-.664a3.447 3.447 0 01-1.127-1.307c-.268-.535-.427-1.143-.477-1.824l-.03-.431 1.676.254.017.24c.006.074.016.144.031.21.061.556.2 1.024.415 1.404.215.38.602.612 1.161.697.412.063.716.014.913-.145.196-.17.318-.425.367-.765a6.05 6.05 0 00.02-1.228c-.048-.67-.237-1.251-.564-1.743-.328-.492-.905-.827-1.732-1.005a.762.762 0 00-.159-.04l-.174-.026-.158-.024-.1-1.372a15.429 15.429 0 01.317.048c.062-.001.11 0 .141.005.808.07 1.352-.058 1.63-.384.289-.334.409-.842.36-1.523-.043-.585-.193-1.071-.45-1.457-.248-.396-.662-.637-1.242-.725-.56-.085-.947.035-1.163.36-.217.314-.326.755-.326 1.323l.015.208.015.207-1.693-.257-.031-.431c-.05-.691.033-1.263.25-1.714.218-.45.56-.772 1.026-.964.466-.193 1.047-.236 1.743-.13.706.107 1.312.336 1.817.686.515.341.918.781 1.207 1.319.3.53.474 1.14.524 1.832.056.776-.067 1.384-.369 1.822-.291.44-.71.697-1.258.772.39.185.73.437 1.025.755.294.318.531.706.71 1.165.179.448.29.965.332 1.55.055.766-.002 1.42-.17 1.962-.17.532-.477.917-.918 1.155-.442.238-1.042.3-1.802.185zm4.79.585l-.938-12.926 1.787.271.405 5.585 3.29.5-.404-5.586 1.787.272.938 12.926-1.788-.272-.439-6.048-3.29-.499.439 6.048-1.788-.271zm8.17 1.24l1.784-12.513 1.724.262 3.674 13.341-1.692-.257-.822-3.344-2.61-.396-.38 3.162-1.677-.255zm2.202-4.164l2.135.324-1.498-5.988-.637 5.664zm12.666 6.563c-.823-.125-1.484-.394-1.983-.806-.5-.423-.873-.969-1.12-1.638-.236-.667-.385-1.426-.447-2.277l-.133-1.835-1.455-.221.429 5.92-1.677-.254-.937-12.927 1.677.255.408 5.633 1.456.221-.117-1.612c-.063-.861-.022-1.586.123-2.175.156-.586.459-1.008.91-1.266.45-.258 1.087-.324 1.91-.2.822.125 1.478.393 1.967.804.498.402.87.927 1.115 1.574s.399 1.397.46 2.248l.35 4.819c.061.841.014 1.565-.14 2.173-.154.608-.455 1.051-.905 1.33-.438.281-1.069.359-1.891.234zm-.103-1.42c.453.068.789.025 1.007-.132.217-.167.356-.419.414-.757.059-.349.07-.763.036-1.242l-.411-5.665a5.657 5.657 0 00-.216-1.248c-.11-.364-.287-.654-.532-.87-.246-.227-.596-.374-1.049-.443-.454-.069-.795-.026-1.024.129-.219.145-.357.387-.416.725-.06.328-.073.731-.038 1.21l.411 5.665c.035.479.107.905.218 1.28.11.364.288.664.535.902.256.228.611.377 1.065.446zm14.97 5.855l-.313-2.368-9.57-1.453-.937-12.926 1.787.272.844 11.633 2.309.351-.843-11.634 1.787.272.844 11.633 2.199.334-.844-11.634 1.803.274.844 11.634 1.218.184.264 3.639-1.392-.211zm2.615-1.924l-.938-12.926 1.582.241.649 8.952 3.1-8.383 1.281.194.938 12.926-1.566-.238-.66-9.096-3.058 8.532-1.328-.202zm8.62 1.309l-.938-12.926 4.967.754.097 1.34-3.179-.482.31 4.277 2.578.391.093 1.277-2.578-.392.343 4.74 3.212.487.093 1.293-4.998-.759zm13.278 2.158c-.907-.138-1.628-.437-2.162-.897a4.091 4.091 0 01-1.156-1.706 8.568 8.568 0 01-.442-2.214l-.331-4.564c-.063-.872-.024-1.618.119-2.238.153-.619.465-1.066.935-1.342.48-.285 1.174-.358 2.081-.221.801.122 1.445.367 1.93.735.497.37.865.847 1.105 1.431.251.585.405 1.266.462 2.042l.074 1.022-1.693-.257-.066-.91a9.44 9.44 0 00-.171-1.273c-.069-.378-.216-.685-.442-.919-.225-.234-.586-.389-1.082-.464-.506-.077-.867-.021-1.083.167-.216.178-.347.463-.391.856-.035.384-.033.842.006 1.374l.371 5.122c.047.649.137 1.173.271 1.572.132.389.325.681.58.878.254.196.586.325.998.388.485.073.825.02 1.021-.161.194-.191.304-.474.329-.849a9.742 9.742 0 00-.018-1.329l-.07-.957 1.693.256.07.958c.057.787.012 1.47-.134 2.047-.146.567-.439.986-.878 1.256-.441.259-1.082.325-1.926.197zm4.919.604l-.937-12.926 2.942.447c.58.088 1.086.228 1.517.42.441.193.814.444 1.118.753.304.31.54.682.707 1.118.167.425.27.914.31 1.467.038.532.004.984-.105 1.357-.099.364-.277.637-.535.819-.248.183-.58.275-.997.274.525.196.956.461 1.294.797.336.324.594.721.774 1.19.19.461.307.999.352 1.616.04.553.014 1.049-.08 1.487-.093.439-.265.797-.516 1.074-.241.279-.565.477-.974.594-.399.108-.883.118-1.453.032l-3.417-.519zm1.694-1.021l1.202.183c.802.121 1.321.016 1.558-.316.246-.342.339-.933.278-1.773-.04-.543-.146-1.006-.32-1.39a2.083 2.083 0 00-.741-.933c-.319-.238-.743-.397-1.27-.477l-1.06-.161.353 4.867zm-.452-6.24l1.059.161c.507.077.897.068 1.172-.027.274-.106.457-.309.55-.611.093-.301.121-.708.084-1.218-.044-.596-.164-1.04-.363-1.334-.199-.293-.49-.5-.874-.622-.385-.132-.884-.244-1.495-.337l-.427-.065.294 4.053zm10.339 9.161c-.865-.131-1.568-.406-2.109-.825a3.807 3.807 0 01-1.213-1.62c-.268-.672-.433-1.434-.494-2.285l-.356-4.899c-.061-.851-.004-1.563.174-2.136.187-.582.522-.994 1.005-1.236.493-.251 1.172-.311 2.037-.18s1.562.4 2.092.807c.53.406.928.93 1.193 1.57.276.641.445 1.388.507 2.239l.357 4.915c.06.84-.002 1.557-.189 2.149-.176.594-.504 1.029-.985 1.303-.481.263-1.154.33-2.019.198zm-.103-1.42c.474.072.826.031 1.055-.124.228-.165.371-.417.43-.755.058-.349.07-.763.035-1.242l-.411-5.665a5.657 5.657 0 00-.216-1.248 1.78 1.78 0 00-.548-.872c-.256-.229-.622-.379-1.096-.451-.475-.072-.832-.031-1.071.122-.229.144-.374.385-.433.723-.059.328-.072.731-.037 1.21l.411 5.665c.035.479.107.905.218 1.28.11.364.293.665.55.904.267.23.638.381 1.113.453zm5.345 2.074l-.937-12.926 4.967.754.097 1.34-3.18-.482.311 4.277 2.578.391.093 1.277-2.579-.392.344 4.74 3.211.487.094 1.293-4.999-.759zm-91.111 6.245l-.264-3.639.585.089a2.58 2.58 0 00.483-.463c.163-.186.307-.438.43-.756.133-.327.243-.752.33-1.275.086-.534.147-1.209.181-2.024a36.14 36.14 0 00.019-2.98l-.072-3.799 5.362.814.844 11.633 1.234.188.264 3.638-1.376-.209-.313-2.367-6.359-.966.028 2.325-1.376-.209zm1.982-3.298l4.145.629-.747-10.293-2.072-.314.085 2.901c.041 1.143.043 2.1.005 2.873-.028.764-.087 1.392-.176 1.883-.08.482-.188.871-.323 1.166-.125.286-.27.512-.435.676a8.914 8.914 0 01-.482.479zm8.588 2.582l-.938-12.926 4.967.754.097 1.341-3.18-.483.311 4.277 2.579.391.092 1.277-2.578-.392.344 4.74 3.21.487.094 1.293-4.998-.759zm5.477.832l-.098-1.341c.233.046.443.062.63.048a.746.746 0 00.5-.224c.146-.135.265-.364.357-.687.09-.323.157-.771.2-1.343a30.27 30.27 0 00.06-2.185l-.072-6.813 5.632.855.937 12.926-1.787-.271-.841-11.586-2.31-.35.102 5.492c.007.821-.007 1.561-.042 2.218a7.975 7.975 0 01-.254 1.682c-.123.466-.31.842-.56 1.131-.24.279-.56.456-.962.532-.401.076-.899.048-1.492-.084zm13.441 2.182c-.865-.131-1.568-.406-2.109-.825a3.807 3.807 0 01-1.213-1.62c-.268-.672-.432-1.434-.494-2.285l-.355-4.899c-.062-.851-.004-1.563.173-2.136.187-.582.523-.994 1.006-1.236.492-.252 1.171-.312 2.036-.18.865.131 1.562.4 2.092.806.53.407.928.93 1.194 1.57.276.642.444 1.388.506 2.24l.357 4.915c.061.84-.002 1.557-.189 2.149-.175.594-.504 1.028-.985 1.303-.481.263-1.154.329-2.019.198zm-.103-1.42c.475.072.826.03 1.055-.124.228-.166.371-.417.43-.756.058-.349.07-.762.035-1.241l-.411-5.665a5.603 5.603 0 00-.215-1.248 1.797 1.797 0 00-.549-.873c-.256-.228-.622-.378-1.096-.45-.475-.072-.832-.032-1.071.121-.229.145-.373.386-.432.724-.06.328-.073.731-.038 1.21l.411 5.665c.035.478.108.905.218 1.28.11.363.293.665.551.904.267.23.637.381 1.112.453zm25.604 51.982l.122-1.13a3.033 3.033 0 01-.175-.015 1.902 1.902 0 01-.166-.021 1.683 1.683 0 01-.739-.3 1.193 1.193 0 01-.4-.606c-.073-.261-.088-.591-.045-.989l.192-1.773c.043-.398.13-.712.262-.943.132-.231.304-.387.517-.468.218-.086.474-.103.768-.051.047.009.105.021.172.039.068.012.123.024.165.037l.128-1.185.607.107-.128 1.177c.048.003.111.012.19.026.085.009.148.018.19.025.289.051.527.155.713.312.186.157.316.372.388.644.078.268.096.598.053.99l-.192 1.774c-.043.398-.127.71-.253.936a.958.958 0 01-.498.447c-.202.078-.439.093-.712.045a3.45 3.45 0 01-.22-.047l-.211-.054-.122 1.13-.606-.107zm-.122-1.546l.134.024c.058.005.109.008.151.01l.468-4.318a.753.753 0 00-.156-.044l-.126-.022c-.216-.038-.391-.023-.527.044-.131.069-.235.197-.314.383a2.887 2.887 0 00-.16.733l-.192 1.774a3.11 3.11 0 00-.008.744.774.774 0 00.216.452c.117.107.288.18.514.22zm1.205.213c.216.038.388.025.518-.038.135-.063.237-.183.304-.36a2.69 2.69 0 00.158-.718l.192-1.773a3.02 3.02 0 00.002-.762c-.026-.204-.097-.363-.213-.475-.117-.113-.288-.189-.514-.229a1.866 1.866 0 00-.142-.017 1.243 1.243 0 00-.151-.018l-.467 4.319.156.043.157.028zm1.921 1.474l2.045-6.204.63.111.658 6.682-.591-.105-.129-1.781-1.52-.269-.51 1.669-.583-.103zm1.227-1.988l1.355.239-.301-3.595-1.054 3.356zm2.866 2.711l.698-6.443 2.56.453-.049.453-1.954-.345-.243 2.251.512.09c.42.074.757.201 1.01.381.26.176.44.413.541.712.102.299.128.674.079 1.124a2.627 2.627 0 01-.186.762c-.093.216-.222.39-.386.523a1.264 1.264 0 01-.599.267 2.5 2.5 0 01-.84-.026l-1.143-.202zm.657-.354l.544.096c.294.052.532.048.715-.012a.755.755 0 00.435-.385c.107-.192.178-.452.213-.781.051-.467 0-.835-.153-1.105-.147-.275-.451-.453-.914-.534l-.535-.095-.305 2.816zm3.121 1.021l.697-6.442 1.529.269c.383.068.677.193.882.375.206.182.339.408.401.679.067.271.082.579.044.923a2.23 2.23 0 01-.241.817 1.145 1.145 0 01-.547.528c-.237.115-.537.14-.899.076l-.937-.166-.33 3.047-.599-.106zm.978-3.394l.764.135c.257.045.469.045.634-.001a.655.655 0 00.397-.328c.093-.167.156-.404.189-.712.036-.329.032-.589-.012-.78a.66.66 0 00-.289-.44c-.144-.101-.358-.177-.642-.227l-.772-.136-.269 2.489zm2.822 4.065l.698-6.442.535.094-.552 5.106 2.617-4.741.464.082-.697 6.442-.536-.095.556-5.13-2.612 4.767-.473-.083zm4.17.736l.698-6.442.606.107-.32 2.959.449.079 1.628-2.728.607.107-1.723 2.857 1.238 3.623-.607-.107-1.17-3.424-.457-.081-.342 3.157-.607-.107zm3.478.614l2.044-6.204.63.111.658 6.682-.591-.105-.128-1.781-1.521-.269-.509 1.669-.583-.103zm1.226-1.988l1.355.239-.301-3.595-1.054 3.356zm4.427 2.987l.855-6.415.599.106.655 5.814 1.89-5.365.598.106-.539 6.47-.497-.088.429-5.152-1.776 4.915-.386-.069-.651-5.335-.68 5.1-.497-.087zm5.11.902l.697-6.443 2.309.408-.051.469-1.702-.3-.262 2.418 1.387.245-.048.445-1.387-.245-.287 2.657 1.717.303-.049.453-2.324-.41zm3.139.554l.697-6.442 2.561.452-.049.453-1.954-.345-.244 2.251.512.09c.42.075.757.202 1.011.382.259.175.439.412.541.711.101.299.128.674.079 1.125a2.66 2.66 0 01-.187.761c-.093.216-.221.39-.386.523a1.251 1.251 0 01-.599.268c-.234.039-.514.03-.84-.027l-1.142-.202zm.656-.354l.544.096c.294.052.533.048.716-.011a.756.756 0 00.435-.386c.106-.192.177-.452.213-.781.05-.466-.001-.835-.153-1.105-.147-.274-.452-.452-.914-.534l-.536-.095-.305 2.816zm3.114 1.02l.697-6.443 2.308.408-.05.469-1.702-.3-.262 2.418 1.387.244-.049.446-1.386-.245-.288 2.657 1.718.303-.049.453-2.324-.41zm2.712.487l.05-.461c.153.021.284.028.391.02a.438.438 0 00.282-.153c.084-.088.163-.241.235-.461.077-.219.158-.523.243-.914.09-.389.193-.89.307-1.502l.49-2.75 2.482.438-.697 6.443-.607-.107.647-5.982-1.339-.236-.401 2.296a50.487 50.487 0 01-.31 1.534 7.728 7.728 0 01-.28 1.028c-.098.264-.214.465-.347.604a.78.78 0 01-.467.242 2.103 2.103 0 01-.679-.039zm4.889.855l.697-6.442.536.094-.553 5.106 2.617-4.741.465.082-.698 6.442-.535-.094.555-5.131-2.611 4.767-.473-.083zm-20.084-.385l.036-.334.036-.334c.036-.329.103-.579.202-.751.104-.176.27-.274.497-.293l.112.222a.462.462 0 00-.322.235c-.061.114-.104.29-.129.529l.323.057-.086.787-.669-.118zm1.063.188l.036-.335.037-.334c.035-.328.102-.579.201-.75.105-.176.271-.274.498-.293l.112.222a.466.466 0 00-.323.235c-.06.114-.103.29-.129.528l.323.057-.085.788-.67-.118zm1.142 5.146l.698-6.443 3.261.576-.697 6.442-.599-.105.648-5.989-2.064-.365-.648 5.989-.599-.105zm4.023.71l2.045-6.205.63.112.658 6.681-.591-.104-.128-1.781-1.521-.269-.51 1.669-.583-.103zm1.227-1.988l1.355.239-.301-3.595-1.054 3.356zm2.867 2.711l.697-6.443.607.107-.309 2.856 2.008.355.309-2.856.599.106-.697 6.442-.599-.105.339-3.134-2.009-.355-.339 3.134-.606-.107zm3.731 1.785l.169-1.559.252.045c.107-.051.207-.112.301-.182.098-.069.19-.175.275-.316.09-.141.178-.339.265-.594.092-.259.188-.601.287-1.027.1-.426.206-.961.319-1.605l.367-2.059 2.403.424-.648 5.989.52.092-.169 1.559-.473-.084.065-1.115-3.285-.58-.175 1.096-.473-.084zm1.027-1.407l2.364.417.598-5.527-1.276-.226-.308 1.737c-.107.641-.21 1.168-.308 1.583-.098.41-.19.739-.276.989a2.45 2.45 0 01-.261.562c-.084.131-.17.229-.257.295-.087.06-.179.117-.276.17zm3.858 1.143l2.045-6.204.63.111.658 6.682-.591-.105-.129-1.781-1.52-.269-.51 1.669-.583-.103zm1.227-1.988l1.355.239-.301-3.595-1.054 3.356zm2.897-1.993l-.119-.24c.154-.032.261-.105.321-.219.061-.113.104-.292.13-.536l-.315-.056.086-.787.661.117-.036.334-.036.334c-.036.329-.103.582-.203.759-.098.171-.262.269-.489.294zm1.064.188l-.119-.24c.153-.032.26-.105.321-.219.06-.113.104-.292.13-.536l-.315-.056.085-.787.662.117a351.025 351.025 0 00-.072.668c-.036.329-.104.581-.203.758-.099.172-.262.27-.489.295z" fill="#000"/></svg>