<svg version="1.1" id="Capa_1" xmlns="http://www.w3.org/2000/svg" x="0" y="0" viewBox="0 0 74.321 74.321" xml:space="preserve"><path d="M68.412 9.371c-.03-.14-.043-.285-.076-.424l-.067.017v-.001C67.16 4.4 64.176 1.566 60.48 1.566c-1.831 0-2.72-.04-3.661-.083a71.16 71.16 0 00-3.752-.085c-1.85 0-2.775-.005-3.701-.01-.928-.006-1.856-.011-3.712-.011-1.767 0-2.627-.146-3.537-.3C41.166.916 40.182.75 38.246.75c-1.865 0-2.797.023-3.73.047-.92.022-1.84.046-3.68.046-1.88 0-2.836.055-3.76.107-.938.053-1.824.104-3.647.104-1.928 0-2.908.152-3.856.299-.913.142-1.775.275-3.549.275-1.756 0-2.609-.165-3.513-.339-.957-.185-1.945-.375-3.892-.375-2.277 0-4.274 1.534-6.106 4.689l-.121.209C1.327 7.645 0 9.927 0 12.676c0 1.854.091 2.798.178 3.709.087.904.169 1.759.169 3.518 0 1.843.068 2.779.133 3.685.066.91.128 1.771.128 3.54 0 1.755-.085 2.608-.175 3.511a32.205 32.205 0 00-.185 3.711c0 1.851.085 2.791.166 3.7.081.906.158 1.762.158 3.522 0 1.761-.077 2.616-.159 3.521-.082.91-.166 1.851-.166 3.7 0 1.788-.03 2.682-.059 3.576-.03.91-.061 1.821-.061 3.643 0 2.724 1.157 5.017 2.241 6.952 1.413 2.522 3.31 3.914 5.558 4.132.068.053.157.103.255.147l-.043.274c.147.022.301.026.449.026 1.169 3.559 3.673 6.025 6.579 6.025h51.861c4.027 0 7.293-4.714 7.293-10.534V19.698c.001-5.137-2.544-9.399-5.908-10.327zM4.113 61.988c-1.005-1.795-1.986-3.733-1.986-5.976 0-1.788.03-2.682.06-3.576.03-.91.061-1.821.061-3.643 0-1.76.077-2.615.159-3.521.082-.91.166-1.851.166-3.701 0-1.851-.084-2.791-.166-3.7-.081-.906-.158-1.762-.158-3.523 0-1.756.085-2.609.175-3.512.091-.912.185-1.855.185-3.71 0-1.842-.068-2.778-.133-3.685a41.734 41.734 0 01-.128-3.541c0-1.854-.091-2.798-.178-3.709A30.9 30.9 0 012 12.676c0-2.21 1.127-4.148 2.121-5.857l.122-.21c1.463-2.52 2.854-3.694 4.377-3.694 1.756 0 2.609.165 3.513.339.956.185 1.945.375 3.892.375 1.928 0 2.908-.152 3.856-.299.913-.142 1.775-.275 3.549-.275 1.88 0 2.836-.055 3.76-.107a55.052 55.052 0 013.647-.103c1.865 0 2.797-.023 3.73-.047.92-.023 1.84-.046 3.68-.046 1.768 0 2.627.146 3.537.3.951.161 1.935.327 3.871.327 1.851 0 2.776.005 3.701.01.928.006 1.855.011 3.711.011 1.83 0 2.719.04 3.661.083a71.16 71.16 0 003.752.085c2.726 0 4.966 2.249 5.845 5.868.237.981.358 2.072.358 3.241 0 1.787-.031 2.681-.062 3.575-.032.91-.063 1.821-.063 3.644 0 1.83.045 2.76.089 3.66.044.915.086 1.78.086 3.562 0 1.794-.021 2.691-.043 3.587-.022.909-.044 1.818-.044 3.636 0 1.352.057 2.219.128 2.944v15.683c-.117.747-.212 1.64-.212 3.047 0 2.45-.498 4.601-1.439 6.22-.492.846-1.032 1.557-1.6 2.12-.902.759-1.94 1.194-3.043 1.194H34.354c-.85-.15-1.815-.286-3.502-.286-1.895 0-2.858.083-3.789.163-.553.048-1.092.094-1.814.123h-3.641c-.708-.028-1.241-.072-1.787-.117-.931-.076-1.895-.156-3.789-.156-1.862 0-2.793.017-3.724.033-.865.016-1.73.031-3.357.033a1.358 1.358 0 00-.571-.211c-1.771-.11-3.127-1.109-4.267-3.143z"/><path d="M25.957 32.09c1.287.345 2.556.463 3.683.509.094.214.181.427.265.645a1202.62 1202.62 0 01-.088 7.836c-.046 3.444-.092 6.884-.101 10.328-.002 1.31.613 3.52.695 3.765.153.454.481.818.923 1.025a5.963 5.963 0 001.753.499c.022.01.044.021.066.028l.655.177c.482.072 1.015.023 1.607-.14l.187-.008c.32-.012.636-.023.945-.025a1.689 1.689 0 001.446-.813c.241-.389.34-.866.292-1.333.194-.454.287-.949.345-1.453.069-.139.117-.302.117-.494.012-6.496.517-12.971.59-19.471.691.024 1.383.028 2.088-.028a1.7 1.7 0 001.088-.509c.401-.149.739-.428.945-.801.264-.477.295-1.042.083-1.596-.666-1.736-1.542-3.37-2.39-4.952a69.673 69.673 0 01-1.407-2.714c-1.302-2.694-2.647-5.272-4.763-7.264-.829-.777-2.163-.509-2.74.442a1.826 1.826 0 00-.476.621c-.845 1.793-1.913 3.518-2.947 5.183-1.558 2.511-3.168 5.105-4.143 8.107-.154.479-.108.999.128 1.465.255.489.675.843 1.154.971zm4.5-9.377c1.065-1.718 2.168-3.492 2.966-5.288l.268-.54c1.86 1.75 3.055 4.048 4.313 6.647.454.944.951 1.871 1.447 2.796.744 1.388 1.511 2.82 2.109 4.28l-.028-.001-.254.427c-.814.065-1.617.041-2.416-.009a1.02 1.02 0 00-.842-.054c-.078-.009-.157-.009-.234-.017.001.053.003.104.003.158-.225.17-.389.435-.39.82-.009 5.472-.37 10.926-.53 16.389-.097.922-.125 1.8-.05 2.599-.009.581-.033 1.162-.034 1.747 0 .13.032.235.064.34a3.212 3.212 0 01-.654 1.313s-4.5 1.57-4.992-1.091c-.589-3.182.175-6.427.554-9.662.01-.82.013-1.639.023-2.457.038-2.688.072-5.374.091-8.06v-.207l-.071-.191c-.156-.421-.171-2.184-.171-2.184-1.15-.024-3.783-.055-5.022-.339.899-2.657 2.333-4.971 3.85-7.416z"/></svg>