<svg width="492" height="664" viewBox="0 0 492 664" fill="none" xmlns="http://www.w3.org/2000/svg"><path d="M90 540.619v-16.2h2.26v7h4.16v-7h2.26v16.2h-2.26v-7.58h-4.16v7.58H90zm12.99 0v-14.52h-2.74v-1.68h7.66v1.68h-2.66v14.52h-2.26zm8.262 0v-14.52h-2.74v-1.68h7.66v1.68h-2.66v14.52h-2.26zm6.482 0v-16.2h4.02c.973 0 1.746.18 2.32.54.586.347 1.013.854 1.28 1.52.266.667.4 1.474.4 2.42 0 .854-.154 1.594-.46 2.22a3.264 3.264 0 01-1.32 1.46c-.587.334-1.32.5-2.2.5h-1.78v7.54h-2.26zm2.26-9.16h1.04c.653 0 1.166-.073 1.54-.22.373-.146.64-.4.8-.76.16-.373.24-.893.24-1.56 0-.773-.06-1.366-.18-1.78-.107-.413-.34-.7-.7-.86-.36-.16-.92-.24-1.68-.24h-1.06v5.42zm11.169 9.34c-.933 0-1.713-.2-2.34-.6a3.804 3.804 0 01-1.4-1.66c-.32-.706-.507-1.526-.56-2.46l2-.54c.04.574.127 1.127.26 1.66.147.534.38.974.7 1.32.32.334.767.5 1.34.5.587 0 1.027-.16 1.32-.48.307-.333.46-.806.46-1.42 0-.733-.167-1.32-.5-1.76a9.027 9.027 0 00-1.26-1.36l-2.72-2.4c-.533-.466-.927-.973-1.18-1.52-.253-.56-.38-1.246-.38-2.06 0-1.186.34-2.106 1.02-2.76.68-.653 1.607-.98 2.78-.98.64 0 1.2.087 1.68.26.493.16.9.414 1.22.76.333.347.593.787.78 1.32.2.52.333 1.134.4 1.84l-1.92.52a7.766 7.766 0 00-.24-1.46c-.12-.453-.333-.813-.64-1.08-.293-.28-.72-.42-1.28-.42s-1 .154-1.32.46c-.307.294-.46.734-.46 1.32 0 .494.08.9.24 1.22.173.32.447.647.82.98l2.74 2.4a8.515 8.515 0 011.62 1.92c.467.734.7 1.607.7 2.62 0 .8-.167 1.494-.5 2.08a3.361 3.361 0 01-1.38 1.32c-.573.307-1.24.46-2 .46zm5.573-8.48v-2.28h2.16v2.28h-2.16zm0 6.38v-2.28h2.16v2.28h-2.16zm3.325 1.92l4.36-16.2h1.86l-4.38 16.2h-1.84zm7.383 0l4.36-16.2h1.86l-4.38 16.2h-1.84z" fill="#fff"/><path d="M109.097 589.619v-16.2h2.26v7h4.16v-7h2.26v16.2h-2.26v-7.58h-4.16v7.58h-2.26zm12.991 0v-14.52h-2.74v-1.68h7.66v1.68h-2.66v14.52h-2.26zm8.262 0v-14.52h-2.74v-1.68h7.66v1.68h-2.66v14.52h-2.26zm6.481 0v-16.2h4.02c.974 0 1.747.18 2.32.54.587.347 1.014.854 1.28 1.52.267.667.4 1.474.4 2.42 0 .854-.153 1.594-.46 2.22a3.253 3.253 0 01-1.32 1.46c-.586.334-1.32.5-2.2.5h-1.78v7.54h-2.26zm2.26-9.16h1.04c.654 0 1.167-.073 1.54-.22.374-.146.64-.4.8-.76.16-.373.24-.893.24-1.56 0-.773-.06-1.366-.18-1.78-.106-.413-.34-.7-.7-.86-.36-.16-.92-.24-1.68-.24h-1.06v5.42zm11.17 9.34c-.934 0-1.714-.2-2.34-.6a3.797 3.797 0 01-1.4-1.66c-.32-.706-.507-1.526-.56-2.46l2-.54c.04.574.126 1.127.26 1.66.146.534.38.974.7 1.32.32.334.766.5 1.34.5.586 0 1.026-.16 1.32-.48.306-.333.46-.806.46-1.42 0-.733-.167-1.32-.5-1.76a9.133 9.133 0 00-1.26-1.36l-2.72-2.4c-.534-.466-.927-.973-1.18-1.52-.254-.56-.38-1.246-.38-2.06 0-1.186.34-2.106 1.02-2.76.68-.653 1.606-.98 2.78-.98.64 0 1.2.087 1.68.26.493.16.9.414 1.22.76.333.347.593.787.78 1.32.2.52.333 1.134.4 1.84l-1.92.52a7.766 7.766 0 00-.24-1.46c-.12-.453-.334-.813-.64-1.08-.294-.28-.72-.42-1.28-.42s-1 .154-1.32.46c-.307.294-.46.734-.46 1.32 0 .494.08.9.24 1.22.173.32.446.647.82.98l2.74 2.4a8.515 8.515 0 011.62 1.92c.466.734.7 1.607.7 2.62 0 .8-.167 1.494-.5 2.08a3.374 3.374 0 01-1.38 1.32c-.574.307-1.24.46-2 .46zm5.573-8.48v-2.28h2.16v2.28h-2.16zm0 6.38v-2.28h2.16v2.28h-2.16zm3.325 1.92l4.36-16.2h1.86l-4.38 16.2h-1.84zm7.383 0l4.36-16.2h1.86l-4.38 16.2h-1.84z" fill="#E46A4B"/><path d="M161.358 612.2V596h2.26v7h4.16v-7h2.26v16.2h-2.26v-7.58h-4.16v7.58h-2.26zm12.991 0v-14.52h-2.74V596h7.66v1.68h-2.66v14.52h-2.26zm8.261 0v-14.52h-2.74V596h7.66v1.68h-2.66v14.52h-2.26zm6.482 0V596h4.02c.973 0 1.747.18 2.32.54.587.346 1.013.853 1.28 1.52.267.666.4 1.473.4 2.42 0 .853-.153 1.593-.46 2.22a3.263 3.263 0 01-1.32 1.46c-.587.333-1.32.5-2.2.5h-1.78v7.54h-2.26zm2.26-9.16h1.04c.653 0 1.167-.074 1.54-.22.373-.147.64-.4.8-.76.16-.374.24-.894.24-1.56 0-.774-.06-1.367-.18-1.78-.107-.414-.34-.7-.7-.86-.36-.16-.92-.24-1.68-.24h-1.06v5.42zm11.169 9.34c-.933 0-1.713-.2-2.34-.6a3.81 3.81 0 01-1.4-1.66c-.32-.707-.506-1.527-.56-2.46l2-.54c.04.573.127 1.126.26 1.66.147.533.38.973.7 1.32.32.333.767.5 1.34.5.587 0 1.027-.16 1.32-.48.307-.334.46-.807.46-1.42 0-.734-.166-1.32-.5-1.76a8.933 8.933 0 00-1.26-1.36l-2.72-2.4c-.533-.467-.926-.974-1.18-1.52-.253-.56-.38-1.247-.38-2.06 0-1.187.34-2.107 1.02-2.76.68-.654 1.607-.98 2.78-.98.64 0 1.2.086 1.68.26.494.16.9.413 1.22.76.334.346.594.786.78 1.32.2.52.334 1.133.4 1.84l-1.92.52a7.753 7.753 0 00-.24-1.46c-.12-.454-.333-.814-.64-1.08-.293-.28-.72-.42-1.28-.42s-1 .153-1.32.46c-.306.293-.46.733-.46 1.32 0 .493.08.9.24 1.22.174.32.447.646.82.98l2.74 2.4a8.42 8.42 0 011.62 1.92c.467.733.7 1.606.7 2.62 0 .8-.166 1.493-.5 2.08a3.374 3.374 0 01-1.38 1.32c-.573.306-1.24.46-2 .46zm5.574-8.48v-2.28h2.16v2.28h-2.16zm0 6.38V608h2.16v2.28h-2.16zm3.325 1.92l4.36-16.2h1.86l-4.38 16.2h-1.84zm7.383 0l4.36-16.2h1.86l-4.38 16.2h-1.84z" fill="#fff"/><path d="M180.455 661.2V645h2.26v7h4.16v-7h2.26v16.2h-2.26v-7.58h-4.16v7.58h-2.26zm12.991 0v-14.52h-2.74V645h7.66v1.68h-2.66v14.52h-2.26zm8.262 0v-14.52h-2.74V645h7.66v1.68h-2.66v14.52h-2.26zm6.482 0V645h4.02c.973 0 1.746.18 2.32.54.586.346 1.013.853 1.28 1.52.266.666.4 1.473.4 2.42 0 .853-.154 1.593-.46 2.22a3.274 3.274 0 01-1.32 1.46c-.587.333-1.32.5-2.2.5h-1.78v7.54h-2.26zm2.26-9.16h1.04c.653 0 1.166-.074 1.54-.22.373-.147.64-.4.8-.76.16-.374.24-.894.24-1.56 0-.774-.06-1.367-.18-1.78-.107-.414-.34-.7-.7-.86-.36-.16-.92-.24-1.68-.24h-1.06v5.42zm11.169 9.34c-.933 0-1.713-.2-2.34-.6a3.81 3.81 0 01-1.4-1.66c-.32-.707-.507-1.527-.56-2.46l2-.54c.04.573.127 1.126.26 1.66.147.533.38.973.7 1.32.32.333.767.5 1.34.5.587 0 1.027-.16 1.32-.48.307-.334.46-.807.46-1.42 0-.734-.167-1.32-.5-1.76a8.933 8.933 0 00-1.26-1.36l-2.72-2.4c-.533-.467-.927-.974-1.18-1.52-.253-.56-.38-1.247-.38-2.06 0-1.187.34-2.107 1.02-2.76.68-.654 1.607-.98 2.78-.98.64 0 1.2.086 1.68.26.493.16.9.413 1.22.76.333.346.593.786.78 1.32.2.52.333 1.133.4 1.84l-1.92.52a7.753 7.753 0 00-.24-1.46c-.12-.454-.333-.814-.64-1.08-.293-.28-.72-.42-1.28-.42s-1 .153-1.32.46c-.307.293-.46.733-.46 1.32 0 .493.08.9.24 1.22.173.32.447.646.82.98l2.74 2.4a8.471 8.471 0 011.62 1.92c.467.733.7 1.606.7 2.62 0 .8-.167 1.493-.5 2.08a3.374 3.374 0 01-1.38 1.32c-.573.306-1.24.46-2 .46zm5.573-8.48v-2.28h2.16v2.28h-2.16zm0 6.38V657h2.16v2.28h-2.16zm3.326 1.92l4.36-16.2h1.86l-4.38 16.2h-1.84zm7.382 0l4.36-16.2h1.86l-4.38 16.2h-1.84z" fill="#8AA087"/><path d="M369.358 612.2V596h2.26v7h4.16v-7h2.26v16.2h-2.26v-7.58h-4.16v7.58h-2.26zm12.991 0v-14.52h-2.74V596h7.66v1.68h-2.66v14.52h-2.26zm8.261 0v-14.52h-2.74V596h7.66v1.68h-2.66v14.52h-2.26zm6.482 0V596h4.02c.973 0 1.747.18 2.32.54.587.346 1.013.853 1.28 1.52.267.666.4 1.473.4 2.42 0 .853-.153 1.593-.46 2.22a3.263 3.263 0 01-1.32 1.46c-.587.333-1.32.5-2.2.5h-1.78v7.54h-2.26zm2.26-9.16h1.04c.653 0 1.167-.074 1.54-.22.373-.147.64-.4.8-.76.16-.374.24-.894.24-1.56 0-.774-.06-1.367-.18-1.78-.107-.414-.34-.7-.7-.86-.36-.16-.92-.24-1.68-.24h-1.06v5.42zm11.169 9.34c-.933 0-1.713-.2-2.34-.6a3.81 3.81 0 01-1.4-1.66c-.32-.707-.506-1.527-.56-2.46l2-.54c.04.573.127 1.126.26 1.66.147.533.38.973.7 1.32.32.333.767.5 1.34.5.587 0 1.027-.16 1.32-.48.307-.334.46-.807.46-1.42 0-.734-.166-1.32-.5-1.76a8.933 8.933 0 00-1.26-1.36l-2.72-2.4c-.533-.467-.926-.974-1.18-1.52-.253-.56-.38-1.247-.38-2.06 0-1.187.34-2.107 1.02-2.76.68-.654 1.607-.98 2.78-.98.64 0 1.2.086 1.68.26.494.16.9.413 1.22.76.334.346.594.786.78 1.32.2.52.334 1.133.4 1.84l-1.92.52a7.753 7.753 0 00-.24-1.46c-.12-.454-.333-.814-.64-1.08-.293-.28-.72-.42-1.28-.42s-1 .153-1.32.46c-.306.293-.46.733-.46 1.32 0 .493.08.9.24 1.22.174.32.447.646.82.98l2.74 2.4a8.42 8.42 0 011.62 1.92c.467.733.7 1.606.7 2.62 0 .8-.166 1.493-.5 2.08a3.374 3.374 0 01-1.38 1.32c-.573.306-1.24.46-2 .46zm5.574-8.48v-2.28h2.16v2.28h-2.16zm0 6.38V608h2.16v2.28h-2.16zm3.325 1.92l4.36-16.2h1.86l-4.38 16.2h-1.84zm7.383 0l4.36-16.2h1.86l-4.38 16.2h-1.84z" fill="#fff"/><path d="M388.455 661.2V645h2.26v7h4.16v-7h2.26v16.2h-2.26v-7.58h-4.16v7.58h-2.26zm12.991 0v-14.52h-2.74V645h7.66v1.68h-2.66v14.52h-2.26zm8.262 0v-14.52h-2.74V645h7.66v1.68h-2.66v14.52h-2.26zm6.482 0V645h4.02c.973 0 1.746.18 2.32.54.586.346 1.013.853 1.28 1.52.266.666.4 1.473.4 2.42 0 .853-.154 1.593-.46 2.22a3.274 3.274 0 01-1.32 1.46c-.587.333-1.32.5-2.2.5h-1.78v7.54h-2.26zm2.26-9.16h1.04c.653 0 1.166-.074 1.54-.22.373-.147.64-.4.8-.76.16-.374.24-.894.24-1.56 0-.774-.06-1.367-.18-1.78-.107-.414-.34-.7-.7-.86-.36-.16-.92-.24-1.68-.24h-1.06v5.42zm11.169 9.34c-.933 0-1.713-.2-2.34-.6a3.81 3.81 0 01-1.4-1.66c-.32-.707-.507-1.527-.56-2.46l2-.54c.04.573.127 1.126.26 1.66.147.533.38.973.7 1.32.32.333.767.5 1.34.5.587 0 1.027-.16 1.32-.48.307-.334.46-.807.46-1.42 0-.734-.167-1.32-.5-1.76a8.933 8.933 0 00-1.26-1.36l-2.72-2.4c-.533-.467-.927-.974-1.18-1.52-.253-.56-.38-1.247-.38-2.06 0-1.187.34-2.107 1.02-2.76.68-.654 1.607-.98 2.78-.98.64 0 1.2.086 1.68.26.493.16.9.413 1.22.76.333.346.593.786.78 1.32.2.52.333 1.133.4 1.84l-1.92.52a7.753 7.753 0 00-.24-1.46c-.12-.454-.333-.814-.64-1.08-.293-.28-.72-.42-1.28-.42s-1 .153-1.32.46c-.307.293-.46.733-.46 1.32 0 .493.08.9.24 1.22.173.32.447.646.82.98l2.74 2.4a8.471 8.471 0 011.62 1.92c.467.733.7 1.606.7 2.62 0 .8-.167 1.493-.5 2.08a3.374 3.374 0 01-1.38 1.32c-.573.306-1.24.46-2 .46zm5.573-8.48v-2.28h2.16v2.28h-2.16zm0 6.38V657h2.16v2.28h-2.16zm3.326 1.92l4.36-16.2h1.86l-4.38 16.2h-1.84zm7.382 0l4.36-16.2h1.86l-4.38 16.2h-1.84z" fill="#8AA087"/><path d="M10.38 468.901v-16.2h2.26v7h4.16v-7h2.26v16.2H16.8v-7.58h-4.16v7.58h-2.26zm12.99 0v-14.52h-2.74v-1.68h7.66v1.68h-2.66v14.52h-2.26zm8.262 0v-14.52h-2.74v-1.68h7.66v1.68h-2.66v14.52h-2.26zm6.482 0v-16.2h4.02c.973 0 1.746.18 2.32.54.586.346 1.013.853 1.28 1.52.266.666.4 1.473.4 2.42 0 .853-.154 1.593-.46 2.22a3.266 3.266 0 01-1.32 1.46c-.587.333-1.32.5-2.2.5h-1.78v7.54h-2.26zm2.26-9.16h1.04c.653 0 1.166-.074 1.54-.22.373-.147.64-.4.8-.76.16-.374.24-.894.24-1.56 0-.774-.06-1.367-.18-1.78-.107-.414-.34-.7-.7-.86-.36-.16-.92-.24-1.68-.24h-1.06v5.42zm11.169 9.34c-.933 0-1.713-.2-2.34-.6a3.808 3.808 0 01-1.4-1.66c-.32-.707-.507-1.527-.56-2.46l2-.54a9.6 9.6 0 00.26 1.66c.147.533.38.973.7 1.32.32.333.767.5 1.34.5.587 0 1.027-.16 1.32-.48.307-.334.46-.807.46-1.42 0-.734-.167-1.32-.5-1.76a8.963 8.963 0 00-1.26-1.36l-2.72-2.4c-.533-.467-.927-.974-1.18-1.52-.253-.56-.38-1.247-.38-2.06 0-1.187.34-2.107 1.02-2.76.68-.654 1.607-.98 2.78-.98.64 0 1.2.086 1.68.26.493.16.9.413 1.22.76.333.346.593.786.78 1.32.2.52.333 1.133.4 1.84l-1.92.52a7.753 7.753 0 00-.24-1.46c-.12-.454-.333-.814-.64-1.08-.293-.28-.72-.42-1.28-.42s-1 .153-1.32.46c-.307.293-.46.733-.46 1.32 0 .493.08.9.24 1.22.173.32.447.646.82.98l2.74 2.4a8.456 8.456 0 011.62 1.92c.467.733.7 1.606.7 2.62 0 .8-.167 1.493-.5 2.08a3.378 3.378 0 01-1.38 1.32c-.573.306-1.24.46-2 .46zm5.573-8.48v-2.28h2.16v2.28h-2.16zm0 6.38v-2.28h2.16v2.28h-2.16zm3.325 1.92l4.36-16.2h1.86l-4.38 16.2h-1.84zm7.383 0l4.36-16.2h1.86l-4.38 16.2h-1.84z" fill="#fff"/><path d="M29.477 517.901v-16.2h2.26v7h4.16v-7h2.26v16.2h-2.26v-7.58h-4.16v7.58h-2.26zm12.99 0v-14.52h-2.74v-1.68h7.66v1.68h-2.66v14.52h-2.26zm8.263 0v-14.52h-2.74v-1.68h7.66v1.68h-2.66v14.52h-2.26zm6.481 0v-16.2h4.02c.974 0 1.747.18 2.32.54.587.346 1.013.853 1.28 1.52.267.666.4 1.473.4 2.42 0 .853-.153 1.593-.46 2.22a3.267 3.267 0 01-1.32 1.46c-.587.333-1.32.5-2.2.5h-1.78v7.54h-2.26zm2.26-9.16h1.04c.653 0 1.167-.074 1.54-.22.373-.147.64-.4.8-.76.16-.374.24-.894.24-1.56 0-.774-.06-1.367-.18-1.78-.107-.414-.34-.7-.7-.86-.36-.16-.92-.24-1.68-.24h-1.06v5.42zm11.17 9.34c-.934 0-1.714-.2-2.34-.6a3.808 3.808 0 01-1.4-1.66c-.32-.707-.507-1.527-.56-2.46l2-.54a9.6 9.6 0 00.26 1.66c.146.533.38.973.7 1.32.32.333.766.5 1.34.5.586 0 1.026-.16 1.32-.48.306-.334.46-.807.46-1.42 0-.734-.167-1.32-.5-1.76a8.963 8.963 0 00-1.26-1.36l-2.72-2.4c-.534-.467-.927-.974-1.18-1.52-.254-.56-.38-1.247-.38-2.06 0-1.187.34-2.107 1.02-2.76.68-.654 1.606-.98 2.78-.98.64 0 1.2.086 1.68.26.493.16.9.413 1.22.76.333.346.593.786.78 1.32.2.52.333 1.133.4 1.84l-1.92.52a7.753 7.753 0 00-.24-1.46c-.12-.454-.334-.814-.64-1.08-.294-.28-.72-.42-1.28-.42s-1 .153-1.32.46c-.307.293-.46.733-.46 1.32 0 .493.08.9.24 1.22.173.32.446.646.82.98l2.74 2.4a8.451 8.451 0 011.62 1.92c.466.733.7 1.606.7 2.62 0 .8-.167 1.493-.5 2.08a3.378 3.378 0 01-1.38 1.32c-.574.306-1.24.46-2 .46zm5.573-8.48v-2.28h2.16v2.28h-2.16zm0 6.38v-2.28h2.16v2.28h-2.16zm3.325 1.92l4.36-16.2h1.86l-4.38 16.2h-1.84zm7.383 0l4.36-16.2h1.86l-4.38 16.2h-1.84z" fill="#E46A4B"/><path d="M343.244 336.518v-16.2h2.26v7h4.16v-7h2.26v16.2h-2.26v-7.58h-4.16v7.58h-2.26zm12.991 0v-14.52h-2.74v-1.68h7.66v1.68h-2.66v14.52h-2.26zm8.262 0v-14.52h-2.74v-1.68h7.66v1.68h-2.66v14.52h-2.26zm6.482 0v-16.2h4.02c.973 0 1.746.18 2.32.54.586.347 1.013.853 1.28 1.52.266.667.4 1.473.4 2.42 0 .853-.154 1.593-.46 2.22a3.27 3.27 0 01-1.32 1.46c-.587.333-1.32.5-2.2.5h-1.78v7.54h-2.26zm2.26-9.16h1.04c.653 0 1.166-.073 1.54-.22.373-.147.64-.4.8-.76.16-.373.24-.893.24-1.56 0-.773-.06-1.367-.18-1.78-.107-.413-.34-.7-.7-.86-.36-.16-.92-.24-1.68-.24h-1.06v5.42zm11.169 9.34c-.933 0-1.713-.2-2.34-.6a3.804 3.804 0 01-1.4-1.66c-.32-.707-.507-1.527-.56-2.46l2-.54c.04.573.127 1.127.26 1.66.147.533.38.973.7 1.32.32.333.767.5 1.34.5.587 0 1.027-.16 1.32-.48.307-.333.46-.807.46-1.42 0-.733-.167-1.32-.5-1.76a8.98 8.98 0 00-1.26-1.36l-2.72-2.4c-.533-.467-.927-.973-1.18-1.52-.253-.56-.38-1.247-.38-2.06 0-1.187.34-2.107 1.02-2.76.68-.653 1.607-.98 2.78-.98.64 0 1.2.087 1.68.26.493.16.9.413 1.22.76.333.347.593.787.78 1.32.2.52.333 1.133.4 1.84l-1.92.52a7.766 7.766 0 00-.24-1.46c-.12-.453-.333-.813-.64-1.08-.293-.28-.72-.42-1.28-.42s-1 .153-1.32.46c-.307.293-.46.733-.46 1.32 0 .493.08.9.24 1.22.173.32.447.647.82.98l2.74 2.4a8.471 8.471 0 011.62 1.92c.467.733.7 1.607.7 2.62 0 .8-.167 1.493-.5 2.08a3.374 3.374 0 01-1.38 1.32c-.573.307-1.24.46-2 .46zm5.573-8.48v-2.28h2.16v2.28h-2.16zm0 6.38v-2.28h2.16v2.28h-2.16zm3.326 1.92l4.36-16.2h1.86l-4.38 16.2h-1.84zm7.382 0l4.36-16.2h1.86l-4.38 16.2h-1.84z" fill="#fff"/><path d="M362.342 385.518v-16.2h2.26v7h4.16v-7h2.26v16.2h-2.26v-7.58h-4.16v7.58h-2.26zm12.991 0v-14.52h-2.74v-1.68h7.66v1.68h-2.66v14.52h-2.26zm8.262 0v-14.52h-2.74v-1.68h7.66v1.68h-2.66v14.52h-2.26zm6.481 0v-16.2h4.02c.974 0 1.747.18 2.32.54.587.347 1.014.853 1.28 1.52.267.667.4 1.473.4 2.42 0 .853-.153 1.593-.46 2.22a3.258 3.258 0 01-1.32 1.46c-.586.333-1.32.5-2.2.5h-1.78v7.54h-2.26zm2.26-9.16h1.04c.654 0 1.167-.073 1.54-.22.374-.147.64-.4.8-.76.16-.373.24-.893.24-1.56 0-.773-.06-1.367-.18-1.78-.106-.413-.34-.7-.7-.86-.36-.16-.92-.24-1.68-.24h-1.06v5.42zm11.17 9.34c-.934 0-1.714-.2-2.34-.6a3.797 3.797 0 01-1.4-1.66c-.32-.707-.507-1.527-.56-2.46l2-.54c.04.573.126 1.127.26 1.66.146.533.38.973.7 1.32.32.333.766.5 1.34.5.586 0 1.026-.16 1.32-.48.306-.333.46-.807.46-1.42 0-.733-.167-1.32-.5-1.76a9.084 9.084 0 00-1.26-1.36l-2.72-2.4c-.534-.467-.927-.973-1.18-1.52-.254-.56-.38-1.247-.38-2.06 0-1.187.34-2.107 1.02-2.76.68-.653 1.606-.98 2.78-.98.64 0 1.2.087 1.68.26.493.16.9.413 1.22.76.333.347.593.787.78 1.32.2.52.333 1.133.4 1.84l-1.92.52a7.766 7.766 0 00-.24-1.46c-.12-.453-.334-.813-.64-1.08-.294-.28-.72-.42-1.28-.42s-1 .153-1.32.46c-.307.293-.46.733-.46 1.32 0 .493.08.9.24 1.22.173.32.446.647.82.98l2.74 2.4a8.471 8.471 0 011.62 1.92c.466.733.7 1.607.7 2.62 0 .8-.167 1.493-.5 2.08a3.386 3.386 0 01-1.38 1.32c-.574.307-1.24.46-2 .46zm5.573-8.48v-2.28h2.16v2.28h-2.16zm0 6.38v-2.28h2.16v2.28h-2.16zm3.325 1.92l4.36-16.2h1.86l-4.38 16.2h-1.84zm7.383 0l4.36-16.2h1.86l-4.38 16.2h-1.84z" fill="#E46A4B"/><path d="M349.985 240.494v-16.2h2.26v7h4.16v-7h2.26v16.2h-2.26v-7.58h-4.16v7.58h-2.26zm12.991 0v-14.52h-2.74v-1.68h7.66v1.68h-2.66v14.52h-2.26zm8.261 0v-14.52h-2.74v-1.68h7.66v1.68h-2.66v14.52h-2.26zm6.482 0v-16.2h4.02c.973 0 1.747.18 2.32.54.587.346 1.013.853 1.28 1.52.267.666.4 1.473.4 2.42 0 .853-.153 1.593-.46 2.22a3.263 3.263 0 01-1.32 1.46c-.587.333-1.32.5-2.2.5h-1.78v7.54h-2.26zm2.26-9.16h1.04c.653 0 1.167-.074 1.54-.22.373-.147.64-.4.8-.76.16-.374.24-.894.24-1.56 0-.774-.06-1.367-.18-1.78-.107-.414-.34-.7-.7-.86-.36-.16-.92-.24-1.68-.24h-1.06v5.42zm11.169 9.34c-.933 0-1.713-.2-2.34-.6a3.81 3.81 0 01-1.4-1.66c-.32-.707-.506-1.527-.56-2.46l2-.54c.04.573.127 1.126.26 1.66.147.533.38.973.7 1.32.32.333.767.5 1.34.5.587 0 1.027-.16 1.32-.48.307-.334.46-.807.46-1.42 0-.734-.166-1.32-.5-1.76a8.933 8.933 0 00-1.26-1.36l-2.72-2.4c-.533-.467-.926-.974-1.18-1.52-.253-.56-.38-1.247-.38-2.06 0-1.187.34-2.107 1.02-2.76.68-.654 1.607-.98 2.78-.98.64 0 1.2.086 1.68.26.494.16.9.413 1.22.76.334.346.594.786.78 1.32.2.52.334 1.133.4 1.84l-1.92.52a7.753 7.753 0 00-.24-1.46c-.12-.454-.333-.814-.64-1.08-.293-.28-.72-.42-1.28-.42s-1 .153-1.32.46c-.306.293-.46.733-.46 1.32 0 .493.08.9.24 1.22.174.32.447.646.82.98l2.74 2.4a8.42 8.42 0 011.62 1.92c.467.733.7 1.606.7 2.62 0 .8-.166 1.493-.5 2.08a3.374 3.374 0 01-1.38 1.32c-.573.306-1.24.46-2 .46zm5.573-8.48v-2.28h2.16v2.28h-2.16zm0 6.38v-2.28h2.16v2.28h-2.16zm3.326 1.92l4.36-16.2h1.86l-4.38 16.2h-1.84zm7.383 0l4.36-16.2h1.86l-4.38 16.2h-1.84z" fill="#fff"/><path d="M307.358 289.494v-16.2h2.26v7h4.16v-7h2.26v16.2h-2.26v-7.58h-4.16v7.58h-2.26zm12.991 0v-14.52h-2.74v-1.68h7.66v1.68h-2.66v14.52h-2.26zm8.261 0v-14.52h-2.74v-1.68h7.66v1.68h-2.66v14.52h-2.26zm6.482 0v-16.2h4.02c.973 0 1.747.18 2.32.54.587.346 1.013.853 1.28 1.52.267.666.4 1.473.4 2.42 0 .853-.153 1.593-.46 2.22a3.263 3.263 0 01-1.32 1.46c-.587.333-1.32.5-2.2.5h-1.78v7.54h-2.26zm2.26-9.16h1.04c.653 0 1.167-.074 1.54-.22.373-.147.64-.4.8-.76.16-.374.24-.894.24-1.56 0-.774-.06-1.367-.18-1.78-.107-.414-.34-.7-.7-.86-.36-.16-.92-.24-1.68-.24h-1.06v5.42zm11.169 9.34c-.933 0-1.713-.2-2.34-.6a3.81 3.81 0 01-1.4-1.66c-.32-.707-.506-1.527-.56-2.46l2-.54c.04.573.127 1.126.26 1.66.147.533.38.973.7 1.32.32.333.767.5 1.34.5.587 0 1.027-.16 1.32-.48.307-.334.46-.807.46-1.42 0-.734-.166-1.32-.5-1.76a8.933 8.933 0 00-1.26-1.36l-2.72-2.4c-.533-.467-.926-.974-1.18-1.52-.253-.56-.38-1.247-.38-2.06 0-1.187.34-2.107 1.02-2.76.68-.654 1.607-.98 2.78-.98.64 0 1.2.086 1.68.26.494.16.9.413 1.22.76.334.346.594.786.78 1.32.2.52.334 1.133.4 1.84l-1.92.52a7.753 7.753 0 00-.24-1.46c-.12-.454-.333-.814-.64-1.08-.293-.28-.72-.42-1.28-.42s-1 .153-1.32.46c-.306.293-.46.733-.46 1.32 0 .493.08.9.24 1.22.174.32.447.646.82.98l2.74 2.4a8.42 8.42 0 011.62 1.92c.467.733.7 1.606.7 2.62 0 .8-.166 1.493-.5 2.08a3.374 3.374 0 01-1.38 1.32c-.573.306-1.24.46-2 .46zm5.574-8.48v-2.28h2.16v2.28h-2.16zm0 6.38v-2.28h2.16v2.28h-2.16zm3.325 1.92l4.36-16.2h1.86l-4.38 16.2h-1.84zm7.383 0l4.36-16.2h1.86l-4.38 16.2h-1.84z" fill="#E46A4B"/><path d="M258.843 150.234v-16.2h2.26v7h4.16v-7h2.26v16.2h-2.26v-7.58h-4.16v7.58h-2.26zm12.991 0v-14.52h-2.74v-1.68h7.66v1.68h-2.66v14.52h-2.26zm8.262 0v-14.52h-2.74v-1.68h7.66v1.68h-2.66v14.52h-2.26zm6.481 0v-16.2h4.02c.974 0 1.747.18 2.32.54.587.347 1.014.853 1.28 1.52.267.667.4 1.473.4 2.42 0 .853-.153 1.593-.46 2.22a3.258 3.258 0 01-1.32 1.46c-.586.333-1.32.5-2.2.5h-1.78v7.54h-2.26zm2.26-9.16h1.04c.654 0 1.167-.073 1.54-.22.374-.147.64-.4.8-.76.16-.373.24-.893.24-1.56 0-.773-.06-1.367-.18-1.78-.106-.413-.34-.7-.7-.86-.36-.16-.92-.24-1.68-.24h-1.06v5.42zm11.17 9.34c-.934 0-1.714-.2-2.34-.6a3.797 3.797 0 01-1.4-1.66c-.32-.707-.507-1.527-.56-2.46l2-.54c.04.573.126 1.127.26 1.66.146.533.38.973.7 1.32.32.333.766.5 1.34.5.586 0 1.026-.16 1.32-.48.306-.333.46-.807.46-1.42 0-.733-.167-1.32-.5-1.76a9.084 9.084 0 00-1.26-1.36l-2.72-2.4c-.534-.467-.927-.973-1.18-1.52-.254-.56-.38-1.247-.38-2.06 0-1.187.34-2.107 1.02-2.76.68-.653 1.606-.98 2.78-.98.64 0 1.2.087 1.68.26.493.16.9.413 1.22.76.333.347.593.787.78 1.32.2.52.333 1.133.4 1.84l-1.92.52a7.766 7.766 0 00-.24-1.46c-.12-.453-.334-.813-.64-1.08-.294-.28-.72-.42-1.28-.42s-1 .153-1.32.46c-.307.293-.46.733-.46 1.32 0 .493.08.9.24 1.22.173.32.446.647.82.98l2.74 2.4a8.471 8.471 0 011.62 1.92c.466.733.7 1.607.7 2.62 0 .8-.167 1.493-.5 2.08a3.386 3.386 0 01-1.38 1.32c-.574.307-1.24.46-2 .46zm5.573-8.48v-2.28h2.16v2.28h-2.16zm0 6.38v-2.28h2.16v2.28h-2.16zm3.325 1.92l4.36-16.2h1.86l-4.38 16.2h-1.84zm7.383 0l4.36-16.2h1.86l-4.38 16.2h-1.84z" fill="#fff"/><path d="M277.941 199.234v-16.2h2.26v7h4.16v-7h2.26v16.2h-2.26v-7.58h-4.16v7.58h-2.26zm12.991 0v-14.52h-2.74v-1.68h7.66v1.68h-2.66v14.52h-2.26zm8.261 0v-14.52h-2.74v-1.68h7.66v1.68h-2.66v14.52h-2.26zm6.482 0v-16.2h4.02c.973 0 1.747.18 2.32.54.587.347 1.013.853 1.28 1.52.267.667.4 1.473.4 2.42 0 .853-.153 1.593-.46 2.22a3.258 3.258 0 01-1.32 1.46c-.587.333-1.32.5-2.2.5h-1.78v7.54h-2.26zm2.26-9.16h1.04c.653 0 1.167-.073 1.54-.22.373-.147.64-.4.8-.76.16-.373.24-.893.24-1.56 0-.773-.06-1.367-.18-1.78-.107-.413-.34-.7-.7-.86-.36-.16-.92-.24-1.68-.24h-1.06v5.42zm11.169 9.34c-.933 0-1.713-.2-2.34-.6a3.804 3.804 0 01-1.4-1.66c-.32-.707-.506-1.527-.56-2.46l2-.54c.04.573.127 1.127.26 1.66.147.533.38.973.7 1.32.32.333.767.5 1.34.5.587 0 1.027-.16 1.32-.48.307-.333.46-.807.46-1.42 0-.733-.166-1.32-.5-1.76a8.98 8.98 0 00-1.26-1.36l-2.72-2.4c-.533-.467-.926-.973-1.18-1.52-.253-.56-.38-1.247-.38-2.06 0-1.187.34-2.107 1.02-2.76.68-.653 1.607-.98 2.78-.98.64 0 1.2.087 1.68.26.494.16.9.413 1.22.76.334.347.594.787.78 1.32.2.52.334 1.133.4 1.84l-1.92.52a7.766 7.766 0 00-.24-1.46c-.12-.453-.333-.813-.64-1.08-.293-.28-.72-.42-1.28-.42s-1 .153-1.32.46c-.306.293-.46.733-.46 1.32 0 .493.08.9.24 1.22.174.32.447.647.82.98l2.74 2.4a8.42 8.42 0 011.62 1.92c.467.733.7 1.607.7 2.62 0 .8-.166 1.493-.5 2.08a3.374 3.374 0 01-1.38 1.32c-.573.307-1.24.46-2 .46zm5.574-8.48v-2.28h2.16v2.28h-2.16zm0 6.38v-2.28h2.16v2.28h-2.16zm3.325 1.92l4.36-16.2h1.86l-4.38 16.2h-1.84zm7.383 0l4.36-16.2h1.86l-4.38 16.2h-1.84z" fill="#E46A4B"/><path d="M314.875 63V46.8h2.26v7h4.16v-7h2.26V63h-2.26v-7.58h-4.16V63h-2.26zm12.991 0V48.48h-2.74V46.8h7.66v1.68h-2.66V63h-2.26zm8.262 0V48.48h-2.74V46.8h7.66v1.68h-2.66V63h-2.26zm6.482 0V46.8h4.02c.973 0 1.746.18 2.32.54.586.347 1.013.853 1.28 1.52.266.667.4 1.473.4 2.42 0 .853-.154 1.593-.46 2.22a3.27 3.27 0 01-1.32 1.46c-.587.333-1.32.5-2.2.5h-1.78V63h-2.26zm2.26-9.16h1.04c.653 0 1.166-.073 1.54-.22.373-.147.64-.4.8-.76.16-.373.24-.893.24-1.56 0-.773-.06-1.367-.18-1.78-.107-.413-.34-.7-.7-.86-.36-.16-.92-.24-1.68-.24h-1.06v5.42zm11.169 9.34c-.933 0-1.713-.2-2.34-.6a3.806 3.806 0 01-1.4-1.66c-.32-.707-.507-1.527-.56-2.46l2-.54c.04.573.127 1.127.26 1.66.147.533.38.973.7 1.32.32.333.767.5 1.34.5.587 0 1.027-.16 1.32-.48.307-.333.46-.807.46-1.42 0-.733-.167-1.32-.5-1.76a8.98 8.98 0 00-1.26-1.36l-2.72-2.4c-.533-.467-.927-.973-1.18-1.52-.253-.56-.38-1.247-.38-2.06 0-1.187.34-2.107 1.02-2.76.68-.653 1.607-.98 2.78-.98.64 0 1.2.087 1.68.26.493.16.9.413 1.22.76.333.347.593.787.78 1.32.2.52.333 1.133.4 1.84l-1.92.52a7.762 7.762 0 00-.24-1.46c-.12-.453-.333-.813-.64-1.08-.293-.28-.72-.42-1.28-.42s-1 .153-1.32.46c-.307.293-.46.733-.46 1.32 0 .493.08.9.24 1.22.173.32.447.647.82.98l2.74 2.4a8.485 8.485 0 011.62 1.92c.467.733.7 1.607.7 2.62 0 .8-.167 1.493-.5 2.08a3.37 3.37 0 01-1.38 1.32c-.573.307-1.24.46-2 .46zm5.573-8.48v-2.28h2.16v2.28h-2.16zm0 6.38V58.8h2.16v2.28h-2.16zm3.325 1.92l4.36-16.2h1.86l-4.38 16.2h-1.84zm7.383 0l4.36-16.2h1.86L374.16 63h-1.84z" fill="#fff"/><path d="M333.973 112V95.8h2.26v7h4.16v-7h2.26V112h-2.26v-7.58h-4.16V112h-2.26zm12.991 0V97.48h-2.74V95.8h7.66v1.68h-2.66V112h-2.26zm8.262 0V97.48h-2.74V95.8h7.66v1.68h-2.66V112h-2.26zm6.481 0V95.8h4.02c.974 0 1.747.18 2.32.54.587.347 1.014.853 1.28 1.52.267.667.4 1.473.4 2.42 0 .853-.153 1.593-.46 2.22a3.258 3.258 0 01-1.32 1.46c-.586.333-1.32.5-2.2.5h-1.78V112h-2.26zm2.26-9.16h1.04c.654 0 1.167-.073 1.54-.22.374-.147.64-.4.8-.76.16-.373.24-.893.24-1.56 0-.773-.06-1.367-.18-1.78-.106-.413-.34-.7-.7-.86-.36-.16-.92-.24-1.68-.24h-1.06v5.42zm11.17 9.34c-.934 0-1.714-.2-2.34-.6a3.797 3.797 0 01-1.4-1.66c-.32-.707-.507-1.527-.56-2.46l2-.54c.04.573.126 1.127.26 1.66.146.533.38.973.7 1.32.32.333.766.5 1.34.5.586 0 1.026-.16 1.32-.48.306-.333.46-.807.46-1.42 0-.733-.167-1.32-.5-1.76a9.084 9.084 0 00-1.26-1.36l-2.72-2.4c-.534-.467-.927-.973-1.18-1.52-.254-.56-.38-1.247-.38-2.06 0-1.187.34-2.107 1.02-2.76.68-.653 1.606-.98 2.78-.98.64 0 1.2.087 1.68.26.493.16.9.413 1.22.76.333.347.593.787.78 1.32.2.52.333 1.133.4 1.84l-1.92.52a7.762 7.762 0 00-.24-1.46c-.12-.453-.334-.813-.64-1.08-.294-.28-.72-.42-1.28-.42s-1 .153-1.32.46c-.307.293-.46.733-.46 1.32 0 .493.08.9.24 1.22.173.32.446.647.82.98l2.74 2.4a8.471 8.471 0 011.62 1.92c.466.733.7 1.607.7 2.62 0 .8-.167 1.493-.5 2.08a3.386 3.386 0 01-1.38 1.32c-.574.307-1.24.46-2 .46zm5.573-8.48v-2.28h2.16v2.28h-2.16zm0 6.38v-2.28h2.16v2.28h-2.16zm3.325 1.92l4.36-16.2h1.86l-4.38 16.2h-1.84zm7.383 0l4.36-16.2h1.86l-4.38 16.2h-1.84z" fill="#E46A4B"/><path d="M407.594 144.47v-16.2h2.26v7h4.16v-7h2.26v16.2h-2.26v-7.58h-4.16v7.58h-2.26zm12.991 0v-14.52h-2.74v-1.68h7.66v1.68h-2.66v14.52h-2.26zm8.262 0v-14.52h-2.74v-1.68h7.66v1.68h-2.66v14.52h-2.26zm6.481 0v-16.2h4.02c.974 0 1.747.18 2.32.54.587.346 1.014.853 1.28 1.52.267.666.4 1.473.4 2.42 0 .853-.153 1.593-.46 2.22a3.263 3.263 0 01-1.32 1.46c-.586.333-1.32.5-2.2.5h-1.78v7.54h-2.26zm2.26-9.16h1.04c.654 0 1.167-.074 1.54-.22.374-.147.64-.4.8-.76.16-.374.24-.894.24-1.56 0-.774-.06-1.367-.18-1.78-.106-.414-.34-.7-.7-.86-.36-.16-.92-.24-1.68-.24h-1.06v5.42zm11.17 9.34c-.934 0-1.714-.2-2.34-.6-.614-.4-1.08-.954-1.4-1.66-.32-.707-.507-1.527-.56-2.46l2-.54c.04.573.126 1.126.26 1.66.146.533.38.973.7 1.32.32.333.766.5 1.34.5.586 0 1.026-.16 1.32-.48.306-.334.46-.807.46-1.42 0-.734-.167-1.32-.5-1.76a9.036 9.036 0 00-1.26-1.36l-2.72-2.4c-.534-.467-.927-.974-1.18-1.52-.254-.56-.38-1.247-.38-2.06 0-1.187.34-2.107 1.02-2.76.68-.654 1.606-.98 2.78-.98.64 0 1.2.086 1.68.26.493.16.9.413 1.22.76.333.346.593.786.78 1.32.2.52.333 1.133.4 1.84l-1.92.52a7.753 7.753 0 00-.24-1.46c-.12-.454-.334-.814-.64-1.08-.294-.28-.72-.42-1.28-.42s-1 .153-1.32.46c-.307.293-.46.733-.46 1.32 0 .493.08.9.24 1.22.173.32.446.646.82.98l2.74 2.4a8.471 8.471 0 011.62 1.92c.466.733.7 1.606.7 2.62 0 .8-.167 1.493-.5 2.08a3.386 3.386 0 01-1.38 1.32c-.574.306-1.24.46-2 .46zm5.573-8.48v-2.28h2.16v2.28h-2.16zm0 6.38v-2.28h2.16v2.28h-2.16zm3.325 1.92l4.36-16.2h1.86l-4.38 16.2h-1.84zm7.383 0l4.36-16.2h1.86l-4.38 16.2h-1.84z" fill="#fff"/><path d="M426.692 193.47v-16.2h2.26v7h4.16v-7h2.26v16.2h-2.26v-7.58h-4.16v7.58h-2.26zm12.991 0v-14.52h-2.74v-1.68h7.66v1.68h-2.66v14.52h-2.26zm8.261 0v-14.52h-2.74v-1.68h7.66v1.68h-2.66v14.52h-2.26zm6.482 0v-16.2h4.02c.973 0 1.747.18 2.32.54.587.346 1.013.853 1.28 1.52.267.666.4 1.473.4 2.42 0 .853-.153 1.593-.46 2.22a3.263 3.263 0 01-1.32 1.46c-.587.333-1.32.5-2.2.5h-1.78v7.54h-2.26zm2.26-9.16h1.04c.653 0 1.167-.074 1.54-.22.373-.147.64-.4.8-.76.16-.374.24-.894.24-1.56 0-.774-.06-1.367-.18-1.78-.107-.414-.34-.7-.7-.86-.36-.16-.92-.24-1.68-.24h-1.06v5.42zm11.169 9.34c-.933 0-1.713-.2-2.34-.6a3.81 3.81 0 01-1.4-1.66c-.32-.707-.506-1.527-.56-2.46l2-.54c.04.573.127 1.126.26 1.66.147.533.38.973.7 1.32.32.333.767.5 1.34.5.587 0 1.027-.16 1.32-.48.307-.334.46-.807.46-1.42 0-.734-.166-1.32-.5-1.76a8.933 8.933 0 00-1.26-1.36l-2.72-2.4c-.533-.467-.926-.974-1.18-1.52-.253-.56-.38-1.247-.38-2.06 0-1.187.34-2.107 1.02-2.76.68-.654 1.607-.98 2.78-.98.64 0 1.2.086 1.68.26.494.16.9.413 1.22.76.334.346.594.786.78 1.32.2.52.334 1.133.4 1.84l-1.92.52a7.753 7.753 0 00-.24-1.46c-.12-.454-.333-.814-.64-1.08-.293-.28-.72-.42-1.28-.42s-1 .153-1.32.46c-.306.293-.46.733-.46 1.32 0 .493.08.9.24 1.22.174.32.447.646.82.98l2.74 2.4a8.42 8.42 0 011.62 1.92c.467.733.7 1.606.7 2.62 0 .8-.166 1.493-.5 2.08a3.374 3.374 0 01-1.38 1.32c-.573.306-1.24.46-2 .46zm5.574-8.48v-2.28h2.16v2.28h-2.16zm0 6.38v-2.28h2.16v2.28h-2.16zm3.325 1.92l4.36-16.2h1.86l-4.38 16.2h-1.84zm7.383 0l4.36-16.2h1.86l-4.38 16.2h-1.84z" fill="#E46A4B"/><path d="M157.167 92.531v-16.2h2.26v7h4.16v-7h2.26v16.2h-2.26v-7.58h-4.16v7.58h-2.26zm12.991 0v-14.52h-2.74v-1.68h7.66v1.68h-2.66v14.52h-2.26zm8.262 0v-14.52h-2.74v-1.68h7.66v1.68h-2.66v14.52h-2.26zm6.482 0v-16.2h4.02c.973 0 1.746.18 2.32.54.586.347 1.013.854 1.28 1.52.266.667.4 1.474.4 2.42 0 .854-.154 1.594-.46 2.22a3.269 3.269 0 01-1.32 1.46c-.587.334-1.32.5-2.2.5h-1.78v7.54h-2.26zm2.26-9.16h1.04c.653 0 1.166-.073 1.54-.22.373-.146.64-.4.8-.76.16-.373.24-.893.24-1.56 0-.773-.06-1.366-.18-1.78-.107-.413-.34-.7-.7-.86-.36-.16-.92-.24-1.68-.24h-1.06v5.42zm11.169 9.34c-.933 0-1.713-.2-2.34-.6a3.806 3.806 0 01-1.4-1.66c-.32-.706-.507-1.526-.56-2.46l2-.54c.04.574.127 1.127.26 1.66.147.534.38.974.7 1.32.32.334.767.5 1.34.5.587 0 1.027-.16 1.32-.48.307-.333.46-.806.46-1.42 0-.733-.167-1.32-.5-1.76a8.985 8.985 0 00-1.26-1.36l-2.72-2.4c-.533-.466-.927-.973-1.18-1.52-.253-.56-.38-1.246-.38-2.06 0-1.186.34-2.106 1.02-2.76.68-.653 1.607-.98 2.78-.98.64 0 1.2.087 1.68.26.493.16.9.414 1.22.76.333.347.593.787.78 1.32.2.52.333 1.134.4 1.84l-1.92.52a7.762 7.762 0 00-.24-1.46c-.12-.453-.333-.813-.64-1.08-.293-.28-.72-.42-1.28-.42s-1 .154-1.32.46c-.307.294-.46.734-.46 1.32 0 .494.08.9.24 1.22.173.32.447.647.82.98l2.74 2.4a8.489 8.489 0 011.62 1.92c.467.734.7 1.607.7 2.62 0 .8-.167 1.494-.5 2.08a3.369 3.369 0 01-1.38 1.32c-.573.307-1.24.46-2 .46zm5.573-8.48v-2.28h2.16v2.28h-2.16zm0 6.38v-2.28h2.16v2.28h-2.16zm3.325 1.92l4.36-16.2h1.86l-4.38 16.2h-1.84zm7.383 0l4.36-16.2h1.86l-4.38 16.2h-1.84z" fill="#fff"/><path d="M55.358 20V3.8h2.26v7h4.16v-7h2.26V20h-2.26v-7.58h-4.16V20h-2.26zm12.99 0V5.48h-2.74V3.8h7.66v1.68h-2.66V20h-2.26zm8.262 0V5.48h-2.74V3.8h7.66v1.68h-2.66V20h-2.26zm6.482 0V3.8h4.02c.973 0 1.747.18 2.32.54.587.347 1.013.853 1.28 1.52.267.667.4 1.473.4 2.42 0 .853-.153 1.593-.46 2.22a3.261 3.261 0 01-1.32 1.46c-.587.333-1.32.5-2.2.5h-1.78V20h-2.26zm2.26-9.16h1.04c.653 0 1.167-.073 1.54-.22.373-.147.64-.4.8-.76.16-.373.24-.893.24-1.56 0-.773-.06-1.367-.18-1.78-.107-.413-.34-.7-.7-.86-.36-.16-.92-.24-1.68-.24h-1.06v5.42zm11.17 9.34c-.934 0-1.714-.2-2.34-.6a3.804 3.804 0 01-1.4-1.66c-.32-.707-.507-1.527-.56-2.46l2-.54c.04.573.126 1.127.26 1.66.146.533.38.973.7 1.32.32.333.766.5 1.34.5.586 0 1.026-.16 1.32-.48.306-.333.46-.807.46-1.42 0-.733-.167-1.32-.5-1.76a9.01 9.01 0 00-1.26-1.36l-2.72-2.4c-.534-.467-.927-.973-1.18-1.52-.254-.56-.38-1.247-.38-2.06 0-1.187.34-2.107 1.02-2.76.68-.653 1.606-.98 2.78-.98.64 0 1.2.087 1.68.26.493.16.9.413 1.22.76.333.347.593.787.78 1.32.2.52.333 1.133.399 1.84l-1.92.52a7.762 7.762 0 00-.24-1.46c-.12-.453-.333-.813-.64-1.08-.293-.28-.72-.42-1.28-.42s-1 .153-1.32.46c-.306.293-.46.733-.46 1.32 0 .493.08.9.24 1.22.174.32.447.647.82.98l2.74 2.4a8.47 8.47 0 011.62 1.92c.467.733.7 1.607.7 2.62 0 .8-.166 1.493-.5 2.08a3.374 3.374 0 01-1.38 1.32c-.573.307-1.24.46-2 .46zm5.573-8.48V9.42h2.16v2.28h-2.16zm0 6.38V15.8h2.16v2.28h-2.16zM105.42 20l4.36-16.2h1.86L107.26 20h-1.84zm7.383 0l4.36-16.2h1.86l-4.38 16.2h-1.84z" fill="#C4DEC1"/><path d="M176.265 141.531v-16.2h2.26v7h4.16v-7h2.26v16.2h-2.26v-7.58h-4.16v7.58h-2.26zm12.991 0v-14.52h-2.74v-1.68h7.66v1.68h-2.66v14.52h-2.26zm8.262 0v-14.52h-2.74v-1.68h7.66v1.68h-2.66v14.52h-2.26zm6.481 0v-16.2h4.02c.974 0 1.747.18 2.32.54.587.347 1.014.854 1.28 1.52.267.667.4 1.474.4 2.42 0 .854-.153 1.594-.46 2.22a3.253 3.253 0 01-1.32 1.46c-.586.334-1.32.5-2.2.5h-1.78v7.54h-2.26zm2.26-9.16h1.04c.654 0 1.167-.073 1.54-.22.374-.146.64-.4.8-.76.16-.373.24-.893.24-1.56 0-.773-.06-1.366-.18-1.78-.106-.413-.34-.7-.7-.86-.36-.16-.92-.24-1.68-.24h-1.06v5.42zm11.17 9.34c-.934 0-1.714-.2-2.34-.6a3.797 3.797 0 01-1.4-1.66c-.32-.706-.507-1.526-.56-2.46l2-.54c.04.574.126 1.127.26 1.66.146.534.38.974.7 1.32.32.334.766.5 1.34.5.586 0 1.026-.16 1.32-.48.306-.333.46-.806.46-1.42 0-.733-.167-1.32-.5-1.76a9.133 9.133 0 00-1.26-1.36l-2.72-2.4c-.534-.466-.927-.973-1.18-1.52-.254-.56-.38-1.246-.38-2.06 0-1.186.34-2.106 1.02-2.76.68-.653 1.606-.98 2.78-.98.64 0 1.2.087 1.68.26.493.16.9.414 1.22.76.333.347.593.787.78 1.32.2.52.333 1.134.4 1.84l-1.92.52a7.766 7.766 0 00-.24-1.46c-.12-.453-.334-.813-.64-1.08-.294-.28-.72-.42-1.28-.42s-1 .154-1.32.46c-.307.294-.46.734-.46 1.32 0 .494.08.9.24 1.22.173.32.446.647.82.98l2.74 2.4a8.515 8.515 0 011.62 1.92c.466.734.7 1.607.7 2.62 0 .8-.167 1.494-.5 2.08a3.374 3.374 0 01-1.38 1.32c-.574.307-1.24.46-2 .46zm5.573-8.48v-2.28h2.16v2.28h-2.16zm0 6.38v-2.28h2.16v2.28h-2.16zm3.325 1.92l4.36-16.2h1.86l-4.38 16.2h-1.84zm7.383 0l4.36-16.2h1.86l-4.38 16.2h-1.84zM74.455 69V52.8h2.26v7h4.16v-7h2.26V69h-2.26v-7.58h-4.16V69h-2.26zm12.991 0V54.48h-2.74V52.8h7.66v1.68h-2.66V69h-2.26zm8.262 0V54.48h-2.74V52.8h7.66v1.68h-2.66V69h-2.26zm6.482 0V52.8h4.02c.973 0 1.746.18 2.32.54.586.347 1.013.853 1.28 1.52.266.667.4 1.473.4 2.42 0 .853-.154 1.593-.46 2.22a3.27 3.27 0 01-1.32 1.46c-.587.333-1.32.5-2.2.5h-1.78V69h-2.26zm2.26-9.16h1.04c.653 0 1.166-.073 1.54-.22.373-.147.64-.4.8-.76.16-.373.24-.893.24-1.56 0-.773-.06-1.367-.18-1.78-.107-.413-.34-.7-.7-.86-.36-.16-.92-.24-1.68-.24h-1.06v5.42zm11.169 9.34c-.933 0-1.713-.2-2.34-.6a3.806 3.806 0 01-1.4-1.66c-.32-.707-.507-1.527-.56-2.46l2-.54c.04.573.127 1.127.26 1.66.147.533.38.973.7 1.32.32.333.767.5 1.34.5.587 0 1.027-.16 1.32-.48.307-.333.46-.807.46-1.42 0-.733-.167-1.32-.5-1.76a8.98 8.98 0 00-1.26-1.36l-2.72-2.4c-.533-.467-.927-.973-1.18-1.52-.253-.56-.38-1.247-.38-2.06 0-1.187.34-2.107 1.02-2.76.68-.653 1.607-.98 2.78-.98.64 0 1.2.087 1.68.26.493.16.9.413 1.22.76.333.347.593.787.78 1.32.2.52.333 1.133.4 1.84l-1.92.52a7.762 7.762 0 00-.24-1.46c-.12-.453-.333-.813-.64-1.08-.293-.28-.72-.42-1.28-.42s-1 .153-1.32.46c-.307.293-.46.733-.46 1.32 0 .493.08.9.24 1.22.173.32.447.647.82.98l2.74 2.4a8.485 8.485 0 011.62 1.92c.467.733.7 1.607.7 2.62 0 .8-.167 1.493-.5 2.08a3.37 3.37 0 01-1.38 1.32c-.573.307-1.24.46-2 .46zm5.573-8.48v-2.28h2.16v2.28h-2.16zm0 6.38V64.8h2.16v2.28h-2.16zm3.326 1.92l4.36-16.2h1.86l-4.38 16.2h-1.84zm7.382 0l4.36-16.2h1.86L133.74 69h-1.84z" fill="#E46A4B"/><path d="M112.669 375.996v-16.2h2.26v7h4.16v-7h2.26v16.2h-2.26v-7.58h-4.16v7.58h-2.26zm12.991 0v-14.52h-2.74v-1.68h7.66v1.68h-2.66v14.52h-2.26zm8.262 0v-14.52h-2.74v-1.68h7.66v1.68h-2.66v14.52h-2.26zm6.482 0v-16.2h4.02c.973 0 1.746.18 2.32.54.586.347 1.013.854 1.28 1.52.266.667.4 1.474.4 2.42 0 .854-.154 1.594-.46 2.22a3.264 3.264 0 01-1.32 1.46c-.587.334-1.32.5-2.2.5h-1.78v7.54h-2.26zm2.26-9.16h1.04c.653 0 1.166-.073 1.54-.22.373-.146.64-.4.8-.76.16-.373.24-.893.24-1.56 0-.773-.06-1.366-.18-1.78-.107-.413-.34-.7-.7-.86-.36-.16-.92-.24-1.68-.24h-1.06v5.42zm11.169 9.34c-.933 0-1.713-.2-2.34-.6a3.804 3.804 0 01-1.4-1.66c-.32-.706-.507-1.526-.56-2.46l2-.54c.04.574.127 1.127.26 1.66.147.534.38.974.7 1.32.32.334.767.5 1.34.5.587 0 1.027-.16 1.32-.48.307-.333.46-.806.46-1.42 0-.733-.167-1.32-.5-1.76a9.027 9.027 0 00-1.26-1.36l-2.72-2.4c-.533-.466-.927-.973-1.18-1.52-.253-.56-.38-1.246-.38-2.06 0-1.186.34-2.106 1.02-2.76.68-.653 1.607-.98 2.78-.98.64 0 1.2.087 1.68.26.493.16.9.414 1.22.76.333.347.593.787.78 1.32.2.52.333 1.134.4 1.84l-1.92.52a7.766 7.766 0 00-.24-1.46c-.12-.453-.333-.813-.64-1.08-.293-.28-.72-.42-1.28-.42s-1 .154-1.32.46c-.307.294-.46.734-.46 1.32 0 .494.08.9.24 1.22.173.32.447.647.82.98l2.74 2.4a8.515 8.515 0 011.62 1.92c.467.734.7 1.607.7 2.62 0 .8-.167 1.494-.5 2.08a3.361 3.361 0 01-1.38 1.32c-.573.307-1.24.46-2 .46zm5.573-8.48v-2.28h2.16v2.28h-2.16zm0 6.38v-2.28h2.16v2.28h-2.16zm3.325 1.92l4.36-16.2h1.86l-4.38 16.2h-1.84zm7.383 0l4.36-16.2h1.86l-4.38 16.2h-1.84z" fill="#fff"/><path d="M131.767 424.996v-16.2h2.26v7h4.16v-7h2.26v16.2h-2.26v-7.58h-4.16v7.58h-2.26zm12.991 0v-14.52h-2.74v-1.68h7.66v1.68h-2.66v14.52h-2.26zm8.261 0v-14.52h-2.74v-1.68h7.66v1.68h-2.66v14.52h-2.26zm6.482 0v-16.2h4.02c.974 0 1.747.18 2.32.54.587.347 1.014.854 1.28 1.52.267.667.4 1.474.4 2.42 0 .854-.153 1.594-.46 2.22a3.253 3.253 0 01-1.32 1.46c-.586.334-1.32.5-2.2.5h-1.78v7.54h-2.26zm2.26-9.16h1.04c.654 0 1.167-.073 1.54-.22.374-.146.64-.4.8-.76.16-.373.24-.893.24-1.56 0-.773-.06-1.366-.18-1.78-.106-.413-.34-.7-.7-.86-.36-.16-.92-.24-1.68-.24h-1.06v5.42zm11.17 9.34c-.934 0-1.714-.2-2.34-.6a3.797 3.797 0 01-1.4-1.66c-.32-.706-.507-1.526-.56-2.46l2-.54c.04.574.126 1.127.26 1.66.146.534.38.974.7 1.32.32.334.766.5 1.34.5.586 0 1.026-.16 1.32-.48.306-.333.46-.806.46-1.42 0-.733-.167-1.32-.5-1.76a9.133 9.133 0 00-1.26-1.36l-2.72-2.4c-.534-.466-.927-.973-1.18-1.52-.254-.56-.38-1.246-.38-2.06 0-1.186.34-2.106 1.02-2.76.68-.653 1.606-.98 2.78-.98.64 0 1.2.087 1.68.26.493.16.9.414 1.22.76.333.347.593.787.78 1.32.2.52.333 1.134.4 1.84l-1.92.52a7.766 7.766 0 00-.24-1.46c-.12-.453-.334-.813-.64-1.08-.294-.28-.72-.42-1.28-.42s-1 .154-1.32.46c-.307.294-.46.734-.46 1.32 0 .494.08.9.24 1.22.173.32.446.647.82.98l2.74 2.4a8.515 8.515 0 011.62 1.92c.466.734.7 1.607.7 2.62 0 .8-.167 1.494-.5 2.08a3.374 3.374 0 01-1.38 1.32c-.574.307-1.24.46-2 .46zm5.573-8.48v-2.28h2.16v2.28h-2.16zm0 6.38v-2.28h2.16v2.28h-2.16zm3.325 1.92l4.36-16.2h1.86l-4.38 16.2h-1.84zm7.383 0l4.36-16.2h1.86l-4.38 16.2h-1.84z" fill="#E46A4B"/><path d="M180.905 485.886v-16.2h2.26v7h4.16v-7h2.26v16.2h-2.26v-7.58h-4.16v7.58h-2.26zm12.99 0v-14.52h-2.74v-1.68h7.66v1.68h-2.66v14.52h-2.26zm8.262 0v-14.52h-2.74v-1.68h7.66v1.68h-2.66v14.52h-2.26zm6.482 0v-16.2h4.02c.973 0 1.747.18 2.32.54.587.347 1.013.854 1.28 1.52.267.667.4 1.474.4 2.42 0 .854-.153 1.594-.46 2.22a3.253 3.253 0 01-1.32 1.46c-.587.334-1.32.5-2.2.5h-1.78v7.54h-2.26zm2.26-9.16h1.04c.653 0 1.167-.073 1.54-.22.373-.146.64-.4.8-.76.16-.373.24-.893.24-1.56 0-.773-.06-1.366-.18-1.78-.107-.413-.34-.7-.7-.86-.36-.16-.92-.24-1.68-.24h-1.06v5.42zm11.169 9.34c-.933 0-1.713-.2-2.34-.6a3.804 3.804 0 01-1.4-1.66c-.32-.706-.506-1.526-.56-2.46l2-.54c.04.574.127 1.127.26 1.66.147.534.38.974.7 1.32.32.334.767.5 1.34.5.587 0 1.027-.16 1.32-.48.307-.333.46-.806.46-1.42 0-.733-.166-1.32-.5-1.76a9.027 9.027 0 00-1.26-1.36l-2.72-2.4c-.533-.466-.926-.973-1.18-1.52-.253-.56-.38-1.246-.38-2.06 0-1.186.34-2.106 1.02-2.76.68-.653 1.607-.98 2.78-.98.64 0 1.2.087 1.68.26.494.16.9.414 1.22.76.334.347.594.787.78 1.32.2.52.334 1.134.4 1.84l-1.92.52a7.766 7.766 0 00-.24-1.46c-.12-.453-.333-.813-.64-1.08-.293-.28-.72-.42-1.28-.42s-1 .154-1.32.46c-.306.294-.46.734-.46 1.32 0 .494.08.9.24 1.22.174.32.447.647.82.98l2.74 2.4a8.464 8.464 0 011.62 1.92c.467.734.7 1.607.7 2.62 0 .8-.166 1.494-.5 2.08a3.361 3.361 0 01-1.38 1.32c-.573.307-1.24.46-2 .46zm5.573-8.48v-2.28h2.16v2.28h-2.16zm0 6.38v-2.28h2.16v2.28h-2.16zm3.326 1.92l4.36-16.2h1.86l-4.38 16.2h-1.84zm7.383 0l4.36-16.2h1.86l-4.38 16.2h-1.84z" fill="#fff"/><path d="M200.002 534.886v-16.2h2.26v7h4.16v-7h2.26v16.2h-2.26v-7.58h-4.16v7.58h-2.26zm12.991 0v-14.52h-2.74v-1.68h7.66v1.68h-2.66v14.52h-2.26zm8.262 0v-14.52h-2.74v-1.68h7.66v1.68h-2.66v14.52h-2.26zm6.482 0v-16.2h4.02c.973 0 1.746.18 2.32.54.586.347 1.013.854 1.28 1.52.266.667.4 1.474.4 2.42 0 .854-.154 1.594-.46 2.22a3.264 3.264 0 01-1.32 1.46c-.587.334-1.32.5-2.2.5h-1.78v7.54h-2.26zm2.26-9.16h1.04c.653 0 1.166-.073 1.54-.22.373-.146.64-.4.8-.76.16-.373.24-.893.24-1.56 0-.773-.06-1.366-.18-1.78-.107-.413-.34-.7-.7-.86-.36-.16-.92-.24-1.68-.24h-1.06v5.42zm11.169 9.34c-.933 0-1.713-.2-2.34-.6a3.804 3.804 0 01-1.4-1.66c-.32-.706-.507-1.526-.56-2.46l2-.54c.04.574.127 1.127.26 1.66.147.534.38.974.7 1.32.32.334.767.5 1.34.5.587 0 1.027-.16 1.32-.48.307-.333.46-.806.46-1.42 0-.733-.167-1.32-.5-1.76a9.027 9.027 0 00-1.26-1.36l-2.72-2.4c-.533-.466-.927-.973-1.18-1.52-.253-.56-.38-1.246-.38-2.06 0-1.186.34-2.106 1.02-2.76.68-.653 1.607-.98 2.78-.98.64 0 1.2.087 1.68.26.493.16.9.414 1.22.76.333.347.593.787.78 1.32.2.52.333 1.134.4 1.84l-1.92.52a7.766 7.766 0 00-.24-1.46c-.12-.453-.333-.813-.64-1.08-.293-.28-.72-.42-1.28-.42s-1 .154-1.32.46c-.307.294-.46.734-.46 1.32 0 .494.08.9.24 1.22.173.32.447.647.82.98l2.74 2.4a8.515 8.515 0 011.62 1.92c.467.734.7 1.607.7 2.62 0 .8-.167 1.494-.5 2.08a3.361 3.361 0 01-1.38 1.32c-.573.307-1.24.46-2 .46zm5.573-8.48v-2.28h2.16v2.28h-2.16zm0 6.38v-2.28h2.16v2.28h-2.16zm3.325 1.92l4.36-16.2h1.86l-4.38 16.2h-1.84zm7.383 0l4.36-16.2h1.86l-4.38 16.2h-1.84z" fill="#E46A4B"/><path d="M47.219 283.093v-16.2h2.26v7h4.16v-7h2.26v16.2h-2.26v-7.58h-4.16v7.58h-2.26zm12.99 0v-14.52h-2.74v-1.68h7.66v1.68h-2.66v14.52h-2.26zm8.263 0v-14.52h-2.74v-1.68h7.66v1.68h-2.66v14.52h-2.26zm6.481 0v-16.2h4.02c.974 0 1.747.18 2.32.54.587.346 1.014.853 1.28 1.52.267.666.4 1.473.4 2.42 0 .853-.153 1.593-.46 2.22a3.267 3.267 0 01-1.32 1.46c-.586.333-1.32.5-2.2.5h-1.78v7.54h-2.26zm2.26-9.16h1.04c.654 0 1.167-.074 1.54-.22.374-.147.64-.4.8-.76.16-.374.24-.894.24-1.56 0-.774-.06-1.367-.18-1.78-.106-.414-.34-.7-.7-.86-.36-.16-.92-.24-1.68-.24h-1.06v5.42zm11.17 9.34c-.934 0-1.714-.2-2.34-.6a3.808 3.808 0 01-1.4-1.66c-.32-.707-.507-1.527-.56-2.46l2-.54a9.6 9.6 0 00.26 1.66c.146.533.38.973.7 1.32.32.333.766.5 1.34.5.586 0 1.026-.16 1.32-.48.306-.334.46-.807.46-1.42 0-.734-.167-1.32-.5-1.76a8.963 8.963 0 00-1.26-1.36l-2.72-2.4c-.534-.467-.927-.974-1.18-1.52-.254-.56-.38-1.247-.38-2.06 0-1.187.34-2.107 1.02-2.76.68-.654 1.606-.98 2.78-.98.64 0 1.2.086 1.68.26.493.16.9.413 1.22.76.333.346.593.786.78 1.32.2.52.333 1.133.4 1.84l-1.92.52a7.753 7.753 0 00-.24-1.46c-.12-.454-.334-.814-.64-1.08-.294-.28-.72-.42-1.28-.42s-1 .153-1.32.46c-.307.293-.46.733-.46 1.32 0 .493.08.9.24 1.22.173.32.446.646.82.98l2.74 2.4a8.451 8.451 0 011.62 1.92c.466.733.7 1.606.7 2.62 0 .8-.167 1.493-.5 2.08a3.378 3.378 0 01-1.38 1.32c-.574.306-1.24.46-2 .46zm5.573-8.48v-2.28h2.16v2.28h-2.16zm0 6.38v-2.28h2.16v2.28h-2.16zm3.325 1.92l4.36-16.2h1.86l-4.38 16.2h-1.84zm7.383 0l4.36-16.2h1.86l-4.38 16.2h-1.84z" fill="#fff"/><path d="M66.317 332.093v-16.2h2.26v7h4.16v-7h2.26v16.2h-2.26v-7.58h-4.16v7.58h-2.26zm12.99 0v-14.52h-2.74v-1.68h7.66v1.68h-2.66v14.52h-2.26zm8.262 0v-14.52h-2.74v-1.68h7.66v1.68h-2.66v14.52h-2.26zm6.482 0v-16.2h4.02c.973 0 1.747.18 2.32.54.587.346 1.013.853 1.28 1.52.267.666.4 1.473.4 2.42 0 .853-.153 1.593-.46 2.22a3.263 3.263 0 01-1.32 1.46c-.587.333-1.32.5-2.2.5h-1.78v7.54h-2.26zm2.26-9.16h1.04c.653 0 1.167-.074 1.54-.22.373-.147.64-.4.8-.76.16-.374.24-.894.24-1.56 0-.774-.06-1.367-.18-1.78-.107-.414-.34-.7-.7-.86-.36-.16-.92-.24-1.68-.24h-1.06v5.42zm11.169 9.34c-.933 0-1.713-.2-2.34-.6a3.81 3.81 0 01-1.4-1.66c-.32-.707-.506-1.527-.56-2.46l2-.54c.04.573.127 1.126.26 1.66.147.533.38.973.7 1.32.32.333.767.5 1.34.5.587 0 1.027-.16 1.32-.48.307-.334.46-.807.46-1.42 0-.734-.166-1.32-.5-1.76a8.933 8.933 0 00-1.26-1.36l-2.72-2.4c-.533-.467-.926-.974-1.18-1.52-.253-.56-.38-1.247-.38-2.06 0-1.187.34-2.107 1.02-2.76.68-.654 1.607-.98 2.78-.98.64 0 1.2.086 1.68.26.494.16.9.413 1.22.76.334.346.594.786.78 1.32.2.52.334 1.133.4 1.84l-1.92.52a7.753 7.753 0 00-.24-1.46c-.12-.454-.333-.814-.64-1.08-.293-.28-.72-.42-1.28-.42s-1 .153-1.32.46c-.306.293-.46.733-.46 1.32 0 .493.08.9.24 1.22.174.32.447.646.82.98l2.74 2.4a8.42 8.42 0 011.62 1.92c.467.733.7 1.606.7 2.62 0 .8-.166 1.493-.5 2.08a3.374 3.374 0 01-1.38 1.32c-.573.306-1.24.46-2 .46zm5.574-8.48v-2.28h2.16v2.28h-2.16zm0 6.38v-2.28h2.16v2.28h-2.16zm3.325 1.92l4.36-16.2h1.86l-4.38 16.2h-1.84zm7.383 0l4.36-16.2h1.86l-4.38 16.2h-1.84z" fill="#E46A4B"/><path d="M99.922 185.505v-16.2h2.26v7h4.16v-7h2.26v16.2h-2.26v-7.58h-4.16v7.58h-2.26zm12.991 0v-14.52h-2.74v-1.68h7.66v1.68h-2.66v14.52h-2.26zm8.262 0v-14.52h-2.74v-1.68h7.66v1.68h-2.66v14.52h-2.26zm6.481 0v-16.2h4.02c.974 0 1.747.18 2.32.54.587.346 1.014.853 1.28 1.52.267.666.4 1.473.4 2.42 0 .853-.153 1.593-.46 2.22a3.263 3.263 0 01-1.32 1.46c-.586.333-1.32.5-2.2.5h-1.78v7.54h-2.26zm2.26-9.16h1.04c.654 0 1.167-.074 1.54-.22.374-.147.64-.4.8-.76.16-.374.24-.894.24-1.56 0-.774-.06-1.367-.18-1.78-.106-.414-.34-.7-.7-.86-.36-.16-.92-.24-1.68-.24h-1.06v5.42zm11.17 9.34c-.933 0-1.713-.2-2.34-.6a3.81 3.81 0 01-1.4-1.66c-.32-.707-.507-1.527-.56-2.46l2-.54c.04.573.127 1.126.26 1.66.147.533.38.973.7 1.32.32.333.767.5 1.34.5.587 0 1.027-.16 1.32-.48.307-.334.46-.807.46-1.42 0-.734-.167-1.32-.5-1.76a8.933 8.933 0 00-1.26-1.36l-2.72-2.4c-.533-.467-.927-.974-1.18-1.52-.253-.56-.38-1.247-.38-2.06 0-1.187.34-2.107 1.02-2.76.68-.654 1.607-.98 2.78-.98.64 0 1.2.086 1.68.26.493.16.9.413 1.22.76.333.346.593.786.78 1.32.2.52.333 1.133.4 1.84l-1.92.52a7.753 7.753 0 00-.24-1.46c-.12-.454-.333-.814-.64-1.08-.293-.28-.72-.42-1.28-.42s-1 .153-1.32.46c-.307.293-.46.733-.46 1.32 0 .493.08.9.24 1.22.173.32.447.646.82.98l2.74 2.4a8.471 8.471 0 011.62 1.92c.467.733.7 1.606.7 2.62 0 .8-.167 1.493-.5 2.08a3.374 3.374 0 01-1.38 1.32c-.573.306-1.24.46-2 .46zm5.573-8.48v-2.28h2.16v2.28h-2.16zm0 6.38v-2.28h2.16v2.28h-2.16zm3.325 1.92l4.36-16.2h1.86l-4.38 16.2h-1.84zm7.383 0l4.36-16.2h1.86l-4.38 16.2h-1.84z" fill="#fff"/><path d="M119.02 234.505v-16.2h2.26v7h4.16v-7h2.26v16.2h-2.26v-7.58h-4.16v7.58h-2.26zm12.991 0v-14.52h-2.74v-1.68h7.66v1.68h-2.66v14.52h-2.26zm8.261 0v-14.52h-2.74v-1.68h7.66v1.68h-2.66v14.52h-2.26zm6.482 0v-16.2h4.02c.973 0 1.747.18 2.32.54.587.346 1.013.853 1.28 1.52.267.666.4 1.473.4 2.42 0 .853-.153 1.593-.46 2.22a3.263 3.263 0 01-1.32 1.46c-.587.333-1.32.5-2.2.5h-1.78v7.54h-2.26zm2.26-9.16h1.04c.653 0 1.167-.074 1.54-.22.373-.147.64-.4.8-.76.16-.374.24-.894.24-1.56 0-.774-.06-1.367-.18-1.78-.107-.414-.34-.7-.7-.86-.36-.16-.92-.24-1.68-.24h-1.06v5.42zm11.17 9.34c-.934 0-1.714-.2-2.34-.6-.614-.4-1.08-.954-1.4-1.66-.32-.707-.507-1.527-.56-2.46l2-.54c.04.573.126 1.126.26 1.66.146.533.38.973.7 1.32.32.333.766.5 1.34.5.586 0 1.026-.16 1.32-.48.306-.334.46-.807.46-1.42 0-.734-.167-1.32-.5-1.76a9.036 9.036 0 00-1.26-1.36l-2.72-2.4c-.534-.467-.927-.974-1.18-1.52-.254-.56-.38-1.247-.38-2.06 0-1.187.34-2.107 1.02-2.76.68-.654 1.606-.98 2.78-.98.64 0 1.2.086 1.68.26.493.16.9.413 1.22.76.333.346.593.786.78 1.32.2.52.333 1.133.4 1.84l-1.92.52a7.753 7.753 0 00-.24-1.46c-.12-.454-.334-.814-.64-1.08-.294-.28-.72-.42-1.28-.42s-1 .153-1.32.46c-.307.293-.46.733-.46 1.32 0 .493.08.9.24 1.22.173.32.446.646.82.98l2.74 2.4a8.471 8.471 0 011.62 1.92c.466.733.7 1.606.7 2.62 0 .8-.167 1.493-.5 2.08a3.386 3.386 0 01-1.38 1.32c-.574.306-1.24.46-2 .46zm5.573-8.48v-2.28h2.16v2.28h-2.16zm0 6.38v-2.28h2.16v2.28h-2.16zm3.325 1.92l4.36-16.2h1.86l-4.38 16.2h-1.84zm7.383 0l4.36-16.2h1.86l-4.38 16.2h-1.84z" fill="#E46A4B"/><path d="M1.26 118.456v-16.2h2.26v7h4.16v-7h2.26v16.2H7.68v-7.58H3.52v7.58H1.26zm12.99 0v-14.52h-2.74v-1.68h7.66v1.68h-2.66v14.52h-2.26zm8.263 0v-14.52h-2.74v-1.68h7.66v1.68h-2.66v14.52h-2.26zm6.481 0v-16.2h4.02c.974 0 1.747.18 2.32.54.587.347 1.014.853 1.28 1.52.267.667.4 1.473.4 2.42 0 .853-.153 1.593-.46 2.22a3.262 3.262 0 01-1.32 1.46c-.586.333-1.32.5-2.2.5h-1.78v7.54h-2.26zm2.26-9.16h1.04c.654 0 1.167-.073 1.54-.22.374-.147.64-.4.8-.76.16-.373.24-.893.24-1.56 0-.773-.06-1.367-.18-1.78-.106-.413-.34-.7-.7-.86-.36-.16-.92-.24-1.68-.24h-1.06v5.42zm11.17 9.34c-.934 0-1.714-.2-2.34-.6a3.801 3.801 0 01-1.4-1.66c-.32-.707-.507-1.527-.56-2.46l2-.54c.04.573.126 1.127.26 1.66.146.533.38.973.7 1.32.32.333.766.5 1.34.5.586 0 1.026-.16 1.32-.48.306-.333.46-.807.46-1.42 0-.733-.167-1.32-.5-1.76a9.021 9.021 0 00-1.26-1.36l-2.72-2.4c-.534-.467-.927-.973-1.18-1.52-.254-.56-.38-1.247-.38-2.06 0-1.187.34-2.107 1.02-2.76.68-.653 1.606-.98 2.78-.98.64 0 1.2.087 1.68.26.493.16.9.413 1.22.76.333.347.593.787.78 1.32.2.52.333 1.133.4 1.84l-1.92.52a7.766 7.766 0 00-.24-1.46c-.12-.453-.334-.813-.64-1.08-.294-.28-.72-.42-1.28-.42s-1 .153-1.32.46c-.307.293-.46.733-.46 1.32 0 .493.08.9.24 1.22.173.32.446.647.82.98l2.74 2.4a8.456 8.456 0 011.62 1.92c.466.733.7 1.607.7 2.62 0 .8-.167 1.493-.5 2.08a3.379 3.379 0 01-1.38 1.32c-.574.307-1.24.46-2 .46zm5.573-8.48v-2.28h2.16v2.28h-2.16zm0 6.38v-2.28h2.16v2.28h-2.16zm3.325 1.92l4.36-16.2h1.86l-4.38 16.2h-1.84zm7.383 0l4.36-16.2h1.86l-4.38 16.2h-1.84z" fill="#fff"/><path d="M20.358 167.456v-16.2h2.26v7h4.16v-7h2.26v16.2h-2.26v-7.58h-4.16v7.58h-2.26zm12.99 0v-14.52h-2.74v-1.68h7.66v1.68h-2.66v14.52h-2.26zm8.262 0v-14.52h-2.74v-1.68h7.66v1.68h-2.66v14.52h-2.26zm6.482 0v-16.2h4.02c.973 0 1.747.18 2.32.54.587.347 1.013.853 1.28 1.52.267.667.4 1.473.4 2.42 0 .853-.153 1.593-.46 2.22a3.261 3.261 0 01-1.32 1.46c-.587.333-1.32.5-2.2.5h-1.78v7.54h-2.26zm2.26-9.16h1.04c.653 0 1.167-.073 1.54-.22.373-.147.64-.4.8-.76.16-.373.24-.893.24-1.56 0-.773-.06-1.367-.18-1.78-.107-.413-.34-.7-.7-.86-.36-.16-.92-.24-1.68-.24h-1.06v5.42zm11.17 9.34c-.934 0-1.714-.2-2.34-.6a3.802 3.802 0 01-1.4-1.66c-.32-.707-.507-1.527-.56-2.46l2-.54c.04.573.126 1.127.26 1.66.146.533.38.973.7 1.32.32.333.766.5 1.34.5.586 0 1.026-.16 1.32-.48.306-.333.46-.807.46-1.42 0-.733-.167-1.32-.5-1.76a9.01 9.01 0 00-1.26-1.36l-2.72-2.4c-.534-.467-.927-.973-1.18-1.52-.254-.56-.38-1.247-.38-2.06 0-1.187.34-2.107 1.02-2.76.68-.653 1.606-.98 2.78-.98.64 0 1.2.087 1.68.26.493.16.9.413 1.22.76.333.347.593.787.78 1.32.2.52.333 1.133.4 1.84l-1.92.52a7.766 7.766 0 00-.24-1.46c-.12-.453-.334-.813-.64-1.08-.294-.28-.72-.42-1.28-.42s-1 .153-1.32.46c-.307.293-.46.733-.46 1.32 0 .493.08.9.24 1.22.173.32.446.647.82.98l2.74 2.4a8.456 8.456 0 011.62 1.92c.466.733.7 1.607.7 2.62 0 .8-.167 1.493-.5 2.08a3.378 3.378 0 01-1.38 1.32c-.574.307-1.24.46-2 .46zm5.572-8.48v-2.28h2.16v2.28h-2.16zm0 6.38v-2.28h2.16v2.28h-2.16zm3.326 1.92l4.36-16.2h1.86l-4.38 16.2h-1.84zm7.383 0l4.36-16.2h1.86l-4.38 16.2h-1.84z" fill="#E46A4B"/><path d="M338.476 459.328v-16.2h2.26v7h4.16v-7h2.26v16.2h-2.26v-7.58h-4.16v7.58h-2.26zm12.991 0v-14.52h-2.74v-1.68h7.66v1.68h-2.66v14.52h-2.26zm8.261 0v-14.52h-2.74v-1.68h7.66v1.68h-2.66v14.52h-2.26zm6.482 0v-16.2h4.02c.974 0 1.747.18 2.32.54.587.347 1.014.854 1.28 1.52.267.667.4 1.474.4 2.42 0 .854-.153 1.594-.46 2.22a3.253 3.253 0 01-1.32 1.46c-.586.334-1.32.5-2.2.5h-1.78v7.54h-2.26zm2.26-9.16h1.04c.654 0 1.167-.073 1.54-.22.374-.146.64-.4.8-.76.16-.373.24-.893.24-1.56 0-.773-.06-1.366-.18-1.78-.106-.413-.34-.7-.7-.86-.36-.16-.92-.24-1.68-.24h-1.06v5.42zm11.17 9.34c-.934 0-1.714-.2-2.34-.6a3.797 3.797 0 01-1.4-1.66c-.32-.706-.507-1.526-.56-2.46l2-.54c.04.574.126 1.127.26 1.66.146.534.38.974.7 1.32.32.334.766.5 1.34.5.586 0 1.026-.16 1.32-.48.306-.333.46-.806.46-1.42 0-.733-.167-1.32-.5-1.76a9.133 9.133 0 00-1.26-1.36l-2.72-2.4c-.534-.466-.927-.973-1.18-1.52-.254-.56-.38-1.246-.38-2.06 0-1.186.34-2.106 1.02-2.76.68-.653 1.606-.98 2.78-.98.64 0 1.2.087 1.68.26.493.16.9.414 1.22.76.333.347.593.787.78 1.32.2.52.333 1.134.4 1.84l-1.92.52a7.766 7.766 0 00-.24-1.46c-.12-.453-.334-.813-.64-1.08-.294-.28-.72-.42-1.28-.42s-1 .154-1.32.46c-.307.294-.46.734-.46 1.32 0 .494.08.9.24 1.22.173.32.446.647.82.98l2.74 2.4a8.515 8.515 0 011.62 1.92c.466.734.7 1.607.7 2.62 0 .8-.167 1.494-.5 2.08a3.374 3.374 0 01-1.38 1.32c-.574.307-1.24.46-2 .46zm5.573-8.48v-2.28h2.16v2.28h-2.16zm0 6.38v-2.28h2.16v2.28h-2.16zm3.325 1.92l4.36-16.2h1.86l-4.38 16.2h-1.84zm7.383 0l4.36-16.2h1.86l-4.38 16.2h-1.84z" fill="#fff"/><path d="M357.573 508.328v-16.2h2.26v7h4.16v-7h2.26v16.2h-2.26v-7.58h-4.16v7.58h-2.26zm12.991 0v-14.52h-2.74v-1.68h7.66v1.68h-2.66v14.52h-2.26zm8.262 0v-14.52h-2.74v-1.68h7.66v1.68h-2.66v14.52h-2.26zm6.482 0v-16.2h4.02c.973 0 1.747.18 2.32.54.587.347 1.013.854 1.28 1.52.267.667.4 1.474.4 2.42 0 .854-.153 1.594-.46 2.22a3.253 3.253 0 01-1.32 1.46c-.587.334-1.32.5-2.2.5h-1.78v7.54h-2.26zm2.26-9.16h1.04c.653 0 1.167-.073 1.54-.22.373-.146.64-.4.8-.76.16-.373.24-.893.24-1.56 0-.773-.06-1.366-.18-1.78-.107-.413-.34-.7-.7-.86-.36-.16-.92-.24-1.68-.24h-1.06v5.42zm11.169 9.34c-.933 0-1.713-.2-2.34-.6a3.804 3.804 0 01-1.4-1.66c-.32-.706-.506-1.526-.56-2.46l2-.54c.04.574.127 1.127.26 1.66.147.534.38.974.7 1.32.32.334.767.5 1.34.5.587 0 1.027-.16 1.32-.48.307-.333.46-.806.46-1.42 0-.733-.166-1.32-.5-1.76a9.027 9.027 0 00-1.26-1.36l-2.72-2.4c-.533-.466-.926-.973-1.18-1.52-.253-.56-.38-1.246-.38-2.06 0-1.186.34-2.106 1.02-2.76.68-.653 1.607-.98 2.78-.98.64 0 1.2.087 1.68.26.494.16.9.414 1.22.76.334.347.594.787.78 1.32.2.52.334 1.134.4 1.84l-1.92.52a7.766 7.766 0 00-.24-1.46c-.12-.453-.333-.813-.64-1.08-.293-.28-.72-.42-1.28-.42s-1 .154-1.32.46c-.306.294-.46.734-.46 1.32 0 .494.08.9.24 1.22.174.32.447.647.82.98l2.74 2.4a8.464 8.464 0 011.62 1.92c.467.734.7 1.607.7 2.62 0 .8-.166 1.494-.5 2.08a3.361 3.361 0 01-1.38 1.32c-.573.307-1.24.46-2 .46zm5.573-8.48v-2.28h2.16v2.28h-2.16zm0 6.38v-2.28h2.16v2.28h-2.16zm3.326 1.92l4.36-16.2h1.86l-4.38 16.2h-1.84zm7.382 0l4.36-16.2h1.86l-4.38 16.2h-1.84z" fill="#E46A4B"/><path d="M279.18 552.146v-16.2h2.26v7h4.16v-7h2.26v16.2h-2.26v-7.58h-4.16v7.58h-2.26zm12.991 0v-14.52h-2.74v-1.68h7.66v1.68h-2.66v14.52h-2.26zm8.262 0v-14.52h-2.74v-1.68h7.66v1.68h-2.66v14.52h-2.26zm6.481 0v-16.2h4.02c.974 0 1.747.18 2.32.54.587.347 1.014.853 1.28 1.52.267.667.4 1.473.4 2.42 0 .853-.153 1.593-.46 2.22a3.258 3.258 0 01-1.32 1.46c-.586.333-1.32.5-2.2.5h-1.78v7.54h-2.26zm2.26-9.16h1.04c.654 0 1.167-.073 1.54-.22.374-.147.64-.4.8-.76.16-.373.24-.893.24-1.56 0-.773-.06-1.367-.18-1.78-.106-.413-.34-.7-.7-.86-.36-.16-.92-.24-1.68-.24h-1.06v5.42zm11.17 9.34c-.934 0-1.714-.2-2.34-.6a3.797 3.797 0 01-1.4-1.66c-.32-.707-.507-1.527-.56-2.46l2-.54c.04.573.126 1.127.26 1.66.146.533.38.973.7 1.32.32.333.766.5 1.34.5.586 0 1.026-.16 1.32-.48.306-.333.46-.807.46-1.42 0-.733-.167-1.32-.5-1.76a9.084 9.084 0 00-1.26-1.36l-2.72-2.4c-.534-.467-.927-.973-1.18-1.52-.254-.56-.38-1.247-.38-2.06 0-1.187.34-2.107 1.02-2.76.68-.653 1.606-.98 2.78-.98.64 0 1.2.087 1.68.26.493.16.9.413 1.22.76.333.347.593.787.78 1.32.2.52.333 1.133.4 1.84l-1.92.52a7.766 7.766 0 00-.24-1.46c-.12-.453-.334-.813-.64-1.08-.294-.28-.72-.42-1.28-.42s-1 .153-1.32.46c-.307.293-.46.733-.46 1.32 0 .493.08.9.24 1.22.173.32.446.647.82.98l2.74 2.4a8.471 8.471 0 011.62 1.92c.466.733.7 1.607.7 2.62 0 .8-.167 1.493-.5 2.08a3.386 3.386 0 01-1.38 1.32c-.574.307-1.24.46-2 .46zm5.573-8.48v-2.28h2.16v2.28h-2.16zm0 6.38v-2.28h2.16v2.28h-2.16zm3.325 1.92l4.36-16.2h1.86l-4.38 16.2h-1.84zm7.383 0l4.36-16.2h1.86l-4.38 16.2h-1.84z" fill="#fff"/><path d="M298.278 601.146v-16.2h2.26v7h4.16v-7h2.26v16.2h-2.26v-7.58h-4.16v7.58h-2.26zm12.991 0v-14.52h-2.74v-1.68h7.66v1.68h-2.66v14.52h-2.26zm8.261 0v-14.52h-2.74v-1.68h7.66v1.68h-2.66v14.52h-2.26zm6.482 0v-16.2h4.02c.973 0 1.747.18 2.32.54.587.347 1.013.853 1.28 1.52.267.667.4 1.473.4 2.42 0 .853-.153 1.593-.46 2.22a3.258 3.258 0 01-1.32 1.46c-.587.333-1.32.5-2.2.5h-1.78v7.54h-2.26zm2.26-9.16h1.04c.653 0 1.167-.073 1.54-.22.373-.147.64-.4.8-.76.16-.373.24-.893.24-1.56 0-.773-.06-1.367-.18-1.78-.107-.413-.34-.7-.7-.86-.36-.16-.92-.24-1.68-.24h-1.06v5.42zm11.169 9.34c-.933 0-1.713-.2-2.34-.6a3.804 3.804 0 01-1.4-1.66c-.32-.707-.506-1.527-.56-2.46l2-.54c.04.573.127 1.127.26 1.66.147.533.38.973.7 1.32.32.333.767.5 1.34.5.587 0 1.027-.16 1.32-.48.307-.333.46-.807.46-1.42 0-.733-.166-1.32-.5-1.76a8.98 8.98 0 00-1.26-1.36l-2.72-2.4c-.533-.467-.926-.973-1.18-1.52-.253-.56-.38-1.247-.38-2.06 0-1.187.34-2.107 1.02-2.76.68-.653 1.607-.98 2.78-.98.64 0 1.2.087 1.68.26.494.16.9.413 1.22.76.334.347.594.787.78 1.32.2.52.334 1.133.4 1.84l-1.92.52a7.766 7.766 0 00-.24-1.46c-.12-.453-.333-.813-.64-1.08-.293-.28-.72-.42-1.28-.42s-1 .153-1.32.46c-.306.293-.46.733-.46 1.32 0 .493.08.9.24 1.22.174.32.447.647.82.98l2.74 2.4a8.42 8.42 0 011.62 1.92c.467.733.7 1.607.7 2.62 0 .8-.166 1.493-.5 2.08a3.374 3.374 0 01-1.38 1.32c-.573.307-1.24.46-2 .46zm5.573-8.48v-2.28h2.16v2.28h-2.16zm0 6.38v-2.28h2.16v2.28h-2.16zm3.326 1.92l4.36-16.2h1.86l-4.38 16.2h-1.84zm7.383 0l4.36-16.2h1.86l-4.38 16.2h-1.84z" fill="#E46A4B"/></svg>