<svg width="38" height="39" viewBox="0 0 38 39" fill="none" xmlns="http://www.w3.org/2000/svg"><g clip-path="url(#clip0_416_104)"><path d="M37.596 20.01c0-1.25-.111-2.438-.301-3.594H19.403v7.14h10.245c-.46 2.344-1.805 4.323-3.8 5.67v4.75h6.111c3.579-3.31 5.637-8.187 5.637-13.966z" fill="#4285F4"/><path d="M19.404 38.583c5.13 0 9.42-1.71 12.555-4.608l-6.111-4.75c-1.71 1.14-3.88 1.837-6.444 1.837-4.956 0-9.152-3.341-10.656-7.854H2.446v4.893c3.12 6.207 9.532 10.482 16.958 10.482z" fill="#34A853"/><path d="M8.748 23.209a11.025 11.025 0 01-.602-3.626c0-1.267.221-2.486.601-3.626v-4.893h-6.3a18.78 18.78 0 000 17.037l6.302-4.892z" fill="#FBBC05"/><path d="M19.404 8.104c2.802 0 5.304.965 7.283 2.85l5.415-5.415C28.825 2.467 24.534.583 19.404.583c-7.426 0-13.839 4.275-16.958 10.481l6.302 4.893c1.504-4.513 5.7-7.853 10.656-7.853z" fill="#EA4335"/></g><defs><clipPath id="clip0_416_104"><path fill="#fff" transform="translate(0 .583)" d="M0 0h38v38H0z"/></clipPath></defs></svg>