<svg width="37" height="36" viewBox="0 0 37 36" fill="none" xmlns="http://www.w3.org/2000/svg"><path d="M9.712 35.873c-2.14-.098-3.304-.454-4.077-.756-1.025-.399-1.756-.874-2.525-1.642-.77-.768-1.246-1.499-1.642-2.524-.302-.774-.659-1.937-.756-4.078-.107-2.314-.128-3.008-.128-8.871 0-5.864.023-6.557.127-8.873.097-2.141.456-3.302.755-4.078.4-1.025.876-1.756 1.643-2.526.768-.768 1.499-1.245 2.525-1.642C6.407.58 7.57.225 9.71.127 12.027.021 12.722 0 18.583 0c5.863 0 6.557.024 8.873.127 2.141.098 3.302.456 4.078.756 1.025.397 1.755.874 2.525 1.642.769.768 1.243 1.5 1.642 2.525.302.774.658 1.937.755 4.078.106 2.316.128 3.01.128 8.872s-.022 6.557-.128 8.873c-.097 2.141-.455 3.304-.755 4.078-.399 1.025-.874 1.756-1.642 2.524-.768.768-1.5 1.243-2.525 1.642-.774.302-1.937.658-4.078.756-2.314.106-3.01.127-8.873.127-5.86 0-6.556-.02-8.87-.127z" fill="url(#paint0_radial_1_610)"/><path d="M9.712 35.873c-2.14-.098-3.304-.454-4.077-.756-1.025-.399-1.756-.874-2.525-1.642-.77-.768-1.246-1.499-1.642-2.524-.302-.774-.659-1.937-.756-4.078-.107-2.314-.128-3.008-.128-8.871 0-5.864.023-6.557.127-8.873.097-2.141.456-3.302.755-4.078.4-1.025.876-1.756 1.643-2.526.768-.768 1.499-1.245 2.525-1.642C6.407.58 7.57.225 9.71.127 12.027.021 12.722 0 18.583 0c5.863 0 6.557.024 8.873.127 2.141.098 3.302.456 4.078.756 1.025.397 1.755.874 2.525 1.642.769.768 1.243 1.5 1.642 2.525.302.774.658 1.937.755 4.078.106 2.316.128 3.01.128 8.872s-.022 6.557-.128 8.873c-.097 2.141-.455 3.304-.755 4.078-.399 1.025-.874 1.756-1.642 2.524-.768.768-1.5 1.243-2.525 1.642-.774.302-1.937.658-4.078.756-2.314.106-3.01.127-8.873.127-5.86 0-6.556-.02-8.87-.127z" fill="url(#paint1_radial_1_610)"/><path d="M14.164 18.077a4.458 4.458 0 118.915-.001 4.458 4.458 0 01-8.915.001zm-2.41 0a6.867 6.867 0 1013.734 0 6.867 6.867 0 00-13.734 0zm12.402-7.14a1.604 1.604 0 101.605-1.604 1.606 1.606 0 00-1.605 1.604zM13.217 28.963c-1.304-.059-2.013-.276-2.484-.46a4.156 4.156 0 01-1.538-1 4.126 4.126 0 01-1-1.537c-.184-.471-.401-1.18-.46-2.484-.066-1.41-.078-1.833-.078-5.405 0-3.571.014-3.994.077-5.405.06-1.303.279-2.011.46-2.483a4.157 4.157 0 011-1.539 4.121 4.121 0 011.54-1c.47-.183 1.179-.4 2.483-.46 1.41-.065 1.833-.078 5.403-.078 3.57 0 3.994.014 5.405.078 1.304.06 2.011.278 2.483.46.625.242 1.07.533 1.539 1a4.15 4.15 0 011 1.54c.184.47.4 1.179.46 2.483.065 1.41.078 1.833.078 5.405 0 3.571-.013 3.993-.078 5.404-.06 1.304-.277 2.013-.46 2.484a4.144 4.144 0 01-1 1.537 4.157 4.157 0 01-1.539 1c-.47.184-1.18.401-2.483.46-1.41.065-1.834.078-5.405.078-3.572 0-3.994-.013-5.403-.077zm-.111-24.18c-1.424.066-2.397.291-3.246.622-.88.341-1.625.8-2.37 1.543a6.53 6.53 0 00-1.54 2.369c-.33.85-.556 1.822-.621 3.246-.066 1.426-.081 1.882-.081 5.514 0 3.632.015 4.088.08 5.514.066 1.424.291 2.396.622 3.246.341.88.798 1.627 1.543 2.37a6.572 6.572 0 002.369 1.542c.851.33 1.822.556 3.246.621 1.427.065 1.882.081 5.514.081 3.632 0 4.088-.015 5.514-.08 1.424-.066 2.396-.291 3.246-.622.88-.342 1.625-.8 2.37-1.543a6.552 6.552 0 001.542-2.369c.33-.85.557-1.822.621-3.246.065-1.427.08-1.882.08-5.514 0-3.632-.015-4.088-.08-5.514-.065-1.424-.29-2.397-.621-3.246a6.577 6.577 0 00-1.543-2.37 6.543 6.543 0 00-2.368-1.542c-.851-.33-1.823-.557-3.246-.621-1.426-.065-1.882-.081-5.514-.081-3.63 0-4.088.015-5.514.08" fill="#fff"/><defs><radialGradient id="paint0_radial_1_610" cx="0" cy="0" r="1" gradientUnits="userSpaceOnUse" gradientTransform="translate(2.914 35.211) scale(45.7066)"><stop offset=".09" stop-color="#FA8F21"/><stop offset=".78" stop-color="#D82D7E"/></radialGradient><radialGradient id="paint1_radial_1_610" cx="0" cy="0" r="1" gradientUnits="userSpaceOnUse" gradientTransform="translate(25.52 34.055) scale(40.2223)"><stop offset=".64" stop-color="#8C3AAA" stop-opacity="0"/><stop offset="1" stop-color="#8C3AAA"/></radialGradient></defs></svg>