<svg height="512" id="Calque_1" version="1.1" viewBox="0 0 512 512" width="512" xml:space="preserve" xmlns="http://www.w3.org/2000/svg"><path d="M83.443 260.036a4.951 4.951 0 002.285 1.285l159.215 159.215a5 5 0 008.535-3.536v-79.168l169.988 53.936a4.997 4.997 0 006.513-4.766V256.5c0-.171-.034-.333-.051-.5.017-.167.051-.329.051-.5V125a5 5 0 00-6.513-4.764L253.478 174.17V95a5 5 0 00-8.535-3.535L85.729 250.679a4.954 4.954 0 00-2.286 1.285c-1.104 1.104-1.562 2.595-1.417 4.035-.144 1.442.313 2.932 1.417 4.037zm162.082-75.001a5 5 0 004.465.73l169.989-53.935V255.5c0 .171.033.333.05.5-.017.167-.05.329-.05.5v123.668L249.99 326.234a5 5 0 00-6.513 4.764v73.93L94.549 256l148.93-148.929V181a4.997 4.997 0 002.046 4.035z" fill="none"/><g fill="#202020"><path d="M245.978 156.303c.056 2.7-.255 5.055-.395 4.039.377 5.499-.052 5.617.678 6.329.358 3.53-.138 7.295-.434 3.279l.446 10.177.113-6.084c.303.829.258 3.259.225 5.724-.029 1.566-.035 1.639.198 2.057.207.34.521.493.743.439 0 0-.189-.116-.379-.381a1.627 1.627 0 01-.233-.501c-.01-.05-.025-.1-.031-.152-.015-.117-.002.072-.016-.114l-.004-.127-.002-.064v-.02l.001.096v-.04l-.001-.257-.002-.516-.03-5.508.201.55c-.217-2.508-.126-7.38-.041-9.079.1.268.262.097.28 2.04.046-13.3-1.061-3.583-1.262-14.619.014.692.005 1.549-.055 2.732zm1.485-11.298l-.761-4.639.196-7.784c-.263-.088-.475-5.758-.706-1.919.042.75.12 2.234.096 3.432-.284-.434-.354-3.021-.426-5.215a68.247 68.247 0 00-.135-2.857c-.063-.737-.153-.916-.296-.19l.126 6.531c.045 1.479.129 2.663.36 4.557-.053 5.643-.183 9.753-.391 12.388.086 1.675.435 1.91.504 4.039l-.022-1.445.853-.229c-.18-1.775-.095-3.453-.112-5.422l.997 9.111c.799-2.938.33-11.89.662-15.467-.72 4.435-.358-3.534-.945 5.109zm-1.433 8.342l.002.224-.002-.224zm128.504 209.871c1.852.571 2.457.552 2.754.539l-20.794-6.58c.583.42 6.487 2.584 2.445 1.442 1.71.803 7.209 2.325 8.089 2.286l-1.61-.152c4.922 1.103 7.934 2.961 4.732 2.216l.405.124 13.776 2.604c-4.84-1.641-3.925-.639-9.797-2.479zm-98.169-184.189c2.671-.929 2.978-1.111 2.646-1.093a49.02 49.02 0 00-2.646 1.093zm111.188 187.273l4.314.816c-1.707-.392-3.225-.675-4.314-.816zm-31.215-1.49c-.017.023-.069.033.029.104l1.947.336-.048-.016-1.928-.424zm58.25-48.509l-.037-1.431c.004.522.02.993.037 1.431zm-115.479 33.513l9.396 2.449c-1.305-.162 3.176 1.184 1.144.833.716.187 4.047 1.144 3.184.74l-1.89-.583c5.085.88 2.215-.313 10.457 1.743-4.892-1.987-7.206-2.323-9.96-2.863l-2.448-.675-7.981-1.507-1.902-.137zm104.852-215.437l.085-.083c-.087.047-.098.069-.085.083zm.421-.426l-.336.342c.463-.264 2.332-.97.336-.342zM385.889 366.25c.166-.083.747-.065 1.664.053l-3.221-.606c.436.153 1.01.358 1.557.553z"/><path d="M378.373 365.469l-7.817-2.376-2.979-.564c3.021.814 6.535 1.829 10.796 2.94zm35.805-36.262c-.107-16.922.822 4.156 1.021-3.618-.098-4.698-.488-6.355-.611-9.285.334 13.421-1.287-1.819-1.08 11.717-.707-1.926-.77-9.762-.578-14.354.681-5.198.498 4.543 1.166 5.72-.111-5.431-.234-4.475-.615-6.779.158-8.528-.836-17.646.107-22.738-.15-6.173-.476-5.767-.834-9.316-.73-.707-.383 9.182-.957 11.469.061-.474.184-1.398.287-1.131l-.154 5.338c.254-5.066.729.703.786 3.411.015 1.97.048 5.885-.153 5.347l-.158-2.982c-.229 3.839.533 8.47.138 12.522-.163.212-.241-1.321-.343-1.554.498 4.542.469 8.923.822 15.646l-.724-3.898c.8 5.379.573 17.558.15 25.997.122-.936.208-2.623.349-1.61.172 4.958-.324 8.702-.705 6.406.295 2.375.179 6.861.076 11.592l-.037 1.782c-.001.105-.003.074-.004.083l-.004.009-.009.019-.014.033a.24.24 0 00-.023.122c.009.089.073.208.247.558l.016.049c-.014-.004.146.287-.093.573-.122.142-.354.278-.753.379l-.156.035-.084.017-.043.008c-.021.001-.103-.018-.151-.026l-1.373-.259c-.924-.175-1.862-.353-2.802-.529l-15.018-2.837c1.111.256 2.293.552 3.498.901 2.437 1.438 3.877 1.815-.911.924 4.625 1.115 3.051.08 9.854 2.212-2.763-.542-3.656-.061 2.831 2.076l1.869.512.918.246.38.098.295.069 2.209.49c1.383.287 2.579.493 3.587.627a82.93 82.93 0 00-.641-4.463 53.29 53.29 0 00-.338-1.765c-.007-.043-.014-.046-.021-.121l-.021-.226-.042-.452-.085-.905-.168-1.815c-.447-4.854-.873-9.829-1.193-15.361.49-.588.353-13.108.467-19.193.525 2.323.676 6.839.781 11.525.018-2.941.049-8.005.07-11.761l-1.028-1.534z"/><path d="M415.821 368.853c.045-.427.068-.868.092-1.321-.042.241-.073.636-.092 1.321zm-.7-24.927c.02.059.033.038.054.059-.013-.491-.024-.983-.038-1.486l-.016 1.427zm-25.753 24.586l-2.742-.535 2.098.532c.705.155 1.051.195.644.003zm-2.994-1.852l.577-.028-1.063-.382c-.144.068-.051.193.486.41zM418.6 264.546l-.105-1.622c.007.977.05 1.398.105 1.622z"/><path d="M415.008 310.357c.047 5.885.73.703.733 9.028l.044-2.443c.313 5.974.17 16.471.195 23.568-.291-.801-.354 4.304-.806 3.474.106 4.852.206 9.656.673 12.155-.152 3.006.258 7.571.064 11.393.273-1.613.924 5.439.59-3.859.037.75.1.279.139 1.021.381-5.991-.266-8.393-.274-13.554.269-3.085.435 5.046.543 2.135-.251-6.444.325-20.222-.69-19.794-.07-4.69.152-5.338.338-6.736-1.08-7.418.465-27.53-.918-27.462.055 2.708.025 7.121.322 11.095l-.953-.021zm-16.198 61.076c.344.113.802.266 1.087.359l-1.087-.359zm-69.572-26.274l2.619-.116c13.421 4.031 18.174 5.806 29.863 9.477.854.401-.586.026-1.316-.163 8.241 2.505 20.469 6.583 26.571 8.084 2.61.835 9.381 3.284 6.705 2.714 1.295.328 2.772.715 4.226 1.207.289.432-3.3-.95-3.465-.724 1.152.389 1.585.592 1.883.579-2.035-.353 1.689 1.691-7.398-1.213-3.292-1.841 6.335 1.917 4.509.46-3.015-.963-2.762-.542-3.051-.527-3.839-1.237-3.674-1.405-3.411-1.523-1.552-.22-6.277-2.098-8.431-2.367-7.495-2.311.597-.471-4.289-2.01l-3.07-.085-8.069-2.729c-11.842-3.444 1.238 1.93-12.339-1.875 1.898.139-3.265-2.279-9.463-4.432 3.75 1.157 10.831 2.824 15.584 4.596-6.606-2.792 9.394 2.896 6.091 1.052-3.474-.725-9.098-2.458-13.413-4.031l1.457.381c-4.625-1.563-8.414-1.834-14.731-4.194-3.199-.986-2.529-1.024-1.908-1.035-2.739-.737-5.203-1.344-5.154-1.526zm7.003 2.036l4.242 1.435c-.97-.455-2.562-.955-4.242-1.435zM223.281 121.79l1.01-.913c-.238.182-.614.534-1.01.913zm24.396 291.961c-.003.431-.006.861-.006 1.3l-1.861-1.893 1.869 1.91c-.002-.541-.002-.935-.002-1.317zm-49.692-44.418l-2.819-2.539a42.12 42.12 0 002.819 2.539zm3.388-225.717l-.094.085-.391.454.485-.539zm-84.538 141.763c-.357-.459-.77-.963-1.36-1.625.015.134.531.735 1.36 1.625zm81.669 84.421l-.151-.174-.368-.293.519.467zm51.645 8.619l-.084-1.66c.016.783.047 1.262.084 1.66zm-2.403 3.656a37.641 37.641 0 00-.084-1.613l.084 1.613zm28.306-41.366l3.365.939c-1.64-.506-2.631-.77-3.365-.939zm-27.751 32.126c-.039-.203-.077-.406-.115-.542.026.482.075.713.115.542zm-5.535-266.956l-.177.181-.147.287.324-.468zm3.294 2.832l.07 3.941a81.07 81.07 0 00-.07-3.941zM101.998 243.386c.741-.567 2.378-1.997 1.761-1.183 1.126-1.375.739-1.595-1.761 1.183zm130.381-119.618c.125-.287.335-.621.562-.97-.443.618-.783 1.102-.562.97zm.562-.97l.672-.942c-.252.329-.479.647-.672.942zM103.539 260.207c.122.203.34.488.67.841-.018-.181-.273-.472-.67-.841z"/><path d="M245.995 116.07c.101.241.261 4.696.409 7.387.148 2.667.284 3.478.335-4.405.314.075.387 2.64.401 5.708l-.001 3.912c0 1.062.008 2.045.047 2.792.147-2.172.404 1.081.628.421l-.151-2.487a1350.9 1350.9 0 01-.057-1.496l-.01-.829.007-1.231c.072-.43.138-.409.195-.054.057.327.105 1.169.141 1.635.071 1.153.093 2.809.04 4.262.332-3.58.499 4.542.753-.524l-.161-8.608-.212-9.796c-.169-6.057-.404-11.253-.771-15.6l-2.32 2.638 2.144-2.214c.137 7.939.262 17.006.037 23.85l-.544-2.774c.226-4.008.266-7.339.25-10.463l-.083-9.792-.891.884c.292-.282.583-.564.882-.863l-.276 17.173c-.226 4.36-.366 5.024-.46 3.978-.095-1.063-.146-3.896-.195-6.92-.008 1.527-.041 2.94-.137 3.416zm-4.774-1.365l-.016.185c.02.095.032.236.055.277l-.039-.462zm37.546 215.316l1.098.132c-.893-.185-1.179-.209-1.098-.132zm-38.26-220.512l.007-.006c-.067.074-.082.09-.007.006zm10.887 212.051c.058.001.117 0 .221.01-.15-.021-.149-.005-.221-.01zm-1.063 12.293c.028.017.049.037.086.046.055-.102-.006-.097-.086-.046zm1.032-12.25c0-.017-.028-.04.031-.043-.032.01-.103.009-.031.043zm-38.618 48.227s.227.359.625.886c.216.142.078-.079-.625-.886zm17.772 18.91l.292.378-.292-.378zM95.849 246.07a255.356 255.356 0 00-3.743 3.785 178.658 178.658 0 003.743-3.785zm155.766 75.5a36.6 36.6 0 012.014.319c-1.103-.2-1.675-.285-2.014-.319zm-68.777 22.238c.21.182.407.352.606.522l-.315-.354-.291-.168zm-9.288-9.853c.37.283.566.388.788.531-3.576-3.256-9.678-9.706-10.83-10.04 1.169 1.149 6.938 7.399 5.675 6.615 2.483 2.279 5.717 6.086 7.066 7.301-3.686-4.133-.078-.768 2.7 1.733 2.28 2.52-.781-.122 1.21 2.021l5.599 5.509-4.784-4.892 1.863 1.075-.531-.456c-8.367-8.001-.118-1.27-8.756-9.397z"/><path d="M174.338 334.486a29.04 29.04 0 001.408 1.215c-.778-.767-1.118-1.026-1.408-1.215zm-32.789-34.088l-1.512-1.386 1.512 1.386zm220.522 60.286c-.144-.218-6.471-2.579-6.484-2.135l5.72 1.956.764.179zM139.482 210.151l-1.604 1.589-.263.357c.369-.28 1.365-1.387 1.867-1.946zm28.085 119.578c.92.828 1.357 1.17 1.616 1.332-.59-.542-1.152-1.025-1.616-1.332zm-27.066-119.158c.763-.59 1.892-1.456 2.149-1.482 1.387-1.381 2.2-2.512 3.553-3.978-1.546 1.634-3.417 3.444-5.702 5.46zm5.811-5.581l-.109.12.109-.12z"/><path d="M365.84 362.071l1.736.457-.924-.174 4.383 1.527a64.4 64.4 0 011.842.513 2.725 2.725 0 00-.679-.103l1.402.497c3.655.695 12.517 3.167 15.123 3.721 3.402.88 7.528 2.077 10.086 2.924-2.377-.764-5.563-1.681-4.689-1.146 4.755 1.776 6.882 3.222 15.412 5.266l-4.894-1.542 5.545 1.261 4.152.818c3.067 1.387-3.805-.71-5.676-.943 1.193.315 1.967.527 2.845.794.854.259 1.682.53 2.498.811 1.627.56 3.219 1.159 4.733 1.72.146-2.678.242-5.244-.162-7.09.244-.159.57-.381.829-1.323.259-.917.45-2.711.426-5.635-.558 4.245-.358-3.529-.954-.047-.279-2.034.176-6.567-.189-6.906l.203.551c.772-10.053-.439-13.345-.838-17.646-.199-12.037.117-17.565.035-27.383.327-.386 1.227-3.059 1.193-6.997-.443-1.831-.648-10.716-1.215-11.623-.236 7.042.475 5.762.607 9.977-.594 3.51-.588.318-.943 5.111.232-3.868-.309-17.478.248-21.714l.078 1.495c.34-6.762 1.742-8.054.893-19.32l-.348-5.375c.057.259.123.288.174.427.02-2.802.098-4.468.179-5.754l.228-3.551-.004.082c.035-1.431.002-3.36-.183-6.888.039.751.102.28.14 1.042.317-5.538-.324-11.122-.458-15.308.472-2.555.465.606.808 2.188.181-9.741-.633-20.253-1.21-26.303l.275-6.279c.196 3.724.696 8.275.981 7.139-.096-3.453-.319-2.785-.229-7.669.303.833.585 2.882.966 5.178.504-10.101-1.072-2.258-.146-9.326.006-3.173-.437-5.016-.802-5.363l.478-5.75c-.466-.639-.493-7.736-.564-12.387-.201-.568-.496 3.745-.315 5.508-.365-.347-.538-5.296-.532-8.478.976-1.166-.145-20.836 1.005-17.074l-.389-22.81-9.21 3.119a417.535 417.535 0 00-8.126 2.842c-3.047.684-9.096 2.588-5.611 1.003-10.97 3.476-16.323 6.225-27.291 9.425-.938.169 4.919-1.57 4.433-1.757-6.997 2.63-13.071 3.714-24.034 7.465 1.853-.606 2.333-.969 2.561-1.148.243.092-4.422 1.755-7.23 2.811-1.631.429 2.103-.791 1.164-.623-21.471 6.315-37.319 12.735-58.546 19.424 6.063-1.91 8.156-3.252 8.141-3.525l-5.938 1.872c-2.189 1.033-6.646 2.446-10.299 3.858-.494.03-2.347.48-.543-.252-5.961 1.548-10.45 3.282-15.257 5.158-2.403.938-4.887 1.912-7.673 2.917a161.45 161.45 0 01-4.435 1.528l-.603.196a6.678 6.678 0 01-2.6.283c-1.174-.087-2.437-.581-3.369-1.285l.177.104c.083.047.433.256.707.37a6.594 6.594 0 002.66.581 6.361 6.361 0 001.777-.235c.673-.195 1.046-.386 1.572-.583l3.122-1.241 8.501-3.381-4.441.933 7.47-2.992c-4.676 1.108-8.399 3.157-9.098 2.864.924-.438 3.263-1.133 3.256-1.409-4.443 1.209-4.678 1.667-7.946 2.803 8.386-3.706 25.423-9.095 34.516-12.236 1.419-.532-1.162.621-1.387.798 3.73-1.218 6.069-1.635 10.726-3.293 2.797-1.329-2.324.413-4.658 1.107.209-.451 1.383-.8 3.95-1.673.709.288 14.239-4.336 17.751-4.825 13.761-4.528-2.591-.504 10.953-4.579l4.195-.745c7.695-2.895 17.7-6.471 26.592-9.167l-1.86.609c-1.171.622.928.11 1.874-.062 6.765-1.895 12.572-4.449 16.796-5.203 7.453-2.987 20.045-7.443 28.679-10.505 2.577-.045-11.194 4.208-14.687 5.798l7.943-2.523c-4.908 1.567-6.762 2.45-9.579 3.783 7.003-2.079 9.098-3.419 15.642-5.691-.453.354.465.191 3.511-.769l.717-.741c.068.021.416-.051 1.365-.319l14.344-4.864c-3.134.774-3.167.338-7.413 1.68.746-.087.213.171-.99.604-.604.217-1.378.479-2.259.768l-2.293.737c2.563-1.148-3.042.682-3.057.411l9.667-3.095 10.231-3.359.054 3.372-.449 2.372c-.028 2.137-.034 4.27-.028 6.376l.04 5.57c.032 2.883.063 5.521-.002 7.585l-.24-1.301c-.136 7.3.155 14.489-.282 20.972.516 6.512.946 14.71 1.485 20.032.582 2.847-.726 19.108.094 26.45-.063.495-.438-5.043-.658-7.548-.089 4.884.635 8.767.022 10.297.204-10.96-.487.589-.663-4.348.013 5.131.124 10.542.344 13.059-.007-8.305.846 2.949.578-5.458.516 6.515.723 15.405.524 23.167-.264-.076-.387.88-.495 3.774l.384 2.334c-.069 3.633-.455-7.024-.59.289.049.561.089 1.165.12 1.813l-2.494.13c.48.054.963.098 1.446.132l.726.043.197.011c.098.007.141.01.115.009l.001.003.003.031.004.124.011.273c.009.257.019.518.027.783l.037 1.642.023 3.496-.034 7.213c-.01 4.666.072 8.725.632 10.249-.478 5.734-.484-10.912-1.07-2.27-.438-5.028.064-11.964-.541-13.621.173 4.928-.511 1.799-.517 4.979l.373 5.496.022-1.216c.571 9.223.297 23.836.395 35.614.609 9.977 1.488 16.844 1.422 28.811-.356-3.532-.344 9.938-.998 2.405-.315 5.537.059 11.004.322 11.113.09-4.872.084-1.714.215-5.817.32 2.771.305 9.155.096 11.778.023-1.216-.037-.754-.139-1.021-.215 5.816.318 2.787.453 6.991-.225.667-.255 2.987-.258 5.621l-.005 6.005c-.009 1.982-.031 3.82-.089 5.22.149 2.177.299 4.354.299 6.327l-2.16-.33c4.236.904-8.14-2.743-9.454-3.565l-4.312-1.105-.549-.14-.388-.088-.726-.161-1.495-.346a79.328 79.328 0 01-7.2-2.077c2.46.551-5.19-1.979-5.163-2.417-9.799-3.536-16.783-4.105-25.996-7.669.322-.002 2.304.333-.411-.641-2.199-.573-5.972-1.823-8.301-2.513l.076.011a8.689 8.689 0 00-.124-.026c-1.141-.338-1.869-.514-1.929-.424-4.088-.859-6.26-1.101-14.164-3.238.425.647 7.064 2.556 9.963 3.31l2.609.323c2.131 1.448 7.07 2.109 8.788 2.914-4.938-.661-18.346-5.137-26.587-7.195 4.722 2.211 15.408 5.713 24.785 8.602l-4.03-1.586 4.896 1.544-4.579-1.997c4.608 1.557 8.655 2.702 12.836 4.059-4.908-1.547-6.615-2.794-3.873-1.813 5.321 2.19 5.791 1.51 9.96 2.863-2.313-.78-5.335-1.748-3.3-1.396 8.061 3.172 10.401 3.515 17.704 6.488-.683-1.07 9.385 2.893 10.709 2.613l-3.456-1.168 7.522 1.871a25.38 25.38 0 011.679.764c.505.228.654.335.572.362-.071.03-.422-.033-.78-.104a202.85 202.85 0 01-.832-.143c-.553-.1-.993-.17-.656.019.168.094.53.252 1.169.504l.282.108.489.174 1.13.398 2.922 1.014c6.893 2.223 10.822 3.338 13.763 4.1-.233-5.096-.544-8.376-.581-15.993.325 2.943.62 8.968.772 16.255a430.906 430.906 0 01-9.873-3.019l6.611 2.342c-1.619-.367-6.259-1.781-11.437-3.406l-9.902-3.163c7.082 1.667-3.184-1.188-6.198-2.599-.719.261 3.742 1.6-1.612.293 4.913 1.55 5.643 1.74 11.836 3.89-13.438-4.485-12.631-2.31-24.297-6.422 5.496 1.522-1.691-1.242-2.276-1.665-2.573-.758-7.792-2.297-9.96-2.862l1.727 1.254c-6.954-1.901-8.907-4.018-17.042-5.869-1.151.058 6.929 2.341 5.479 1.964-10.97-3.037-14.548-5.311-24.021-8.849-.605.021-.622.463-4.098-.266 1.181-.05-1.248-1.038 2.629-.118-3.167-1.184-7.069-2.111-9.957-2.862 6.629 2.353-2.917-.315-4.225-.477-3.45-1.166 1.18-.049 3.351.517-2.754-.987-5.885-2.605-7.65-2.53.02-.44 8.128 1.403 13.327 2.938l-3.461-1.17c2.465.554 2.895.755 6.332 1.915-3.284-1.389-2.841-1.63-1.96-1.669.424.2-.277.019.128.21 2.75.987 4.921 1.554 4.344 1.133 2.676.249-3.753-1.565-5.552-2.436l-4.283-1.239-15.018-2.837c-6.243-1.757-8.888-3.058-13.445-4.794l-1.423.063c-5.36-1.754-10.387-3.512-6.753-3.011.145.218.866.405 2.026.798.174-.014.458.026.809.098.121.008.191 0 .293.002l-9.769-2.805c9.992 2.422.758-.695 2.657-1.006l-9.96-2.862c5.901 2.162-.02.44-2.179-.121-.438-.653-7.953-2.52-11.398-3.684l.286-.015c-1.578-.59-3.776-1.319-6.084-2.044l-1.461-.451-.812-.23c-.534-.129-1.026-.331-1.498-.296.084.096-.467.324-.811.964-.377.621-.333 1.545-.081 2.024.081-.482.346-.679.485-.751.153-.071.229-.034.26.025.059.127.021.389.195.487-.133.075-.249.324-.188.398.076.272.262-.11.444.033a.764.764 0 01.708-.478c.146.008.292.037.444.055l.231.029.118.014c.029.005.02-.002.08.013l.301.083c3.199.878 5.875 1.531 7.465 1.677-2.146-1.005-3.905-.929-6.348-1.921 3.753.708 8.386 2.273 14.441 4.208l1.862 1.021 6.164 1.723c-2.61-.601-1.208.294-7.631-1.657.7.628 6.371 1.929 10.249 3.296l2.168.116c-.863.044 7.503 2.761 1.421 1.265l-9.826-2.65 2.581 1.21-8.225-2.5 2.019.345c-6.639-1.909-7.527-2.475-8.437-3.013-.454-.269-.914-.531-2.101-.95a49.87 49.87 0 00-2.415-.767c-.525-.149-1.116-.319-1.785-.511l-1.067-.293-.581-.157c-.171-.045-.494-.138-.444-.111-.363.245-.459.354-.583.494-.131.142-.168.27-.233.523-.074-.197-.19-.296-.335-.317-.146-.037-.32.045-.511-.212a1.849 1.849 0 00-.076.519l.005.72a46.63 46.63 0 00.133 2.953c.134 1.724.334 3.07.462 4.701-.348 1.602-.633 2.74-.582-2.876-.729-.704.126 7.389-.625 7.9.011 9.305.618 13.032 1.104 17.152.243 2.061.456 4.219.55 7.222.047 1.502.064 3.214.04 5.231l-.068 3.266-.138 4.04-.047-.247-.048-.251c-.018-.064-.037-.104-.056-.158a115.59 115.59 0 01-.151-.408l.122 10.394.053 9.918-.003 18.174c-5.985-6.002-12.022-12.046-19.296-19.18l-6.604-7.149-.602-.651-.344-.396-.594-.692-1.053-1.228-1.027-1.198c.419.377 1.026.902 1.674 1.442l.984.805.48.38.231.179.117.09.186.159c1.963 1.673 3.033 2.408 1.443.555 2.715 3.267 5.879 6.609 9.1 9.946 3.242 3.356 6.536 6.702 10.06 10.521.535.249-2.285-2.778-3.498-4.167 2.842 2.849 4.809 5.073 7.679 8.017.02-1.47.021-3.22-.018-5.401-.08.02-.169 1.957-.249 3.067-.08 1.116-.152 1.417-.2-1.681l.479-9.173c-.114-7.026-.401-8.933-.632-11.02a46.026 46.026 0 01-.275-3.862 109.12 109.12 0 01-.053-3.195l.004-2.13.028-2.335.083.334.085.612.178 1.466c.12 1.063.24 2.299.351 3.661.221 2.718.401 5.972.453 9.189.046-3.687.111-1.161.196 1.537.085 2.683.19 5.576.318 2.223-.317-5.916-.35-9.864-.353-14.36l-.015-5.925a134.09 134.09 0 00-.161-5.09c.088.925.212 1.169.251 3.105l.268-11.422c-.371 2.826-.407-9.435-.958-8.372-.229 12.173.104 8.596-.208 22.468-.125-3.928-.686-8.991-1.201-11.363.021-.121.039-.321.049-.748-.545-2.119-.691.041-1.645 0 .339 3.166.369 5.808.363 8.591l-.001 4.365c.013 2.146.051 4.594.149 7.352.261 1.195.427-.285.512-2.883.042-1.284.063-2.869.066-4.416a82.842 82.842 0 00-.047-3.021l.173 3.416.173 5.146-.24-2.089-.175 25.203c-.028-4.866-.331-7.053-.559-9.795-.021 3.085-.158 5.906-.31 8.731.296.308.541.851.688 1.943-.232-.09-.774-.554-1.687-1.473-5.788-5.871-10.257-10.54-13.641-14.204a232.656 232.656 0 01-4.777-5.319l-.381-.448-.548-.688-.975-1.268-.91-.86c.913 1.635-6.044-4.747-8.768-6.732.49-.256-3.691-4.139-5.691-6.52-1.594-.737-.63 1.408 1.687 4.426 5.529 4.745 3.274 2.483 6.256 4.354l8.62 7.879-2.192-1.509c.495.533.998 1.055 1.496 1.559l2.112 2.097 3.968 3.846c2.263 2.186 3.65 3.569 3.43 3.794-1.707-1.41-4.04-3.686-6.365-5.952l-1.743-1.695-1.623-1.553c-.703-.644-1.376-1.228-1.99-1.692l1.279 1.441.469.529.619.671.686.736-2.098-1.883a20.18 20.18 0 01-1.021-.989c-.532-.561-.815-.956-1.125-1.388-.62-.863-1.35-1.87-4.408-4.623 1.76 2.515-.554-.5-3.296-2.736 1.735 2.262 10.341 10.125 7.952 9.021-3.303-2.742-9.416-10.922-14.053-14.282l.269.123c-5.816-5.982-8.256-7.688-10.695-9.667-2.303-2.718-6.062-5.891-8.805-8.588l.253-.121-3.917-3.76c2.168 1.487 4.489 4.507 7.836 7.755l-.063-.757c3.389 4.213 6.55 6.122 9.797 8.771-4.59-3.989-12.03-12.199-13.715-12.529l-2.304-3.004-1.396-1.144c-1.714-2.24.717-.634 4.63 3.122.579.754.868 1.131.594 1.001 1.935 1.625 3.838 2.989 8.065 7.376l-2.481-2.114c5.337 5.387 10.346 10.128 12.523 11.623-7.597-7.887-15.179-15.529-22.463-22.782-2.928-1.36-5.912-3.464-7.733-3.828-5.012-4.742-11.733-11.264-15.703-15.767l.533.246a90.441 90.441 0 00-5.607-5.513c-1.993-2.375 1.88 1.109.461-.516l-7.23-6.741c.761.101 6.641 5.978 9.456 8.746-.555-.499-1.673-1.508-1.376-1.122 3.112 3.383 9.723 8.87 10.665 10.767 1.665 1.499-3.566-2.861 1.765 2.52 3.407 3.767 5.003 4.506 5.521 4.737.246-.129-5.372-5.885-3.174-4.137-2.815-2.768-4.167-3.639-7.557-7.389 2.789 2.744 6.926 6.122 8.109 7.886 5.819 5.122 5.911 3.461 3.38.833.339.889-10.318-9.641-3.503-2.109-3.576-2.868-9.465-8.753-13.901-12.747l.262.121-5.321-5.146c.835.64 2.5 2.138 2.738 2.004l-7.749-6.747c4.417 3.743-2.295-2.763-4.004-4.768-1.063-.491-4.103-3.112-1.55-.232 2.846 3.261 1.933 1.623 4.731 4.378l-4.383-3.481-.293-.382-2.736-1.997c-5.33-5.382 3.197 1.482-4.027-5.021l.391 1.396c-7.871-8.02-17.51-18.789-23.356-24.172 1.835 1.263 2.978 1.486 1.121-.916 2.334 2.508 7.217 7.354 10.736 10.779.58.757-4.933-3.744-8.596-7.624 1.005 2.65 9.985 8.99 9.595 10.269 9.319 9.901 7.973 6.365 15.64 15.013.485-.261 2.501 2.137 3.259 2.236-1.807-3.022-10.926-10.884-16.007-16.391.545.491 1.644 1.479 1.918 1.612-3.675-3.894-5.321-5.374-8.103-7.88l.289.378c-4.983-4.256-2.58-3.137-5.135-6.019-1.108-.998-4.781-4.887-4.447-4.005l-4.569-5.277-.179.653c-2.801-2.752-3.134-3.635-5.904-5.898l-.489.256 6.767 7.026c-3.617-3.374-1.331-.618-5.25-4.381 4.698 3.883-2.829-3.241-2.905-4.009l-3.034-2.615.821.623a19.368 19.368 0 00-2.466-2.483l-1.234-1.078c-.503-.461-.804-.738-2.021-1.979l.889.968.537.616.959 1.113a90.447 90.447 0 001.896 2.142c1.309 1.425 2.781 2.896 4.858 4.708-1.52-1.311-3.742-3.312-5.757-5.156l-2.755-2.542-2.919-2.826c-2.966-2.797-5.329-5.249-7.557-7.607 2.11-2 4.193-3.943 6.434-6.145-3.333 3.443-3.486 3.928-3.32 4.113.174.178.641.081-1.128 2.032 1.515 1.382 4 3.831 8.457 8.431-.392-.249-1.768-1.657-2.242-2.22.409.647 1.282 1.636 2.411 2.798l.709.72.596.58 1.302 1.203c1.804 1.625 3.802 3.279 5.052 4.348-.323-.872 2.17 1.485-1.79-2.777.586.763-.432.049-2.058-1.371a70.796 70.796 0 01-2.77-2.566l-2.225-2.233a124.019 124.019 0 01-2.233-2.343l.949.362.914.328a854.674 854.674 0 00-5.2-5.259l2.985-2.906-.711.767c1.84-1.462 3.898-3.557 6.272-6.007 1.704-1.779 3.611-3.8 5.683-5.65 2.622-3.04 13.65-13.735 8.363-9.676 3.887-3.153 6.508-6.709 10.271-10.628l-5.027 4.548c5.241-6.08 3.882-4.179 7.744-9.375.618-.298 1.76-1.175 1.009-.086 7.635-7.573 18.66-18.267 22.641-23.208 5.385-5.334 6.917-5.485 14.167-13.277 1.502-1.667-1.782.687 3.366-4.124.378-.292-4.36 5.228 1.139-.363 3.498-4.4 9.525-9.026 14.271-14.555 2.875-2.55 7.52-7.318 6.897-5.98-4.378 4.215-10.384 10.37-11.139 11.467.377-.809-3.265 2.847-.264-.484-6.765 6.225-3.994 4.436-10.005 10.078-.259.544 3.39-2.601 4.512-3.977.514.46-11.253 11.724-5.49 7.129 6.269-6.184 7.101-9.049 13.009-13.931-1.866 2.459-5.5 5.591-7.736 8.851l4.63-4.238 2.866-3.57-.12.263c8.277-7.385 6.742-7.746 13.504-14.997-4.397 3.721.094-1.784-3.167 1.063 4.624-4.748 8.129-8.124 8.648-7.667-8.368 9.163.019 1.013-7.599 9.603 1.505-1.156-1.216 2.643 3.667-2.133 5.093-5.789-2.034 1.222 3.232-4.366.364-.277.741-.566.623-.305 2.243-2.75 3.004-2.821 5.744-6.121l-.619.814c4.02-3.428 3.739-4.409 7.267-7.292-1.644.92 1.855-2.449 3.618-4.663-3.386 3.112-5.664 4.352-12.047 10.792-.488 1.061.139.751-2.356 3.522l4.133-4.202c-.853.946-1.463 1.705-2.23 2.587l-4.151 3.854c4.871-5.279 2.237-3.258 4.096-5.712 4.769-4.519 3.754-3.911 6.768-6.738.126.713 9.672-8.237 15.29-13.315l-2.498 2.465c-3.619 4.149 3.023-2.323 3.282-2.351l2.621-3.041c-.504.562-1.143 1.397.124.249l1.588-1.675 1.329-1.464c.785-.888 1.398-1.625 2.025-2.375 1.252-1.5 2.566-3.062 5.444-6.019.184.047-.937 1.459-1.615 2.401-.687.95-.953 1.452.677-.056.514-.327 1.526-1.008 3.057-2.278 1.544-1.284 3.566-3.116 6.448-6.094l.046 1.755c.125.37.195 2.65.249 5.403-.018-.365-.03-.837-.054-.972l-.356 6.675c-.225-1.8-.226-3.796-.183-5.946.043-2.134.128-4.422.076-6.379a50.84 50.84 0 00-2.246 2.514l-.708 1.458c-2.644 2.646-6.28 6.606-7.785 8.5 3.771-3.644 4.545-4.615 8.953-9.178.143.094-.597 1.04-1.384 1.981-.792.945-1.645 1.899-1.859 2.139l.804-1.232c-2.349 2.039-4.366 4.235-6.33 6.439-1.981 2.221-3.975 4.515-6.859 7.329-.875.844-.378.292-.258.03-4.247 4.974-9.269 8.999-13.271 13.96l1.264-1.659-14.094 15.864.098.194c.75-.574-1.493 1.658-2.753 2.8l.004-.008-7.747 8.677a40.457 40.457 0 003.003-2.63c.764-1.105 6.382-6.444 5.242-6.082 2.766-2.296 6.507-6.711 8.514-8.422-3.637 3.137 1.991-2.726 2.37-3.534 1.384-.893 5-5.038 4.887-4.264.754-.582-1.882 1.444-3.125 3.083-3.239 3.855 6.766-6.224 2.639-1.512 2.694-2.926 5.918-6.215 9.155-9.536l4.801-4.963 2.18-2.314 1.765-1.958-2.893 2.623 2.16-2.122 2.464-2.451c1.612-1.596 2.987-2.929 3.132-2.914-1.592 1.669-3.441 3.51-5.391 5.592.082.291 1.213-.841 2.395-2.06 1.18-1.216 2.438-2.547 2.491-2.37 1.546-1.879 3.257-3.923 4.898-5.564.134.207.268.445.402.715.004-.572.008-1.145.008-1.707l-1.522 1.493c.404-.496.962-1.105 1.66-1.825.029 1.7-.021 4.268-.084 6.931l-.173 7.78c-.341-1.447-.364-3.305-.324-5.656.041-2.318.144-5.189.054-7.784l-.71.765c-1.638 1.832-1.263 1.703-.948 1.617.331-.102.616-.177-.708 1.269.258-.142.769-.599 1.343-1.18.005.82.055 1.575.148 1.975l-.131 1.642c-.195-.579-.319-1.526-.412-2.664l-3.758 4.133c-1.237 1.362-2.419 2.701-3.292 3.854.209-.309.4-.605.46-.772-.555.465-1.129.972-1.705 1.502l-.955.902-1.357 1.335a196.866 196.866 0 00-5.231 5.409c1.993-1.7 2.624-2.53 3.625-3.639.246-.017-3 3.328-4.12 4.702 3.382-3.112.879-.333 3.01-2.31-2.004 2.225-3.75 3.906-6.375 6.435-1.512 1.161.864-1.347.362-1.304-2.516 2.792-4.279 3.456-7.898 7.605 5.263-5.07-.861 1.861-2.487 3.795l.882-.85c-1.369 1.907-2.749 3.309-4.127 4.195 2.004-2.226 4.127-4.195 3.252-3.868-1.385 1.409-2.766 2.813-4.266 4.478l1.241-1.636-6.885 7c-.857 1.341-2.353 3.518-2.958 4.835-1.884 1.447-4.021 3.948-5.516 5.612l.634-.835c-3.269 2.855-9.909 9.841-10.269 10.63-2.379 1.997 14.103-16.825-1.163-1.163-5.876 5.88-2.979 4.344-6.099 7.936 0 0 .12-.259-.258.029-2.622 2.523-2.621 3.041-4.626 5.266 1.646-1.439 3.886-3.669 4.508-4.489-.489 1.06-5.383 5.333-7.13 7.529 2.119-2.998-5.141 4.805-3.38 2.594-5.4 4.833-10.522 10.652-12.885 13.664-4.025 2.92-6.016 6.162-11.906 11.541.883-.849 2.372-2.504 3.643-3.656 2.861-3.562-6.023 5.655-1.399.391-1.002 1.113.111.261 1.14-.878 1.857-1.936 3.489-3.875 2.853-3.559l-4.902 4.282 1.519-1.688-7.398 6.541c-.119.26.623-.306 1.001-.598-8.271 7.894-17.274 17.375-24.414 24.399-.115.782-2.087 3.067-4.847 5.996l-6.503 6.786a64.987 64.987 0 002.247 2.048c.17.144.335.281.495.415l.118.095.217.193.478.427a50.329 50.329 0 001.716 1.464c-1.818-1.251-3.157-1.59-2.414-.435l-.556-.497-.316-.268-.228-.171-1.114-.84c-.832-.645-1.856-1.509-2.718-2.432l.128-.119c.31-.151 1.106-.778 1.648-1.146.549-.375.842-.487.346.191 2.142-2.254 1.945-2.274 1.176-1.786-.74.459-2.152 1.528-1.622.629-.765.79-1.471 1.535-2.114 2.23a128.47 128.47 0 003.532 3.173l.821.71 1.119 1.001 2.148 1.905c2.794 2.466 5.329 4.665 7.873 7.006l.025.258 4.444 4.003c-3.386-3.517-2.655-3.906 1.597.738l-.568-.514c2.302 2.772 7.857 7.774 11.784 11.774l3.012 2.363c3.933 4.007 3.5 4.78 4.43 6.432 6.18 6.265 10.267 9.363 14.98 13.488 1.735 2.262 10.992 11.643 5.736 7.024 5.843 5.38 6.12 2.839 14.965 13.245l-2.752-2.244c9.256 9.149 22.885 21.77 26.858 26.276-4.306-2.483 10.567 12.422 11.31 14.951-.252-.659 3.273 2.729 3.886 3.125.653.862 1.813 2.226 3.335 3.379-3.409-3.768 3.451 1.596-3.771-4.904 4.085 2.859 9.037 6.854 16.612 14.49l-.487.259-5.905-6.131c.333.883-2.744-2.235-4.141-3.379 10.986 11.404-2.338-.593 9.156 10.804 1.347.863.531.247 3.601 3.126-.706-.693-1.186-1.039-1.208-.929-.011.056.092.225.339.521.123.148.282.328.481.542l.545.57.789.491.733.436c.497.808.542 1.059.266.93-.271-.123-.845-.607-1.447-1.132l-.888-.773a23.764 23.764 0 00-1.011-.879c-.503-.402-.596-.358.147.604-4.712-4.127-12.522-11.624-11.572-9.723 3.522 3.695 5.368 5.096 7.25 6.542.941.724 1.891 1.459 3.063 2.498l.925.841.946.901a51.03 51.03 0 011.868 1.919l.538.944c2.173 1.896 2.432 1.499 3.358 2.028.134.365.648 1.052 1.917 2.387l1.968 1.331-.475-4.662a57.737 57.737 0 00-.624-4.257c.203 3.297.188 5.278.113 6.538l-2.736-3.066c-.983-1.062-2.09-2.17-4.078-3.937.533.379 1.849 1.561 2.942 2.43 1.107.883 1.923 1.385 1.737.684l.334 1.082.919.68c-.2-2.356-.34-4.184-.203-6.211l.297 2.041a19.242 19.242 0 01-.043-2.763l.089-1.208.054-.601.053-1.25c.137-3.384.209-6.538-.23-9.968-.047 2.423-.031 4.39.049 5.885-.235-4.475-.182-10.088-.093-14.951l-.871-10.063c.262.089.277-6.288.695-3.212.401-7.244-.385-10.659-.516-14.845l.095-1.15.057-.504.063-.469c.076-.518.118-.613.136-.403.009.105.013.287.011.533.003.217-.019.627.001.805l.063 1.71c.083 2.625.188 6.268.552 6.632.061-2.556.093-5.149.099-7.692.004-.34-.007-.584.009-1.001l.069-1.394.13-2.758.061-1.362c.014-.457.025-.91.151-1.294a8.929 8.929 0 01.943-2.285 9.146 9.146 0 013.396-3.336 9.301 9.301 0 014.199-1.174c.346-.006.674-.021 1.015.035l1.034.235 1.98.441 3.484.74-3.359-1.03c-.751-.245-1.098-.388-1.019-.432.239.144 1.913.604 3.958 1.139l.369.099.249.08.508.163 1.028.326 1.884.597 1.607.15c3.575 1.378 3.001 1.407-.178.67 3.465 1.169 7.816 1.858 11.256 3.468-3.036-.747-6.423-1.808-9.448-2.773l-4.176-1.328-1.719-.515-.737-.204c-.256-.064-.381-.104-.732-.174.344.079.452.122.666.182l.56.164 1.068.321 1.947.608c1.222.393 2.299.76 3.288 1.113 1.979.707 3.608 1.357 5.343 2.038 3.469 1.361 7.357 2.844 15.304 5.137.144.218-2.621-.324.414.643 7.072 2.112 2.051-.09 4.363.244-5.479-1.515-7.937-2.514-10.948-3.923l1.529.193c.175.207 3.573 1.293 4.533 1.744l1.047-.263c-.594.47 4.702 2.651 9.05 3.785-4.184-1.806-3.023-1.412-3.983-2.466 6.218 1.262 6.584 2.786 13.541 4.241-.566.032-6.496-1.691-1.458.068 4.2 1.361 3.787.718 6.657 1.465-3.338-.511-2.639.118-6.271-.384-7.498-2.31-3.015-.964-10.393-3.065l6.053 2.385c-6.361-1.93-4.788-.892-5.37-.867 10.659 3.94 8.395 1.831 15.314 4.17 3.464.724-6.498-2.141-1.135-.832 6.486 2.138 1.587.146 8.963 2.247l-1.296-.159c2.14 1.005 4.463 1.341 7.063 2.11 2.891.751-2.669-2.753 9.028.922-.616-.043-.854-.021-.873.036l-12.729.568a1967.446 1967.446 0 0139.077 12.823c2.97 1.843-10.002-2.431-9.279-1.796l-6.202-2.152c.461-.235 13.138 4.051 7.685 1.646-11.124-3.255-16.009-5.243-26.713-7.853 2.995 1.853 13.846 4.232 20.461 7.029-2.846-.962-5.29-1.638-7.673-2.265l20.422 6.858 1.698.32c-4.878-1.649-8.251-2.796-8.68-2.965 6.484 2.136 12.117 3.424 12.739 2.961l-1.149-.388 2.411.559c1.519.528 3.032 1.052 4.538 1.571zm-76.357-188.072c.378-.184.668-.349.871-.506-.21.163.074.135-.871.506zm-44.771 160.245c.017-.965.011-1.927.051-2.881a4.158 4.158 0 011.181-2.549 4.197 4.197 0 013.945-1.137c.462.113.905.289 1.354.433l12.191 4.039c-3.661-1.487-7.082-2.879-9.683-3.979-2.411-1.008-4.373-2.021-5.201-2.148-.397-.095-.467-.169-.125-.254.344-.082 1.097-.106 2.294.271l2.18.604 1.376.396 1.481.447 7.817 2.443 1.672.437c-1.619-.594-3.842-1.344-6.33-2.146-1.246-.395-2.556-.809-3.888-1.229-1.342-.416-2.911-.862-4.333-1.276-.585-.121-1.302-.313-2.151-.233a5.28 5.28 0 00-2.631.944c-.831.593-1.557 1.468-1.875 2.541a5.378 5.378 0 00-.253 1.635c.007.553.097 1.094.148 1.612l.648 5.277c.179 1.416.307 2.298.343 2.258.174-.801.166-1.784.127-2.933l-.061-1.768a22.744 22.744 0 01.008-1.688l-.285.884zm-2.083 6.273c-.139 5.16.137 3.986.385 4.787l-.094-5.423c-.063.686-.151 1.025-.291.636zm.632 4.478c.006-.58.018-1.074.051-1.334l-.051 1.334zm80.08 4.615l-.51-.146 3.523 1.178c-.458-.186-1.347-.501-3.013-1.032zm-9.8-3.747l-1.305.063 3.304 1.103c-.311-.314-.647-.609-1.999-1.166zm-31.637-11.604c-2.188-.122-8.972-2.249-9.577-1.781-.481.018.926.528 2.51 1.085l5.694 1.862c.098-.065.524-.02 1.22.115-1.971-.708-3.257-1.28-2.331-1.393 4.874 2.431 4.777.887 10.257 2.852 1.897.137-6.039-2.377-7.773-2.74zM179.916 171.147c.155-.078.657-.379 1.345-.819l-2.678 3.117c-5.265 5.072-10.045 8.573-14.147 13.775-2.315 2.039-3.773 2.913-5.127 3.786a149.257 149.257 0 012.972-2.815c12.238-13.848 7.649-5.951 17.635-17.044zm-60.209 58.642c.505-.561.625-.825.625-.825a617.318 617.318 0 01-14.243 15.86 511.222 511.222 0 01-5.988 6.326 327.16 327.16 0 01-4.757 4.85l.81.814c-.082-.182-.259-.456-.525-.814 2.412-1.904 5.99-5.089 8.594-7.467l-1.981 2.719c.019-.018-.488.343-.807.518l-.737.447-2.617 3.287c.656-.407 1.524-1.178 2.454-2.023l1.41-1.277.889-.799.932-.81c.121-.262 6.743-7.745 8.487-9.943l-5.89 5.38c1.625-1.419 9.015-8.979 11.884-12.037-.127-.244-5.52 4.58-5.762 5.625-.882.333 5.004-5.558.986-2.128 4.12-4.706 11.386-11.483 14.78-14.604l1.013-.09c3.753-3.395 1.859-2.97 6.372-6.95-5.131 5.31 1.388-.377-2.73 3.81 1.5-1.152.515.46 4.641-3.735 2.854-4.074 4.769-4.003 7.504-7.816 2.378-1.997-1.987 2.722 2.399-1.501 4.617-5.258 4.102-5.203 3.963-5.953-4.742 4.492-4.609 5.765-8.494 9.433l6.75-8.271c-1.492 1.277-2.527 2.29-3.356 3.18 1.465-1.553 2.635-2.948 3.577-4.2l1.508-1.96c-4.261 4.252-8.052 8.022-8.909 8.501l.372-.802c-1.705 1.309-4.006 3.92-4.981 5.21-3.788 3.835-7.294 7.942-8.407 8.496l1.25-1.644c-4.628 4.746-5.124 5.295-11.016 11.193zm101.762 155.164c-2.049-3.629-4.482-7.457-17.872-20.57l1.098.988c-6.182-7.174-13.676-12.365-21.25-21.04 4.24 3.645 4.001 3.46 9.035 7.131l-4.453-4.006c1.602.742-2.84-3.255-5.923-6.379l3.25 2.228c1.716 2.011 6.492 6.893 6.467 6.635-1.114-1.001 5.73 7.021 9.917 10.911-.07-.763-8.736-9.149-4.363-5.907-3.593-3.119-3.664-3.88-7.293-7.267 3.602 3.127 1.305.36 4.062 2.612l-5.869-5.634c-.034-.265 8.633 8.12 4.346 2.981-2.486-2.122-8.412-8.504-8.895-8.241l-.027-.256c-4.23-4.392-2.424-1.368-7.505-6.875-.25.125.63 1.265 2.565 3.122 1.686 1.52 2.188 1.509 5.542 4.758 1.188 1.772-3.946-4.018-2.147-1.232.893 1.384 8.928 8.503 5.958 6.643l-4.222-4.383c-.484.264-3.579-2.874-3.792-2.485-2.769-2.494-4.832-5.397-7.844-7.76-1.357-.875.143 1.522-4.108-3.119-2.921-4.026-13.267-14.156-17.18-17.912l-3.594-3.117c.056.515 6.442 6.381 3.99 4.523l-5.323-5.144.547.261c-1.702-1.766-3.63-3.385-5.293-4.885 1.898 1.36 5.563 5.24 5.202 4.103-2.379-2.533-2.61-3.052-4.945-5.238.521.466.983.853.976.735-4.805-5.142-5.237-4.367-6.611-5.487-5.506-4.494 4.57 5.509 3.531 5.271l-14.813-14.385c1.374 1.121 2.754 2.25 2.443 1.62-3.401-3.76.221-.383-4.825-5.391-.174.89-6.662-5.999-10.52-9.243-1.441-1.877-1.739-2.262 1.896 1.36-.071-.762-5.075-5.5-6.775-7.263-1.089-.918-2.85-2.579-4.012-3.587 1.281 1.625.444 1.221-2.848-1.777l-.267-.121c5.084 5.272 12.705 13.647 16.296 16.531l-1.085-.742c5.669 6.267 13.607 12.367 15.707 15.771-.512.005 1.14 1.259.663 1.527l4.686 4.103-1.083-.744 7.56 7.391-.268-.128 9.398 7.721c.171-.154-.01-.436 1.294.63a42.325 42.325 0 012.965 2.821c.007.006.007.006.008.005l-.002.002c1.786 1.881 2.775 3.337 4.938 5.69l-6.991-6.91c-.842-.29-.538.587 2.674 4.187-1.403-1.383-2.201-1.75-.509.006.261.117 4.731 4.378 3.288 2.494 6.704 6.502 16.667 17.916 27.217 27.416-7.518-6.887 5.402 6.143-2.707-1.739 5.139 6.022 5.237 4.367 10.857 10.125.326.644-3.077-3.118-4.697-4.112 9.282 9.636 16.673 15.246 25.69 24.53l.047.736 5.798 5.511zm19.656 18.797a201.44 201.44 0 013.123 3.038l-.107-4.037-.015.774-.393-8.532c-.095 2.271-.276 3.896-.465 4.07-.188.184-.385-1.026-.51-4.12.202.792.449-.715.566 1.624.292-3.743.576-13.649-.161-11.103.696 8.342-.938 1.383-.421 7.668-.24-1.841-.306-3.371-.339-4.883l-.042-2.223-.035-1.117-.063-1.245c.401 3.436.91-.801 1.101-5.961-.119-2.246-.005-8.325-.2-12.059-.45 1.331-.708-1.919-.821 4.163a86.39 86.39 0 01.02-9.553c.077 1.533.133 4.216.296 4.03.414-2.497.396-5.42.573-7.033l-.072-3.848c-.04.377-.09.704-.155.937l-.397-4.274c.212 5.693-.208 2.632-.472 2.558.527.153.068-3.665.051-5.613l-.557 4.233c-.279-2.046.402-7.225-.149-6.156-.221 8.982-.126 12.436.04 20.557l.433-3.297c.306 9.164-.742 5.652-.721 15.935.099 1.069.15 2.57.183 4.224l.078 4.53c.057 2.552.162 4.845.558 5.387-.121-.653-.296.476-.398 2.028-.101 1.572-.127 3.592.052 5.381.056.363.108.761.157 1.195-1.978-1.151-8.362-7.386-6.235-4.828 1.045 1.052 2.239 2.108 3.363 3.176 1.132 1.076 2.206 2.176 3.263 3.566l-4.021-3.808 3.016 3.572c-1.552-1.749-1.233-.885-.124 1.044zm55.67-57.137l.225.082-.252-.082h.027z"/><path d="M244.757 105.286c.18 1.641.15 6.897.538 5.254-.427.831-.066-9.312-.538-5.254zm-.417 6.749c.102.178.265-.333.28 1.893l-.108-5.955-.172 4.062zm-2.913 8.893c.159.896.283 1.707.364 2.731.041.512.07 1.08.088 1.742.018.688.023 1.322.016 2.502-.52.871-.592-1.204-.656-2.626-.064-1.61-.119-3.566-.604-3.728a34.25 34.25 0 00.218 4.687l.078.664.083.93c.226 2.45.475 4.722.519 8.031.108-.82.206-2.272.277-3.993l.088-2.737.041-2.754c.018-3.106-.116-5.786-.512-5.449zm-1.313-.839l.234 2.438.061-.329-.234-2.459zm-63.295 45.63c-.515.055-2.26 2.252-3.262 3.366.874-.846 2.138-1.989 3.262-3.366zm206.519-28.561L350.9 147.779l32.438-10.621zM98.235 247.304c6.264-6.697 8.747-9.972 15.249-16.675-4.572 4.11-7.259 7.158-9.772 10.03-1.257 1.436-2.47 2.828-3.855 4.287a72.064 72.064 0 01-2.232 2.253l-1.806 1.733-2.075 1.934 2.387-1.922 1.576-1.256.528-.384zm.453-4.118c.753-.321-.37 1.056-1.524 2.435l-.431.514-.213.254-.348.389-1.168 1.337c-.622.739-.864 1.109-.387.791l2.118-2.214c.383-.42.617-.694.833-.954.415-.5.609-.789.795-1.061.373-.543.713-1.018 2.713-2.981l-2.388 1.49zm36.516-22.213l-1.739 2.19 1.5-1.664zm-23.55 60.037l-.815-.618 3.113 3.386zm-1.63-1.235l.815.617-.815-.617zm23.584-55.349l3.013-2.828 1.245-1.643zm-28.098 23.455l2.474-2.751c-.492.546-4.244 3.942-2.474 2.751zm25.803 53.157l3.345 3.013-.282-.369-3.334-3.002zm-23.24-36.742c-1.472-2.138 5.302 5.122 1.883 1.114-3.356-3.252-2.189-1.737-1.883-1.114zm36.098 40.608c.429.429.892.868 1.364 1.267l-1.364-1.267zm0 0c-1.384-1.385-2.642-2.896-3.687-3.749 1.575 1.876 2.26 2.448 3.687 3.749zm15.937 15.782l-1.231-1.279c1.446 1.118.814.535-.462-.479-1.342-1.318-1.372-1.139-1.602-1.225-.308-.225-.615-.447-.947-.688l1.211.97c2.057 2.064 3.33 3.305 3.031 2.701zm53.31 64.52c-4.512-4.76-5.651-6.019-5.141-6.025-4.318-4.482-4.08-3.355-6.837-5.906 5.029 4.929 5.928 6.066 11.978 11.931zm-11.978-11.932l-1.759-1.717a49.404 49.404 0 001.759 1.717zm-57.046-73.947l3.276 2.486-1.113-1.003zm75.774 92.888c-.844-.875-2.233-2.242-2.821-3.007-.506.011 3.663 3.881 2.821 3.007zm-12.817-22.94c-.312-.629-3.373-3.501-4.52-4.769 1.699 1.765 2.634 3.653 4.52 4.769zm33.961 41.954c-1.517-1.551-3.82-4.201-2.915-3.723-2.009-1.755-4.946-3.782 2.915 3.723zm-25.535-33.436l-.575-.749-3.337-3.007zm-7.503-15.128c-3.876-3.26 4.917 6.403-1.489.52 7.604 8.249-.171-1.044 5.625 4.853-3.32-3.529-4.608-5.597-4.136-5.373zm4.136 5.372a71.062 71.062 0 001.595 1.648l-1.595-1.648zm29.707 13.932c.046.732.096 1.233.147 1.695a31.56 31.56 0 00-.147-1.695zm-10.778 4.488l-5.81-4.885c.97.815 2.258 1.99 3.643 3.277l2.122 1.984 1.064.998.188.172.13.113.254.22c1.345 1.162 2.28 1.877 2.165 1.301a17.243 17.243 0 00-1.814-1.806l-.229-.192c-.09-.077-.104-.076-.319-.276-.345-.309-.671-.602-.976-.873a30.342 30.342 0 00-1.557-1.292l1.139 1.259zm19.471-46.691l.258 3.268.076-4.08c-.097 1.169-.576-.944-.334.812z"/><path d="M251.158 338.165l-.014.789c.016-.174.023-.424.014-.789zm-8.726 56.687a74.432 74.432 0 00.088 5.973c.123-.514.238-5.896-.088-5.973zm10.253-61.064l-.223-.065-.243-.071-.074-.016-.389-.083c-.278-.06-.538-.105-.538-.105s.289.072.586.153l.451.126.879.271-.449-.21zm23.653 8.667l.85.398 4.333 1.129-.864-.402zm-31.578-21.074a8.88 8.88 0 00-3.214 2.045 8.381 8.381 0 00-1.687 2.402c-.633 1.45-.579 2.214-.328 1.6 0 0 .201-.598.675-1.427a9.405 9.405 0 015.412-4.255c.918-.274 1.552-.324 1.552-.324-1.36-.07-2.081.18-3.088.701-.5.274-1.074.645-1.771 1.229a10.871 10.871 0 00-2.279 2.681s.169-.381.499-.918a9.724 9.724 0 011.446-1.809 9.858 9.858 0 012.783-1.925zm181.754 20.316c.342 1.584.145 9.338-.181 9.744-.142-1.042-.276-5.246-.483-2.605l.84 6.135c-.523 8.16-1.104-6.202-1.4-10.232-.107 8.313.444 10.777.441 19.62.074-2.608.284-4.257.465-5.635.295-.149.377 1.835.392 4.594l-.017 12.123c.258-6.691.474-2.846.705 2.484.02.939.053 1.581.092 2.051l.084 1.831-.002-1.351c.066.144.146-.092.256-1.008a236.547 236.547 0 01-.021-6.799l.049-3.105.017-.668.017-.381.037-.746c.104-1.961.229-3.701.232-5.292-.961 3.144-.223-10.836-.518-14.837l-.096-4.619-.002-1.728c.105-.348.238.144.428 2.778-.189-2.198-.123-9.531-.432-8.854l-.014-16.735c.039-.521.088-1.042.158-1.428-.061-.58-.111-.678-.16-.601l-.025-30.342-.013-15.171-.006-7.586-.004-3.793-.001-1.896-.001-.948.001-.308.003-.108.001-.011-2.022-.098-2.185-.136a33.807 33.807 0 01-1.849-.158l6.08-.13-.019-12.231c-.075 3.597-.293 6.709-.398 10.418-.375-3.264-.35-.61-.386 1.813l-5.277.13c.856.098 1.618.147 2.556.2l1.545.097.772.04.383.018v-.003l-.005.054-.01.18-.017.516c-.014.38-.03.719-.055.983-.049.529-.126.76-.251.422a31.08 31.08 0 01-.082-1.26l-.027-.637-.006-.201-.002-.075v-.002.002c-.008 0 .018.002-.019 0l-.212-.011-1.702-.1-1.49-.095c-.46-.033-.92-.075-1.379-.127l4.816-.13c-.04-2.027.023-4.216.123-5.71-.305-.813-.574 2.296-.938 1.937a66.76 66.76 0 00-.058 3.774l-3.943.13a34.13 34.13 0 002.206.177l1.339.088.339.02.045.002.001.051.001.181.016.442.045 1.014c.036.653.082 1.265.134 1.851.104 1.174.233 2.251.354 3.376.24 2.251.445 4.695.353 8.489-.365-.355-.686-3.135-.636 2.75l-.079-1.495c.409 9.423-.825 7.342.176 13.273l-.527-.156c.398 4.274.4 12.591.473 17.277l-.102-.279c.604 13.146.129 7.38.381 22.143l-.615-6.794c-.254 5.093.415 6.241.346 9.897-.102-.263-.486.585-.582-2.868l.938 17.913c.395 4.273.384-.87.609-1.535z"/><path d="M425.731 364.358a69.363 69.363 0 00-.02 3.297l.02-3.297zm1.625-125.963l.006 5.123c.032-1.588.042-3.242-.006-5.123zm-17.795 145.709c5.605 2.064-4.715-1.096-3.983-.651l18.946 6.001c-.243-.29 1.521.031.947-.346l-15.91-5.004z"/><path d="M427.838 387.752c-.141-.906-.268-3.328-.387-5.945l.002 8.574-2.93-.927c.143.163.911.517 3.232 1.341.023-.783.05-1.793.083-3.043zm-10.84-11.934l-.018-1.272-.157-2.001zm.893-26.886c-.308 2.353-.074 6.815.004 8.308-.01-5.143.107-2.914-.004-8.308zm-3.3 6.357l-.175-4.958-.06.463zm10.683-154.754l-.035-2.423c-.002 1.11.013 1.834.035 2.423zm.51 42.538c.59-11.826.494 7.748 1.251 4.033l-.252-6.435.203.547-.068-7.848c-.348 1.61-.369 2.82-.734 2.47.141-10.477.433-3.303.893-10.99l-.069-11.71.109.948c-.008-.986-.054-1.421-.113-1.76l-.235-39.464c-.292-7.18-.656 3.971-1.195-1.325.003 8.322-.383 20.689.346 21.396-.101-.28-.302-.83-.388.857l.601 4.813.19-4.589c.599 4.839.47 20.468.099 23.294-.206-8.887-.925-4.427-.536-16.809-.185.556-.509 2.823-.61.035.213 14.506-.118 27.509.508 42.537zm-40.121-106.054l.089-.098c-.239.113-.312.164-.089.098zm4.668-1.386l6.523-2.819-10.49 3.389-.612.72c.891-.416 4.498-1.827 5.985-2.093l-1.406.803zm14.219-5.715c-5.362 1.925-4.889 2.394-1.848 1.711-4.9 1.842-2.82.229-6.064 1.912.241.371 6.308-1.817 7.696-2.339l.216-1.284zm21.612 29.792l-.245-1.601-.063 3.944zm-.245-1.601l.065-3.915c-.182.271-.358.539-.482 1.177l.417 2.738zm.234-14.189l.057-3.981.035-5.434-.092 9.415zm-.15 4.477l.077-.133.072-4.345-.149 4.478zm-.018 5.797c.413-.636.847-1.381.731-7.042l-.636 1.113-.095 5.929zm-10.77 165.039l-.233-4.477-.064.473.235 4.475zm.378-25.835a70.108 70.108 0 00-.228-2.709c.046 1.166.116 2.094.228 2.709zm-2.823-19.206c.416-5.267.551 7.266.734-2.487.387-.859.887 3.712.693 8.305-.363-.365-.232-4.475-.604-1.651.421 3.05.134 4.209.683 3.146.343 5.131.732 5.702 1.09 9.185-.242-6.202.322-19.226-.383-27.098-.66-4.339-1.561-1.707-2.514-1.725-.224.653-.33 11.901.301 12.325zm-.951 8.287c-.047 2.438-.008 3.183.07 4.678.326-.403-.055-2.708-.07-4.678zm7.196-56.014c-.136-.465-.305-4.875-.539-3.927l.173 6.686c.022-1.569.187-2.123.366-2.759zm-.293 5.691l-.073-2.932c-.012.733.007 1.64.073 2.932zm.377-6.009l-.084.318c.028.094.058.077.084-.318zm.268-100.843c.302-.371-4.911 1.448-7.437 2.331 2.078-.637 4.931-1.452 7.437-2.331zm-111.851 36.568l-2.571.598c.923-.163 1.397-.249 2.571-.598zm-36.5 19.076c-.058.072-.229.171-.467.289.239-.11.401-.207.467-.289zm-.467.289c-1.649.751-7.043 2.108-8.846 3.027l.211-.173-3.481 1.311c3.31-1.081 10.29-3.253 12.116-4.165z"/></g><g fill="#202020"><path d="M101.735 238.208c-2.015 2.094-4.027 3.667-3.353 2.795-3.918 4.451-4.311 4.238-4.337 5.296-2.433 2.939-5.649 5.454-2.802 2.189l-3.696 4.01-.326.354-.855.294c-.463.159-.832.441-1.046.723-.3.372-.422.726-.475 1.143.109-.406.279-.714.6-1.024a2.18 2.18 0 011.007-.508l.655-.139.659-.624.759-.719c-.11.223-.321.513-.616.862l-.155.184-1.254.621c-.348.173-.671.334-.963.687-.275.323-.46.826-.409 1.338l.032.317-.031.303c-.085.814.393 1.333.745 1.299-.319-.311-.49-.745-.451-1.27l.028-.368-.025-.312c-.068-.835.331-1.478 1.149-1.709l.959-.271.587-.607.25-.259-.168.341-1.603.9-.053.113.072-.038 1.516-.8.112-.13c1.782-2.062 5.406-5.561 6.727-6.764-.133.274.111.259-1.354 1.75 10.154-10.089 1.977-3.477 10.232-12.018a44.324 44.324 0 01-2.117 2.041zm9.648-7.549l2.993-4.069 6.063-5.784c-.119-.253 4.046-4.718.961-1.96-.542.601-1.616 1.785-2.545 2.68.26-1.062 7.677-8.077 5.53-6.742-4.578 4.791-5.386 5.421-7.943 8.63-4.332 4.257-7.552 7.292-9.704 9.151-1.213 1.336-1.146 1.761-2.717 3.43l1.084-1.116.778.429c1.224-1.478 2.561-2.695 4.047-4.206l-6.229 7.638c2.801-1.671 9.281-8.815 12.238-11.302-3.884 2.868 2.437-2.941-4.556 3.221zm-7.362 5.336zm328.37 141.104c.015 2.084.217 2.699.318 3l-.021-23.474c-.224.735-.5 7.496-.635 2.979-.248 2.015-.034 8.151.269 9.042l-.342-1.701c.438 5.408-.421 9.103-.68 5.576l.004.456.844 7.489.158 1.397.077.685.049.833.151 3.16.054 1.302c.025.397.026.734-.014.988-.066.524-.146.82-.146.82.139-.41.23-.799.29-1.163l.038-1.1c.018-.68.023-1.258.019-1.77a44.381 44.381 0 00-.104-2.571c-.02-.436-.066-.703-.104-1.055a29.93 29.93 0 01-.109-1.179 54.368 54.368 0 01-.116-3.714zm-325.384-92.297c2.206 2.095 2.527 2.302 2.342 1.999a54.33 54.33 0 00-2.342-1.999zm323.189 108.792s-.278.277-.752.626a8.25 8.25 0 01-1.879 1.038 8.481 8.481 0 01-2.07.523c-.576.066-.961.063-.961.063 2.513.066 4.61-1.13 5.662-2.25zm-4.832-34.641c-.028-.01-.053-.061-.091.063l.271 2.106v-.054a812.53 812.53 0 01-.18-2.115zm-100.348 7.232l-1.479-.431c.536.167 1.023.305 1.479.431zm97.321-70.821l.51 10.436c-.24-1.391-.167 3.644-.447 1.445.038.795.134 4.523.257 3.507l-.016-2.129c.7 5.503.969 2.17 1.503 11.294.414-5.664.034-8.148-.285-11.148-.036-1.018-.066-1.869-.098-2.731l-.979-8.678-.445-1.996zm-209.69 89.46l.119.042c-.088-.061-.114-.062-.119-.042zm.599.206l-.481-.164c.476.317 2.071 1.761.481.164zm218.181 6.603c-.013.229-.315 1.014-1.231 1.962 0 0 .872-.799 1.44-1.815.603-.999.843-2.127.843-2.127a7.34 7.34 0 01-1.052 1.98zm-.021-9.864l-.102-8.792-.363-3.241c.138 3.365.234 7.3.465 12.033z"/><path d="M338.127 370.776c-17.391-5.405 4.513.568-3.402-2.151-4.85-1.437-6.668-1.604-9.709-2.439 13.868 4.05-2.256.634 11.692 4.843-2.189.047-10.247-2.443-14.9-4.12-5.127-2.342 4.811 1.003 6.221.749-5.605-1.661-4.661-1.231-7.141-1.62-8.701-2.927-18.354-4.945-23.293-7.503-6.379-1.866-6.061-1.424-9.811-2.237-.945.466 9.303 3.354 11.476 4.646-.468-.213-1.379-.631-1.072-.642l5.428 1.884c-5.12-1.892.942-.466 3.738.361 2.024.626 6.051 1.87 5.438 1.887l-3.106-.821c3.868 1.469 8.849 2.25 12.888 3.945.168.226-1.429-.2-1.698-.18 4.811 1.004 9.295 2.458 16.299 4.311l-4.217-.58c5.76.988 18.184 5.169 26.714 8.318-.923-.421-2.627-1.052-1.546-.855 5.138 1.448 8.828 3.141 6.357 2.756 5.149 1.005 18.776 6.487 25.782 7.893a260829.538 260829.538 0 0027.203 5.378l5.132.947 1.445.267c.331.064.485.021.489.034-1.655-.239-3.531-.737-5.447-1.185-1.147-.45-1.557-.729-2.027-.97-.437-.233-.716-.395-.754-.478-.037-.082.169-.087.705-.008l1.063.182 2.083.381-2.039-.433a27.767 27.767 0 00-1.14-.213l-1.689-.245c-1.11-.171-2.515-.476-6.175-1.623 2.965.605 3.91.142-3.073-2.153-17.707-4.953-29.861-6.916-46.499-11.228-.456-.657-13.341-4.602-19.548-6.691 2.541.255 7.219 1.582 12.059 3.006l-12.043-3.895-1.883.482z"/><path d="M379.296 382.115c-.425-.182-.87-.349-1.329-.518.235.118.631.276 1.329.518zm-25.784-7.448c.066.002.05-.019.076-.031l-1.536-.448 1.46.479zm73.019 18.987c1.179-.423 2.03-.909 2.874-1.852-.529.564-1.342 1.134-2.214 1.469-.823.33-1.238.417-.66.383zm4.231-1.564s-.082.178-.179.347c-.092.173-.197.337-.197.337a7.19 7.19 0 001.041-1.141c.004-.214-.133-.109-.665.457zm-157.629-46.576l-1.696-.427c1.006.31 1.45.407 1.696.427zm45.909 18.335c6.051 1.87.942-.467 9.483 2.24l-2.493-.838c6.222 1.646 16.947 5.2 24.236 7.485-.909.018 4.308 1.738 3.319 1.898 5.009 1.479 9.968 2.946 12.673 3.315 3.037 1.124 7.845 2.219 11.706 3.646-1.572-.786 5.86.89-3.78-1.819.781.209.317-.004 1.09.201-6.03-2.313-8.69-2.479-13.986-4.15-3.084-1.26 5.308 1.229 2.354.178-6.687-1.858-20.646-6.892-20.515-5.785-4.832-1.459-5.429-1.883-6.807-2.515-7.938-1.384-28.102-9.402-28.45-8.063 2.795.829 7.313 2.294 11.479 3.305l-.309.902zm95.945 27.245l-1.17-.386c.345.115.776.257 1.17.386z"/><path d="M435.894 324.753l.904 2.648c.219 15.081-.034 20.533.004 33.72-.123 1.008-.202-.593-.242-1.403l.052 15.89.023 4.021.02 1.923.013.933c.011.101-.018.449-.029.695l-.046.793c-.114 2.113-.223 4.112-.321 5.954.015.492-.151.844-.268 1.235-.131.381-.274.751-.437 1.104-.322.704-.694 1.35-1.094 1.924a11.335 11.335 0 01-3.574 3.09c-1.59.888-3.479 1.36-5.042 1.392-.392.015-.762.002-1.106-.021-.37-.104-.713-.202-1.023-.291a32.379 32.379 0 01-1.413-.438c-.611-.214-.493-.254.725-.019l-3.828-.838-1.015-.233-.514-.119c-.162-.039-.378-.087-.442-.111l-1.174-.377c-.08-.11.103-.101.423-.028l.569.148.333.097.606.144c1.648.391 3.403.815 3.482.702-2.151-.555-2.966-.822-3.487-.847 1.839.313.955-.186 1.692-.242.362-.029 1.111.049 2.733.384l1.389.302c.537.161 1.08.182 1.704.142a10.069 10.069 0 004.479-1.301c1.361-.615 1.46-.657.955-.194-.51.439-1.761 1.202-3.218 1.58-.723.201-1.481.313-2.172.354-.346.022-.673.025-.974.021-.313-.043-.611-.123-.864-.164-1.014-.189-1.431-.179-.46.271.685.146 1.31.391 1.771.337a9.17 9.17 0 001.22-.097c.674-.105 1.08-.245 1.335-.351.507-.227.423-.318.615-.431 1.584-.49 2.643-1.191 3.376-1.732.731-.554 1.15-.977 1.428-1.226.542-.514.516-.357.48-.142.359-.553.933-1.405 1.4-2.513.213-.569.486-1.127.547-1.847.048-.733.098-1.497.147-2.27.101-1.544.2-3.127.264-4.557-.009-.97-.072-1.663-.167-2.262-.066-8.439.628.46.617-5.053l-.848-3.178.158-9.166c-.301-13.269-1.465 1.898-1.947-13.269.442 1.993 1.185-4.09 1.36-11.148.032 4.223.586 12.029.335 17.481.663-7.686.082 10.579.842 6.59-.36-3.799-.41-10.132-.217-15.071l.078 1.619c.089-5.253-.799-9.229-.461-16.478-.028-3.603.211-2.928.409-2.294-.126-3.049-.293-5.774-.105-5.783zm.179 7.847l-.083 4.819c.139-1.144.134-2.94.083-4.819zM158.962 182.924l-1.084.986c.255-.198.659-.578 1.084-.986zm266.818-34.358l.028-2.791a88.519 88.519 0 00-.028 2.791zm-28.498-12.681l-3.826 1.421a48.956 48.956 0 003.826-1.421zm-214.745 23.546l.101-.092.423-.486-.524.578zm94.383 12.561c-.613.12-1.297.269-2.221.509.134.046.961-.154 2.221-.509zm121.068-36.37l-.24.06-.465.203.705-.263zm25.32 40.539l.085 1.787a27.457 27.457 0 00-.085-1.787zm2.403-3.935c.021.643.047 1.258.084 1.736l-.084-1.736zm-1.671 96.521l.123 3.758c-.014-1.848-.061-2.951-.123-3.758zm1.116-86.576c.039.219.076.438.115.583-.027-.519-.075-.766-.115-.583zm-284.865 15.851l.159-.163-.002-.137-.157.3zm-5.589 7.334l-2.285 2.384a57.825 57.825 0 002.285-2.384zm115.124-62.769c.123-.995.27-3.33.409-2.24-.177-1.904-.606-1.778-.409 2.24zm-100.333 38.731c-.343.504-.807 1.093-1.275 1.682.896-1.071 1.687-2.005 1.275-1.682zM148.218 183l-1.305 1.576c.468-.545.908-1.076 1.305-1.576zm108.642-17.137c-.057.18-.105.44-.121.766.115-.179.14-.436.121-.766zm-126.424 43.668c-.276.562-10.117 11.023-1.506 2.558.115.774-5.271 5.684-7.438 8.07 1.757-1.549-.537 1.107.124.765 1.075-1.183 2.289-2.653 4.187-4.487 1.061-.655-1.632 2.315-3.919 4.45 2.959-2.489-3.104 3.809.931.134 8.085-8.399 13.748-14.385 18.894-20.831-4.591 4.805-9.714 10.193-13.746 13.868l1.235-2.004c4.693-4.017 7.129-6.958 11.448-11.206l-9.827 9.418c-4.827 4.187-1.885 1.098 1.598-2.524-.878.867-1.692 1.635-1.981 1.789zm3.108-9.859l-.172.15c-.127.155-.293.339-.367.445l.539-.595zm301.505 68.38l.206 1.169c-.093-.977-.157-1.278-.206-1.169zm-293.903-72.257l-.007.007a.677.677 0 01.007-.007zm293.968 43.176c.015.041.031.083.047.155-.016-.104-.033-.104-.047-.155zm-11.729-7.774c-.025.054-.049.07-.074.196.03.621.055.32.074-.196zm11.678 7.752c.018 0 .033-.019.051.022-.018-.022-.036-.072-.051-.022zM405.3 122.76s.454-.046 1.152-.173c.245-.131-.033-.104-1.152.173zm26.803 1.679l-.036.664.036-.664zm-184.727 24.75c-.008 1.381.006 2.417.029 3.292a67.603 67.603 0 00-.029-3.292zm187.784 89.938c.059.292.117.707.191 1.391-.077-.755-.138-1.153-.191-1.391zm-69.597-100.876l.8-.316-.494.128-.306.188zm-14.007 4.024c.456-.209.653-.34.902-.477-4.887 1.788-14.066 4.442-14.97 5.336 1.678-.547 10.499-2.989 9.116-2.195 3.411-1.234 8.64-2.467 10.472-3.148-5.768 1.498-.761-.271 3.01-1.672 3.532-.944-.515.652 2.517-.197l8.037-2.618-7.041 2.154 1.964-1.207-.7.277c-11.796 4.015-1.255-.456-13.307 3.747z"/><path d="M352.458 141.798a32.44 32.44 0 001.861-.734c-1.118.363-1.535.555-1.861.734zm-48.789 14.516l-2.075.751 2.075-.751zm127.363 207.174c.164-.218.5-7.477.072-7.347l-.133 6.505.061.842zM249.691 91.246a5.042 5.042 0 011.859 1.206c.133.083.244.178.343.239-.115-.22-.442-.588-.877-.874a4.151 4.151 0 00-1.325-.571zm94.837 54.563c1.248-.465 1.793-.708 2.077-.87-.812.293-1.553.586-2.077.87zm-94.775-56.024a6.04 6.04 0 00-1.672-.346c-.538-.035-.964-.001-1.061-.052-1.075.313-1.84.892-2.504 1.665-.69.743-1.363 1.489-2.158 2.314.909-.898 1.882-1.936 2.978-2.853a5.067 5.067 0 014.417-.728zm-7.524 3.717l.128-.135-.128.135z"/><path d="M430.852 367.806l.09 1.93-.114-1.004-.129 4.993.068 2.056a3.218 3.218 0 00-.107-.729l-.05 1.601c.111.993.215 2.357.312 3.889.046.783.102 1.535.135 2.436l.077 2.843c-.003.955.119 1.938-.074 2.803a6.207 6.207 0 01-.993 2.332c-.912 1.329-2.136 2.001-2.875 2.316a6.313 6.313 0 01-3.315.346l-3.506-.913-1.704-.461-1.336-.405c-.858-.271-1.651-.523-2.343-.743 1.288.412 2.758.861 3.853 1.148 1.289.317 2.006.441 1.415.145-1.63-.526-2.577-.951-3.693-1.399-1.08-.442-2.135-.877-3.316-1.324-2.362-.893-5.23-1.83-9.813-2.953l5.267 1.661-12.122-2.849c-4.027-1.691 6.05 1.422 7.797 1.616-9.347-2.474-16.623-6.096-21.14-6.665-.453-.656-1.215-1.752-7.27-3.622 4.187 1.912-3.729-.808-.337.894-2.171-.396-6.684-2.306-7.142-2.067l.626-.014c-10.079-4.009-13.822-3.926-18.354-4.945-12.408-3.729-17.984-5.829-28.08-8.946-.297-.438-2.767-2.165-6.817-3.415-2.013-.174-11.188-2.87-12.29-2.624 7.152 2.517 6.054 1.421 10.418 2.667 3.42 1.709.148.664 4.957 2.563-3.897-1.479-18.022-5.394-22.199-7.304l1.558.412c-6.834-2.524-7.735-4.281-19.549-7.14l-5.62-1.418c.283.03.333-.023.49-.026-4.504-1.461-6.091-2.148-7.817-2.807-1.775-.674-3.514-1.261-7.826-2.362.657.168.201-.043.884.134a59.668 59.668 0 00-4.584-1.525c.043 1.917.15 3.821.258 5.528.108 1.713.218 3.232.265 4.556-.236 1.365-.353 1.209-.453.487-.1-.735-.184-1.826-.355-2.695-.045 2.375-.029 5.177.03 7.779.059 2.637.162 5.237.288 7.714.252 4.953.599 9.409.887 12.664l-.277 6.758c-.195-4.008-.694-8.905-.979-7.683.095 3.717.318 2.997.228 8.253-.303-.896-.584-3.102-.965-5.572-.506 10.87 1.072 2.43.145 10.037-.006 3.415.436 5.398.801 5.772l-.478 6.188c.232.344.355 2.425.429 5.046.069 2.638.118 5.702.081 8.492.087.359.222-.694.333-2.151.063-.76.084-1.478.09-2.17.005-.692-.01-1.339-.055-1.813.178.204.327 1.574.395 3.457.021 2.07-.031 4.63-.103 6.611-.11.11-.203.591-.279 1.325-.045.745-.245 1.624-.801 2.611-.554.957-1.489 1.924-2.717 2.472-1.211.568-2.675.701-3.95.358a5.518 5.518 0 01-1.736-.781c-.499-.319-.94-.82-1.375-1.217a88.846 88.846 0 01-2.174-2.142c-1.134-1.168-1.472-1.695-.562-1.188l-2.279-2.137a2399.99 2399.99 0 01-2.21-2.137l-4.596-4.46-9.391-9.146c-6.16-5.997-11.865-11.523-15.599-14.969-2.177-2.559-6.993-7.395-3.777-4.826-8.754-8.76-13.979-12.568-22.482-21.449-.633-.806 3.936 3.924 3.856 3.384-5.958-5.404-10.044-10.628-19.044-19.26 1.496 1.471 2.07 1.761 2.348 1.896.04.269-3.849-3.374-6.24-5.544-1.222-1.341 1.79 1.624 1.159.817-16.693-17.363-30.604-29.399-47.51-46.366 4.828 4.846 7.113 6.217 7.352 6.081l-4.73-4.746c-2.054-1.598-5.611-5.156-8.756-7.961-.28-.451-1.634-1.99-.05-.622-8.396-9.269-14.708-13.32-24.837-23.592l.818.468a6.825 6.825 0 01-1.62-.655 7.283 7.283 0 01-.763-.504l-.404-.338-.246-.237.258.209.405.304c.255.172.509.319.776.453.532.264 1.088.448 1.631.619-.235-.156-.471-.313-.72-.455l12.825 11.203-3.116-3.757 6.526 5.688c-3.395-3.9-7.151-6.488-7.244-7.273.868.673 2.694 2.562 2.94 2.433-3.366-3.637-3.9-3.654-6.6-6.22 7.64 6.231 21.228 19.841 28.719 26.987 1.207 1.097-1.155-.815-1.431-.948 3.01 2.963 4.583 4.976 8.464 8.612 2.632 2.036-1.562-2-3.384-3.884.514-.004 1.431.943 3.533 2.968.103.794 11.205 11.449 13.442 14.53 11.133 10.916-.87-2.657 9.743 8.255l2.82 3.61c6.553 5.942 14.905 13.753 21.891 20.907l-1.502-1.478c-1.161-.823.375.921 1.014 1.733 5.174 5.512 10.455 9.833 13.296 13.466 6.513 5.674 16.984 15.522 24.168 22.273 1.359 2.4-9.531-8.647-12.755-11.221l6.344 6.34c-3.927-3.913-5.674-5.264-8.32-7.317 5.461 5.655 7.745 7.027 13.146 12.165-.551-.269.065.521 2.492 2.956l1.036.345c.016.073.259.368.987 1.141l9.587 9.164c-1.841-2.138-1.637-2.534-4.055-4.96.663 1.066-1.431-.948-3.85-3.378 2.35 1.898-2.173-2.554-1.935-2.688 4.85 4.868 10.867 10.792 14.147 13.883l.716 1.354c4.55 4.711 9.618 9.424 12.667 12.658l-1.16-.821 3.288 3.346 1.322 1.314c.447.421.838.91 1.378 1.208 1.061.618 2.442.564 3.446-.067a3.403 3.403 0 001.63-2.824l-.373-3.806-.09-.905c-.015-.11-.03-.375-.045-.616l-.045-.72-.179-2.868c-.239-3.798-.48-7.437-.75-10.301-.582-3.063.729-20.564-.089-28.466.063-.532.438 5.427.657 8.123.09-5.256-.633-9.435-.021-11.082-.206 11.795.488-.634.662 4.679-.011-5.521-.122-11.345-.34-14.054.005 8.938-.846-3.175-.579 5.874-.23-3.131-.398-6.771-.496-10.58l-.061-4.223-.033-4.505.018-8.916 4.078 1.347c.062.296 1.644.928 6.04 2.437l3.56.728c2.826.934.052.172-1.907-.322-1.977-.499-3.138-.731 2.286 1.062l3.941 1.067c1.181.336 2.439.716 3.738 1.12l7.99 2.563c5.262 1.694 10.002 3.149 11.874 3.108 5.738 2.322-11.341-3.09-2.651.281-5.291-1.219-12.254-3.954-14.137-3.917 5.107 1.439 1.69 1.072 4.95 2.113l5.751 1.433-1.24-.417c9.634 2.457 24.541 7.475 36.653 11.217 10.418 2.666 17.729 4.063 29.985 8.021-3.731-.81 10.091 3.563 2.165 1.734 5.585 2.103 11.307 3.526 11.498 3.311-4.971-1.673-1.732-.639-5.902-2.099 2.938.597 9.484 2.688 12.111 3.741-1.24-.418-.784-.209-1.09-.2 5.902 2.099 2.956.604 7.309 1.845 1.232.861 9.485 3.136 13.354 4.606l5.904 1.203c-3.265-.596 5.425 1.882 6.208 2.536 4.185 1.018 7.775 1.61 13.978 3.697-1.321-.305.077.222 1.804.88 1.688.646 3.91 1.488 3.516 1.587.632.252 1.264.478 1.869.661a2.16 2.16 0 001.741-.259c.494-.313.84-.816.978-1.363.159-.552.026-1.124-.03-1.643l-.098-.764c-.031-.269-.062-.362-.089-1.078a138.515 138.515 0 01-.129-3.479 91.526 91.526 0 01.112-7.458c.1.33.381 2.472.487-.63-.12-2.443-.07-6.72-.117-9.334l.012.082-.012-.136c-.023-1.28-.076-2.085-.18-2.116-.418-4.474-.845-6.78-1.2-15.584-.488.646-.298 8.078-.14 11.298l.482 2.781c-.736 2.658.129 7.939-.118 9.964-.864-5.281-.655-20.492-1.188-29.616-.679 5.563-.783 17.666-.698 28.226l.291-4.65.011 5.525.518-5.349c-.09 5.234.044 9.759.016 14.488-.011-5.538.662-7.695.556-4.563-.477 6.172.314 6.432.286 11.149.044-2.626.051-6.042.331-3.84l-.178 3.194-.033.671-.029.209-.048.384c-.067.479-.028.897-.251 1.246-.2.342-.554.596-1.001.631-.455.065-.94-.256-1.39-.556.041.227-.092.296-.362.27l-.105-.014-.029-.006-.1-.027-.205-.058-.887-.262-2.005-.625c-2.795-.885-5.86-1.875-6.564-1.749l3.721 1.252-8.085-2.05c-7.123-2.955 6.688 1.414-4.313-2.568-10.258-3.341-10.251-2.442-18.354-4.946 2.81.386 9.346 2.025 15.864 4.108l-3.879-1.476c2.174.397 11.18 3.316 15.674 4.772-7.608-1.834 3.43 1.267 6.685 2.754.763-.248-4.036-1.694 1.718-.261-5.287-1.668-6.072-1.876-12.741-4.177 7.233 2.406 10.623 3.058 13.773 3.656.272.062.227.021.251.005l.052-.057a.606.606 0 00.074-.116.478.478 0 00.052-.21c.006-.136-.067-.154.04-.099.095.101.2.312.411.368.215.073.376-.083.489-.1a65.312 65.312 0 00-.052-.313l-.067-3.068c-.05-2.125-.107-4.19-.166-5.395l-.674 2.18c-.292-7.753 1.134-10.446.438-19.393-.404-1.163-.136 7.87-.214 6.261-.426-12.242.658-16.652 1.163-27.523-.202-.614-.629-.487-.986-4.289.405 1.194.611-1.619.908 2.658.17-3.635-.128-7.94-.285-11.146-.236 7.566-.582-3.095-.824-4.489.067-3.919.403 1.194.521 3.605.107-3.146.702-6.885.097-8.671.426-.124 1.122 8.794 1.233 14.627l.067-3.932c.219 2.709.157 3.216.091 7.119.33-3.821.694-3.444.997-2.554-.062.5-.101-.279-.161.199-.107 3.143.009 5.554.235 4.825.572 2.826.356-4.359.642-6.488l-.115-4.797-1.841-16.329c-.215-6.977.224-10.112.5-15.354l-.491-1.438c.05-6.07.204-11.799.826-7.908-.163.219-.124 1.021-.147 2.338.066.175.114.479.152.862.029.126.058.196.086.301l-.282-10.934c.715 11.038.892.551 1.764 2.397l-.287-11.148c-.274 6.758-.426.123-.544-2.274.287-.389.235-3.403.157-6.629l3.144-.132a35.141 35.141 0 00-1.68-.148l-1.45-.094-.001-.033-.001-.137-.007-.31-.021-.854-.037-1.667a82.638 82.638 0 01-.016-2.889l.1.288c.17-3.621.123-9.967-.01-14.482-.164.206-.965-5.585-1.447-8.367-.184 7.746-.381 3.149-.684 3.77.027-.801.033-2.243-.029-2.411-.14-1.109-.186 1.505-.348 1.724.229 8.234.293 16.706.977 20.064.309-2.528-.297-4.309-.09-7.138.191 1.69.287 3.583.333 5.709l.038 3.367.001 1.822-.002.947-.004.354-.005.144-.001.023v.006-.002l.142.007 2.3.144c.647.037 1.295.091 1.941.164l-4.401.132-.01 3.368-.41 2.243.224 6.885c-.218-2.873-.646-1.144-.729-8.367-.387.922.09 7.164-.039 11.587l.545 2.262c-.304-.871-.36 8.596-.776 1.869l-.447-10.943-.371 3.042-.106-9.251.282 2.183c-.054-2.095-.07-3.686-.062-4.876l6.302-.132a34.887 34.887 0 00-1.391-.128l-1.488-.095c-1.14-.081-2.231-.127-3.391-.181-.021-.007-.004-.02-.008-.049l.008-.162.014-.516.039-.995c.031-.584.072-1.021.119-1.374.093-.706.205-1.073.299-1.607.188-1.067.3-2.8.023-9.226-.659-4.683-.73-9.717-.569-18.886.146 6.634.465.681.846 3.178.275-6.768-.268-9.052-.525-12.562.349-1.724.633-2.95.582 3.095.73.757-.125-7.952.625-8.503-.021-20.027-2.426-16.047-1.486-39.458l.303.878c-.377-14.866-.016-23.442-.254-37.208l.12-1.693.058-.82.032-.434.033-.048a2.32 2.32 0 00.142-.249c.094-.189.21-.442.214-.644a.946.946 0 00-.028-.333c.091.049.226.126.339.242.116.114.191.259.299.395.205.26.441.537.628.046-.098.22-.179.414-.247.593a59.857 59.857 0 00-.168 2.018 110.005 110.005 0 00-.184 4.11c-.081 2.768-.118 5.586-.327 8.427.203.58.35-1.733.475-2.74-.008 3.428-.357 5.148-.222 9.676.161-.219.354-5.158.448-1.436l-.479 6.159c.229 8.241 1.147 4.059.928 13.737-.428-1.799-1.047-5.475-1.15-9.223-.092 4.423-.258-5.896-.514-1.86.633 6.372.131 9.448.528 17.92-.089-.995-.212-1.258-.251-3.343l-.268 12.293c.37-3.042.406 10.154.957 9.01.229-13.101-.104-9.251.209-24.18.125 4.226.686 9.676 1.201 12.229-.021.13-.039.346-.049.805.545 2.281.691-.044 1.645 0-.678-6.815-.121-11.371-.511-19.409-.522-1.511-.665 4.664-.53 8.659l-.346-7.081.24 1.394.174-17.974c.028 3.406.331 4.563.559 6.34.021-2.319.158-4.616.311-7.059-.498.514-.85.19-.841-2.072.06-5.782.201-10.28.398-13.866l.158-2.524.178-1.292c.099-.833.335-1.645.263-2.394a3.047 3.047 0 00-.387-.737c.035.372-.147.3-.508.069-.357-.228-.983-.583-1.772-.624-.39-.023-.807.03-1.196.168-.388.149-.748.35-1.087.512-.338.17-.646.332-.911.48l-.19.11c-.075.04-.077.058-.235.124l-.68.317c.009-.556-5.776 1.501-9.035 2.252-1.508 1.114 1.001 1.195 5.02.439 3.621-1.439 4.691-1.926 5.099-2.232.167-.23.082-.41.844-1.064l.857-.356c.521-.215 1.346-.256 2.026.109.694.342 1.131 1.043 1.236 1.601.087.561.102.955.102.955s-.121-.317-.243-.589c-.119-.278-.336-.497-.336-.497.086.36.056.723.051 1.065-.004.344.001.676.011.998l.088 3.174c.054 2.229.057 3.617-.258 3.387-.209-1.641-.251-3.875-.292-6.006-.021-.43-.041-.855-.083-1.232-.036-.375-.098-.709-.312-.908-.001 0 .068.399-.014.786-.058.369-.114.739-.114.739-.161-.558-.17-.861-.231-1.128-.053-.26-.063-.465-.099-.693-.041-.221-.111-.479-.407-.702-.279-.213-.878-.375-1.629.041.49.13.389.175.073.254-.162.045-.395.106-.655.202-.32.114-.281.14-1.431.598.188-.035.411-.085.662-.147.099-.022.323-.085.32-.077l.13-.021c.179-.032.378-.081.589-.139.212-.052.43-.139.661-.175.232-.032.473-.003.678.081.421.165.651.539.663.805.015.277-.121.419-.382.45-.179-.146-.347-.414-.661-.606-.318-.225-.716-.17-1.19-.127l-.373.043-.048.006-.182.049-.369.101-.735.204c-.979.274-1.943.557-2.872.85-1.857.585-3.569 1.21-4.952 1.886l.253-.188c-8.594 2.604-11.444 4.052-14.55 5.38-3.731.875-8.634 2.865-12.571 4.148l.017-.282-5.535 1.872c2.506-1.3 6.53-2.059 11.292-3.643l-.743-.279c5.69-1.194 9.102-3.205 13.249-4.965-6.095 2.38-17.611 5.462-18.783 6.84l-4 .75-1.788.755c-2.981.556-.229-.93 5.301-2.8 1.004-.188 1.505-.283 1.243-.093 2.516-1.028 4.771-2.143 11.054-4.018l-3.256 1.305c7.79-2.435 14.806-4.859 17.323-6.164-11.293 3.369-22.35 6.831-32.889 10.198-2.774 2.044-6.277 3.808-7.551 5.293-7.018 2.427-16.581 5.609-22.841 7.2l.503-.373a104.13 104.13 0 00-8.045 2.624c-3.25.747 2.003-1.208-.249-.646l-10.03 3.545c.484-.644 9.012-3.351 13.052-4.667-.752.28-2.272.844-1.758.746 4.769-1.312 13.305-4.854 15.568-4.864 2.26-.84-4.513 1.954 3.269-.478 5.28-1.408 6.791-2.523 7.273-2.889.005-.279-8.275 2.246-5.509 1.034-4.04 1.316-5.549 2.153-10.806 3.553 4.004-1.304 9.293-3.544 11.555-3.832 7.787-2.987 6.274-3.809 2.512-2.687 1.009.088-14.332 5.05-3.772 2.231-4.523 1.959-13.063 4.673-19.084 6.911l.248-.184-7.555 2.528c1.027-.471 3.287-1.312 3.282-1.586l-10.301 4.011c5.775-2.332-3.769.85-6.526 1.504-1.004.743-5.021 2.328-1.011 1.298 4.52-1.126 2.513-1.027 6.532-2.335l-5.512 2.418-.508.096-3.276 1.587c-7.781 2.43 3.028-2.233-6.774 1.412l1.511.267c-11.559 3.557-26.604 7.492-34.649 10.389 2.125-1.098 2.918-2.033-.288-1.42 3.55-.998 10.6-3.261 15.616-4.923 1.008-.188-6.039 2.798-11.558 4.388 3.004.268 13.552-5.038 14.552-4.117 14.067-4.031 10.058-4.383 22.102-7.478.004-.554 3.286-1.313 3.768-1.953-3.763.292-15.812 5.047-23.582 7.197.74-.275 2.229-.83 2.495-1.019-5.537 1.595-7.77 2.426-11.546 3.829l.502-.094c-6.545 2.617-4.265.94-8.279 1.971-1.504.559-7.034 2.154-6.035 2.243l-7.294 1.789.522.452c-1.005.328-1.82.568-2.534.767l-2.883.826c-1.83.53-3.523 1.06-6.428 2.169l-.494.709 13.829-4.196c-2.51.887-2.824 1.119-3.205 1.364a4.089 4.089 0 01-.332.196l-.242.12-.561.218c-.872.329-2.261.813-4.655 1.601 5.318-1.99 3.351-1.442.123-.483-3.254.968-7.885 2.383-8.202 2.228-1.469.532-2.938 1.064-4.345 1.51l-.171-2.369.14 1.64c.136-2.937.086-4.485.012-6.19-.074-1.693-.173-3.539-.139-6.82-.194 5.145-.422 9.418-.445 14.564 2.437-.76 5.224-1.688 8.506-2.862-2.203.795-5.117 1.82-8.626 3.026-.194-6.327-.354-14.235-.366-16.795l-.056-2.74-.008-1.538c.007-.999.039-1.95.079-2.892.08-1.884.195-3.732.225-5.849.105 4.062.504 3.351.83 3.659.163.154.307.563.387 1.951.04.694.064 1.633.066 2.906l-.065 6.665c-.101-.442-.078-2.571-.016-3.388-.261 1.36-.313 4.109-.265 7.194.048 3.089.198 6.467.341 9.252l4.534-1.672c-.519-.031.484-.475.627-.622.153-.15-.55-.007-4.264 1.068l.023-.874c-.124 1.677-.34.052-.485-3.368a181.713 181.713 0 01-.144-6.149l.005-3.531.029-1.777.022-.861.027-.562.415.524c.104.13.207.368.285.493l.129.231.098-8.868.039.811c.534-3.26-.103-9.248.211-15.217-.296-4.309-.061-20.84-.928-13.728.519-5.358-.142-10.06-.253-15.905l-.338 7.287c-.593-8.615-.21-6.134-1.154-13.028.227-.697.413-2.234.652-.833l.048-4.315a1.837 1.837 0 00-.881-1.512 1.797 1.797 0 00-1.725-.07c-.271.127-.483.34-.68.552l-.587.619c-.379.406-.732.796-1.043 1.158l-2.324 2.524a65.501 65.501 0 00-1.952 2.254c-5.794 5.743-7.39 5.958-15.213 14.323-1.622 1.788 1.876-.78-3.65 4.41-.404.317 4.725-5.594-1.197.421-3.799 4.701-10.232 9.733-15.37 15.653-3.082 2.757-8.085 7.883-7.387 6.471 4.706-4.542 11.175-11.161 12-12.329-.423.854 3.497-3.08.255.493 7.26-6.72 4.315-4.758 10.771-10.844.29-.575-3.619 2.829-4.835 4.301-.517-.458 12.128-12.6 5.97-7.61-6.743 6.658-7.716 9.664-14.036 14.958 2.031-2.624 5.922-6.014 8.368-9.482l-4.968 4.576-3.111 3.816.134-.278c-8.874 7.982-7.294 8.298-14.591 16.083 4.707-4.03-.165 1.856 3.329-1.224-4.98 5.105-8.749 8.743-9.27 8.29 9.036-9.832.02-1.051 8.255-10.259-1.606 1.257 1.364-2.79-3.888 2.354-5.508 6.204 2.158-1.346-3.521 4.655-.389.302-.791.616-.659.341-2.433 2.939-3.226 3.042-6.196 6.573l.673-.868c-4.304 3.712-4.049 4.719-7.822 7.847 1.742-1.019-2.02 2.613-3.933 4.979 3.634-3.36 6.046-4.734 12.917-11.663.547-1.12-.116-.774 2.58-3.747l-4.45 4.52c.92-1.015 1.584-1.826 2.414-2.771l4.457-4.16c-5.257 5.667-2.447 3.468-4.47 6.086-5.123 4.873-4.045 4.203-7.282 7.253-.104-.736-10.355 8.92-16.38 14.405l2.687-2.654c3.915-4.445-3.227 2.526-3.497 2.566l-2.837 3.257c.544-.603 1.239-1.494-.119-.254-4.046 4.203-3.39 4.379-7.429 8.576-.541.078 2.59-3.754-.092-1.315-1.084.681-4.432 2.956-9.699 8.631-.299.476-1.667 1.944-3.274 3.626.216-.241.494-.537.581-.656l-3.886 3.382c2.702-3.491 6.448-6.076 9.163-9.583l-.11-.639c2.42-2.423 5.547-5.874 6.865-7.581-3.755 3.628-4.435 4.504-8.485 8.711-.815.341 1.917-2.743 2.31-3.188l-.402.83c5.235-4.614 7.002-7.721 13.201-13.781.94-.91.404-.318.269-.041 4.599-5.326 9.965-9.696 14.309-14.999l-1.375 1.77 15.236-17.006-.095-.197c-.8.625 1.613-1.778 2.965-3.012l-.004.009 8.373-9.303a46.802 46.802 0 00-3.218 2.844c-.834 1.177-6.871 6.934-5.674 6.514-2.959 2.489-7.011 7.215-9.159 9.068 3.895-3.395-2.171 2.906-2.595 3.759-1.471.979-5.383 5.42-5.236 4.612-.805.633 2.009-1.571 3.361-3.319 3.51-4.125-7.26 6.719-2.797 1.67-5.816 6.281-13.888 14.151-19.823 20.694l3.627-3.357c-2.822 2.725-9.312 9.363-9.962 9.694 2.022-2.1 4.435-4.504 7.005-7.207-.245-.5-6.333 6.337-6.857 6.401l-7.04 8.274 3.375-3.333c-1.886 2.339-9.171 9.078-14.421 14.223 2.472-3.492 7.828-7.854 13.092-13.527 3.778-4.166-2.946 1.96.691-1.921-1.093.855-3.533 3.323-4.614 4.661l-1.576 1.391c2.89-3.818 10.512-11.232 15.117-16.636-.389.489-.72.924-.805 1.117 4.033-3.673 7.94-7.594 11.574-11.474-2.133 1.841-2.82 2.727-3.902 3.917-.255.026 3.241-3.57 4.456-5.039-3.63 3.36-.925.379-3.213 2.513 2.166-2.387 4.042-4.198 6.864-6.923 1.614-1.263-.948 1.431-.425 1.367 2.718-2.994 4.574-3.75 8.489-8.196-5.657 5.464.965-1.965 2.726-4.035l-.948.916c1.494-2.032 2.979-3.54 4.445-4.512-2.166 2.387-4.445 4.512-3.523 4.139 1.491-1.515 2.979-3.026 4.599-4.811l-1.35 1.746 7.414-7.529c.941-1.424 2.576-3.741 3.255-5.133 2.011-1.573 4.324-4.251 5.94-6.036l-.69.892c3.502-3.089 10.662-10.594 11.066-11.427 2.545-2.164-15.282 18.004 1.163 1.163 6.324-6.329 3.258-4.623 6.633-8.471 0 0-.134.274.27-.04 2.818-2.72 2.836-3.257 5.003-5.643-1.764 1.557-4.174 3.958-4.851 4.832.548-1.118 5.792-5.741 7.688-8.087-2.313 3.193 5.52-5.184 3.608-2.821 2.895-2.612 5.728-5.477 8.157-8.09a145.384 145.384 0 003.3-3.67l1.344-1.576.298-.359.144-.173c.052-.061.154-.15.228-.223l.909-.873a70.477 70.477 0 004.618-3.484l2.2-1.842 1.129-.972c.363-.214.742-.35 1.155-.497a9.422 9.422 0 015.987 0c2.187.71 4.468 2.479 5.542 5.017-.335-.749-.995-1.78-1.979-2.705-.969-.937-2.258-1.707-3.452-2.174-.824-.227-1.275-.249-1.429-.239-.155.015-.018.066.297.169.632.185 1.975.68 3.021 1.44 1.069.732 1.792 1.642 1.89 1.835.05.1-.049.024-.377-.29-.339-.3-.923-.855-2.019-1.466.92.544.956.551.58.197-.386-.337-1.299-.919-2.376-1.234-1.877-.609-3.813-.423-4.957-.027-1.162.391-1.642.832-1.265.759 0 0 .464-.196 1.242-.359a8.397 8.397 0 012.983-.072 8.307 8.307 0 012.901 1.021c.732.425 1.154.799 1.154.799s-.637-.445-1.352-.757a8.448 8.448 0 00-1.476-.49s.827.217 1.901.892c1.072.659 2.295 1.9 2.931 3.373.163.364.29.735.389 1.102.042.19.096.351.11.56l.017.645.053 2.294.043 2.207c.113.342.147-1.011.157-1.724l.315 6.229c.042.582.016.888.019 1.309l-.009 1.196-.01 2.406c.01 3.217.02 6.466.028 9.667.041 6.401.105 12.613.065 18.002.698 1.012.848 7.646.93 15.115l.134 11.232.027 1.313.016.555.017.288.082 1.058c.063.651.145 1.181.252 1.542-.402-.583-1.109-1.076-1.4-.062-.029-.549-.185-1.349-.318-2.463l-.049-.428-.045-.707-.072-1.491a49.753 49.753 0 01-.021-3.198c.224-.703.478-6.143.736-2.642-.16-12.172-.613 1.647-1.133-1.945.022 2.225.063 4.299.118 6.248.054 1.885.122 4.038.198 4.898.151 2.249.334 4.028.508 5.521 1.896-.789 3.474-1.467 4.963-2.057l.118.136.529-.22.531-.221.448-.172.563-.209 3.017-1.121c-5.035 1.5-5.026.667 1.511-1.117l-.773.287c3.782-.851 11.322-3.654 17.088-5.429l3.76-1.674c5.774-1.777 6.28-1.043 8.307-1.15 9.045-2.807 14.046-5.127 20.331-7.557 3.012-.565 16.559-4.771 9.531-2.068 8.043-2.895 5.797-4.273 20.095-7.651l-3.515 1.492c13.328-4.307 32.152-11.029 38.418-12.621-4.535 2.792 17.072-4.041 19.828-3.589-.748-.065 4.238-1.749 4.923-2.127 1.144-.207 3.018-.651 4.88-1.516-5.282 1.41 3.264-2.411-6.535 1.232 2.388-1.212 5.152-2.494 8.701-3.905l2.815-1.084c.513-.188.969-.366 1.567-.567l2.6-.727 2.764-.752c.468-.105.97-.306 1.429-.336.459-.028.93-.028 1.407.014a9.72 9.72 0 015.554 2.362l-.526.246s-.613-.571-1.714-1.152c-1.089-.59-2.714-1.077-4.333-1.062-.401-.015-.8.027-1.228.157l-1.23.303-2.187.539-2.142.527c.752.128-3.628 1.507-5.446 2.268a168.551 168.551 0 014.646-1.33c.138-.036.27-.07.395-.104l.184-.047.253-.057.9-.192c.533-.11.939-.186 1.244-.234 1.216-.192.837.05.506.272-.338.223-.635.426.565.184l1.2-.272.853-.211.496-.125c.167-.016.341-.042.526-.049a7.873 7.873 0 012.655.28 7.834 7.834 0 013.199 1.782c.895.633 1.029.788 1.427 1.308.188.268.438.644.728 1.313.147.333.296.743.425 1.249.157.481.115 1.188.19 1.951-.047-.73-.063-1.327-.16-1.667-.1-.338-.2-.484-.227-.418-.041.073.019.332.025.894-.011.576.001 1.417.045 2.569l.548 4.099c-.221 1.521-.366 1.652-.471 1.074a13.373 13.373 0 01-.13-1.313l-.149-2.226c-.127-1.713-.208-3.461-.344-4.293-.101-.396-.199-.586-.224-.479-.048.12.05.482-.031 1.35-.087-2-1.383-4.284-3.521-5.436a6.703 6.703 0 00-3.401-.819c-1.141.003-2.218.496-3.225.809l-2.677.931c-.408.144-.694.265-.96.379l-.708.317c-.813.386-1.077.617-.51.613l3.61-1.1a88.677 88.677 0 002.945-.988c1.739-.515 3.276-.303 4.604.275 1.308.604 2.548 1.658 3.213 3.488.36.89.313 2.047.384 3.375l.061 2.141c.005.363.021.82.014 1.143l-.023 1.041-.286 1.223c.195 4.04.658 4.692.939 6.904-.164.199-.285 1.226-.332 3.821.678 6.821.811 11.349 1.549 17.641-.277-8.374-.148-11.953-.012-15.6.068-1.823.138-3.664.16-6.128.011-1.232.01-2.621-.009-4.241l-.044-2.614-.033-1.456-.02-.768-.074-1.131c.135 1.187.149 2.228.215 3.814l.2 5.069c.158 3.474.38 6.704.745 7.077l-.529-.162c.275 5.621.547 11.238.373 18.297l-.297-4.309c.367 9.356-.801 15.553.076 22.935.047-2.607.031-4.724-.049-6.333.235 4.816.183 10.857.094 16.091l.871 10.829c-.262-.095-.277 6.768-.695 3.457-.402 7.797.385 11.472.516 15.978-.561 7.984-.25-6.917-.979-7.699-.244 11-.023 22.659.451 28.866.105-2.243.197-3.333.324-3.219-.166.333-.123 4.765-.127 7.236l.342 1.698c-.231 4.116-.434 3.536-.691.035-.022 1.292.034 2.665.103 4.07.033.702.068 1.413.103 2.125l.042 1.069.013.63-.003.354c-.006.15-.002.23-.031.565l.024-.483c.026 1.487-.007 2.953-.177 4.345a110.653 110.653 0 01-.17-4.345l-.022.449.009-8.758c.006-2.549.001-4.734-.102-6.123.084 3.475.062 6.094-.012 8.34a128.353 128.353 0 01-.142 3.147l-.088 1.476c-.039.509-.035.85-.138 1.871l.021-.402c-.251 4.031-.494 8.502-.272 17.489-.164.219-.483-2.794-.487.634.128 7.943.707 2.075 1.088 4.556-.214-6.114-.006-8.96.427-12.508l.278 1.632c-.145.247-.151 4.087-.291 5.218l.567.988c-.628-.456-1.104 5.688-.869 10.516.454-4.879.431-3.562 1.145-4.889.679 6.789-.663 7.661.056 15.271-.202-.57-.354-7.214-.507-1.473-.026 4.752.462 4.118.618 7.306-.522-3.59-.911-2.668-1.531-6.559-.068-8.442.006-3.405-.224-11.658l-.44 6.985c-.087-7.153-.6-5.202-.8-5.791-.529 12.217.796 9.207.66 17.067.359 3.789.074-7.363.45-1.436-.074 7.351.342 1.676.57 9.926l-.24-1.381c-.311 2.521.073 5.015.126 7.933.159 3.21 1.816-3.634 1.854 9.562-.146-.646-.238-.884-.299-.884l-4.393-12.872c.013 13.37-.106 28.777-.397 44.261-.857 3.646-.71-11.051-1.097-10.104l.175-7.062c.364.396.115 14.795.757 8.418-.264-12.471.153-18.129-.599-29.959-.86 3.675.155 15.581-.508 23.277.056-3.232-.04-5.96-.163-8.608l-.357 23.182.209 1.848c.095-5.541.168-9.375.199-9.869-.074 7.347.403 13.544 1.032 14.032l.022-1.306.197 2.655c-.056 1.713-.096 3.437-.136 5.15zm-312.587-72.918c.358.272.657.472.903.594-.255-.126-.084.129-.903-.594zm310.479-70.969l-.338 29.097c1.242-16.995 2.184-28.942 2.16-.58l.09 1.857c.151-3.707.17-10.101.08-16.114-.22-2.433-.735-7.575-1.213-12.088l-.647-5.879c-.18-1.524-.308-2.473-.343-2.43-.348 1.723.031 4.236-.074 7.369l.285-1.232zm2.084-6.967c.139-5.554-.137-4.29-.385-5.152l.094 5.836c.063-.738.151-1.102.291-.684zm-.632-4.818c-.006.624-.018 1.156-.051 1.435l.051-1.435zm-.329 108.02l-.016-.57-.057 3.998c.04-.532.071-1.546.073-3.428zm.606-11.273l-.454-1.317-.052 3.748c.205-.423.385-.863.506-2.431zm1.486-36.232c-.546-2.284-.571-9.936-1.201-10.404-.161-.488-.223 1.121-.274 2.927l-.051 6.447c.092.08.177.533.259 1.29.078-2.253.234-3.758.621-2.846-.842 5.792.601 5.189.387 11.45.443 1.994.438-6.966.259-8.864zM205.861 130.032c-.164.087-.697.419-1.428.902l2.898-3.339c5.66-5.466 10.755-9.282 15.212-14.839 2.481-2.205 4.028-3.168 5.467-4.126a179.924 179.924 0 01-3.192 3.036c-13.231 14.844-8.167 6.47-18.957 18.366zm46.872-11.271c-.039-.811-.142-1.103-.142-1.103 1.154 17.577 1.489 32.05 1.444 41.526.458-1.837.813-10.338 1.002-14.374l.521 3.577-.41 2.234.474 6.209c.351-1.736.278-6.751.547-10.104-.1-.292-.708-11.025-1.029-14.025l-.36 8.576c.146-2.316.025-13.693-.108-18.205-.262-.089-.665 7.686-.097 8.665-.388.925-.392-8.038-.808-2.37-.414-6.717-.068-17.403.124-22.362l.652-.839c.063-1.36.046-2.27-.01-2.97-.05-.678-.173-1.283-.266-1.815-.201-1.126-.354-2.252-.242-5.787.117 4.186.287 3.815.425 3.153.141-.651.251-1.586.388 2.018.081-1.175.24-1.239.34-1.929.049-.347.083-.856.08-1.757l-.034-1.673-.041-1.107c-.025-.393-.007-.869-.113-1.257a8.514 8.514 0 00-1.966-2.95 7.987 7.987 0 00-2.428-1.646c-.858-.361-1.786-.552-2.816-.448-1.025.126-2.165.502-3.194 1.619-1.46 1.194-.712.345-.269-.185.433-.523.535-.714-2.506 1.971-1.698 1.677-2.888 2.901-3.733 3.814-.735.848-1.071 1.354-1.328 1.756-.476.782-.313.956-.255 1.343a93.435 93.435 0 005.452-5.701 72.664 72.664 0 012.272-2.46c.211-.21.432-.454.661-.651a5.06 5.06 0 01.758-.509 5.515 5.515 0 012.02-.642s-.201.039-.541.146a6.16 6.16 0 00-1.332.605c-.526.301-1.031.759-1.581 1.386l-1.684 1.827a226.042 226.042 0 00-2.958 3.304c-.383.438-.71.809-.898 1.043l-.314.38c1.629-1.401 2.844-2.553 3.798-3.544-1.719 1.751-3.07 3.294-4.065 4.612l-1.641 2.092 3.297-3.283 2.767-2.716c1.649-1.57 2.75-2.682 3.191-2.683 0 0-.183.222-.347.456-.167.232-.312.475-.312.475.746-.517 2.032-1.047 3.337-1 1.309.005 2.471.567 3.092.997.947.952 1.395 2.292 1.349 3.537l.112 3.534c.061 2.167.068 3.88-.129 4.538l-.279-2.109.096 7.669c.012 2.214.021 4.656.037 9.142zm170.492 3.061c-.791-.045-1.704-.038-2.956.1-.609.064-1.373.184-2.213.336-.838.151-1.764.339-2.805.575-4.163.941-10.164 2.638-19.747 5.781l1.49-.554c-9.9 2.405-18.609 6.876-30.632 9.875 5.593-2.216 5.296-2.082 11.319-5.003l-6.041 2.248c1.517-1.119-4.51 1.123-9.021 2.524l3.755-1.95c2.766-.659 9.795-2.811 9.539-2.903-1.51.563 9.526-2.065 15.321-4.124-.752-.275-13.062 3.838-7.78 1.323-4.767 1.864-5.518 1.59-10.555 3.369 4.778-1.868 1.006-1.02 4.531-2.513l-8.294 2.806c-.267-.086 12.043-4.201 5.023-2.606-3.266 1.305-12.29 3.831-12.29 4.384l-.255-.089c-6.288 1.875-2.525 1.584-10.296 3.734-.01.282 1.51-.008 4.245-.933 2.289-.85 2.536-1.309 7.303-2.899 2.272-.288-5.792 1.784-2.256 1.395 1.757-.193 12.553-4.298 9.287-2.439l-6.276 1.872c0 .555-4.53 1.96-4.274 2.326-3.759 1.396-7.541 1.973-11.301 3.647-1.516.839 1.503.547-5.031 2.33-5.276.854-20.082 5.712-25.61 7.583l-4.767 1.866c.512.178 9.288-2.993 6.29-1.6l-7.554 2.53.524-.379c-2.529.755-5.036 1.779-7.296 2.618 2.249-1.113 7.768-2.704 6.514-2.882-3.596 1.027-4.201 1.005-7.449 2.146.704-.264 1.304-.511 1.19-.556-7.287 2.062-6.781 2.797-8.536 3.541-7.037 2.984 7.512-1.687 6.756-.853l-21.087 7.008c1.755-.744 3.522-1.491 2.771-1.49-5.271 1.406-.246-.37-7.531 1.97.732.556-9.011 3.351-14.094 5.419-1.263.239-1.966.365-1.734.234.244-.135 1.385-.516 4.013-1.354-.184-.07-.776.034-1.561.229-.763.188-1.724.468-2.738.779l-5.463 1.728c-.486.196-1.08.421-1.799.683l-.194-3.543c-.243 2.377-.549 1.946-.757-3.091l-.103-.254-.184 8.578c3.408-.99 7.081-2.067 10.37-3.091 1.724-.538 2.95-.934 4.178-1.357 1.194-.412 2.226-.798 3.029-1.146l-1.252.651c8.785-2.345 18.575-6.814 22.847-7.202-.258.465 1.765-.472 1.773.079l6.25-2.416-1.253.649 10.808-3.554-.257.185 12.06-5.07c-.058-.223-.414-.184 1.253-.891a48.769 48.769 0 014.167-1.428c.009-.004.009-.004.008-.006l.001.003c2.681-.78 4.554-1.028 7.871-1.939l-10.066 3.253c-.703.633.277.747 5.3-.56-2.016.655-2.769 1.213-.255.463.244-.184 6.532-2.334 4.025-1.865 9.535-3.175 25.353-7.118 39.672-12.439-10.313 3.74 8.532-2.158-3.019 1.675 8.285-1.973 6.781-2.797 15.063-5.322.771-.009-4.502 1.397-6.265 2.421 13.798-4.115 22.849-8.308 36.181-12.339l.716.284 7.404-2.56zm5.924 21.409c.055 2.68.11 5.398.168 8.161l.014-.801.393 8.054c.19-4.949.727-8.209.976-1.283-.202-.583-.448 1.441-.566-.966-.292 4.641-.575 14.824.161 12.169-.696-8.918.938-2.078.421-9.086.479 3.761.264 7.486.478 11.038-.4-3.697-.909.862-1.101 6.416.118 2.417.005 8.96.2 12.977.449-1.432.707 2.066.82-4.479a99.475 99.475 0 01-.02 10.281c-.076-1.651-.133-4.537-.295-4.337-.414 2.687-.396 5.833-.573 7.569l.072 4.141c.04-.406.091-.757.155-1.008l.396 4.601c-.211-6.127.209-2.833.473-2.753-.527-.165-.068 3.944-.051 6.042l.557-4.556c.279 2.202-.402 7.775.148 6.625.221-9.667.127-13.383-.039-22.124l-.434 3.549c-.306-9.863.742-6.083.722-17.15-.396-4.6-.027-16.643-.819-16.871.242 1.388.705-6.891.346-10.684-.723-4.191-.82-16.868-1.15-13.028-.01 3.425.389 8.035-.082 10.788l-.151-6.644-.394 4.36c.14-2.256-.245-2.037-.825-1.001zm-4.458 148.717l-.011.257.003-.285.008.028z"/><path d="M137.482 200.733c-1.224 1.478-4.585 4.798-3.657 4.418-.382-.221 5.922-6.015 3.657-4.418zm-4.29 3.7c-.163.308.116.259-1.373 1.769l4.05-4.204-2.677 2.435zm-6.246 2.128c-1.903 2.353-3.125 3.829-6.486 7.148-1.99.52 5.263-5.674 6.092-7.874-6.192 6.054-7.429 8.575-12.403 13.674 2.802-2.189 13.172-12.206 12.797-12.948zm1.791-3.649l-3.24 3.571.38-.292 3.241-3.574zm80.133-67.362c.537-.077 2.432-2.424 3.515-3.618-.94.91-2.296 2.144-3.515 3.618zm-9.286 231.137l-26.195-25.752 26.195 25.752zm50.351-218.255c-.306-9.863-.866-14.244-1.009-24.294-.654 13.215 1.022 17.454.352 28.549l.657-4.255zm-2.591-3.479c.612-1.635.717 7.61 1.166 6.178-.149-6.647-.583-3.095-.53-9.127l-.636 2.949zm9.87-45.662a2524.676 2524.676 0 00.513 3.491l.049.467-.018-.376c0-.092-.021-.28-.044-.486l-.067-.626-.183-1.696-.25-.774zm12.953 75.448l-.997.461 4.773-1.311zm-1.993.925l.996-.463-.996.463zm-9.404-71.562l.021-.694.018-.728a2291.254 2291.254 0 00-.32-4.663l-.54-3.228.495 4.991.186 1.845c.056.578.132 1.208.118 1.439l.022 1.038zm-3.282 39.232l-.196-3.976c.038.789-.214 6.229.196 3.976zm43.546 22.519l4.54-1.687-.489.092-4.525 1.681zm-41.708 3.216c-.049-.009-.081-.021-.088-.04.058-.207.099-.241.13-.177.722-.409 3.481-1.12 1.533-.853-.59.206-.994.365-1.268.49-.094-.511-.236.008-.38.519.029.02.056.04.073.061zm51.916-13.125a25.77 25.77 0 001.888-.671l-1.888.671zm0 0c-2.009.637-4.071 1.103-5.407 1.669 2.569-.591 3.456-.957 5.407-1.669zm22.976-7.405l-1.831.545c1.79-.811.918-.499-.687.206-1.925.627-1.771.735-1.97.905l-1.132.55 1.531-.664c2.992-.944 4.809-1.545 4.089-1.542zm87.868-19.563c-6.778 1.966-8.543 2.438-8.288 1.974-6.419 1.915-5.239 2.2-9.045 3.561 7.202-2.36 8.73-2.668 17.333-5.535zm-17.333 5.534l-2.513.828a57.51 57.51 0 002.513-.828zm-98.635 18.757l4.011-1.859-1.511.561zm118.185-24.623c-.077-.101-.266-.108-.335-.211-.052.208.046.217.146.234.103.01.223.024.189-.023zm-20.283-1.254c-.75.003-5.013 1.496-6.79 1.97 2.526-.752 4.777-.76 6.79-1.97zm21.972 13.068c.023-1.308.269-3.32.57-2.449-.177-1.901-.822-4.473-.57 2.449zm-9.662-16.905l-.997.187-4.532 1.683zm-18.046.069c-5.045 2.058 8.528-1.604-.274 1.577 11.638-3.214-1.068-.309 7.436-2.932-5.012 1.436-7.614 1.682-7.162 1.355zm7.162-1.355a92.214 92.214 0 002.364-.71l-2.364.71zm27.894 50.073a38.657 38.657 0 00-.148-1.825c.037.621.082 1.214.148 1.825zm2.53-50.434s-.225-.668-.794-1.569a9.013 9.013 0 00-2.739-2.753 8.78 8.78 0 00-3.634-1.306c-1.047-.123-1.736-.031-1.736-.031a8.069 8.069 0 013.215.392 8.575 8.575 0 013.364 2.099 8.718 8.718 0 012.158 3.663c.056.17.091.343.136.515l.044.571.08 1.142.16 2.246.159 2.153c.035.398.034.565.045.803l.027.658c.038.855.08 1.617.128 2.241.096 1.248.216 1.942.379 1.729.033-1.107.047-2.271.045-3.428-.003-.594 0-1.119-.021-1.758l-.18-2.578-.187-2.395-.094-1.104-.047-.524c-.038-.157-.084-.304-.128-.451-.382-1.167-.946-2.081-1.442-2.673 0 0 .355.552.617 1.146.276.591.445 1.212.445 1.212zm-11.223 95.854l-.258-3.517-.076 4.391c.097-1.257.576 1.018.334-.874zm-.348 1.724l.014-.849a7.653 7.653 0 00-.014.849zm8.725-62.538c.047-2.63.029-4.733-.088-7.132-.123.995-.238 7.547.088 7.132zm-7.43 85.577l-.112-5.804.048 6.333zm-1.131 27.086l-.123 1.001.235 4.813.123-1.017zm12.84-35.425c.068-3.935-.516-7.008-.64-5.979l.026 7.629c.512-1.939-.016-2.116.113-6.539l.501 4.889zm-80.632 128.899c1.729.189 9.623 2.902 9.941 3.345-1.111-.205-5.465-1.445-2.818-.388l6.547 1.196c8.213 3.154-6.696-.968-10.921-1.996 8.496 2.809 11.19 3.085 20.261 5.966a58.382 58.382 0 01-5.639-2.276c-.13-.661 8.244 2.271 14.301 4.143-3.77-1.465-1.479-.965 1.394-.297.51.143.855.217 1.106.254.334.077.65.148.976.224l-.725-.229c.071-.047-.064-.174-.554-.444-5.122-1.444-8.851-3.146-12.112-4.188 2.935 1.938-11.184-3.315-15.377-4.336l-4.767-1.413-1.773-.561c-.325-.214.22-.18 2.979.497-2.313-.535-9.815-2.985-9.214-2.471l-17.172-5.435a17.763 17.763 0 01-1.417-.614c-.613-.131-.729-.115-.665-.044-27.636-8.747-55.271-17.495-82.927-26.27l.021 3.013.04-2.929 17.349 5.883c-5.263-1.334-2.351-.38 1.341.816l2.155.707c.515.174.999.343 1.39.49.781.297 1.189.511.726.521a41.542 41.542 0 01-2.141-.561l-1.278-.382-2.019-.638a252.537 252.537 0 01-7.301-2.458c-.674-.054.421.444 1.562.965 1.148.522 2.339 1.066 2.054 1.167 1.947.668 3.667 1.233 5.241 1.73l1.576.479 1.271.354c1.63.434 3.025.73 4.416 1.02 2.78.579 5.54 1.131 10.118 2.699-.477.232-3.424-.368 2.628 1.501l-1.558-.412c9.79 2.678 7.282 3.177 13.67 4.152l-.319.452c4.505 1.013 13.036 3.717 17.866 5.173l-.317.006c13.669 3.704 7.609 2.28 22.83 6.845l-7.155-1.625c5.147 1.899 6.527 1.636 10.257 2.892-.3.012.454.655-3.117-.378l18.659 4.937c4.505 1.012-.774-.652-1.389-1.082z"/><path d="M377.681 371.206c.964.336 2.065.698 3.377 1.092l-3.377-1.092zM246.122 341.22l-.005-10.463c-.032 3.201-.042 6.597.005 10.463zm158.246 37.246c-3.104-1.271 2.501.394 3.118.377l-11.415-3.611c-.01.21-1.208.068-1.035.318l9.332 2.916zm-11.484-4.648c-.43.012-1.676-.251-3.065-.565l6.253 1.979c.006-.159-.652-.513-3.188-1.414zm-2.071 10.716l-2.026-.623-3.103-.82zm-31.326-10.877c2.319 1.06 6.969 2.289 8.523 2.7-5.279-1.664-2.957-1.051-8.523-2.7zm5.521 5.215l-5.138-1.447.455.208zm-116.811 6.791l.034 2.608a70.546 70.546 0 00-.034-2.608z"/><path d="M247.694 333.426c-.196 6.98-.316 7.911-.417 5.98-.1-1.911-.181-6.612-.298-10.454 3.492.982 6.085 1.639 3.52.556-1.324-.392-2.648-.782-4-1.211l.196 8.737-.203-1.254.066 14.545c.087-.434.154-.84.21-1.199l.15-1.587c.095-.882.191-1.269.375-.905l-.028 2.934-.032 1.506c-.022.884-.047 1.54-.075 2.035-.054.991-.119 1.342-.192 1.599-.148.513-.336.65-.567 4.787l.066 12.604-.109-1.021c.008 1.062.054 1.53.113 1.895l.114 21.236.078 14.601.036 1.534c.083.391.131.615.208.714.078.102.202.077.296.012.195-.096.422-.492.691.628 0-.713.023-1.497.048-2.315l.053-7.097c.006-4.543-.079-8.06-.443-8.44.101.301.302.894.388-.922l-.6-5.18-.191 4.939c-.598-5.209-.465-22.029-.094-25.07.204 9.564.924 4.765.533 18.09.185-.599.51-3.038.611-.038-.106-7.806-.076-15.208-.097-22.68a885.739 885.739 0 00-.094-11.319l-.312-18.24zm-46.795 35.383l.134.041c-.224-.174-.308-.22-.134-.041zm3.642 3.77l5.886 4.876-8.43-8.35-.964-.255c.832.651 3.953 3.414 4.955 4.692l-1.447-.963zm12.44 10.818c-4.483-4.182-4.665-3.529-2.492-.976-4.172-3.785-1.651-2.548-4.831-4.848-.211.391 4.869 5.118 6.051 6.189l1.272-.365zm28.071 28.511c.011.01-.354-.008-.364-.019l.412.458c.196.249.476.405.476.405s-.174-.193-.3-.411c-.128-.219-.224-.433-.224-.433zm-.364-.019l-.783-.876c-.057.2-.103.405-.008.676 0-.001.226.077.421.126.2.052.369.074.37.074zm-7.981-8.314a347.089 347.089 0 00-4.289-4.421l4.289 4.421zm3.301 3.514l-.046-.155-3.255-3.358 3.301 3.513z"/><path d="M243.905 411.013c.032-.113.067-.227.089-.342l.014-.086.004-.044c-.012-.028-.043-.075-.066-.113a7.663 7.663 0 00-.388-.559c-.638-.844-1.8-2.119-3.995-4.232l.397 1.296 2.222 2.29 1.527 1.575.196.215zm84.304-44.47l-4.664-1.235.467.215 4.661 1.234zm-26.388-8.769a80.524 80.524 0 00-2.847-.665c1.21.336 2.182.572 2.847.665zm-20.555-3.56c-5.277-2.111 7.619 1.841-2.33-1.51-.765-.648 4.076.364 8.729 2.042-.484.229-4.66-1.234-1.877.039 3.256.591 4.359 1.242 3.436.373 5.366 1.344 6.07 1.158 9.751 1.951-6.436-1.788-19.625-6.564-27.913-8.455-4.651-.783-2.224.932-2.53 1.834.601.427 12.108 4.189 12.734 3.726zm8.213 3.603c2.486.838 3.262 1.044 4.82 1.455-.315-.441-2.796-.828-4.82-1.455zm-35.016-.059c.136.501.304 5.246.538 4.227l-.171-7.195c-.023 1.687-.189 2.283-.367 2.968zm.294-6.124l.073 3.155a50.76 50.76 0 00-.073-3.155zm-.378 6.465l.084-.342c-.029-.101-.058-.081-.084.342zm-29.85 32.962c.257-.113-2.121-2.271-3.314-3.354.909.942 2.148 2.302 3.314 3.354zm-86.076-84.62l-1.856-2.15c.62.796.939 1.202 1.856 2.15zm-35.919-25.814c-.094-.022-.272-.14-.5-.312.223.177.392.285.5.312zm-.5-.312c-1.522-1.215-5.508-5.68-7.261-6.964l.264.121-2.966-2.688c2.67 2.63 8.205 8.221 9.963 9.531z"/></g></svg>