<svg width="15" height="19" viewBox="0 0 15 19" fill="none" xmlns="http://www.w3.org/2000/svg"><path d="M12.556 8H2.444C1.647 8 1 8.814 1 9.818v6.364C1 17.186 1.647 18 2.444 18h10.112c.797 0 1.444-.814 1.444-1.818V9.818C14 8.814 13.353 8 12.556 8zM3 8V4.889c0-1.032.474-2.02 1.318-2.75C5.162 1.409 6.307 1 7.5 1c1.193 0 2.338.41 3.182 1.139.844.73 1.318 1.718 1.318 2.75V8" stroke="#000" stroke-linecap="round" stroke-linejoin="round"/><rect x="7" y="13" width="1" height="3" rx=".5" fill="#000"/></svg>