<svg width="459" height="240" viewBox="0 0 459 240" fill="none" xmlns="http://www.w3.org/2000/svg"><path d="M32.23 41.765c-.444.364-.87.75-1.275 1.157a.332.332 0 00-.128.09 3.502 3.502 0 00-.676 1.576 10.76 10.76 0 00-.204 2.683 16.66 16.66 0 001.276 5.556 19.257 19.257 0 002.552 3.47c.122.141.254.273.395.395a9.353 9.353 0 004.109 1.92c.472 0 1.429-.077 2.833-.179a11.152 11.152 0 004.516-2.428c.085-.058.162-.127.23-.203a5.6 5.6 0 001.034-1.831c.355-.888.64-1.802.854-2.734a8.869 8.869 0 00.077-4.767 8.901 8.901 0 00-2.845-3.929 13.033 13.033 0 00-4.517-2.25c-1.174 0-2.488-.077-3.981-.064-.536.027-1.068.091-1.595.19a7.6 7.6 0 00-1.43.522 32.89 32.89 0 00-1.275.826h.05zm-3.112.598c.18-.261.38-.508.6-.737l.688-.789a9.933 9.933 0 013.394-2.695 8.181 8.181 0 012.055-.356 11.64 11.64 0 012.424-.127c2.08.17 4.094.805 5.895 1.856a14.411 14.411 0 012.233 1.64l.23.204a15.277 15.277 0 012.092 2.174 9.268 9.268 0 011.62 6.662 12.678 12.678 0 01-.854 3.28 12.92 12.92 0 01-2.118 3.738 8.232 8.232 0 01-2.999 2.021 16.89 16.89 0 01-4.402 1.272 9.628 9.628 0 01-3.828 0 8.445 8.445 0 01-2.552-1.373 23.813 23.813 0 01-.944-.776 7.7 7.7 0 01-1.39-1.487 13.797 13.797 0 01-2.438-5.188c-.179-.763-.28-1.271-.344-1.576-.064-.305-.102-1.017-.192-2.11-.064-.827-.09-1.4-.076-1.73.014-.384.079-.764.191-1.131l.536-1.742c.056-.348.133-.691.23-1.03h-.051zm-4.543 27.691a11.226 11.226 0 00-.995 1.564 5.408 5.408 0 00-.421 1.042c-.105.361-.246.71-.421 1.043-.077.267-.192.61-.306 1.055-.18.712-.281 1.106-.294 1.183a.33.33 0 00.115.33c.128.09.536.318 1.212.687a15.96 15.96 0 012.029 1.271c.408.33.906.712 1.48 1.106l1.276.865c.256.183.525.348.804.495.268.14.434.166.472.09a7.92 7.92 0 01.51-1.386 10.59 10.59 0 00.549-1.92 3.48 3.48 0 01.179-.572c0-.204.102-.407.153-.585.152-.368.28-.746.382-1.132a16.67 16.67 0 00.51-2.06c0-2.542-.586-4.398-1.798-5.454a3.083 3.083 0 00-2.552-.127 6.372 6.372 0 00-2.884 2.505zm-9.518-.903a16.834 16.834 0 00-1.276 1.996l-.358.916c.125.091.257.172.396.241h.09l.471.242c.97.381 2.233.966 3.828 1.729l1.723.84c.073-.256.163-.507.268-.751.23-.7.395-1.195.484-1.488.09-.292.14-.635.166-.851.026-.217.268-.801.46-1.272a7.996 7.996 0 00.268-5.657 2.265 2.265 0 00-.945-1.145.55.55 0 00-.216 0 1.6 1.6 0 00-1.442.432 19.089 19.089 0 00-3.918 4.768zm-3.254 1.818c.127-.317.332-.724.587-1.271.255-.547.395-.788.638-1.271.612-1.094 1.123-1.941 1.53-2.543 1.702-2.373 3.208-3.768 4.518-4.183a2.56 2.56 0 011.53-.09c.59.234 1.142.556 1.634.954a5.39 5.39 0 011.684 3.815c.058.349.088.701.09 1.055 0 .127 0 .203.064.241.063.039.114 0 .165-.152a5.71 5.71 0 011.008-.903c.449-.35.917-.672 1.404-.966a5.12 5.12 0 012.756-.547c1.042.16 2.004.65 2.743 1.399a9.583 9.583 0 011.557 3.102 9.923 9.923 0 01.523 3.395 23.564 23.564 0 01-.982 3.534 26.68 26.68 0 01-.664 1.907c-.238.811-.52 1.609-.842 2.39a15.896 15.896 0 01-.65 1.577 1.91 1.91 0 01-.116.229l-.344.521a.816.816 0 01-.472.381 1.343 1.343 0 01-.6 0l-.217-.127c-.306-.152-.804-.445-1.493-.839a15.436 15.436 0 01-1.773-1.144c-.298-.254-1.612-1.102-3.943-2.543l-1.276-.826-1.084-.623a24.28 24.28 0 00-2.259-1.157 21.735 21.735 0 00-5.754-2.263 1.52 1.52 0 00-.383.076 4.242 4.242 0 01-.204-.381c.096-.938.306-1.86.625-2.747zm-9.378 30.514a2.53 2.53 0 01.127-1.043c.179-.585.32-.991.421-1.271.102-.28.179-.725.37-1.564.192-.84.549-2.937 1.276-6.357.268-1.157.498-2.123.676-2.924.163-.836.38-1.66.651-2.467a.51.51 0 01.472-.203.793.793 0 01.562.203c.434.216.523.61.293 1.208-.23.598-.204 1.615-.306 2.543a15.03 15.03 0 01-.46 3.077c-.28 1.055-.6 2.288-.956 3.687-.358 1.398-.626 2.543-.842 3.305l.586.14c.79.008 1.578.063 2.361.166a50.25 50.25 0 003.254.241 2.766 2.766 0 001.556 0v-.102a7.605 7.605 0 01.383-2.708 30.421 30.421 0 001.314-5.62c.294-2.39.575-3.674.855-3.813a.98.98 0 01.715 0c.27.081.499.263.638.508.104.116.194.244.268.382a.618.618 0 010 .152s0 .636-.166 1.933a17.118 17.118 0 01-.574 3.407 31.38 31.38 0 01-.983 3.026 9.72 9.72 0 00-.549 1.882c0 .267-.14.673-.23 1.195l1.94.445c1.493.368 2.782.712 3.828 1.042l1.889.687.778.254c0-.114-.064-.28-.102-.534-.038-.254 0-.941-.064-1.729 0 0 0-.381-.166-1.144 0-.429.051-.855.153-1.272.15-.686.24-1.383.268-2.085a15.76 15.76 0 01.88-3.814c.27-.399.497-.825.677-1.271.26-.54.65-1.007 1.136-1.36a1.021 1.021 0 01.765-.204.485.485 0 01.23.114c.293.242.357.636.153 1.183a12.951 12.951 0 00-.574 2.034 23.462 23.462 0 00-.613 2.683 48.327 48.327 0 00-.51 4.64 70 70 0 01-.396 2.95 8.869 8.869 0 00-.166 1.907.947.947 0 010 .254c-.04.111-.09.218-.153.318a.626.626 0 01-.625.242 1.439 1.439 0 01-.791-.28 13.806 13.806 0 00-2.552-.903l-3.407-1.068a35.621 35.621 0 00-7.502-1.119 23.821 23.821 0 01-2.552-.343c-.87-.15-1.748-.256-2.629-.318a6.66 6.66 0 01-1.276-.114.747.747 0 01-.331-.14v-.038zM.306 129.809c-.19-.089-.293-.394-.306-.902-.013-.509.064-.814.217-.903a49.966 49.966 0 015.219-.242l4.72-.127.154-.801a39.047 39.047 0 00-.204-6.509 94.01 94.01 0 01-.306-2.543 4.881 4.881 0 00-.166-1.144 16.343 16.343 0 00-3.726-.699 25.15 25.15 0 00-4.39-.42.84.84 0 01-.842-.369.898.898 0 01-.165-.724c.076-.407.446-.662 1.097-.776a18.399 18.399 0 013.496-.076c1.353 0 2.22.076 2.552.14a5.14 5.14 0 001.276 0c.166 0 .434 0 .804-.102a2.66 2.66 0 000-.445.593.593 0 01.395-.572 2.18 2.18 0 01.46-.089h.204c.293.109.553.293.753.534 0 .101.127.241.217.457h2.028c.783.051 1.6.077 2.45.077.613 0 1.404 0 2.386-.102 2.003-.165 3.28-.254 3.828-.267.37-.06.748-.021 1.097.114.292.215.488.534.55.89.047.148.073.303.076.458a.8.8 0 01-.166.56 1.802 1.802 0 01-1.2.661 22.265 22.265 0 01-3.075.419c-3.828.242-6.035.42-6.699.522a1.07 1.07 0 00-.357 0 .976.976 0 01-.178.139v3.484c0 1.869.063 3.077 0 3.623a8.658 8.658 0 01-.166 1.615c-.193.398-.301.83-.32 1.272 0 .19 0 .47-.089.839l2.973-.102c2.463 0 4.415 0 5.883-.127l2.45-.153.178.267c.234.538.275 1.14.115 1.704-.09.14-.485.292-1.174.445-.616.17-1.25.268-1.888.292-.497.009-.99.082-1.468.216a9.997 9.997 0 01-1.786.153h-1.149c-1.658 0-2.794 0-3.393-.089-2.11-.153-5.474-.301-10.093-.445a8.324 8.324 0 01-2.272-.153zm12.875 41.321c.139.557.314 1.105.523 1.64a.254.254 0 000 .14c.273.511.667.947 1.148 1.271.734.516 1.526.943 2.36 1.271a16.477 16.477 0 005.577 1.196 19.2 19.2 0 004.249-.878c.182-.052.361-.116.536-.19a9.594 9.594 0 003.496-2.963 60.37 60.37 0 001.02-2.644 11.1 11.1 0 00-.318-5.086 1.08 1.08 0 00-.102-.305 5.884 5.884 0 00-1.277-1.691 20.963 20.963 0 00-2.13-1.92 9.131 9.131 0 00-4.25-2.047 8.966 8.966 0 00-4.759.928 13.267 13.267 0 00-3.955 3.154 111.838 111.838 0 00-1.723 3.572 12.357 12.357 0 00-.497 1.526c-.09.495-.128.997-.115 1.5.076.572.14 1.081.217 1.526zm-.74 3.051a5.474 5.474 0 01-.421-.839l-.434-.954a9.975 9.975 0 01-1.085-4.182c.101-.69.285-1.364.549-2.009.228-.758.531-1.49.906-2.187a13.999 13.999 0 014.16-4.564 14.806 14.806 0 012.437-1.272l.28-.127c.918-.42 1.876-.748 2.859-.979a9.367 9.367 0 016.75 1.272 12.738 12.738 0 012.628 2.148 12.916 12.916 0 012.475 3.433 7.92 7.92 0 01.587 3.56 16.267 16.267 0 01-.676 4.513 9.565 9.565 0 01-1.557 3.458 8.106 8.106 0 01-2.297 1.691c-.395.204-.765.395-1.11.534a8.045 8.045 0 01-1.94.649 14.271 14.271 0 01-5.74 0l-1.672-.331-2.004-.699c-.778-.292-1.276-.521-1.607-.661a4.824 4.824 0 01-.945-.649c-.65-.572-1.11-.979-1.365-1.271a8.22 8.22 0 01-.778-.534zm21.461 26.699c.472.487.9 1.014 1.276 1.577a.636.636 0 00.358.241c.55-.992 1.242-1.9 2.054-2.695.74-.674 2.054-1.767 3.955-3.267l1.736-1.361c-.192-.178-.536-.547-1.034-1.093a15.512 15.512 0 00-3.828-2.874 16.906 16.906 0 00-4.16-1.576c-2.105-.356-3.406-.331-3.904.089l-.076.076a8.085 8.085 0 00-.957 2.543c0 1.704.995 3.814 2.96 6.115.408.611.957 1.348 1.62 2.225zm1.276 4.12a.894.894 0 01-.408-.102.114.114 0 010-.127.125.125 0 01.077 0s0-.064-.102-.178c-.102-.115-.243-.356-.434-.598l-.804-.928-1.276-1.475a50.768 50.768 0 01-3.28-4.094 8.962 8.962 0 01-1.505-6.535 5.56 5.56 0 011.085-2.364c.11-.166.243-.316.395-.445.228-.186.471-.352.728-.496a7.522 7.522 0 013.713-.572 13.4 13.4 0 012.551.483c.987.371 1.922.866 2.782 1.475.65.445 1.467 1.068 2.437 1.856.85.685 1.652 1.429 2.399 2.225l1.084 1.144.996-.775c.689-.522 1.276-1.068 1.952-1.641a27.722 27.722 0 013.47-2.847c.205-.115.332-.14.396 0a.577.577 0 00.357.19c.127.056.26.099.396.127.1.02.19.074.255.153.06.07.104.152.128.241a1.27 1.27 0 01-.128.814c-.17.333-.384.641-.638.916a31.522 31.522 0 01-3.547 3.204 85.588 85.588 0 01-5.41 4.119 36.198 36.198 0 00-5.257 4.399c-.664.75-1.046 1.208-1.136 1.348a.367.367 0 000 .445.3.3 0 01.102.228.534.534 0 01-.165.293.436.436 0 01-.256.127s-.166 0-.331-.165a1.082 1.082 0 00-.638-.394l.012-.051zm37.641 15.473c.944-1.717 1.544-2.81 1.812-3.268.394-.68.752-1.38 1.072-2.098.326-.656.71-1.281 1.148-1.869l1.072-1.525c.625-.814.97-1.272 1.008-1.272.038 0 .447-.254.931-.114a1.07 1.07 0 01.83.991 2.07 2.07 0 01-.728 1.437 24.227 24.227 0 00-1.582 3.052c-.434.928-.702 1.487-.804 1.64-.102.152-1.276 2.186-3.355 5.517-2.08 3.331-3.203 5.328-3.65 6.205a4.718 4.718 0 01-1.173 1.691 1.052 1.052 0 01-1.276-.331c-.358-.394-.46-.699-.307-.89.153-.19.651-1.093 1.506-2.733.855-1.64 1.442-2.797 1.76-3.382.32-.585.639-1.144.945-1.729a9.818 9.818 0 01-.931-.547l-.46-.305a18.543 18.543 0 01-2.08-1.564l-.765-.75a14.064 14.064 0 01-3.828 2.263l-1.518.559c-.243.089-.996.255-2.067.496a15.03 15.03 0 01-1.71.318 4.32 4.32 0 01-1.136 0 16.794 16.794 0 01-1.812-.28c-.612-.089-.957-.127-1.046-.127a5.073 5.073 0 01-.817-.483l-.88-.559a10.004 10.004 0 01-3.215-2.912 12.228 12.228 0 01-.638-1.983 10.98 10.98 0 01-.434-2.352c-.08-2.072.258-4.138.995-6.077.345-.85.772-1.663 1.276-2.429l.166-.267a15.352 15.352 0 011.863-2.377 9.075 9.075 0 016.38-2.543 12.614 12.614 0 013.368.369c1.396.299 2.736.818 3.968 1.538a8.747 8.747 0 012.437 2.67 16.784 16.784 0 011.901 4.157 9.827 9.827 0 01.575 3.815 7.684 7.684 0 01-1.021 2.669 28.46 28.46 0 01-.625 1.043 9.293 9.293 0 01-1.149 1.475c.294.267.587.547.868.839.536.519 1.126.98 1.76 1.373.401.319.861.556 1.353.699l.013-.05zm-19.14-1.602c.404.393.83.763 1.277 1.106.027.04.062.074.102.101a3.827 3.827 0 001.671.445 10.96 10.96 0 002.693-.19 16.36 16.36 0 005.333-2.022 18.772 18.772 0 003.075-3.038c.115-.153.23-.293.332-.445a9.286 9.286 0 001.276-4.387c-.077-.47-.28-1.386-.587-2.771a11.132 11.132 0 00-3.05-4.107 1.077 1.077 0 00-.242-.191 5.89 5.89 0 00-1.965-.763 19.5 19.5 0 00-2.833-.445 8.966 8.966 0 00-4.746.611 8.789 8.789 0 00-3.496 3.356 13.136 13.136 0 00-1.48 4.844c.127 1.144.293 2.467.51 3.929.11.524.251 1.042.42 1.551.203.446.446.871.728 1.271.294.483.625.865.893 1.195l.09-.05zm45.935-1.361a10.8 10.8 0 001.952.445c.144.03.274.106.37.216a12.199 12.199 0 00-1.62 3.052c-.294.953-.727 2.542-1.276 4.971a95.151 95.151 0 01-.498 2.136 36.6 36.6 0 00-1.429-.483 14.853 14.853 0 01-4.21-2.2 16.005 16.005 0 01-3.19-3.077c-1.276-1.754-1.748-2.937-1.57-3.572v-.089a7.83 7.83 0 011.94-1.958c1.556-.712 3.828-.7 6.813.076.651.153 1.557.381 2.629.534l.09-.051zm-3.458 19.351s-.612-.178-1.837-.598c-1.8-.623-3.228-1.093-4.262-1.386l-4.019-1.182-1.097.127h-.115c-.842-.241-1.276 0-1.442.75 0 .394 0 .636.179.738a.913.913 0 01.382.33.24.24 0 00.128.064c.388.07.786.07 1.174 0 .457-.066.917-.109 1.378-.127.317.034.629.102.931.203l4.479 1.882a25.035 25.035 0 003.943 1.36c.407.151.841.22 1.276.204a1.28 1.28 0 00.612-.458 4.14 4.14 0 00.574-.966 30.3 30.3 0 001.417-4.565c.484-1.869.957-4.081 1.441-6.624a33.22 33.22 0 011.812-6.662c.409-.928.664-1.462.753-1.602a.383.383 0 01.408-.178.3.3 0 00.256 0 .624.624 0 00.191-.267.367.367 0 000-.292s-.102-.127-.294-.229a.994.994 0 01-.561-.445.855.855 0 00-.268-.331.128.128 0 00-.127 0v.102c0 .102 0 0-.205 0l-.727-.14-1.187-.33-1.875-.534a45.676 45.676 0 00-5.104-1.272 9.33 9.33 0 00-6.584 1.399 6.259 6.259 0 00-1.684 1.983 2.647 2.647 0 00-.243.547 3.712 3.712 0 00-.127.865 6.571 6.571 0 001.046 3.598c.407.785.895 1.526 1.455 2.212a12.634 12.634 0 002.551 1.869c.69.407 1.595.89 2.731 1.424.791.368 1.8.775 3.037 1.271l1.493.496c0 .203-.128.623-.281 1.271a30.137 30.137 0 01-.663 2.454l-.945 3.039zM235.248 83.493a14.35 14.35 0 00-.357-1.691.168.168 0 00.014-.07.168.168 0 00-.014-.07 3.554 3.554 0 00-1.021-1.386 11 11 0 00-2.22-1.526 16.818 16.818 0 00-5.435-1.754 19.57 19.57 0 00-4.313.47 4.113 4.113 0 00-.536.14 9.433 9.433 0 00-3.828 2.606c-.217.42-.651 1.272-1.276 2.543a11.193 11.193 0 00-.191 5.086c.01.109.036.216.076.318.236.66.591 1.271 1.047 1.805.594.75 1.242 1.454 1.939 2.11a7.662 7.662 0 004.127 2.496 7.682 7.682 0 004.805-.461 13.533 13.533 0 004.236-2.747c.625-.979 1.276-2.11 2.067-3.394.244-.475.461-.963.651-1.462.131-.488.221-.985.268-1.488 0-.56 0-1.068-.077-1.525h.038zm.996-2.925c.14.282.255.576.344.877.089.268.192.598.332.992.53 1.36.761 2.816.676 4.272a9.231 9.231 0 01-.74 1.933 11.38 11.38 0 01-1.136 2.11 13.903 13.903 0 01-4.593 4.132c-.815.439-1.669.8-2.552 1.08l-.293.103c-.954.323-1.937.553-2.935.686a9.363 9.363 0 01-6.584-1.97 13.02 13.02 0 01-2.412-2.39 13.183 13.183 0 01-2.118-3.675 8.136 8.136 0 01-.229-3.61 16.55 16.55 0 011.123-4.425 9.228 9.228 0 011.965-3.344 8.462 8.462 0 012.462-1.462c.408-.161.791-.301 1.148-.42a7.927 7.927 0 011.991-.445 13.891 13.891 0 015.716.522l1.544.52c.294.115.932.42 1.927.89.74.37 1.276.636 1.531.814.322.21.617.458.88.738l1.276 1.348c.256.224.494.466.715.724h-.038zm-25.341-23.355c-.217.19-.536.47-.97.826a22.426 22.426 0 01-2.449 1.818 24.426 24.426 0 01-3.114 1.564l-2.016.877a3.12 3.12 0 01-.816.318.117.117 0 01-.077 0 2.475 2.475 0 01-.204-.572 1.819 1.819 0 01-.089-.725 16.133 16.133 0 012.118-1.36 42.556 42.556 0 006.507-4.742c.893-.776 2.412-1.984 4.594-3.586l3.355-2.479.179-.114a.959.959 0 01.804-.178 2.63 2.63 0 011.174.864 11.251 11.251 0 012.118 3.535 62.018 62.018 0 003.088 5.886c.165.273.358.528.574.763.35.298.721.57 1.11.814.338.202.64.46.893.763a.25.25 0 010 .127c.038.163.059.329.064.496a.964.964 0 01-.345.686 1.024 1.024 0 01-1.582-.394l-.089-.076-.906-.623c-.37-.585-1.123-1.767-2.233-3.547-1.11-1.78-2.259-3.611-3.254-5.378-.625-1.094-.944-1.64-.982-1.653-.039-.013-.358.165-.664.47-.306.305-1.097.992-2.552 2.289l-.816.674a3.842 3.842 0 01-.791.584 2.42 2.42 0 00-.664.522l-.408.33c-.545.374-1.064.781-1.557 1.22zm-6.622-22.491a14.825 14.825 0 00-1.097-1.272l-.077-.127a3.611 3.611 0 00-1.557-.75 11.198 11.198 0 00-2.679-.33 16.64 16.64 0 00-5.627.966 19.108 19.108 0 00-3.598 2.415c-.153.115-.281.242-.421.37a9.569 9.569 0 00-2.131 4.055v2.835a11.143 11.143 0 002.22 4.603.964.964 0 00.204.241c.52.474 1.121.853 1.774 1.119.879.386 1.782.713 2.705.979a8.963 8.963 0 004.785.305 8.928 8.928 0 004.095-2.695c1.133-1.285 2-2.78 2.552-4.4a86.62 86.62 0 00.255-3.953 10.604 10.604 0 00-.114-1.602 6.59 6.59 0 00-.46-1.437c-.331-.445-.587-.928-.829-1.322zm-.447-3.064c.249.19.483.399.702.623l.766.724a10.17 10.17 0 012.552 3.459 8.46 8.46 0 01.255 2.06c.08.798.08 1.603 0 2.402a13.762 13.762 0 01-2.131 5.772 14.564 14.564 0 01-1.761 2.136l-.217.23a15.85 15.85 0 01-2.271 1.983 9.535 9.535 0 01-6.763 1.27 12.775 12.775 0 01-3.24-1.016 13.647 13.647 0 01-3.586-2.25 8.146 8.146 0 01-1.85-3.09 17.261 17.261 0 01-1.072-4.437 9.69 9.69 0 01.179-3.814 8.57 8.57 0 011.505-2.429c.281-.343.562-.648.817-.915a8.427 8.427 0 011.557-1.272 13.784 13.784 0 015.32-2.174c.766-.14 1.276-.216 1.608-.267.332-.05 1.021-.063 2.118-.101h1.736c.378.033.751.114 1.11.241l1.722.623c.32.059.636.14.944.242zm-32.23-21.372c.178-.127.485-.077.944.165.459.242.689.445.702.623.012.178-.779 1.742-2.284 4.679l-2.157 4.183.638.52a39.744 39.744 0 005.844 2.938l2.322.915c.345.178.709.315 1.085.407a16.015 16.015 0 002.412-2.924 26.311 26.311 0 002.462-3.65.872.872 0 01.727-.559.91.91 0 01.715.217c.319.267.37.699.153 1.334a17.55 17.55 0 01-1.569 3.115 24.652 24.652 0 01-1.366 2.2c-.264.36-.478.753-.638 1.17a5.773 5.773 0 00-.306.737c.112.107.236.201.37.28a.57.57 0 01.306.623c-.023.15-.07.296-.14.432l-.089.19a1.969 1.969 0 01-.842.395h-.498c-.166.28-.51.864-1.021 1.754-.408.649-.816 1.36-1.276 2.11-.293.522-.65 1.272-1.059 2.124-.804 1.83-1.339 2.988-1.582 3.458a1.983 1.983 0 01-.612.903c-.34.14-.72.14-1.059 0a1.435 1.435 0 01-.434-.14.875.875 0 01-.421-.407 1.923 1.923 0 010-1.373 22.39 22.39 0 011.097-2.886c1.608-3.445 2.552-5.48 2.756-6.128a1.12 1.12 0 00.153-.305 1.07 1.07 0 01.09-.318c-.677-.369-1.71-.903-3.114-1.615-1.659-.847-2.73-1.407-3.215-1.678a8.654 8.654 0 01-1.34-.928 3.015 3.015 0 00-.995-.89l-.689-.483c-.243.458-.676 1.348-1.276 2.657-1.183 2.153-2.089 3.886-2.718 5.2-.23.483-.561 1.271-1.021 2.225a1.176 1.176 0 00-.331 0 2.466 2.466 0 01-1.557-.725c-.061-.43-.004-.87.166-1.271a8.94 8.94 0 01.65-1.793c.23-.438.402-.903.511-1.386.19-.562.429-1.106.714-1.627l.536-1.03c.791-1.45 1.366-2.428 1.697-2.924 1.149-1.771 2.888-4.649 5.219-8.633a8.787 8.787 0 011.34-1.881zm-29.475 3.318s-.23-.33-.663-1.004c0-.064-.128 0-.243.101-.115.102-.293.382-.612.84a16.74 16.74 0 01-1.672 2.008 97.64 97.64 0 01-1.786 1.844 36.122 36.122 0 01-3.93 3.267 31.287 31.287 0 01-2.169 1.386c-.471.272-.927.569-1.365.89a6.81 6.81 0 01-1.008.636 1.285 1.285 0 01-.549.076c-.345-.064-.536-.356-.587-.877v-.496c.053-.276.197-.526.408-.712a19.85 19.85 0 012.552-1.996 43.436 43.436 0 002.054-1.551c.549-.445 1.417-1.183 2.948-2.543 2.016-1.818 3.062-2.759 3.139-2.848.313-.282.607-.583.88-.903.217-.318.383-.47.472-.445a21.99 21.99 0 00-1.276-2.148 30.146 30.146 0 00-1.863-2.645 17.351 17.351 0 01-1.276-2.11c-.74-1.246-1.224-2.094-1.454-2.543-.204-.458-.332-.75-.408-.89a1.038 1.038 0 010-.483c.076-.28.204-.407.395-.394a3.1 3.1 0 011.148.737 12.166 12.166 0 011.544 1.73c.702.902 1.136 1.448 1.276 1.64.477.669 2.042 3.178 4.696 7.526 0 0 .102-.343.319-.966.3-1.02.539-2.055.714-3.103.167-.884.397-1.755.689-2.606.166-.381.319-.8.473-1.271a3.71 3.71 0 01.727-1.068c.224-.293.496-.547.804-.75a.766.766 0 01.293 0 .652.652 0 01.498.406c.025.352-.013.705-.115 1.043-.332 1.411-.587 2.466-.791 3.191-.396 1.411-.613 2.174-.651 2.25a6.142 6.142 0 00-.51 1.653s-.077.547-.217 1.59l2.386-1.984a31.158 31.158 0 013.419-2.644c.638-.382 1.085-.674 1.276-.865.192-.19.766-.508 1.748-1.106a12.76 12.76 0 012.055-1.093 3.238 3.238 0 011.276-.293c.178 0 .255.23.229.509 0 .163-.04.325-.115.47l-.701.687a27.503 27.503 0 01-2.195 1.881 23.08 23.08 0 01-1.99 1.539 27.558 27.558 0 00-2.667 1.818c-.696.473-1.357.996-1.978 1.564 0 0 .153.203.281.585.146.39.312.771.497 1.144 0 .101.702 1.36 1.965 3.75.957 1.831 1.57 2.963 1.876 3.42.306.458.829 1.272 1.391 2.162.623.862 1.17 1.776 1.633 2.733.148.24.199.526.14.801a3.75 3.75 0 01-.178.47c-.23.471-.523.675-.855.624a1.478 1.478 0 01-.498-.267 8.675 8.675 0 01-.714-.941 12.02 12.02 0 00-.983-1.271 34.284 34.284 0 01-1.544-2.047 36.263 36.263 0 01-2.552-4.412c-.191-.394-.535-1.183-1.033-2.352a15.878 15.878 0 01-.88-2.467c-.141-.534-.23-.877-.281-1.004-.051-.127-.128-.204-.179-.165l-.982.712-.472.228a63.629 63.629 0 00-.996 4.565c0 .229-.14 1.03-.28 2.403a88.65 88.65 0 01-.332 2.542c-.036.428-.1.853-.192 1.272a.93.93 0 01-.382.33 1.538 1.538 0 01-1.085.09.833.833 0 01-.497-.407 2.115 2.115 0 01-.128-.878c.154-2.37.47-4.728.944-7.056l.421-2.34c.128-.355.192-.788.268-1.169zM109.733 2.276a15.378 15.378 0 00-1.723 0 .28.28 0 00-.14 0A3.53 3.53 0 00106.3 3a11.557 11.557 0 00-1.926 1.843 16.505 16.505 0 00-2.795 4.971 19.379 19.379 0 00-.395 4.298 4.017 4.017 0 000 .559 9.286 9.286 0 001.799 4.195l2.233 1.768c1.55.77 3.257 1.175 4.989 1.182.106.014.213.014.319 0a5.853 5.853 0 001.99-.674 18.43 18.43 0 002.463-1.462 9.06 9.06 0 003.253-3.509 8.78 8.78 0 00.511-4.818 12.887 12.887 0 00-1.863-4.68 86.452 86.452 0 00-2.909-2.695 14.14 14.14 0 00-1.276-.915 6.91 6.91 0 00-1.416-.521c-.562-.14-1.06-.216-1.544-.267zM107.091.674a8.19 8.19 0 01.932-.153l1.046-.127a10.246 10.246 0 014.326.19c.628.299 1.22.67 1.76 1.107.668.445 1.287.956 1.851 1.526a13.976 13.976 0 013.151 5.301c.27.883.454 1.79.549 2.708v.306c.131.998.161 2.008.089 3.013a9.33 9.33 0 01-3.241 6.039 13.271 13.271 0 01-2.718 1.869 13.332 13.332 0 01-4.032 1.348 8.101 8.101 0 01-3.623-.496 16.346 16.346 0 01-4.134-1.971 9.55 9.55 0 01-2.897-2.543 8.172 8.172 0 01-.944-2.695c-.09-.432-.153-.84-.191-1.271a8.576 8.576 0 010-2.035c.176-1.92.74-3.783 1.658-5.48l.817-1.398c.179-.267.6-.826 1.276-1.704.51-.66.868-1.093 1.097-1.347.273-.264.572-.498.893-.7l1.455-.89c.282-.215.576-.414.88-.597zM84.035 4.107a1.53 1.53 0 01.536-.433 1.203 1.203 0 011.544.776 36.733 36.733 0 011.53 3.56 201.015 201.015 0 012.412 6.357 81.147 81.147 0 003.93 8.76c.472.915.791 1.55.945 1.92a.595.595 0 010 .216c.095.262.095.55 0 .813a.826.826 0 01-.613.547 8.732 8.732 0 00-.804.242.512.512 0 01-.65-.191 27.622 27.622 0 01-2.897-5.34 66.845 66.845 0 01-2.756-7.349 56.345 56.345 0 00-1.276-3.521c-.485-1.196-.727-1.806-.766-1.844a.836.836 0 000 .242c0 .127 0 .114 0 0 0 .406-.089 1.08-.216 2.034a45.697 45.697 0 00-.192 4.615 46.125 46.125 0 00.204 5.086c0 .457.115 1.335.179 2.631.166 2.085.345 3.687.549 4.806.194.971.339 1.951.433 2.937 0 .45-.127.73-.382.84a.576.576 0 01-.575-.115 6.675 6.675 0 01-.829-.992 24.796 24.796 0 00-2.769-3.267 56.175 56.175 0 01-5.588-5.823 85.343 85.343 0 00-6.776-6.548 7.476 7.476 0 00-.536-.394c0 .089.128.242.268.496a57.237 57.237 0 012.693 6.026 51.012 51.012 0 003.508 8.213 19.43 19.43 0 011.276 2.543c.281.7.434 1.119.472 1.272a.52.52 0 010 .47.93.93 0 01-.56.407 1.63 1.63 0 01-.69.152.73.73 0 01-.65-.228 15.784 15.784 0 01-1.2-2.238 30.28 30.28 0 00-1.442-3.064c-.268-.547-.574-1.272-.944-2.212-.37-.941-1.276-3.484-2.82-7.629a183.382 183.382 0 01-1.276-3.598c-.28-.826-.51-1.45-.638-1.958a2.787 2.787 0 01-.09-1.093.648.648 0 01.384-.369 1.28 1.28 0 01.918.127 9.97 9.97 0 011.595.992c1.072.75 2.195 1.59 3.356 2.543a39.11 39.11 0 014.823 4.818 40.122 40.122 0 014.415 4.895c.427.361.824.757 1.187 1.183.263.288.416.428.459.42 0 0 0-.306-.077-.865-.076-.56-.153-.89-.204-1.272a125.1 125.1 0 01-.574-4.87v-2.542a32.689 32.689 0 010-4.285c.085-1.093.213-2.606.383-4.538.127-1.399.242-2.403.357-3.001.073-.473.22-.932.434-1.36zM51.039 23.483c.25-.298.538-.563.855-.789l.484-.292a3.978 3.978 0 011.366-.534 2.688 2.688 0 012.437.75 5.435 5.435 0 011.53 2.988 9.592 9.592 0 01.078 3.407v.547a4.5 4.5 0 00.523-.318 4.39 4.39 0 012.717-.381 5.51 5.51 0 012.77 1.144 9.776 9.776 0 011.696 1.844c.144.15.276.312.396.483a6.85 6.85 0 01.944 1.678 7.008 7.008 0 01.23 3.522 7.615 7.615 0 01-1.378 3.293 7.2 7.2 0 01-1.136 1.017c-.347.236-.71.448-1.084.635a7.028 7.028 0 01-2.744.483 7.68 7.68 0 01-1.888-.406 5.433 5.433 0 01-1.519-.763 9.477 9.477 0 01-2.067-2.174c-.089-.115-.153-.216-.23-.305a5.622 5.622 0 01-1.173-2.734c0-.165.115-.432.191-.763.102.153.345.496.702 1.043a8.68 8.68 0 003.739 3.382c.886.37 1.849.523 2.807.445a3.83 3.83 0 001.658-.7 4.146 4.146 0 001.532-2.072 7.43 7.43 0 00.28-2.543 4.789 4.789 0 00-1.493-2.708 5.72 5.72 0 00-2.794-1.614 2.19 2.19 0 00-1.531.063 3.377 3.377 0 00-1.365 1.271 5.469 5.469 0 01-.83.89.833.833 0 01-.816.064.715.715 0 01-.51-.661 1.9 1.9 0 010-1.45 12.19 12.19 0 00.395-1.55 17.28 17.28 0 000-3.001 5.07 5.07 0 00-.498-2.085 3.49 3.49 0 00-.434-.598 1.534 1.534 0 00-.548-.165 1.855 1.855 0 00-.932 0c-.33.225-.626.494-.88.8a9.164 9.164 0 00-1.876 4.235c-.115.648-.077 1.03.09 1.131.165.102.102.242 0 .458a1.133 1.133 0 01-.358.407c-.306.216-.663.063-1.097-.458a8.627 8.627 0 01-.485-.56c0-.203.14-.66.268-1.385a8.73 8.73 0 011.978-4.971zm338.74 146.159c.087-.298.255-.566.485-.776a.585.585 0 01.383 0 22.996 22.996 0 012.973 3.815c1.812 2.542 3.1 4.284 3.828 5.162.727.877 1.186 1.271 1.161 1.436a34.046 34.046 0 002.769 3.052 19.019 19.019 0 011.671 1.805c.153.178.37.432.625.763.081-.073.153-.154.217-.242a39.61 39.61 0 015.104-3.814c.893-.636 2.233-1.564 4.019-2.797l.166.178v.089c.268.381.179.953-.268 1.729-.331.343-.548.483-.65.407a16.35 16.35 0 00-3.165 2.416c-.638.559-1.595 1.347-2.871 2.377-1.046.814-1.761 1.36-2.143 1.627l-.23.166a5.305 5.305 0 01-1.072.546c-.319.115-.523.102-.625 0a1.174 1.174 0 01-.166-1.195c.166-.178.191-.33.077-.445-.115-.114-.587-.508-1.404-1.182-1.391-1.157-2.246-1.894-2.552-2.212-.306-.318-.957-1.272-2.029-2.721-.816-1.195-1.824-2.746-3.049-4.653-1.225-1.907-1.952-3.115-2.208-3.649a4.601 4.601 0 00-.637-.827.989.989 0 01-.511-.966l.102-.089zm-5.065 15.206c-.604.147-1.193.347-1.761.597a5.68 5.68 0 00-.983.56c-.306.213-.631.4-.969.559-.243.153-.536.356-.906.623l-.97.75a.312.312 0 00-.106.142.31.31 0 00-.009.176c0 .166.217.598.511 1.272.317.746.577 1.515.778 2.301.102.508.255 1.106.459 1.78.204.674.319 1.042.421 1.449.095.303.205.6.332.89.128.28.23.394.319.356a9.499 9.499 0 011.276-.763 9.48 9.48 0 001.633-1.157c.157-.123.323-.233.498-.33l.485-.369c.347-.198.684-.414 1.008-.648.59-.384 1.153-.809 1.684-1.272 1.62-2.009 2.297-3.814 2.003-5.39a3.051 3.051 0 00-1.965-1.704 6.394 6.394 0 00-3.636.089l-.102.089zm-6.878-6.624c-.755.222-1.497.489-2.22.801l-.842.508c.036.145.087.286.153.42v.102l.217.47c.523.916 1.148 2.149 1.888 3.713.166.381.447.953.817 1.729.102 0 .332-.216.689-.42l1.276-.864.664-.56c.331-.229.714-.457 1.148-.712a8.037 8.037 0 003.751-4.246 2.38 2.38 0 000-1.488.534.534 0 00-.115-.178 1.68 1.68 0 00-1.403-.559 19.467 19.467 0 00-5.921 1.195l-.102.089zm-3.687-.598c.306-.165.714-.356 1.276-.584l1.276-.573a37.13 37.13 0 012.768-1.029c2.808-.848 4.862-1.005 6.163-.471.508.157.954.468 1.276.89.317.547.55 1.139.689 1.755a5.46 5.46 0 01-1.033 3.992 8.332 8.332 0 01-.6.877c-.089.089-.127.165-.089.229.038.064.115 0 .217 0 .445-.084.9-.11 1.352-.076.568.003 1.134.041 1.697.114.955.174 1.84.615 2.552 1.272.37.365.669.796.881 1.271.222.458.356.954.395 1.462a9.737 9.737 0 01-.727 3.395 10.174 10.174 0 01-1.71 2.987 22.866 22.866 0 01-2.986 2.149c-.523.369-1.084.725-1.697 1.081-.612.356-1.276.864-2.156 1.347-.881.484-1.187.687-1.506.84l-.217.101-.599.191a.842.842 0 01-.613 0 1.272 1.272 0 01-.523-.636c-.153-.318-.357-.852-.651-1.589a19.872 19.872 0 01-.676-1.983c-.064-.382-.561-1.857-1.506-4.425l-.497-1.449-.46-1.17c-.165-.483-.51-1.271-1.008-2.301a21.575 21.575 0 00-3.087-5.353l-.345-.178c0-.093.026-.233.077-.419a11.806 11.806 0 012.169-1.806l-.102.089zm-9.136 1.272c.198-.127.412-.226.638-.293.472-.127.765 0 .868.382.094.291.133.597.114.902 0 .255-.459.674-1.352 1.272l-.97.814a.903.903 0 00-.472.559c.111.489.283.963.51 1.411.345.839.804 2.034 1.353 3.573.97 2.873 1.748 5.085 2.36 6.802.422.991.715 1.716.868 2.187.153.47.345 1.144.613 2.11a9.45 9.45 0 00.433 1.793s.179 0 .358-.127c.227-.17.444-.353.65-.547a.91.91 0 01.728-.267.61.61 0 01.485.191.947.947 0 01.306.419c.023.254-.008.509-.09.75a1.453 1.453 0 01-.51.75c-.481.289-.98.548-1.493.776-.45.18-.878.41-1.276.687-.435.287-.92.494-1.429.61l-.395.152c-.326.12-.676.164-1.021.128a.886.886 0 01-.333-.346.886.886 0 01-.101-.468 1.274 1.274 0 01.434-.916 2.45 2.45 0 01.74-.457c.21-.101.428-.186.651-.255.14 0 .204-.114.191-.241a10.625 10.625 0 00-1.212-3.204c-.153-.343-.37-.915-.689-1.691-.319-.776-.932-2.848-1.901-6.179-1.225-3.958-1.957-6.238-2.195-6.84 0 0-.306 0-.765.242a3.027 3.027 0 01-.817.343 1.66 1.66 0 01-.421-.216.908.908 0 01-.46-.598 1.373 1.373 0 010-.788 8.07 8.07 0 011.71-1.564 13.47 13.47 0 011.978-.979c1.008-.509 1.646-.763 2.016-.954l-.102.077zm-19.854 3.267a10.235 10.235 0 012.361-.432h1.046a9.192 9.192 0 013.113.407 5.681 5.681 0 011.774 1.081 6.36 6.36 0 011.493 1.741c.282.374.47.81.548 1.272a3.24 3.24 0 01-.063 1.271c-.06.365-.245.697-.524.941a.792.792 0 01-.689.229c-.459.063-.701.063-.701 0 0-.064-.103-.471-.281-1.335a5.406 5.406 0 00-.549-1.64 4.692 4.692 0 00-1.033-1.183 3.324 3.324 0 00-1.276-.699 10.384 10.384 0 00-2.284.064c-.863.036-1.719.168-2.552.394a6.758 6.758 0 00-2.386 1.271 3.222 3.222 0 00-1.085 1.475 2.349 2.349 0 00-.217 1.551 3.91 3.91 0 001.276 1.933 7.39 7.39 0 002.769 1.271c1.439.415 2.906.725 4.389.928a7.86 7.86 0 013.586.928 6.566 6.566 0 013.088 2.797 7.516 7.516 0 011.174 3.306v.559a5.632 5.632 0 01-.332 1.704c-.081.506-.263.99-.536 1.424a8.27 8.27 0 01-3.407 1.869 20.952 20.952 0 01-4.874.928c-1.886.228-3.8.014-5.589-.623a4.274 4.274 0 01-2.641-2.924 5.06 5.06 0 01-.089-1.628c.02-.532.071-1.062.153-1.589 0-.135.064-.212.191-.229a.407.407 0 00.357-.343c.6-.267 1.021-.343 1.276-.191.256.153.154.28.077.522a4.861 4.861 0 00-.447 1.945c.172.625.491 1.201.932 1.678a4.123 4.123 0 001.71 1.272 8.977 8.977 0 004.325.521 16.86 16.86 0 004.632-1.272 4.18 4.18 0 002.029-1.563 3.5 3.5 0 00.306-1.907 4.227 4.227 0 00-.625-1.831 5.488 5.488 0 00-1.506-1.679 2.788 2.788 0 00-1.416-.623c-.447-.089-1.417-.241-2.884-.483a26.09 26.09 0 01-5.831-1.449 8.242 8.242 0 01-2.922-2.009 6.732 6.732 0 01-1.569-2.683 3.687 3.687 0 01-.128-1.462 5.33 5.33 0 011.391-2.873 8.938 8.938 0 014.542-2.708l-.102.076zm-20.249-.788a10.815 10.815 0 012.386 0l1.046.153a9.368 9.368 0 012.986.979 5.763 5.763 0 011.518 1.411c.497.588.886 1.26 1.148 1.983a2.8 2.8 0 010 2.543c-.12.353-.365.651-.689.839a.808.808 0 01-.353.13.807.807 0 01-.374-.041c-.459 0-.689-.076-.676-.152.013-.077 0-.471 0-1.361a5.663 5.663 0 00-.23-1.716 4.81 4.81 0 00-.791-1.361 3.66 3.66 0 00-1.161-.94 11.7 11.7 0 00-2.246-.369 11.06 11.06 0 00-2.552-.076 6.636 6.636 0 00-2.551.826 3.155 3.155 0 00-1.34 1.271 2.283 2.283 0 00-.523 1.488c.09.791.419 1.536.944 2.136a7.318 7.318 0 002.462 1.831 30.787 30.787 0 004.135 1.741 7.669 7.669 0 013.33 1.59 6.576 6.576 0 012.552 3.343 7.466 7.466 0 01.523 3.459l-.077.559a5.594 5.594 0 01-.651 1.615 4.028 4.028 0 01-1.02 1.271 8.18 8.18 0 01-3.701 1.182 20.808 20.808 0 01-4.963 0 12.088 12.088 0 01-5.372-1.678 4.22 4.22 0 01-2.029-3.356 5.1 5.1 0 01.217-1.628c.243-.902.409-1.411.46-1.525.051-.115.115-.204.229-.178a.44.44 0 00.421-.28c.638-.153 1.06-.14 1.276 0 .217.14.09.305 0 .521a5.197 5.197 0 00-.816 1.844c.054.644.26 1.267.6 1.818.345.624.84 1.153 1.441 1.538a8.961 8.961 0 004.147 1.272c1.61.107 3.227-.025 4.798-.394a4.07 4.07 0 002.284-1.132 3.694 3.694 0 00.676-1.818 4.296 4.296 0 00-.281-1.933 5.08 5.08 0 00-1.148-1.919 2.986 2.986 0 00-1.276-.89l-2.743-1.018a26.115 26.115 0 01-5.449-2.542 8.247 8.247 0 01-2.488-2.543 6.83 6.83 0 01-1.021-2.937 2.597 2.597 0 010-.623c.032-.283.101-.561.205-.826a5.39 5.39 0 011.914-2.543 9.215 9.215 0 014.925-1.64l-.102.076zm-18.553-1.933a15.906 15.906 0 00-1.556-.737.304.304 0 00-.115-.076 3.666 3.666 0 00-1.736 0c-.881.171-1.737.449-2.551.826a16.455 16.455 0 00-4.683 3.242 18.9 18.9 0 00-2.246 3.7 3.893 3.893 0 00-.217.521 9.425 9.425 0 00-.217 4.565c.204.432.613 1.271 1.276 2.542a11.353 11.353 0 003.956 3.23c.091.059.19.106.293.14a5.838 5.838 0 002.08.267 20.424 20.424 0 002.858-.255 9.12 9.12 0 004.466-1.742 8.9 8.9 0 002.552-4.106c.445-1.635.57-3.34.37-5.022a90.232 90.232 0 00-1.442-3.687c-.332-.649-.587-1.119-.778-1.411a8.906 8.906 0 00-1.034-1.119l-1.276-.878zm-1.697-2.542c.308.067.611.157.906.267l.995.343a10.117 10.117 0 013.828 2.047 8.537 8.537 0 011.11 1.767c.401.691.735 1.419.996 2.174a14.05 14.05 0 01.51 6.141 15.176 15.176 0 01-.689 2.67c0 .089-.064.191-.102.292a14.594 14.594 0 01-1.276 2.759 9.325 9.325 0 01-5.563 4.018 14.52 14.52 0 01-7.579-.089 7.985 7.985 0 01-3.012-1.996 16.838 16.838 0 01-2.858-3.573 9.646 9.646 0 01-1.48-3.585 8.336 8.336 0 01.332-2.835c.115-.433.23-.827.357-1.17a8.196 8.196 0 01.855-1.856 14.004 14.004 0 013.892-4.209l1.276-.915c.268-.152.906-.483 1.888-.979.74-.369 1.276-.597 1.569-.725a5.135 5.135 0 011.123-.241l1.825-.165c.753-.229 1.097-.318 1.199-.318l-.102.178zm-22.597-9.154a11.384 11.384 0 01-1.608-1.17.811.811 0 00-.408-.153 12.15 12.15 0 01-1.276 3.166c-.523.852-1.493 2.251-2.896 4.234-.294.394-.728.979-1.276 1.78.217.114.65.369 1.276.763 1.375.801 2.87 1.38 4.427 1.716 1.455.332 2.95.46 4.441.382 2.118-.229 3.368-.611 3.725-1.157v-.089c.231-.892.3-1.818.205-2.734-.473-1.653-1.991-3.344-4.53-5.086-.357-.508-1.085-1.055-1.978-1.779l-.102.127zm-2.246-3.738a.834.834 0 01.421 0c.01.02.014.041.014.063a.142.142 0 01-.014.064.073.073 0 01.011.038.073.073 0 01-.011.038s0 .064.154.153l.574.457 1.021.662 1.646 1.068a51.165 51.165 0 014.274 3.038 8.968 8.968 0 013.254 5.874 5.581 5.581 0 01-.383 2.543 2.435 2.435 0 01-.268.547 4.425 4.425 0 01-.562.661 7.44 7.44 0 01-3.419 1.576c-.843.148-1.696.224-2.552.229a12.702 12.702 0 01-3.075-.674 28.44 28.44 0 01-2.858-1.119 21.32 21.32 0 01-2.922-1.474c-.306-.178-.753-.433-1.353-.801-.14.165-.382.508-.752 1.017a35.433 35.433 0 00-1.429 2.11 27.794 27.794 0 01-2.629 3.7c-.166.165-.293.229-.37.178a.587.587 0 00-.396-.089 2.316 2.316 0 00-.408 0 .434.434 0 01-.293 0 .757.757 0 01-.192-.203 1.271 1.271 0 01-.102-.814c.073-.366.193-.721.357-1.055a30.037 30.037 0 012.552-4.056 79.389 79.389 0 014.071-5.442 37.041 37.041 0 003.828-5.657c.433-.916.676-1.463.727-1.615a.387.387 0 00-.002-.238.383.383 0 00-.139-.194.315.315 0 01-.165-.191.63.63 0 01.076-.318.41.41 0 01.217-.191h.37c.221.123.479.163.727.115zm-2.985-5.086c.227.057.435.176.599.343.145.172.242.378.281.598a1.262 1.262 0 01-.434 1.119c-.357.432-1.276 1.348-2.756 2.733a300.453 300.453 0 01-4.963 4.552 82.055 82.055 0 00-6.725 6.878 41.527 41.527 0 01-1.441 1.577.969.969 0 01-.179.127 1.278 1.278 0 01-.778.292.86.86 0 01-.728-.368 5.85 5.85 0 00-.523-.662.48.48 0 010-.661 27.489 27.489 0 013.905-4.666 68.255 68.255 0 015.78-5.276 93.165 93.165 0 002.832-2.454c.957-.864 1.417-1.335 1.429-1.386l-.229.064c-.128 0-.115 0 0 0-.383.14-1.047.331-1.965.559-2.144.661-3.598 1.17-4.39 1.513a50.632 50.632 0 00-4.67 2.085c-.395.217-1.199.598-2.386 1.132-1.875.928-3.304 1.691-4.274 2.288a27.871 27.871 0 01-2.552 1.488c-.408.178-.727.165-.919 0a.533.533 0 01-.102-.559c.155-.406.361-.79.613-1.145a25.079 25.079 0 002.016-3.814 58.07 58.07 0 013.33-7.323 83.17 83.17 0 003.611-8.696c0-.128.089-.344.166-.636a5.244 5.244 0 00-.357.432 60.367 60.367 0 01-4.683 4.781 52.123 52.123 0 00-6.38 6.357 20.325 20.325 0 01-1.888 2.059c-.324.319-.665.62-1.021.903a.513.513 0 01-.447.14c-.166 0-.357-.127-.587-.369a1.65 1.65 0 01-.395-.572.76.76 0 010-.699 17.379 17.379 0 011.671-1.844 33.561 33.561 0 002.335-2.466c.409-.445.97-1.017 1.71-1.704a287.59 287.59 0 016.035-5.416 197.177 197.177 0 002.884-2.543 16.129 16.129 0 011.595-1.271c.284-.237.621-.402.982-.483a.592.592 0 01.485.203c.184.263.262.585.217.903a9.109 9.109 0 01-.332 1.83 81.08 81.08 0 01-1.084 4.043 39.964 39.964 0 01-2.718 6.23 41.036 41.036 0 01-2.935 5.9c-.178.53-.4 1.044-.663 1.538-.179.356-.255.547-.23.585.026.038.306-.102.779-.394l1.11-.661c1.39-.776 2.832-1.552 4.338-2.327.868-.369 1.659-.687 2.36-.966a32.876 32.876 0 014.007-1.551l4.376-1.272c1.276-.407 2.323-.661 2.922-.775a4.801 4.801 0 011.417-.229l-.051-.064zm-16.435-17.965c.178.156.332.336.46.534.268.42.229.725-.102.941a2.557 2.557 0 01-.842.369c-.243 0-.779-.242-1.621-.928-.14-.077-.485-.305-1.059-.687a.971.971 0 00-.676-.279 5.917 5.917 0 00-1.212.889c-.702.585-1.723 1.361-3.037 2.327a302.295 302.295 0 00-5.857 4.234 70.73 70.73 0 01-1.837 1.449c-.396.267-1.008.661-1.863 1.195a9.868 9.868 0 00-1.595.941s.064.165.242.305c.179.14.434.293.702.458a.929.929 0 01.472.61.62.62 0 010 .522.74.74 0 01-.319.406 1.595 1.595 0 01-.74.14 1.515 1.515 0 01-.867-.267c-.243-.216-.638-.61-1.187-1.271a6.376 6.376 0 00-1.034-1.043 4.448 4.448 0 01-.995-1.182 2.556 2.556 0 01-.255-.331 2.203 2.203 0 01-.421-.928.9.9 0 01.651-.661 1.275 1.275 0 011.008.14c.251.158.475.356.663.585.217.267.37.445.434.547.064.101.166.165.281.114a10.618 10.618 0 002.717-2.085l1.43-1.157c.676-.496 2.462-1.704 5.384-3.585 3.403-2.314 5.38-3.675 5.933-4.082 0 0-.127-.279-.459-.661a2.807 2.807 0 01-.549-.674c-.004-.16.022-.319.077-.47a.883.883 0 01.434-.61c.227-.15.493-.23.765-.229a8.188 8.188 0 011.991 1.182 12.497 12.497 0 011.518 1.602c.6.89 1.072 1.424 1.365 1.704v-.064zM420.096 32.65c.215.531.462 1.049.74 1.55a.255.255 0 000 .14 3.82 3.82 0 001.276 1.106c.808.424 1.665.748 2.552.967 1.858.466 3.784.608 5.691.42a19.325 19.325 0 004.083-1.463 3.77 3.77 0 00.497-.267 9.352 9.352 0 003.05-3.407c.115-.47.344-1.386.651-2.772a11.173 11.173 0 00-1.034-4.996 1.27 1.27 0 00-.14-.293 5.956 5.956 0 00-1.455-1.513 21.389 21.389 0 00-2.373-1.602 9.134 9.134 0 00-4.517-1.449 8.95 8.95 0 00-4.593 1.576 13.268 13.268 0 00-3.458 3.675 71.305 71.305 0 00-1.2 3.814 10.539 10.539 0 00-.28 1.577c-.02.506.01 1.012.089 1.512.153.534.293 1.03.434 1.463l-.013-.038zm-.306 3.076a5.716 5.716 0 01-.536-.775l-.562-.878a9.88 9.88 0 01-1.658-3.992 8.098 8.098 0 01.204-2.11c.122-.79.322-1.565.6-2.314a13.974 13.974 0 013.483-5.086 13.796 13.796 0 012.233-1.653l.255-.165a15.865 15.865 0 012.692-1.373 9.436 9.436 0 016.865.382 13.012 13.012 0 013.011 1.818 13.096 13.096 0 012.935 3.05 8.138 8.138 0 011.072 3.446 16.16 16.16 0 010 4.565 9.497 9.497 0 01-1.123 3.712 8.105 8.105 0 01-2.042 1.996c-.357.255-.701.483-1.02.687a8.333 8.333 0 01-1.825.902c-1.82.661-3.757.942-5.691.827l-1.62-.14-2.169-.381c-.8-.178-1.361-.318-1.685-.42a4.75 4.75 0 01-1.02-.508c-.728-.484-1.276-.827-1.519-1.03a6.481 6.481 0 01-.88-.56zm6.073 12.066a3.176 3.176 0 01-.344-.61c-.179-.458-.077-.763.293-.903.285-.113.587-.178.893-.19.256 0 .715.393 1.417 1.27.115.102.408.407.893.89.143.21.363.356.612.407.482-.15.941-.363 1.366-.635.804-.42 1.952-.992 3.445-1.679a335.739 335.739 0 006.571-2.987 41.729 41.729 0 012.092-1.056c.447-.203 1.123-.457 2.055-.813a8.974 8.974 0 001.761-.598s0-.165-.179-.343c-.179-.178-.357-.382-.587-.585a.938.938 0 01-.344-.7.615.615 0 01.14-.495.916.916 0 01.395-.343c.249-.052.505-.052.753 0 .308.062.588.218.804.445.341.447.648.919.919 1.41.216.455.486.882.804 1.272.323.408.574.868.74 1.36.076.117.14.24.191.37.154.312.232.656.23 1.004a.892.892 0 01-.779.508 1.282 1.282 0 01-.957-.343 2.56 2.56 0 01-.523-.7 4.046 4.046 0 01-.319-.622.228.228 0 00-.255-.165c-1.102.34-2.144.85-3.088 1.512l-1.633.84c-.753.368-2.756 1.195-5.984 2.466-3.837 1.577-6.048 2.513-6.635 2.81 0 .063.076.318.319.75.176.23.314.489.408.763a1.27 1.27 0 01-.166.445.87.87 0 01-.548.508 1.28 1.28 0 01-.804.077 7.913 7.913 0 01-1.71-1.551 12.359 12.359 0 01-1.174-1.997c-.498-.839-.855-1.449-1.084-1.792h.012zm9.238 15.358c.112.995.295 1.981.549 2.95.262 1.205.594 2.393.995 3.56.146.39.32.768.523 1.131h.689a21.065 21.065 0 012.922-.915c1.621-.445 2.986-.852 4.096-1.272l3.037-.978a49.363 49.363 0 002.718-.941 16.08 16.08 0 011.556-.61c.265-.072.521-.17.766-.293a13.725 13.725 0 00-.587-1.475c-.408-.95-.702-1.598-.88-1.945a29.945 29.945 0 00-3.19-4.45 8.592 8.592 0 00-6.929-1.551c-.25.054-.497.122-.74.203a8.81 8.81 0 00-4.083 2.543 6.612 6.612 0 00-1.442 4.043zm-1.276 3.624a6.83 6.83 0 01-.242-.878 10.812 10.812 0 01-.332-2.212 7.929 7.929 0 01.255-2.543 9.635 9.635 0 015.257-6.293 11.04 11.04 0 012.271-.737 7.586 7.586 0 012.272-.267c1.068.057 2.128.218 3.164.483a10.37 10.37 0 013.828 2.225 12.83 12.83 0 011.391 1.576 33.513 33.513 0 012.552 4.92 31.417 31.417 0 011.939 5.455c.089.339.157.683.204 1.03.005.192-.034.384-.115.559a4 4 0 01-.765.572.307.307 0 01-.281-.076.445.445 0 01-.204-.28 4.12 4.12 0 00-.51-.992l-.638-1.03a.563.563 0 00-.128-.228s-.089 0-.191.089a1.462 1.462 0 01-.562.229 7.795 7.795 0 01-1.046.457 55.61 55.61 0 01-7.171 2.365c-1.276.242-2.309.483-3.139.725l-2.182.597c-.361.18-.742.316-1.135.407l.472.649c.081.131.179.251.293.356.115.292 0 .572-.37.839-.188.136-.4.235-.625.292a.706.706 0 01-.396 0c-.191 0-.548-.394-1.033-1.042a12.698 12.698 0 01-1.276-2.073 32.775 32.775 0 01-1.557-5.174zm.345 13.629a.804.804 0 01-.153-.521c0-.28 0-.42.166-.42h1.059c1.467 0 3.764-.229 6.877-.597a29.44 29.44 0 013.152-.242 28.937 28.937 0 005.371-.8 17.586 17.586 0 013.356-.382 12.671 12.671 0 012.82-.369h.077a.14.14 0 01.14.076.143.143 0 01.019.07.143.143 0 01-.019.07c0 .11-.23.276-.689.496l-.281.254c.383 0 .562.064.536.19 0 0 0 .09-.14.115a4.33 4.33 0 01-.868.547c-.78.32-1.6.533-2.437.636l-1.595.381.842.229a9.492 9.492 0 012.858 1.271 4.279 4.279 0 011.646 1.806l.294.686c.153.33.255.56.332.7a8.497 8.497 0 01.88 3.254 4.38 4.38 0 01-.191 1.374 3.701 3.701 0 01-.46.978c-.191.267-.536.7-1.059 1.272a8.411 8.411 0 01-2.552 2.034 18.851 18.851 0 01-3.828 1.195 27.794 27.794 0 01-3.598.28h-4.555c-4.504-.178-6.763-.547-6.775-1.08 0-.115.217-.255.65-.433a2.96 2.96 0 011.583-.165c2.038.147 4.083.177 6.124.089 3.241-.077 5.104-.153 5.525-.255a9.625 9.625 0 002.284-.75c.55-.244 1.082-.524 1.595-.839a18.114 18.114 0 001.799-1.271c.35-.285.671-.605.957-.954a6.955 6.955 0 00.243-2.237v-1.272a3.02 3.02 0 00-.332-.7 9.738 9.738 0 00-3.177-3.14 14.464 14.464 0 00-6.533-1.334h-1.94c-.025 0-.982.101-2.756.228-1.773.128-2.909.23-3.419.242a11.713 11.713 0 01-2.348-.19 2.956 2.956 0 01-1.493-.522h.013zm-1.531 30.208c0-.432.433-2.695 1.186-6.763.549-2.861.881-4.565 1.008-5.086.128-.521.268-.89.396-.915h.178a.853.853 0 01.319.165.6.6 0 01.192.674c-.077.407-.217 1.411-.421 3.013-.217 1.589-.345 2.746-.37 3.445 0 .255-.039.636-.115 1.145h.293c1.131.005 2.26.078 3.382.216l4.185.47c1.556.153 3.573.42 6.035.827 2.463.406 4.147.75 5.104 1.004.693.136 1.373.336 2.029.598a.878.878 0 01.344.94v.077c-.076.406-.268.61-.574.597l-.523.076a2.385 2.385 0 01-1.404.128c-.536 0-2.335-.382-5.371-.979a284.93 284.93 0 00-8.613-1.564 36.993 36.993 0 00-4.913-.712c-.11.523-.178 1.055-.204 1.589l-.229 2.543a17.163 17.163 0 00-.103 3.674.866.866 0 01-.178.738c-.14.165-.268.254-.357.254a.582.582 0 01-.256 0 1.372 1.372 0 01-.459-.191.957.957 0 01-.485-.623 7.938 7.938 0 01-.166-1.78c0-.623 0-1.792.09-3.56zm-7.171 16.897c.156-.785.405-1.548.74-2.276.127-.292.281-.61.459-.94a9.038 9.038 0 011.825-2.543 5.76 5.76 0 011.799-1.043 6.543 6.543 0 012.258-.496 3.234 3.234 0 011.276.102c.429.148.821.387 1.149.699.295.223.503.543.587.903a.782.782 0 01-.128.712c-.162.432-.276.636-.345.61l-1.275-.394a5.296 5.296 0 00-1.71-.292 4.605 4.605 0 00-1.531.343 3.45 3.45 0 00-1.276.826 11.665 11.665 0 00-1.021 2.035 11.359 11.359 0 00-.83 2.377 6.711 6.711 0 000 2.708 3.24 3.24 0 00.792 1.653c.306.448.756.78 1.276.941a3.997 3.997 0 002.335-.267 7.213 7.213 0 002.488-1.793 32.573 32.573 0 002.896-3.42 7.785 7.785 0 012.552-2.695 6.626 6.626 0 013.943-1.386 7.681 7.681 0 013.47.547l.511.229c.507.288.964.658 1.352 1.093.383.387.687.845.893 1.348a8.167 8.167 0 010 3.814 21.165 21.165 0 01-1.492 4.717 12.105 12.105 0 01-3.203 4.602 4.257 4.257 0 01-3.828.941 5.686 5.686 0 01-1.493-.699 13.92 13.92 0 01-1.276-.89.213.213 0 01-.112-.118.203.203 0 01.01-.162.433.433 0 00-.14-.47c0-.649.178-1.056.434-1.272.255-.216.319 0 .497.178.855.89 1.353 1.272 1.519 1.272a4.318 4.318 0 001.926 0 4.38 4.38 0 001.889-.916 8.9 8.9 0 002.552-3.547 16.493 16.493 0 001.046-4.679c.144-.869 0-1.761-.408-2.543a3.658 3.658 0 00-1.544-1.182 4.486 4.486 0 00-1.927-.318 5.586 5.586 0 00-2.182.521 2.794 2.794 0 00-1.276.954c-.293.343-.88 1.119-1.786 2.289a26.938 26.938 0 01-4.045 4.437 8.376 8.376 0 01-3.177 1.614 6.688 6.688 0 01-3.113.102 2.559 2.559 0 01-.6-.191 3.488 3.488 0 01-.727-.432 5.476 5.476 0 01-1.876-2.543 9.001 9.001 0 01-.153-5.034v-.026zm-21.5 32.027c0-.102.23-.369.676-.801.447-.433.804-.687 1.034-.865l1.11-1.157c.527-.636 1.999-2.242 4.415-4.819l2.092-2.161a21.287 21.287 0 011.812-1.78.522.522 0 01.523 0 .817.817 0 01.383.458c.255.407.127.801-.383 1.195l-1.569 2.021a15.076 15.076 0 01-1.927 2.467c-.791.763-1.697 1.653-2.718 2.67l-2.424 2.416.421.406c.434.255 1.046.687 1.837 1.272.791.585 1.57 1.157 2.654 1.881.689.522 1.149.776 1.378.738-.102.059-.076.034.077-.076a7.923 7.923 0 011.71-2.136 29.702 29.702 0 004.032-4.069c1.48-1.89 2.386-2.843 2.718-2.86.242.043.458.18.599.381.188.21.292.481.294.763.022.152.022.306 0 .458v.152c0 .013-.37.534-1.123 1.577a16.866 16.866 0 01-2.259 2.631c-.767.74-1.572 1.44-2.411 2.098-.513.381-.992.806-1.429 1.272-.192.203-.472.508-.817.902l1.429 1.373a88.587 88.587 0 012.807 2.886c.779.84 1.276 1.526 1.276 1.552.168.212.347.416.536.61.051-.168.111-.334.179-.496.161-.331.442-.839.842-1.526l.447-1.068a5.75 5.75 0 01.803-1.03c.47-.515.896-1.068 1.276-1.652a16.103 16.103 0 012.718-2.81 6.394 6.394 0 001.276-.788 3.687 3.687 0 011.672-.572c.272-.034.546.039.765.203a.461.461 0 01.141.216c.127.369 0 .725-.485 1.106-.582.431-1.124.912-1.621 1.437a25.033 25.033 0 00-1.926 1.983c-1.111 1.348-2.055 2.543-2.82 3.725-.638.84-1.276 1.602-1.863 2.327a9.174 9.174 0 00-1.136 1.577.855.855 0 01-.14.203c-.09.078-.189.147-.294.203a.713.713 0 01-.676-.114 1.476 1.476 0 01-.523-.661 13.61 13.61 0 00-1.684-2.034l-2.374-2.67a35.505 35.505 0 00-5.856-4.793 23.011 23.011 0 01-2.055-1.641c-.842-.699-1.543-1.271-2.092-1.614a6.399 6.399 0 01-1.034-.75c-.217-.064-.293-.153-.293-.216z" fill="#000"/><path fill-rule="evenodd" clip-rule="evenodd" d="M235.274 110.611a4.415 4.415 0 012.462.7 4.373 4.373 0 01.767 6.747 4.423 4.423 0 01-4.793 1.01 4.384 4.384 0 01-2.762-4.032 4.381 4.381 0 011.249-3.1 4.412 4.412 0 013.077-1.325zm182.321-94.757a4.413 4.413 0 01-4.882-.314 4.385 4.385 0 01-1.575-4.616 4.38 4.38 0 011.349-2.163 4.41 4.41 0 016.716 1.105 4.384 4.384 0 01.435 3.324 4.405 4.405 0 01-2.043 2.664zM118.333 234.509a4.37 4.37 0 01-1.029 2.323 4.403 4.403 0 01-6.784-.154 4.364 4.364 0 011.475-6.6 4.4 4.4 0 015.436 1.206c.355.452.618.97.773 1.523.154.553.198 1.131.129 1.702z" fill="#000"/></svg>