<svg width="256" height="115" viewBox="0 0 256 115" fill="none" xmlns="http://www.w3.org/2000/svg"><path d="M83.788 30.92c12.543-.156 41.726 1.253 58.118 8.14 20.49 8.61 33.529 8.14 52.901 0 15.498-6.512 47.189-8.14 61.098-8.14" stroke="#000" stroke-width="2"/><path d="M83.788 45.354c12.543-.157 41.726 1.252 58.118 8.14 20.49 8.61 33.529 8.14 52.901 0 15.498-6.512 47.189-8.14 61.098-8.14" stroke="#000" stroke-width="2"/><path d="M83.788 59.788c12.543-.157 41.726 1.252 58.118 8.14 20.49 8.609 33.529 8.14 52.901 0 15.498-6.512 47.189-8.14 61.098-8.14" stroke="#000" stroke-width="2"/><path d="M83.788 74.22c12.543-.156 41.726 1.253 58.118 8.14 20.49 8.61 33.529 8.14 52.901 0 15.498-6.511 47.189-8.14 61.098-8.14" stroke="#000" stroke-width="2"/><path d="M83.788 88.654c12.543-.156 41.726 1.253 58.118 8.14 20.49 8.61 33.529 8.14 52.901 0 15.498-6.511 47.189-8.14 61.098-8.14" stroke="#000" stroke-width="2"/><path d="M114.721 57.5c0 31.48-25.568 57-57.11 57C26.068 114.5.5 88.98.5 57.5S26.068.5 57.61.5c31.543 0 57.111 25.52 57.111 57z" stroke="#307159"/><path d="M16.627 57.5c0-22.59 18.348-40.904 40.984-40.904 22.635 0 40.984 18.314 40.984 40.904a40.67 40.67 0 01-8.236 24.598H24.862A40.67 40.67 0 0116.627 57.5z" stroke="#307159" stroke-width=".907"/><path d="M11.91 83.677L9.854 79.58l.71-.356 1.651 3.292 1.978-.992-1.002-1.996c-.301-.602-.356-1.15-.165-1.647.182-.5.593-.91 1.233-1.23.64-.322 1.217-.407 1.733-.257.506.146.91.52 1.211 1.122l1.406 2.802-6.7 3.36zm4.583-5.806c-.16-.32-.37-.523-.63-.61-.262-.092-.57-.05-.922.127l-.499.25c-.352.177-.569.398-.652.664-.086.259-.049.549.112.869l1 1.996 2.592-1.3-1.001-1.996zm-3.216-13.113c.123.69-.003 1.291-.378 1.801-.376.503-.968.852-1.777 1.046l.22 1.237 2.452-.435.15.846-5.455.967-.15-.846 2.283-.405-.223-1.258c-.78.066-1.416-.072-1.906-.414-.497-.348-.806-.857-.925-1.526-.063-.36-.054-.7.027-1.02.074-.318.217-.601.427-.85a2.49 2.49 0 01.802-.643 4.012 4.012 0 011.175-.383c.451-.08.863-.095 1.236-.045.372.05.7.16.984.327.276.162.507.38.694.652.18.273.3.59.364.949zm-.75.133c-.08-.451-.278-.787-.593-1.007-.315-.22-.776-.277-1.382-.17l-.783.14c-.606.107-1.02.318-1.24.634-.22.315-.29.698-.21 1.15.08.45.278.786.593 1.006.315.22.776.277 1.382.17l.783-.139c.606-.108 1.02-.319 1.24-.634.22-.316.29-.699.21-1.15zM7.074 54.798l.09-.855.896.093.005-.042c-.334-.179-.57-.412-.705-.7-.142-.295-.193-.635-.153-1.02.035-.341.135-.644.3-.908.163-.263.38-.478.65-.645.27-.173.587-.291.954-.354.367-.07.77-.082 1.212-.036.442.046.835.14 1.18.284.346.137.633.318.861.543.23.218.397.473.504.765.106.292.142.609.106.95-.078.748-.475 1.25-1.193 1.507l-.004.042 3.033.315-.089.855-7.647-.794zm5.107-1.77c.05-.484-.06-.88-.33-1.189-.278-.31-.662-.49-1.153-.54l-.94-.098c-.491-.051-.9.047-1.229.293-.335.246-.527.611-.578 1.095-.02.193-.01.38.028.565.032.176.088.332.167.47a1.1 1.1 0 00.31.345c.12.085.256.135.405.15l2.05.213c.179.019.343 0 .492-.056.144-.065.272-.156.385-.274.106-.118.193-.26.26-.426.069-.173.113-.355.133-.548zm3.186-10.567c-.129.35-.31.646-.543.888a2.28 2.28 0 01-.818.546c-.316.113-.66.166-1.03.16a3.72 3.72 0 01-1.193-.243 3.684 3.684 0 01-1.056-.582 2.739 2.739 0 01-.683-.788 2.221 2.221 0 01-.28-.949 2.496 2.496 0 01.159-1.028 2.42 2.42 0 01.539-.877c.234-.242.51-.423.828-.543a2.64 2.64 0 011.034-.17c.378.01.772.089 1.182.24.417.152.772.347 1.066.585.288.235.514.5.68.798.159.294.249.61.27.946a2.42 2.42 0 01-.155 1.017zm-.716-.262c.16-.437.156-.843-.011-1.217-.168-.374-.528-.662-1.079-.864l-.746-.273c-.551-.203-1.011-.215-1.381-.038-.37.177-.635.484-.795.92-.16.438-.157.843.011 1.217.168.374.527.662 1.078.864l.746.274c.551.202 1.012.215 1.382.038.37-.177.635-.484.795-.921zm4.855-17.905l.6-.614 1.65 1.616 1.939-1.98-1.65-1.615.602-.614 3.957 3.878-.6.613-1.773-1.735-1.938 1.979 1.772 1.735-.602.614-3.957-3.877zm14.882-5.07a2.523 2.523 0 01-.99.353 2.306 2.306 0 01-.97-.097 2.89 2.89 0 01-.9-.526 3.938 3.938 0 01-.763-.945 3.896 3.896 0 01-.463-1.112 2.74 2.74 0 01-.034-1.042c.06-.335.183-.638.372-.909.194-.274.455-.509.78-.703.32-.19.641-.302.963-.336a2.2 2.2 0 01.937.104c.3.097.58.26.84.487.267.225.501.506.703.844l.208.35-3.422 2.04.132.221c.121.203.265.375.433.517.17.132.352.228.546.287.2.056.408.07.624.04a1.8 1.8 0 00.666-.246c.301-.18.52-.406.658-.68a1.61 1.61 0 00.163-.921l.75.065c.041.417-.041.825-.246 1.222-.209.39-.538.72-.987.987zm-2.6-4.363a1.586 1.586 0 00-.487.44 1.436 1.436 0 00-.257.554 1.807 1.807 0 00.237 1.259l.038.064 2.63-1.566-.061-.102c-.253-.424-.571-.693-.955-.806-.382-.122-.763-.07-1.144.157zm9.132-5.006l2.675-.796c.432-.129.809-.106 1.13.067.317.167.538.456.66.867.199.666-.036 1.143-.705 1.432l.012.04c.422-.088.766-.048 1.033.12.27.157.455.401.553.73.064.213.09.426.078.638-.004.21-.047.407-.127.587a1.483 1.483 0 01-.35.485 1.495 1.495 0 01-.57.304l-2.809.837-1.58-5.31zm3.94 3.868c.247-.073.423-.196.529-.37.105-.173.122-.38.05-.62l-.07-.236c-.072-.24-.199-.404-.382-.492-.183-.087-.397-.094-.644-.02l-1.74.517.518 1.74 1.74-.519zm-.82-2.377c.227-.067.386-.174.476-.32.096-.156.112-.34.049-.553l-.067-.226c-.064-.213-.177-.355-.34-.426-.158-.08-.35-.086-.577-.019l-1.636.488.46 1.543 1.636-.487zm11.45 1.448a2.496 2.496 0 01-1.027-.162 2.28 2.28 0 01-.818-.546 2.887 2.887 0 01-.542-.892A3.72 3.72 0 0152.87 10a3.687 3.687 0 01.133-1.198 2.74 2.74 0 01.466-.933c.212-.266.468-.474.77-.623.302-.148.639-.23 1.01-.246a2.43 2.43 0 011.017.163c.314.123.586.309.819.557.232.241.416.538.553.89.136.353.213.747.231 1.184a3.72 3.72 0 01-.133 1.209 2.775 2.775 0 01-.477.933c-.211.26-.468.463-.77.612-.294.149-.628.23-1 .246zm-.031-.762c.465-.02.838-.178 1.12-.476.28-.298.41-.74.385-1.327l-.033-.794c-.024-.587-.189-1.017-.494-1.29-.305-.275-.69-.402-1.155-.383-.465.02-.838.178-1.12.476-.28.299-.41.74-.385 1.327l.033.794c.024.587.189 1.017.494 1.29.305.275.69.402 1.155.383zm10.594 1.501c-.554-.116-.975-.303-1.265-.562a2.29 2.29 0 01-.64-.979l.737-.372c.084.296.233.546.446.752.221.2.514.338.878.415.441.092.784.08 1.028-.037a.757.757 0 00.456-.552l.026-.126c.058-.273.006-.5-.153-.68-.152-.185-.395-.313-.732-.383l-1.156-.243.148-.704 1.05.22c.337.071.61.059.82-.036a.675.675 0 00.392-.51l.027-.126a.647.647 0 00-.17-.606c-.152-.179-.446-.313-.88-.404-.357-.075-.667-.063-.929.035a1.61 1.61 0 00-.678.461L65 8.506c.234-.28.533-.484.897-.612.371-.134.827-.145 1.366-.032.708.149 1.203.388 1.485.717.282.33.375.723.28 1.178-.071.336-.218.584-.441.741-.216.16-.5.243-.853.25l-.01.042c.374.136.632.337.775.6.15.259.19.56.118.903-.11.525-.398.9-.862 1.125-.455.219-1.023.257-1.702.115zm11.774-2.37l1.002.516.182 3.33.038.02 2.807-1.793.993.511-2.536 4.927-.745-.384 2.064-4.01-.047-.024-.552.392-2.7 1.702-.184-3.186-.001-.677-.048-.024-2.064 4.01-.745-.384 2.536-4.926zm10.01 13.255a2.498 2.498 0 01-.613-.841 2.28 2.28 0 01-.192-.965c.017-.335.1-.673.247-1.013.153-.346.38-.682.68-1.009.296-.321.61-.572.942-.753.332-.181.662-.29.99-.33.337-.04.665-.005.984.104.318.108.615.288.888.54.274.253.476.53.605.834.134.309.196.633.185.973a2.637 2.637 0 01-.24 1.02 3.63 3.63 0 01-.672 1c-.3.327-.617.581-.949.762-.327.176-.66.283-.997.323a2.279 2.279 0 01-.977-.112 2.421 2.421 0 01-.881-.533zm.516-.561c.342.315.719.466 1.128.454.41-.011.814-.233 1.211-.665l.539-.585c.397-.432.585-.852.563-1.262-.022-.41-.204-.771-.547-1.087-.342-.315-.718-.466-1.128-.454-.41.012-.814.233-1.211.665l-.538.585c-.398.432-.586.852-.564 1.262.023.41.205.772.547 1.087zm6.144 6.302l.336.55 1.598-.246c.2-.03.37-.02.508.03.14.049.256.129.349.24l.036-.022a.938.938 0 01-.012-.433c.03-.144.1-.296.212-.456l.794-1.152-.335-.55.641-.391.263.43c.112.184.163.37.153.561-.006.197-.081.402-.227.617l-1.017 1.488.515.843 1.98-1.208.447.734-1.98 1.208.515.843 1.788-.223c.258-.032.473-.008.647.07.177.085.322.22.434.402l.263.431-.642.392-.336-.55-1.387.18a1.285 1.285 0 01-.503-.02.938.938 0 01-.379-.21l-.036.023a.789.789 0 01.054.419c-.02.146-.088.301-.206.466l-.95 1.309.336.55-.642.39-.319-.522a.96.96 0 01-.145-.527c.01-.19.108-.414.295-.67l1.104-1.53-.514-.843-2.127 1.297-.447-.733 2.127-1.297-.515-.844-1.865.283c-.314.049-.558.034-.732-.044a.96.96 0 01-.402-.371l-.319-.523.642-.391zm11.306 11.813l.22.83-2.232.59.708 2.679 2.232-.59.22.83-5.357 1.416-.219-.83 2.398-.634-.709-2.678-2.397.634-.22-.83 5.356-1.417zm-3.26 15.392c0-.372.068-.712.203-1.02.136-.308.33-.573.58-.795a2.89 2.89 0 01.913-.504 3.718 3.718 0 011.202-.183c.437 0 .834.06 1.192.182s.662.29.913.505c.258.222.455.487.591.794.136.308.204.648.204 1.02 0 .373-.068.71-.204 1.01a2.22 2.22 0 01-.591.794 2.63 2.63 0 01-.912.516 3.688 3.688 0 01-1.192.183c-.444 0-.845-.061-1.203-.183a2.772 2.772 0 01-.912-.515 2.273 2.273 0 01-.58-.795 2.421 2.421 0 01-.204-1.009zm.762 0c0 .465.143.845.43 1.138.286.294.723.44 1.31.44h.794c.587 0 1.024-.147 1.31-.44.286-.294.429-.673.429-1.139 0-.465-.143-.844-.429-1.138-.287-.293-.723-.44-1.31-.44h-.795c-.587 0-1.023.147-1.31.44-.286.294-.429.674-.429 1.14zm3.936 10.338l-.824 3.402-.73-.177.621-2.567-4.654-1.127.202-.834 5.385 1.303zM97.697 77.95c.17-.331.386-.602.648-.814a2.28 2.28 0 01.88-.441 2.891 2.891 0 011.042-.031c.373.055.758.184 1.152.388.389.2.714.435.977.707.262.272.456.56.58.867.128.315.182.64.162.976-.02.336-.115.67-.285 1-.171.331-.385.6-.644.805a2.218 2.218 0 01-.888.436 2.64 2.64 0 01-1.048.04 3.686 3.686 0 01-1.143-.382 3.723 3.723 0 01-.986-.713 2.777 2.777 0 01-.575-.876 2.28 2.28 0 01-.153-.971c.017-.33.11-.66.28-.991zm.678.349c-.213.413-.26.816-.139 1.208.12.392.441.722.963.99l.707.364c.522.269.977.338 1.366.208.389-.13.69-.401.903-.815.213-.414.259-.817.139-1.209-.121-.392-.442-.722-.964-.99l-.706-.364c-.522-.269-.978-.338-1.367-.208-.388.13-.69.402-.902.816zM43.554 101.97v-.64l3.6-5.472c.267-.406.517-.8.752-1.184a6.11 6.11 0 00.56-1.232 4.34 4.34 0 00.224-1.44c0-.758-.17-1.35-.512-1.776-.33-.427-.816-.64-1.456-.64-.608 0-1.077.122-1.408.368-.32.245-.544.586-.672 1.024a6.286 6.286 0 00-.192 1.504v.208h-.832v-.256c0-.8.107-1.462.32-1.984.213-.534.544-.928.992-1.184.459-.267 1.045-.4 1.76-.4.939 0 1.648.288 2.128.864.48.576.72 1.376.72 2.4 0 .512-.08.997-.24 1.456-.16.448-.363.885-.608 1.312-.245.416-.501.826-.768 1.232l-3.392 5.12h4.752v.72h-5.728zm11.092.176c-.79 0-1.403-.166-1.84-.496-.437-.331-.741-.784-.912-1.36-.17-.576-.256-1.232-.256-1.968v-5.664c0-.747.09-1.403.272-1.968.182-.566.49-1.008.928-1.328.448-.331 1.05-.496 1.808-.496.768 0 1.37.165 1.808.496.448.32.763.762.944 1.328.181.565.272 1.221.272 1.968v5.664c0 .736-.085 1.392-.256 1.968-.17.576-.474 1.029-.912 1.36-.437.33-1.056.496-1.856.496zm0-.656c.555 0 .987-.128 1.296-.384.31-.267.528-.624.656-1.072.128-.459.192-.982.192-1.568V92.53c0-.587-.064-1.104-.192-1.552-.128-.459-.346-.816-.656-1.072-.31-.256-.741-.384-1.296-.384-.544 0-.97.128-1.28.384-.31.256-.533.613-.672 1.072a5.667 5.667 0 00-.192 1.552v5.936c0 .586.064 1.109.192 1.568.139.448.363.805.672 1.072.31.256.736.384 1.28.384zm5.002.48v-.64l3.6-5.472c.267-.406.517-.8.752-1.184.234-.395.421-.806.56-1.232.15-.427.224-.907.224-1.44 0-.758-.17-1.35-.512-1.776-.33-.427-.816-.64-1.456-.64-.608 0-1.078.122-1.408.368-.32.245-.544.586-.672 1.024a6.286 6.286 0 00-.192 1.504v.208h-.832v-.256c0-.8.106-1.462.32-1.984.213-.534.544-.928.992-1.184.459-.267 1.045-.4 1.76-.4.938 0 1.648.288 2.128.864.48.576.72 1.376.72 2.4 0 .512-.08.997-.24 1.456-.16.448-.363.885-.608 1.312-.246.416-.502.826-.768 1.232l-3.392 5.12h4.752v.72h-5.728zm9.62 0V90.178a1.8 1.8 0 01-.4.4c-.17.117-.352.224-.544.32-.192.085-.373.16-.544.224a3.28 3.28 0 01-.368.128v-.736c.139-.043.293-.107.464-.192a3.62 3.62 0 00.544-.32c.181-.139.357-.288.528-.448.17-.171.32-.352.448-.544h.736v12.96h-.864z" fill="#307159"/></svg>