<svg xmlns="http://www.w3.org/2000/svg" width="200" height="200" viewBox="0 0 200 200"><g id="surface1"><path d="M37.938 5.79c-.372 0-.715.132-.91.35l-1.934 2.137c-.274.043-.48.215-.48.422v111.797c0 .238.273.434.616.434h9.989c.113 0 .226.02.32.062l17.703 7.57c.403.172.918-.023.938-.347l3.097-1.434c.301-.14.485-.375.485-.629v-5.222h83.683c.317 0 .586-.172.618-.387l2.968-1.371c.301-.14.485-.379.485-.633V6.543c0-.414-.485-.754-1.078-.754zm113.202 114.4l-.192.09H64.801c-.844 0-1.543.477-1.543 1.078v6.45l-17.235-7.368a2.027 2.027 0 00-.804-.16h-9.684V8.914h.008l.05.024.02-.024h115.528zm.925-.425l2.454-1.137c.042-.02.07-.05.07-.09V6.95l-2.524 1.77zM151.402 8.27l2.618-1.832H37.937c-.05 0-.101.015-.128.046l-1.61 1.786zM66.836 120.93H64.8c-.34 0-.621.191-.621.43v6.078l2.586-1.196c.043-.02.07-.055.07-.09zm0 0" fill-rule="evenodd"/><path d="M-144.111-212.338H144.11v397.977H-75.166v26.702l-43.535-26.702h-25.41zm0 0" transform="matrix(.4 0 0 .28 93.336 68.4)" fill="#0f90c1" stroke="#000"/></g></svg>