<svg width="394" height="572" viewBox="0 0 394 572" preserveAspectRatio="none" fill="none" xmlns="http://www.w3.org/2000/svg"><path fill-rule="evenodd" clip-rule="evenodd" d="M11.296.196a3.5 3.5 0 00-2.958 1.63l-6.272 9.917A2 2 0 00.5 13.696V532.24a2 2 0 002 2h32.438c.367 0 .728.101 1.042.293l57.477 35.109c1.306.798 2.975-.107 3.041-1.613l10.052-6.641a3.5 3.5 0 001.571-2.92V534.24h271.702a2.02 2.02 0 002.008-1.792l9.634-6.363a3.5 3.5 0 001.571-2.921V3.696a3.5 3.5 0 00-3.5-3.5H11.296zm367.546 530.631l-.625.412H98.514c-2.735 0-5.014 2.212-5.014 5v29.913l-55.956-34.18a5.004 5.004 0 00-2.606-.733H3.5V14.696h.015l.167.106.067-.106h375.093v516.131zm3-1.982l7.969-5.265a.497.497 0 00.225-.417V5.586l-8.194 8.194v515.065zm-2.16-517.149l8.5-8.5H11.296a.5.5 0 00-.423.233l-5.227 8.267h374.036zM105.121 534.24h-6.607a2.011 2.011 0 00-2.014 2v28.192l8.397-5.547a.499.499 0 00.224-.417V534.24z" fill="#000"/><path d="M2 13.696a.5.5 0 01.5-.5h377.342a.5.5 0 01.5.5V532.24c0 .258-.225.5-.519.5H98.514c-1.92 0-3.514 1.554-3.514 3.5v31.696a.5.5 0 01-.76.426l-57.478-35.109a3.506 3.506 0 00-1.825-.513H2.5a.5.5 0 01-.5-.5V13.696z" fill="#FEFFE0" stroke="#000" stroke-width="3"/></svg>