<svg height="512" id="Calque_1" version="1.1" viewBox="0 0 512 512" width="512" xml:space="preserve" xmlns="http://www.w3.org/2000/svg"><path d="M428.534 251.964a4.941 4.941 0 00-2.284-1.284L267.035 91.464A5 5 0 00258.5 95v79.168L88.512 120.234a5.004 5.004 0 00-4.465.73A5.002 5.002 0 0082 125v130.5c0 .171.034.333.05.5-.017.167-.05.329-.05.5V387a4.998 4.998 0 006.512 4.765L258.5 337.832V417a4.997 4.997 0 004.999 5c1.301 0 2.58-.508 3.536-1.465l159.213-159.214a4.937 4.937 0 002.286-1.286c1.104-1.104 1.563-2.594 1.417-4.035.146-1.442-.311-2.932-1.417-4.036zm-162.081 75.001a5.001 5.001 0 00-4.466-.729L92 380.168V256.5c0-.171-.034-.333-.05-.5.017-.167.05-.329.05-.5V131.832l169.987 53.935a5 5 0 006.513-4.766v-73.929L417.43 256 268.5 404.928V331c0-1.595-.76-3.093-2.047-4.035z" fill="none"/><g fill="#202020"><path d="M266 355.696c-.055-2.699.256-5.055.395-4.039-.377-5.499.053-5.616-.678-6.329-.357-3.529.139-7.295.434-3.279l-.445-10.177-.113 6.085c-.304-.828-.258-3.26-.226-5.724.029-1.566.035-1.636-.199-2.057-.207-.341-.522-.494-.744-.441a1.606 1.606 0 01.614.886c.01.05.025.1.031.152.015.117.002-.072.017.114l.004.127.003.064v.02c.002.092-.002-.121-.001-.098v.04l.001.257.003.516.03 5.508-.201-.551c.217 2.509.125 7.381.041 9.079-.1-.268-.262-.098-.28-2.04-.046 13.3 1.061 3.582 1.263 14.619a37.14 37.14 0 01.051-2.732zm-1.484 11.299l.762 4.639-.197 7.784c.264.088.475 5.758.707 1.919-.042-.751-.12-2.234-.096-3.433.283.435.354 3.022.426 5.215.036 1.12.071 2.009.135 2.857.063.737.152.915.297.189-.063-3.174-.098-5.004-.127-6.53-.045-1.479-.129-2.663-.359-4.558.053-5.643.183-9.753.391-12.387-.087-1.676-.436-1.911-.504-4.039l.021 1.445-.854.229c.18 1.775.096 3.453.113 5.423l-.997-9.111c-.799 2.938-.329 11.89-.661 15.467.718-4.435.356 3.533.943-5.109zm1.433-8.343l-.002-.224.002.224zM137.446 148.783c-1.851-.571-2.456-.552-2.753-.54l20.794 6.581c-.583-.42-6.487-2.584-2.445-1.442-1.709-.802-7.209-2.325-8.089-2.287l1.61.152c-4.922-1.102-7.934-2.96-4.733-2.216l-.405-.124-13.776-2.603c4.841 1.64 3.926.638 9.797 2.479zm98.166 184.187c-2.67.93-2.977 1.111-2.646 1.094a47.11 47.11 0 002.646-1.094zM124.428 145.698l-4.315-.816c1.707.392 3.226.675 4.315.816zm31.214 1.49c.017-.024.069-.034-.029-.104l-1.948-.335.048.015 1.929.424zM97.39 195.694l.037 1.431a37.642 37.642 0 00-.037-1.431zm115.482-33.51l-9.396-2.449c1.305.162-3.176-1.184-1.144-.833-.716-.187-4.047-1.144-3.184-.741l1.89.583c-5.085-.88-2.215.313-10.457-1.743 4.892 1.987 7.206 2.323 9.959 2.863l2.448.675 7.981 1.506 1.903.139zM108.017 377.62l-.085.084c.087-.048.098-.07.085-.084zm-.421.426l.336-.342c-.463.265-2.333.971-.336.342zm18.495-232.296c-.166.083-.747.066-1.663-.052l3.22.606-1.557-.554z"/><path d="M133.608 146.532l7.816 2.375 2.98.565c-3.021-.814-6.535-1.83-10.796-2.94zm-35.806 36.259c.107 16.921-.823-4.157-1.021 3.618.097 4.698.487 6.355.61 9.285-.334-13.421 1.287 1.819 1.08-11.716.707 1.925.771 9.762.579 14.354-.681 5.199-.499-4.542-1.167-5.72.111 5.431.235 4.475.615 6.779-.158 8.528.837 17.645-.107 22.738.15 6.173.476 5.767.835 9.317.729.707.383-9.182.957-11.469-.062.474-.185 1.398-.287 1.13l.153-5.337c-.254 5.066-.729-.704-.786-3.412-.015-1.97-.047-5.885.154-5.346l.157 2.982c.23-3.838-.532-8.469-.137-12.523.164-.212.241 1.322.342 1.555-.498-4.542-.469-8.923-.821-15.646l.723 3.897c-.8-5.378-.573-17.557-.15-25.997-.123.936-.208 2.623-.348 1.61-.173-4.958.323-8.702.704-6.406-.294-2.375-.178-6.861-.076-11.591l.037-1.782c.001-.106.003-.073.004-.083l.004-.009.008-.018.015-.034a.253.253 0 00.023-.122c-.009-.088-.073-.208-.248-.557l-.015-.049c.013.004-.147-.288.093-.573.122-.142.354-.279.752-.379l.156-.036.084-.017.043-.008c.023 0 .104.019.153.027l1.373.259 2.801.529 15.018 2.837a65.511 65.511 0 01-3.498-.901c-2.438-1.439-3.877-1.815.911-.924-4.625-1.115-3.05-.081-9.854-2.212 2.762.542 3.656.061-2.831-2.077l-1.869-.511-.918-.247-.38-.098-.295-.07-2.209-.49a50.31 50.31 0 00-3.587-.627c.201 1.698.418 3.185.641 4.463.111.639.224 1.227.337 1.764.007.042.014.047.021.121l.021.226.042.452.084.905.168 1.815c.446 4.854.873 9.828 1.192 15.359-.489.589-.352 13.109-.467 19.194-.525-2.323-.675-6.838-.781-11.525l-.07 11.76 1.032 1.536z"/><path d="M96.158 143.144c-.044.427-.068.868-.091 1.322.04-.242.071-.636.091-1.322zm.699 24.929c-.019-.059-.033-.039-.053-.059l.038 1.487.015-1.428zm25.755-24.585l2.743.535-2.099-.532c-.704-.155-1.05-.195-.644-.003zm2.995 1.852l-.577.028 1.062.382c.144-.068.051-.193-.485-.41zM93.379 247.452l.106 1.622c-.009-.978-.052-1.398-.106-1.622z"/><path d="M96.971 201.64c-.047-5.885-.73-.704-.733-9.028l-.044 2.443c-.313-5.973-.169-16.471-.194-23.568.291.801.354-4.304.805-3.474-.106-4.852-.207-9.656-.672-12.155.152-3.006-.258-7.572-.065-11.393-.273 1.613-.924-5.44-.59 3.859-.037-.751-.1-.28-.138-1.021-.381 5.991.265 8.393.274 13.553-.269 3.085-.435-5.046-.543-2.134.251 6.444-.325 20.221.69 19.794.071 4.689-.152 5.337-.338 6.735 1.081 7.418-.464 27.531.918 27.463-.055-2.708-.025-7.121-.321-11.095l.951.021zm16.2-61.073l-1.087-.359 1.087.359zm69.572 26.275l-2.619.117c-13.421-4.032-18.174-5.806-29.863-9.477-.854-.401.586-.026 1.316.164-8.242-2.505-20.469-6.584-26.571-8.084-2.61-.835-9.381-3.285-6.706-2.714-1.295-.328-2.772-.715-4.225-1.207-.289-.432 3.3.95 3.464.723-1.152-.389-1.585-.592-1.883-.579 2.035.352-1.69-1.692 7.398 1.213 3.292 1.84-6.334-1.917-4.508-.46 3.015.962 2.762.542 3.051.527 3.838 1.238 3.674 1.406 3.411 1.523 1.552.22 6.277 2.098 8.431 2.368 7.495 2.31-.597.47 4.288 2.01l3.071.085 8.069 2.729c11.841 3.444-1.238-1.93 12.339 1.875-1.899-.138 3.264 2.279 9.462 4.432-3.75-1.157-10.831-2.824-15.583-4.596 6.606 2.793-9.394-2.896-6.09-1.051 3.473.725 9.097 2.458 13.413 4.031l-1.458-.38c4.625 1.562 8.415 1.833 14.732 4.194 3.199.986 2.529 1.024 1.908 1.035 2.738.733 5.201 1.34 5.153 1.522zm-7.004-2.037l-4.243-1.435c.971.456 2.563.956 4.243 1.435zM288.698 390.21l-1.011.913c.238-.183.615-.534 1.011-.913zM264.301 98.246c.004-.43.007-.859.007-1.296l1.863 1.894-1.871-1.912.001 1.314zm49.694 44.422l2.818 2.539a42.127 42.127 0 00-2.818-2.539zm-3.389 225.716l.094-.085.391-.454-.485.539zm84.538-141.762c.357.458.77.962 1.361 1.624-.015-.134-.531-.735-1.361-1.624zm-81.669-84.421l.151.173.369.294-.52-.467zm-51.646-8.622l.085 1.66a23.08 23.08 0 00-.085-1.66zm2.404-3.656c.021.598.047 1.169.084 1.613l-.084-1.613zm-28.305 41.369l-3.365-.939c1.64.505 2.631.77 3.365.939zm27.75-32.129c.039.203.076.406.115.542-.027-.483-.076-.713-.115-.542zm5.535 266.958l.177-.181.147-.287-.324.468zm-3.295-2.833l-.07-3.94a82.353 82.353 0 00.07 3.94zm144.063-134.674c-.74.566-2.379 1.997-1.761 1.182-1.126 1.376-.739 1.596 1.761-1.182zM279.6 388.232c-.125.286-.335.62-.562.969.443-.617.783-1.101.562-.969zm-.562.969l-.672.943c.251-.329.479-.648.672-.943zM408.44 251.793c-.121-.203-.339-.489-.67-.841.018.182.273.472.67.841z"/><path d="M265.985 395.929c-.102-.24-.262-4.696-.409-7.387-.148-2.666-.284-3.478-.335 4.405-.314-.074-.388-2.64-.401-5.707l.001-3.912c0-1.062-.008-2.045-.047-2.793-.147 2.173-.404-1.08-.629-.421l.152 2.486.057 1.497.011.828a433.5 433.5 0 00-.007 1.231c-.072.43-.139.409-.195.054-.057-.326-.105-1.168-.141-1.635a46.926 46.926 0 01-.039-4.262c-.332 3.58-.499-4.542-.754.524l.161 8.608c.075 3.448.146 6.694.212 9.797.169 6.057.404 11.253.771 15.6l2.32-2.638-2.145 2.214c-.137-7.939-.263-17.007-.037-23.851l.545 2.773c-.227 4.009-.266 7.34-.25 10.463l.082 9.792.891-.883c-.291.282-.583.564-.882.862l.276-17.173c.226-4.36.365-5.024.46-3.978.095 1.063.146 3.896.194 6.92.009-1.525.041-2.937.138-3.414zm4.773 1.365l.016-.185c-.02-.095-.033-.236-.056-.277l.04.462zM233.213 181.98l-1.098-.132c.893.186 1.179.209 1.098.132zm38.259 220.511l-.007.007a.663.663 0 01.007-.007zm-10.885-212.05c-.058-.001-.116 0-.221-.01.15.021.15.005.221.01zm1.061-12.294c-.028-.017-.049-.037-.086-.046-.056.102.005.097.086.046zm-1.03 12.251c0 .017.027.04-.031.043.031-.01.104-.009.031-.043zm38.616-48.227s-.227-.359-.625-.885c-.215-.144-.078.077.625.885zm-17.772-18.91l-.292-.378.292.378zM416.129 265.93a255.356 255.356 0 003.743-3.785 181.072 181.072 0 00-3.743 3.785zm-155.763-75.499a34.698 34.698 0 01-2.014-.319c1.103.199 1.675.285 2.014.319zm68.775-22.239l-.605-.522.315.354.29.168zm9.288 9.854c-.37-.283-.565-.388-.788-.531 3.576 3.256 9.678 9.706 10.83 10.04-1.169-1.149-6.938-7.399-5.675-6.615-2.483-2.279-5.717-6.086-7.065-7.301 3.685 4.133.077.768-2.701-1.733-2.28-2.52.781.122-1.21-2.021l-5.599-5.508 4.783 4.891-1.863-1.076.531.456c8.368 8.001.119 1.271 8.757 9.398z"/><path d="M337.641 177.514a28.491 28.491 0 00-1.408-1.215c.778.767 1.118 1.026 1.408 1.215zm32.79 34.088l1.511 1.386-1.511-1.386zM149.91 151.316c.144.218 6.47 2.58 6.485 2.135l-5.72-1.956-.765-.179zm222.586 150.533l1.604-1.589.263-.357c-.369.28-1.364 1.387-1.867 1.946zm-28.084-119.578c-.921-.828-1.357-1.169-1.616-1.332.591.542 1.152 1.026 1.616 1.332zm27.065 119.158c-.763.59-1.892 1.455-2.148 1.481-1.387 1.382-2.2 2.513-3.553 3.979 1.546-1.634 3.417-3.444 5.701-5.46zm-5.811 5.581l.109-.12-.109.12z"/><path d="M146.14 149.929l-1.736-.457.924.173-4.383-1.527a63.5 63.5 0 01-1.842-.513c.291.077.526.104.678.103l-1.402-.497c-3.655-.695-12.516-3.167-15.124-3.721-3.402-.88-7.528-2.077-10.085-2.924 2.377.763 5.563 1.681 4.689 1.146-4.755-1.776-6.881-3.222-15.411-5.266l4.894 1.542-5.545-1.261-4.153-.819c-3.066-1.387 3.805.709 5.676.944a78.55 78.55 0 01-2.845-.794 70.403 70.403 0 01-2.498-.811c-1.628-.56-3.22-1.16-4.735-1.72-.146 2.678-.241 5.243.162 7.089-.244.159-.57.381-.829 1.323-.258.917-.45 2.71-.426 5.634.557-4.245.358 3.53.954.047.279 2.034-.176 6.567.189 6.906l-.202-.551c-.773 10.053.438 13.344.837 17.646.199 12.037-.117 17.565-.035 27.383-.327.386-1.227 3.059-1.192 6.998.442 1.831.647 10.715 1.215 11.622.236-7.042-.476-5.761-.608-9.977.595-3.509.588-.318.943-5.11-.231 3.868.31 17.478-.248 21.713l-.078-1.495c-.339 6.762-1.741 8.054-.893 19.32l.348 5.375c-.057-.259-.123-.289-.174-.427-.019 2.803-.097 4.469-.179 5.754l-.227 3.552.004-.082c-.036 1.431-.003 3.36.183 6.886-.039-.75-.102-.279-.14-1.042-.317 5.537.324 11.122.458 15.308-.472 2.556-.466-.606-.808-2.187-.181 9.74.632 20.253 1.21 26.303l-.276 6.278c-.196-3.724-.695-8.274-.981-7.138.096 3.452.319 2.784.229 7.668-.303-.833-.585-2.882-.966-5.178-.504 10.101 1.073 2.258.146 9.326-.006 3.173.437 5.016.802 5.363l-.477 5.749c.465.639.493 7.736.564 12.388.2.568.495-3.745.315-5.508.365.347.538 5.296.531 8.478-.975 1.166.146 20.837-1.005 17.074l.389 22.811 9.209-3.118a414.832 414.832 0 008.125-2.842c3.047-.684 9.096-2.589 5.611-1.003 10.97-3.476 16.324-6.225 27.292-9.425.938-.17-4.919 1.569-4.433 1.757 6.998-2.63 13.071-3.714 24.034-7.466-1.852.606-2.333.97-2.561 1.148-.242-.093 4.422-1.755 7.231-2.811 1.63-.429-2.103.79-1.165.623 21.471-6.315 37.32-12.735 58.546-19.424-6.062 1.91-8.156 3.252-8.141 3.525l5.938-1.872c2.189-1.033 6.646-2.446 10.299-3.858.494-.029 2.346-.479.543.252 5.96-1.548 10.449-3.281 15.256-5.158 2.403-.938 4.887-1.912 7.673-2.916a161.558 161.558 0 014.436-1.528l.602-.195a6.685 6.685 0 012.601-.284c1.174.087 2.437.581 3.368 1.284l-.177-.104c-.083-.047-.434-.256-.707-.37a6.62 6.62 0 00-2.659-.58 6.373 6.373 0 00-1.778.235c-.673.195-1.045.387-1.57.583l-3.122 1.242-8.501 3.381 4.441-.934-7.47 2.992c4.676-1.109 8.4-3.157 9.098-2.864-.924.438-3.263 1.134-3.256 1.409 4.444-1.209 4.678-1.667 7.947-2.803-8.386 3.705-25.423 9.095-34.516 12.235-1.418.532 1.162-.62 1.387-.799-3.73 1.219-6.069 1.635-10.725 3.294-2.797 1.328 2.324-.413 4.658-1.107-.209.45-1.383.8-3.951 1.673-.709-.288-14.239 4.336-17.75 4.824-13.761 4.528 2.591.505-10.953 4.579l-4.195.745c-7.695 2.895-17.701 6.471-26.592 9.167l1.86-.609c1.171-.622-.928-.11-1.874.062-6.765 1.895-12.573 4.449-16.796 5.203-7.453 2.987-20.045 7.443-28.679 10.504-2.577.045 11.195-4.207 14.687-5.798l-7.943 2.523c4.908-1.567 6.762-2.449 9.579-3.783-7.003 2.079-9.098 3.42-15.641 5.691.453-.354-.465-.191-3.511.769l-.716.74c-.068-.02-.417.052-1.366.32l-14.344 4.864c3.134-.774 3.167-.339 7.413-1.68-.746.087-.213-.172.99-.605a84.969 84.969 0 012.259-.767l2.293-.737c-2.563 1.148 3.042-.683 3.057-.41l-9.667 3.094-10.231 3.359-.054-3.374.45-2.372c.028-2.137.033-4.27.027-6.376l-.039-5.569c-.033-2.884-.063-5.521.002-7.585l.239 1.301c.136-7.301-.155-14.489.283-20.972-.516-6.512-.947-14.71-1.486-20.032-.582-2.847.726-19.108-.094-26.45.063-.494.438 5.043.659 7.548.089-4.884-.634-8.767-.023-10.298-.203 10.96.488-.589.663 4.349-.012-5.132-.124-10.542-.343-13.059.006 8.304-.847-2.95-.578 5.457-.516-6.514-.723-15.404-.525-23.167.264.076.387-.881.496-3.774l-.383-2.334c.068-3.633.455 7.023.589-.289a50.396 50.396 0 01-.121-1.811l2.495-.13c-.48-.054-.962-.098-1.446-.132l-.726-.043-.197-.011c-.097-.007-.141-.01-.115-.009v-.003l-.003-.031-.004-.124-.011-.273-.027-.784-.038-1.641-.023-3.496.034-7.214c.009-4.666-.072-8.726-.632-10.25.478-5.734.484 10.913 1.07 2.27.438 5.028-.063 11.963.541 13.621-.172-4.928.511-1.798.517-4.978l-.373-5.496-.023 1.216c-.571-9.223-.297-23.836-.394-35.614-.609-9.977-1.489-16.844-1.423-28.811.357 3.533.344-9.938.999-2.405.315-5.537-.058-11.004-.322-11.113-.091 4.872-.085 1.713-.215 5.817-.32-2.77-.306-9.155-.097-11.778-.023 1.216.038.753.139 1.021.215-5.817-.318-2.788-.452-6.992.224-.667.254-2.987.257-5.621l.005-6.006c.009-1.983.031-3.821.089-5.22-.15-2.176-.299-4.353-.299-6.325l2.163.331c-4.236-.904 8.14 2.743 9.454 3.566l4.311 1.105.55.14.386.088a170.64 170.64 0 012.221.508 79.244 79.244 0 017.201 2.077c-2.46-.551 5.19 1.979 5.163 2.417 9.798 3.537 16.783 4.106 25.996 7.669-.322.002-2.303-.333.411.641 2.2.573 5.973 1.823 8.301 2.513l-.077-.012.125.027c1.141.337 1.869.514 1.929.424 4.088.859 6.26 1.101 14.165 3.238-.425-.647-7.065-2.555-9.963-3.31l-2.609-.323c-2.131-1.449-7.07-2.109-8.788-2.915 4.938.662 18.346 5.138 26.587 7.196-4.722-2.211-15.408-5.713-24.786-8.602l4.031 1.585-4.896-1.544 4.58 1.998c-4.608-1.557-8.655-2.702-12.835-4.059 4.908 1.547 6.615 2.794 3.872 1.813-5.321-2.19-5.791-1.509-9.959-2.863 2.313.78 5.335 1.748 3.3 1.396-8.061-3.172-10.402-3.515-17.704-6.488.683 1.07-9.385-2.893-10.709-2.613l3.456 1.167-7.522-1.871a25.659 25.659 0 01-1.677-.763c-.506-.228-.655-.335-.572-.362.071-.031.422.033.779.103l.832.143c.553.1.993.17.657-.018-.168-.094-.53-.252-1.169-.504l-.281-.108-.489-.174-1.13-.398-2.922-1.014c-6.894-2.223-10.825-3.339-13.765-4.101.233 5.094.544 8.375.582 15.99-.326-2.943-.62-8.966-.773-16.251 3.017.88 6.429 1.92 9.876 3.019l-6.611-2.342c1.619.367 6.259 1.782 11.436 3.407l9.901 3.162c-7.082-1.667 3.184 1.188 6.198 2.599.719-.262-3.742-1.6 1.613-.293-4.913-1.55-5.644-1.74-11.836-3.89 13.438 4.486 12.631 2.31 24.297 6.422-5.496-1.522 1.69 1.242 2.276 1.665 2.573.758 7.792 2.297 9.96 2.863l-1.727-1.255c6.954 1.901 8.908 4.018 17.042 5.87 1.152-.058-6.929-2.342-5.479-1.964 10.97 3.037 14.548 5.31 24.022 8.848.605-.02.622-.462 4.097.266-1.18.05 1.249 1.038-2.628.118 3.167 1.184 7.07 2.111 9.957 2.862-6.628-2.353 2.917.316 4.225.477 3.45 1.167-1.18.049-3.351-.517 2.754.988 5.885 2.606 7.65 2.531-.02.441-8.128-1.404-13.328-2.938l3.462 1.17c-2.465-.554-2.896-.754-6.333-1.915 3.284 1.388 2.84 1.629 1.96 1.668-.424-.2.278-.018-.128-.21-2.75-.986-4.921-1.553-4.344-1.132-2.676-.249 3.753 1.565 5.552 2.436l4.283 1.239 15.018 2.837c6.243 1.757 8.888 3.057 13.445 4.794l1.423-.064c5.361 1.754 10.387 3.512 6.753 3.011-.144-.218-.866-.406-2.026-.798-.174.014-.458-.026-.809-.097-.121-.007-.191 0-.293-.002l9.769 2.805c-9.992-2.422-.758.695-2.657 1.006l9.96 2.862c-5.902-2.162.019-.44 2.179.121.438.653 7.953 2.519 11.398 3.684l-.286.015c1.578.59 3.775 1.319 6.083 2.043l1.46.451.812.231c.533.129 1.026.331 1.498.295-.085-.095.467-.324.811-.964.376-.621.333-1.545.08-2.025-.081.482-.346.68-.485.751-.153.072-.229.035-.26-.025-.06-.127-.022-.388-.195-.487.132-.075.249-.324.188-.398-.076-.272-.262.11-.444-.033a.76.76 0 01-.707.477c-.146-.007-.291-.037-.444-.054l-.23-.029-.118-.014c-.027-.005-.021.001-.078-.013l-.309-.079c-3.199-.878-5.875-1.531-7.465-1.677 2.146 1.006 3.906.929 6.349 1.921-3.753-.708-8.387-2.274-14.441-4.208l-1.862-1.021-6.165-1.723c2.61.601 1.208-.294 7.63 1.658-.699-.627-6.371-1.929-10.249-3.295l-2.168-.117c.863-.044-7.503-2.76-1.421-1.265l9.826 2.651-2.581-1.209 8.225 2.5-2.019-.345c6.638 1.908 7.526 2.475 8.436 3.012.455.269.915.531 2.101.95a49.87 49.87 0 002.415.767l1.786.51 1.066.294.58.157c.173.045.492.136.442.11.363-.245.46-.354.583-.493.131-.142.168-.271.233-.524.073.197.189.296.335.318.146.037.32-.046.511.211a1.75 1.75 0 00.067-.351l.009-.167-.006-.722a45.892 45.892 0 00-.133-2.953c-.134-1.724-.334-3.07-.463-4.701.349-1.602.633-2.741.582 2.876.73.704-.125-7.389.625-7.901-.011-9.304-.617-13.032-1.104-17.152a78.728 78.728 0 01-.55-7.222 121.063 121.063 0 01-.04-5.231l.068-3.266.139-4.042.047.247c.014.074.03.16.049.252.018.067.036.104.055.159l.152.408-.122-10.394-.053-9.917.003-18.173c5.985 6.003 12.023 12.048 19.299 19.183l6.604 7.149.601.652.344.394.594.692 1.054 1.228 1.027 1.198a60.827 60.827 0 00-1.675-1.442l-.984-.805-.48-.38-.231-.179-.115-.089-.187-.159c-1.963-1.673-3.033-2.408-1.442-.555-2.716-3.267-5.879-6.609-9.101-9.946-3.241-3.357-6.536-6.703-10.06-10.522-.535-.249 2.285 2.778 3.498 4.167-2.843-2.849-4.811-5.075-7.682-8.019-.021 1.469-.021 3.218.018 5.399.08-.021.169-1.958.249-3.068.08-1.116.152-1.416.199 1.681l-.479 9.173c.113 7.026.4 8.933.632 11.02.115 1.041.217 2.12.275 3.862.029.871.048 1.908.053 3.195l-.004 2.13c-.009.708-.019 1.484-.028 2.336l-.083-.333-.086-.613-.177-1.466c-.12-1.064-.241-2.299-.352-3.662a145.716 145.716 0 01-.453-9.189c-.046 3.686-.11 1.161-.195-1.538-.086-2.683-.191-5.576-.318-2.223.316 5.917.35 9.864.353 14.361l.015 5.926c.019 1.467.062 3.122.161 5.09-.089-.924-.212-1.168-.251-3.105l-.268 11.422c.37-2.826.406 9.435.957 8.372.229-12.173-.104-8.596.209-22.467.125 3.927.686 8.991 1.201 11.363-.021.121-.039.321-.049.748.545 2.12.691-.041 1.645 0-.34-3.166-.369-5.807-.363-8.591l.002-4.365a254.378 254.378 0 00-.149-7.353c-.261-1.196-.428.285-.512 2.883a151.19 151.19 0 00-.066 4.417 78.49 78.49 0 00.048 3.021l-.174-3.417-.172-5.146.24 2.089.174-25.204c.028 4.867.331 7.053.559 9.795.021-3.084.158-5.906.311-8.73-.296-.308-.54-.85-.688-1.939.23.088.773.552 1.688 1.472 5.787 5.871 10.257 10.541 13.641 14.204a232.656 232.656 0 014.333 4.809l.444.51.38.448.549.688.975 1.268.91.86c-.913-1.635 6.044 4.747 8.768 6.732-.49.256 3.691 4.139 5.69 6.52 1.594.737.63-1.409-1.687-4.425-5.528-4.746-3.273-2.484-6.256-4.355l-8.619-7.878 2.191 1.508a69.896 69.896 0 00-1.496-1.558l-2.111-2.096-3.969-3.845c-2.263-2.187-3.65-3.57-3.43-3.794 1.706 1.41 4.039 3.685 6.364 5.952l1.744 1.696 1.621 1.552a28.86 28.86 0 001.99 1.693l-1.279-1.441c-.16-.18-.319-.361-.47-.529l-.618-.67-.686-.736c.843.756 1.527 1.371 2.098 1.881.426.388.754.709 1.021.99.532.561.814.957 1.125 1.388.619.863 1.35 1.87 4.407 4.623-1.76-2.516.554.5 3.297 2.736-1.735-2.261-10.341-10.125-7.952-9.021 3.303 2.742 9.416 10.921 14.053 14.282l-.269-.123c5.816 5.982 8.257 7.688 10.695 9.667 2.303 2.718 6.062 5.891 8.806 8.589l-.254.12 3.917 3.76c-2.168-1.487-4.489-4.507-7.836-7.755l.063.757c-3.389-4.213-6.55-6.122-9.797-8.771 4.591 3.99 12.03 12.2 13.716 12.529l2.304 3.004 1.396 1.143c1.714 2.241-.717.634-4.63-3.122-.579-.754-.868-1.13-.594-1.001-1.935-1.625-3.838-2.989-8.065-7.376l2.481 2.114c-5.337-5.387-10.346-10.128-12.523-11.623 7.597 7.886 15.179 15.529 22.464 22.782 2.928 1.36 5.911 3.464 7.733 3.828 5.012 4.743 11.733 11.264 15.703 15.767l-.533-.246a89.842 89.842 0 005.607 5.512c1.992 2.375-1.88-1.109-.462.516l7.23 6.741c-.761-.101-6.641-5.978-9.456-8.746.555.499 1.674 1.507 1.376 1.122-3.111-3.383-9.722-8.87-10.665-10.767-1.664-1.499 3.566 2.862-1.765-2.519-3.406-3.766-5.003-4.505-5.521-4.737-.245.129 5.373 5.885 3.174 4.137 2.815 2.768 4.168 3.638 7.558 7.389-2.789-2.744-6.926-6.122-8.109-7.886-5.818-5.122-5.911-3.46-3.38-.833-.34-.889 10.317 9.64 3.503 2.109 3.575 2.869 9.465 8.753 13.9 12.748l-.262-.121 5.321 5.145c-.835-.639-2.5-2.137-2.738-2.004l7.749 6.748c-4.416-3.744 2.296 2.763 4.004 4.768 1.063.491 4.103 3.112 1.55.232-2.847-3.261-1.933-1.623-4.731-4.378l4.383 3.481.293.381 2.736 1.997c5.33 5.382-3.197-1.482 4.026 5.021l-.391-1.396c7.872 8.02 17.51 18.789 23.356 24.171-1.835-1.263-2.978-1.485-1.121.917-2.334-2.508-7.217-7.354-10.736-10.779-.579-.757 4.933 3.744 8.597 7.624-1.005-2.65-9.985-8.99-9.595-10.268-9.319-9.902-7.973-6.365-15.641-15.013-.484.26-2.501-2.137-3.258-2.237 1.807 3.022 10.926 10.884 16.007 16.391-.546-.491-1.645-1.479-1.919-1.612 3.676 3.894 5.321 5.374 8.104 7.879l-.289-.377c4.983 4.255 2.58 3.136 5.135 6.019 1.108.998 4.781 4.886 4.446 4.004l4.569 5.277.179-.653c2.801 2.753 3.134 3.635 5.904 5.898l.488-.255-6.767-7.026c3.617 3.373 1.331.618 5.249 4.38-4.697-3.883 2.829 3.242 2.906 4.01l3.034 2.615-.821-.624a19.305 19.305 0 002.465 2.483l1.234 1.078c.503.461.805.739 2.021 1.98a394.92 394.92 0 01-.889-.968l-.537-.616-.959-1.114a92.436 92.436 0 00-1.896-2.141c-1.31-1.425-2.781-2.896-4.857-4.708 1.52 1.311 3.741 3.312 5.757 5.156l2.755 2.542 2.92 2.827c2.965 2.796 5.328 5.249 7.556 7.607-2.11 2-4.193 3.943-6.435 6.146 3.334-3.443 3.486-3.928 3.32-4.112-.174-.178-.641-.081 1.128-2.033-1.515-1.382-3.999-3.831-8.455-8.43.392.249 1.768 1.657 2.242 2.219-.409-.647-1.282-1.636-2.412-2.798l-.709-.72-.597-.58c-.418-.386-.855-.792-1.302-1.203-1.804-1.625-3.802-3.279-5.053-4.348.323.872-2.169-1.485 1.791 2.777-.587-.762.432-.049 2.058 1.372.813.71 1.778 1.598 2.771 2.566l2.225 2.233c.768.787 1.522 1.577 2.233 2.344l-.949-.363-.914-.328c1.724 1.752 3.446 3.505 5.199 5.258l-2.985 2.906.712-.767c-1.84 1.462-3.899 3.557-6.272 6.007-1.704 1.778-3.611 3.8-5.683 5.649-2.622 3.04-13.65 13.735-8.363 9.676-3.888 3.153-6.509 6.71-10.271 10.629l5.026-4.548c-5.24 6.079-3.881 4.178-7.743 9.375-.618.298-1.76 1.175-1.009.086-7.635 7.573-18.66 18.268-22.641 23.208-5.386 5.335-6.917 5.485-14.167 13.277-1.502 1.666 1.782-.687-3.365 4.124-.379.291 4.359-5.229-1.14.363-3.498 4.399-9.524 9.026-14.271 14.555-2.875 2.55-7.521 7.317-6.897 5.98 4.378-4.215 10.384-10.37 11.139-11.468-.377.809 3.265-2.847.265.484 6.765-6.225 3.994-4.436 10.005-10.078.259-.544-3.391 2.601-4.512 3.978-.515-.46 11.253-11.724 5.489-7.129-6.269 6.184-7.101 9.048-13.009 13.931 1.866-2.46 5.5-5.591 7.735-8.851l-4.63 4.237-2.866 3.57.12-.263c-8.277 7.385-6.742 7.745-13.504 14.997 4.397-3.721-.094 1.783 3.167-1.063-4.623 4.747-8.129 8.123-8.647 7.667 8.367-9.163-.019-1.014 7.599-9.604-1.505 1.156 1.217-2.643-3.667 2.133-5.093 5.789 2.034-1.222-3.231 4.366-.364.276-.741.565-.623.305-2.242 2.75-3.004 2.821-5.744 6.121l.618-.813c-4.02 3.428-3.738 4.409-7.267 7.292 1.645-.921-1.855 2.449-3.617 4.663 3.386-3.112 5.664-4.353 12.047-10.792.488-1.061-.14-.751 2.355-3.523l-4.133 4.203c.853-.946 1.464-1.705 2.23-2.587l4.151-3.854c-4.87 5.279-2.237 3.258-4.096 5.712-4.77 4.52-3.754 3.911-6.768 6.738-.126-.713-9.673 8.237-15.29 13.315l2.498-2.465c3.619-4.149-3.023 2.322-3.282 2.351l-2.621 3.041c.504-.562 1.143-1.396-.124-.249l-1.588 1.676-1.329 1.464c-.785.888-1.398 1.625-2.024 2.375-1.253 1.5-2.567 3.062-5.445 6.019-.184-.047.937-1.459 1.615-2.401.687-.95.952-1.452-.678.057-.514.326-1.526 1.008-3.057 2.277-1.545 1.284-3.566 3.116-6.448 6.094l-.046-1.756c-.125-.37-.195-2.65-.25-5.403.018.365.031.837.055.973l.355-6.675c.226 1.8.227 3.797.184 5.946-.043 2.134-.129 4.422-.076 6.38a50.786 50.786 0 002.246-2.514l.708-1.458c2.644-2.647 6.279-6.606 7.784-8.5-3.771 3.644-4.545 4.615-8.952 9.178-.143-.094.597-1.04 1.384-1.981.792-.945 1.645-1.899 1.859-2.139l-.805 1.231c2.35-2.039 4.366-4.235 6.33-6.439 1.981-2.221 3.975-4.515 6.858-7.328.875-.845.378-.293.258-.03 4.248-4.974 9.269-8.999 13.271-13.96l-1.264 1.659c2.87-3.231 8.483-9.551 14.094-15.864l-.099-.194c-.749.574 1.493-1.658 2.754-2.8l-.004.008 7.746-8.677a40.692 40.692 0 00-3.003 2.63c-.764 1.105-6.382 6.444-5.242 6.082-2.766 2.296-6.507 6.711-8.513 8.422 3.637-3.137-1.991 2.726-2.37 3.534-1.385.893-5 5.037-4.887 4.264-.755.582 1.882-1.444 3.125-3.083 3.239-3.854-6.766 6.224-2.64 1.512-2.694 2.927-5.918 6.216-9.154 9.536l-4.801 4.963-2.18 2.314-1.766 1.959 2.893-2.623-2.16 2.122-2.464 2.451c-1.611 1.597-2.987 2.93-3.132 2.914 1.592-1.67 3.441-3.51 5.391-5.592-.082-.291-1.213.841-2.395 2.06-1.18 1.216-2.438 2.547-2.491 2.37-1.546 1.879-3.257 3.923-4.897 5.563a6.865 6.865 0 01-.402-.715c-.005.572-.009 1.145-.009 1.707l1.522-1.493c-.403.496-.962 1.104-1.66 1.824-.029-1.699.021-4.268.085-6.931.058-2.596.118-5.356.173-7.78.341 1.447.363 3.306.323 5.656-.04 2.318-.144 5.188-.055 7.783l.71-.765c1.639-1.831 1.263-1.702.948-1.616-.33.102-.615.177.708-1.269-.259.142-.769.599-1.343 1.18-.005-.82-.056-1.574-.147-1.975l.131-1.643c.194.579.318 1.526.411 2.664l3.759-4.133c1.237-1.362 2.419-2.7 3.292-3.854-.21.309-.401.604-.461.772a48.45 48.45 0 001.705-1.503l.954-.902 1.357-1.335a196.916 196.916 0 005.232-5.409c-1.993 1.7-2.624 2.53-3.626 3.64-.246.017 3-3.328 4.119-4.702-3.382 3.111-.879.332-3.01 2.31 2.004-2.225 3.749-3.906 6.375-6.435 1.512-1.161-.863 1.348-.361 1.304 2.516-2.792 4.279-3.456 7.898-7.605-5.264 5.07.861-1.861 2.486-3.795l-.882.85c1.369-1.907 2.748-3.31 4.127-4.195-2.004 2.226-4.127 4.195-3.252 3.868 1.386-1.409 2.767-2.813 4.266-4.478l-1.24 1.636 6.885-6.999c.857-1.341 2.353-3.518 2.957-4.836 1.885-1.446 4.021-3.947 5.517-5.611l-.634.835c3.269-2.855 9.909-9.841 10.27-10.63 2.379-1.996-14.104 16.825 1.163 1.163 5.876-5.88 2.979-4.344 6.099-7.936 0 0-.12.26.258-.028 2.622-2.523 2.621-3.041 4.626-5.266-1.646 1.438-3.886 3.669-4.508 4.488.489-1.06 5.384-5.333 7.13-7.528-2.118 2.998 5.141-4.806 3.381-2.594 5.399-4.833 10.521-10.652 12.885-13.664 4.024-2.919 6.016-6.161 11.905-11.541-.882.85-2.371 2.504-3.642 3.656-2.862 3.562 6.022-5.655 1.398-.392 1.003-1.112-.111-.261-1.141.879-1.856 1.936-3.488 3.876-2.853 3.559l4.902-4.282-1.519 1.688 7.397-6.541c.119-.26-.622.307-1.001.598 8.271-7.894 17.275-17.375 24.414-24.399.115-.781 2.088-3.067 4.848-5.996l6.503-6.786a64.987 64.987 0 00-2.247-2.048l-.494-.414-.118-.095-.217-.193-.478-.427a50.213 50.213 0 00-1.716-1.463c1.818 1.25 3.157 1.589 2.413.434l.557.497.315.268.228.17 1.114.839c.831.645 1.856 1.509 2.718 2.432l-.129.119c-.31.151-1.106.778-1.648 1.146-.549.375-.842.487-.346-.19-2.142 2.254-1.945 2.274-1.177 1.786.74-.46 2.152-1.528 1.621-.629.767-.79 1.472-1.536 2.115-2.231a128.47 128.47 0 00-3.532-3.173l-.82-.709-1.119-1.001-2.148-1.905c-2.794-2.465-5.329-4.665-7.873-7.005l-.024-.258-4.444-4.002c3.386 3.517 2.654 3.906-1.598-.738l.569.513c-2.303-2.772-7.858-7.775-11.785-11.774l-3.011-2.363c-3.934-4.006-3.501-4.78-4.431-6.432-6.179-6.265-10.267-9.363-14.979-13.488-1.735-2.261-10.992-11.643-5.735-7.024-5.844-5.38-6.121-2.838-14.965-13.245l2.751 2.244c-9.255-9.15-22.885-21.769-26.857-26.276 4.307 2.483-10.567-12.422-11.311-14.952.252.66-3.273-2.729-3.886-3.124-.653-.863-1.813-2.226-3.336-3.379 3.409 3.768-3.45-1.596 3.771 4.905-4.085-2.86-9.037-6.854-16.612-14.491l.487-.259 5.904 6.131c-.333-.883 2.744 2.235 4.141 3.378-10.985-11.404 2.338.593-9.155-10.803-1.347-.864-.531-.247-3.602-3.126.706.693 1.186 1.039 1.208.928.012-.055-.092-.224-.339-.521a13.25 13.25 0 00-.48-.542l-.546-.571-.788-.491-.733-.436c-.497-.808-.543-1.059-.266-.93.271.123.845.608 1.447 1.132l.889.774c.404.365.759.678 1.011.879.504.402.596.358-.147-.604 4.712 4.126 12.522 11.624 11.572 9.722-3.521-3.695-5.367-5.095-7.249-6.542-.941-.724-1.891-1.458-3.063-2.498l-.925-.841-.946-.901a51.86 51.86 0 01-1.867-1.919l-.539-.943c-2.172-1.896-2.431-1.5-3.357-2.029-.134-.365-.648-1.052-1.917-2.387l-1.969-1.331.475 4.661c.164 1.432.354 2.837.623 4.256-.202-3.296-.188-5.278-.112-6.538l2.737 3.067c.982 1.063 2.09 2.17 4.078 3.937-.533-.378-1.85-1.561-2.942-2.43-1.106-.883-1.923-1.385-1.737-.684l-.335-1.082a774.56 774.56 0 00-.919-.68c.199 2.356.34 4.183.203 6.21l-.297-2.041c.092 1.097.087 1.941.043 2.763l-.089 1.208-.055.601-.053 1.249c-.137 3.383-.209 6.538.229 9.967.047-2.423.031-4.389-.049-5.885.235 4.475.183 10.088.094 14.952l.871 10.062c-.262-.088-.277 6.288-.695 3.211-.402 7.245.385 10.66.516 14.846l-.096 1.15-.057.501-.063.469c-.076.517-.117.613-.136.403a6.44 6.44 0 01-.012-.533c-.003-.219.019-.626-.001-.803l-.063-1.71c-.083-2.625-.188-6.268-.552-6.631a353.185 353.185 0 00-.1 7.692c-.004.34.007.585-.009 1l-.069 1.393-.13 2.758-.062 1.363c-.014.457-.024.91-.15 1.294a8.876 8.876 0 01-.942 2.285 9.139 9.139 0 01-3.395 3.337 9.274 9.274 0 01-4.198 1.175c-.346.007-.674.021-1.016-.033l-1.034-.236-1.979-.441-3.486-.741 3.361 1.031c.751.245 1.098.388 1.019.432-.239-.144-1.913-.604-3.958-1.139l-.37-.098-.249-.081-.508-.163-1.029-.326-1.883-.597-1.608-.15c-3.575-1.377-3-1.407.179-.669-3.465-1.169-7.817-1.858-11.256-3.468 3.037.747 6.423 1.808 9.448 2.774l4.177 1.328 1.718.515.737.204c.255.065.382.105.733.175-.344-.079-.454-.123-.667-.182a706.73 706.73 0 01-1.628-.486l-1.947-.608a107 107 0 01-3.288-1.113c-1.979-.707-3.609-1.357-5.343-2.038-3.469-1.362-7.357-2.844-15.303-5.137-.144-.218 2.621.325-.414-.643-7.073-2.112-2.052.09-4.364-.244 5.48 1.516 7.937 2.514 10.948 3.924l-1.529-.193c-.175-.208-3.574-1.294-4.533-1.745l-1.047.263c.594-.47-4.702-2.652-9.05-3.785 4.184 1.805 3.024 1.412 3.983 2.465-6.218-1.262-6.583-2.787-13.541-4.241.566-.032 6.496 1.691 1.458-.069-4.201-1.361-3.788-.718-6.657-1.465 3.337.511 2.638-.118 6.271.384 7.498 2.31 3.015.964 10.393 3.065l-6.054-2.384c6.362 1.929 4.789.892 5.371.867-10.659-3.94-8.395-1.831-15.314-4.17-3.464-.723 6.498 2.141 1.135.833-6.487-2.138-1.587-.146-8.963-2.248l1.296.159c-2.14-1.005-4.463-1.341-7.064-2.11-2.89-.751 2.669 2.752-9.028-.922.617.043.855.021.874-.037l12.729-.568a1967.788 1967.788 0 01-39.077-12.824c-2.97-1.843 10.001 2.431 9.279 1.796l6.201 2.152c-.461.235-13.138-4.05-7.684-1.646 11.124 3.255 16.008 5.244 26.713 7.853-2.995-1.853-13.846-4.232-20.46-7.029 2.845.961 5.29 1.638 7.672 2.265l-20.422-6.858-1.699-.321c4.878 1.649 8.251 2.796 8.68 2.965-6.484-2.136-12.117-3.424-12.739-2.961l1.149.388-2.411-.559a692.358 692.358 0 00-4.524-1.574zm76.355 188.073c-.377.183-.667.349-.871.506.21-.164-.074-.136.871-.506zm44.771-160.248c-.017.965-.011 1.926-.051 2.881a4.155 4.155 0 01-1.179 2.55 4.197 4.197 0 01-2.527 1.221 4.174 4.174 0 01-1.418-.083c-.462-.113-.904-.289-1.354-.432a41520.95 41520.95 0 01-12.191-4.04c3.661 1.488 7.082 2.88 9.683 3.98 2.411 1.008 4.373 2.021 5.201 2.147.396.094.467.169.125.253-.344.083-1.098.108-2.295-.269l-2.179-.604-1.376-.396-1.481-.446-7.817-2.444-1.671-.436c1.618.593 3.842 1.343 6.33 2.146l3.888 1.23c1.342.416 2.911.862 4.333 1.275.585.122 1.302.313 2.15.232a5.275 5.275 0 002.632-.945c.829-.594 1.556-1.469 1.874-2.542.172-.526.25-1.085.252-1.635-.008-.552-.097-1.093-.148-1.612l-.647-5.277c-.18-1.416-.308-2.298-.343-2.258-.174.801-.166 1.785-.128 2.932l.061 1.769c.016.533.02 1.103-.007 1.688l.283-.885zm2.084-6.274c.139-5.16-.137-3.986-.385-4.787l.094 5.422c.062-.685.15-1.023.291-.635zm-.633-4.477c-.006.58-.018 1.075-.051 1.333l.051-1.333zm-80.078-4.613l.51.146-3.524-1.178c.46.187 1.348.502 3.014 1.032zm9.8 3.747l1.305-.063-3.304-1.103c.311.315.647.61 1.999 1.166zm31.637 11.606c2.188.122 8.972 2.249 9.577 1.78.481-.017-.926-.528-2.509-1.084l-5.694-1.862c-.098.065-.525.019-1.22-.115 1.971.708 3.257 1.279 2.332 1.392-4.875-2.431-4.777-.887-10.257-2.852-1.899-.137 6.037 2.377 7.771 2.741zm101.987 163.109c-.155.078-.657.38-1.346.819l2.678-3.117c5.266-5.072 10.045-8.572 14.147-13.774 2.315-2.039 3.773-2.913 5.128-3.786a155.138 155.138 0 01-2.972 2.815c-12.238 13.848-7.649 5.951-17.635 17.043zm60.209-58.64c-.506.561-.625.824-.625.824a617.318 617.318 0 0114.243-15.86 526.714 526.714 0 015.988-6.326 321.975 321.975 0 014.758-4.85l-.81-.814c.081.182.259.456.524.814-2.411 1.904-5.99 5.09-8.595 7.467l1.981-2.719c-.018.019.488-.343.808-.518l.737-.446 2.616-3.288c-.655.408-1.524 1.178-2.453 2.024l-1.41 1.277-.889.8-.932.81c-.121.262-6.743 7.744-8.487 9.942l5.89-5.38c-1.625 1.419-9.015 8.979-11.885 12.037.127.243 5.521-4.58 5.762-5.624.882-.334-5.004 5.558-.986 2.128-4.12 4.705-11.386 11.482-14.779 14.604l-1.013.091c-3.753 3.395-1.858 2.971-6.372 6.95 5.131-5.311-1.388.377 2.73-3.811-1.5 1.152-.515-.46-4.641 3.735-2.854 4.074-4.769 4.004-7.505 7.816-2.378 1.997 1.987-2.722-2.399 1.502-4.617 5.258-4.102 5.202-3.963 5.952 4.741-4.492 4.609-5.765 8.493-9.433l-6.75 8.271c1.492-1.276 2.527-2.29 3.356-3.18-1.465 1.553-2.634 2.948-3.576 4.2l-1.508 1.96c4.261-4.253 8.052-8.022 8.909-8.501l-.371.802c1.704-1.309 4.006-3.92 4.98-5.21 3.788-3.835 7.295-7.942 8.406-8.496l-1.249 1.644c4.628-4.748 5.124-5.297 11.017-11.194zM290.511 127.048c2.05 3.629 4.482 7.458 17.872 20.571l-1.098-.988c6.182 7.173 13.676 12.365 21.25 21.04-4.24-3.645-4.001-3.459-9.035-7.131l4.453 4.006c-1.602-.742 2.841 3.255 5.924 6.379l-3.251-2.228c-1.716-2.01-6.492-6.893-6.467-6.634 1.114 1.001-5.73-7.021-9.918-10.911.07.762 8.736 9.148 4.363 5.907 3.593 3.118 3.664 3.88 7.293 7.266-3.602-3.126-1.305-.36-4.062-2.612l5.869 5.633c.035.265-8.632-8.12-4.346-2.981 2.486 2.123 8.411 8.503 8.895 8.241l.027.256c4.229 4.392 2.424 1.369 7.505 6.875.25-.125-.63-1.264-2.565-3.122-1.686-1.52-2.188-1.509-5.541-4.758-1.188-1.772 3.945 4.018 2.146 1.233-.893-1.384-8.928-8.503-5.958-6.643l4.223 4.383c.483-.263 3.578 2.875 3.792 2.486 2.769 2.494 4.831 5.397 7.844 7.76 1.356.875-.143-1.522 4.108 3.119 2.922 4.026 13.267 14.156 17.18 17.912l3.594 3.117c-.057-.515-6.442-6.38-3.99-4.523l5.322 5.143-.547-.26c1.702 1.766 3.63 3.385 5.294 4.885-1.899-1.361-5.563-5.241-5.202-4.103 2.38 2.533 2.609 3.052 4.945 5.238-.521-.466-.984-.852-.976-.735 4.804 5.142 5.236 4.367 6.61 5.488 5.506 4.494-4.57-5.509-3.53-5.271l14.812 14.384c-1.373-1.12-2.754-2.25-2.443-1.62 3.401 3.76-.22.383 4.825 5.392.174-.89 6.662 5.999 10.521 9.242 1.441 1.877 1.738 2.262-1.896-1.36.07.762 5.074 5.5 6.775 7.263 1.089.917 2.85 2.579 4.011 3.586-1.28-1.625-.444-1.221 2.849 1.777l.267.122c-5.084-5.273-12.705-13.648-16.296-16.532l1.085.743c-5.67-6.266-13.607-12.367-15.707-15.771.512-.004-1.14-1.258-.663-1.527l-4.686-4.103 1.083.745-7.56-7.391.268.128c-3.899-3.205-6.956-5.715-9.397-7.721-.171.154.01.436-1.294-.629a42.085 42.085 0 01-2.965-2.822c-.007-.005-.007-.005-.009-.004l.002-.002c-1.786-1.881-2.774-3.337-4.938-5.69l6.99 6.91c.843.29.538-.587-2.674-4.187 1.402 1.382 2.201 1.75.509-.006-.261-.117-4.73-4.378-3.287-2.495-6.704-6.502-16.668-17.916-27.218-27.416 7.519 6.887-5.401-6.142 2.707 1.74-5.139-6.022-5.237-4.367-10.857-10.125-.326-.644 3.077 3.118 4.697 4.112-9.282-9.636-16.674-15.246-25.69-24.53l-.047-.736a6431.859 6431.859 0 00-5.797-5.515zm-19.656-18.797c-1.031-.989-2.063-1.978-3.125-3.039l.108 4.035.014-.774.393 8.532c.096-2.271.277-3.896.466-4.07.188-.184.385 1.026.51 4.12-.202-.792-.448.715-.566-1.624-.292 3.743-.575 13.65.161 11.103-.696-8.342.938-1.382.421-7.668.24 1.841.306 3.372.339 4.883.014.747.027 1.489.042 2.223l.035 1.117.062 1.245c-.4-3.436-.909.8-1.101 5.961.118 2.246.005 8.325.2 12.058.449-1.331.707 1.919.82-4.163a85.877 85.877 0 01-.02 9.552c-.076-1.534-.133-4.215-.295-4.03-.414 2.496-.396 5.419-.573 7.033l.072 3.848c.04-.377.091-.704.155-.937l.396 4.274c-.211-5.693.209-2.631.473-2.558-.527-.153-.068 3.665-.051 5.614l.557-4.233c.279 2.046-.402 7.224.148 6.155.221-8.981.127-12.435-.039-20.556l-.434 3.297c-.306-9.164.742-5.652.722-15.935-.099-1.068-.149-2.569-.184-4.223l-.077-4.53c-.057-2.552-.162-4.845-.559-5.387.121.654.297-.476.398-2.028.101-1.572.127-3.592-.053-5.382a29.592 29.592 0 01-.156-1.193c1.978 1.151 8.364 7.387 6.236 4.829-1.045-1.052-2.239-2.108-3.362-3.176-1.132-1.076-2.206-2.176-3.264-3.566l4.021 3.808-3.016-3.573c1.553 1.751 1.234.886.126-1.042zm-55.67 57.136l-.224-.082.252.082h-.028z"/><path d="M267.223 406.714c-.18-1.642-.15-6.897-.539-5.254.428-.831.066 9.311.539 5.254zm.416-6.749c-.102-.178-.264.333-.279-1.893l.108 5.954.171-4.061zm2.912-8.893a26.853 26.853 0 01-.363-2.731 33.19 33.19 0 01-.088-1.742 74.706 74.706 0 01-.017-2.503c.52-.871.593 1.204.656 2.626.063 1.61.119 3.566.604 3.728a34.86 34.86 0 00-.087-3.326 37.898 37.898 0 00-.132-1.36l-.078-.664-.083-.93c-.226-2.45-.476-4.722-.519-8.03-.109.819-.206 2.271-.278 3.992l-.087 2.737-.041 2.754c-.016 3.105.118 5.786.513 5.449zm1.314.838l-.234-2.438-.061.329.234 2.46zm63.295-45.629c.515-.055 2.26-2.252 3.262-3.365-.875.844-2.138 1.987-3.262 3.365zm-206.521 28.561l32.438-10.621-32.438 10.621zm285.104-110.146c-6.263 6.696-8.746 9.971-15.248 16.675 4.572-4.11 7.259-7.157 9.772-10.029 1.257-1.437 2.471-2.828 3.854-4.287a71.002 71.002 0 012.232-2.253l1.806-1.733 2.074-1.934-2.386 1.921-1.576 1.257-.528.383zm-.453 4.117c-.753.321.37-1.056 1.524-2.435l.431-.514.213-.254.348-.389 1.169-1.338c.622-.738.864-1.109.388-.791l-2.118 2.214c-.383.42-.617.694-.833.953-.414.501-.608.789-.795 1.061-.373.544-.713 1.019-2.713 2.981l2.386-1.488zm-36.516 22.214l1.74-2.19-1.5 1.664zm23.552-60.037l.814.618-3.112-3.386zm1.629 1.234l-.815-.616.815.616zm-23.584 55.35l-3.013 2.828-1.245 1.644zm28.097-23.455l-2.474 2.751c.492-.545 4.245-3.942 2.474-2.751zm-25.802-53.157l-3.344-3.012.282.367 3.334 3.003zm23.24 36.743c1.473 2.137-5.302-5.123-1.883-1.115 3.356 3.252 2.189 1.738 1.883 1.115zm-36.097-40.609a22.53 22.53 0 00-1.364-1.267l1.364 1.267zm0 0c1.384 1.384 2.642 2.896 3.687 3.749-1.576-1.876-2.261-2.448-3.687-3.749zm-15.938-15.782l1.231 1.279c-1.446-1.118-.813-.535.463.479 1.342 1.319 1.372 1.139 1.602 1.225l.947.688-1.211-.97c-2.057-2.064-3.33-3.305-3.032-2.701zm-53.31-64.519c4.512 4.759 5.651 6.018 5.141 6.024 4.318 4.483 4.08 3.355 6.838 5.906-5.03-4.928-5.929-6.065-11.979-11.93zm11.978 11.931l1.759 1.717a50.3 50.3 0 00-1.759-1.717zm57.047 73.947l-3.276-2.486 1.112 1.003zm-75.775-92.888c.844.876 2.233 2.243 2.821 3.007.507-.01-3.663-3.88-2.821-3.007zm12.817 22.941c.313.628 3.373 3.5 4.52 4.768-1.699-1.765-2.634-3.652-4.52-4.768zm-33.96-41.954c1.518 1.55 3.82 4.201 2.915 3.723 2.009 1.756 4.947 3.782-2.915-3.723zm25.534 33.436l.575.749 3.338 3.007zm7.503 15.128c3.876 3.26-4.917-6.403 1.489-.52-7.604-8.249.172 1.044-5.626-4.853 3.321 3.528 4.609 5.596 4.137 5.373z"/><path d="M299.569 143.964a73.125 73.125 0 00-1.595-1.648l1.595 1.648zm-29.707-13.935a33.323 33.323 0 00-.148-1.695c.036.576.081 1.127.148 1.695zm10.779-4.485l5.81 4.885c-.97-.816-2.258-1.991-3.643-3.278-.69-.646-1.407-1.317-2.122-1.984l-1.063-.998-.188-.172-.13-.113-.254-.22c-1.346-1.162-2.281-1.877-2.165-1.301.584.678 1.2 1.28 1.813 1.806l.229.193c.089.077.104.078.319.277l.976.873c.614.538 1.147.981 1.558 1.292l-1.14-1.26zm-19.473 46.687l-.258-3.268-.076 4.08c.098-1.168.576.946.334-.812z"/><path d="M260.821 173.832l.014-.789a6.62 6.62 0 00-.014.789zm8.724-56.687a73.482 73.482 0 00-.088-5.972c-.123.513-.237 5.896.088 5.972zm-10.25 61.068l.222.065.241.071.074.016.39.083c.277.059.538.105.538.105s-.29-.072-.586-.153l-.45-.125-.878-.271.449.209zm-23.653-8.666l-.85-.399-4.333-1.13.864.403zm31.579 21.071a8.895 8.895 0 003.213-2.046 8.365 8.365 0 001.686-2.403c.633-1.451.578-2.214.327-1.6 0 0-.2.599-.675 1.428a9.405 9.405 0 01-5.41 4.257c-.919.275-1.553.326-1.553.326 1.36.069 2.081-.181 3.088-.703.5-.274 1.073-.645 1.771-1.23a10.868 10.868 0 002.278-2.681s-.169.381-.498.918a9.83 9.83 0 01-4.227 3.734zM85.465 170.301c-.342-1.584-.144-9.338.181-9.744.141 1.042.276 5.246.483 2.605l-.84-6.135c.523-8.16 1.104 6.203 1.4 10.233.108-8.313-.444-10.777-.44-19.621a50.427 50.427 0 01-.465 5.634c-.295.15-.377-1.834-.392-4.593l.016-12.125c-.257 6.692-.473 2.847-.705-2.484a32.45 32.45 0 00-.092-2.051l-.083-1.831.001 1.351c-.066-.144-.146.091-.256 1.007.043 2.428.044 4.671.022 6.799l-.049 3.105-.016.67-.018.381-.037.746c-.103 1.961-.228 3.701-.232 5.292.961-3.144.222 10.836.518 14.836l.095 4.619.002 1.728c-.105.347-.238-.145-.428-2.779.189 2.199.123 9.532.432 8.855l.014 16.736a15.37 15.37 0 01-.157 1.428c.061.58.11.677.159.601l.025 30.343.013 15.171.006 7.585.003 3.793.002 1.896v.948l-.001.309-.003.108v.011l2.022.098 2.185.136c.618.036 1.234.088 1.849.158l-6.081.13.019 12.229c.076-3.597.293-6.709.399-10.418.375 3.263.349.611.386-1.811l5.277-.13a41.951 41.951 0 00-2.557-.2l-1.546-.097-.773-.04-.38-.017v.003l.004-.054.01-.18.017-.516c.013-.38.03-.72.055-.984.048-.529.125-.76.25-.422.035.394.062.817.083 1.26l.026.639.006.201.001.075v.002-.002h.014l.213.01 1.703.101 1.492.094c.46.033.92.076 1.38.127l-4.816.13a70.452 70.452 0 01-.124 5.708c.305.813.574-2.296.939-1.938.059-1.432.074-2.675.057-3.771l3.944-.13a34.13 34.13 0 00-2.206-.177l-1.34-.088-.339-.02-.043-.002v-.051l-.001-.181-.015-.442-.045-1.014a55.17 55.17 0 00-.134-1.851c-.104-1.174-.233-2.251-.353-3.376-.24-2.251-.446-4.695-.353-8.49.365.356.685 3.135.635-2.75l.079 1.496c-.409-9.423.826-7.342-.176-13.274l.527.156c-.397-4.274-.4-12.591-.473-17.277l.102.28c-.604-13.147-.128-7.38-.381-22.143l.615 6.794c.254-5.093-.415-6.241-.346-9.897.102.262.487-.586.583 2.867l-.938-17.913c-.396-4.273-.386.869-.61 1.535z"/><path d="M86.249 147.639c.028-.948.04-2.025.02-3.297l-.02 3.297zm-1.626 125.963l-.006-5.122c-.032 1.587-.042 3.241.006 5.122zm17.799-145.706c-5.605-2.064 4.713 1.096 3.982.651l-18.945-6c.243.29-1.521-.031-.947.346l15.91 5.003z"/><path d="M84.14 124.244c.142.906.268 3.328.388 5.945l-.002-8.571 2.933.928c-.143-.163-.913-.517-3.236-1.342l-.083 3.04zm10.841 11.936l.018 1.273.157 2.001zm-.893 26.885c.308-2.353.074-6.815-.004-8.308.01 5.143-.108 2.915.004 8.308zm3.3-6.356l.174 4.958.061-.463zM86.706 311.463l.035 2.423a64.547 64.547 0 00-.035-2.423z"/><path d="M86.194 268.925c-.589 11.825-.494-7.748-1.25-4.032l.252 6.435-.203-.548.068 7.849c.348-1.61.369-2.82.735-2.47-.141 10.477-.433 3.303-.892 10.989l.069 11.71-.11-.947c.008.985.054 1.422.114 1.76l.235 39.465c.292 7.18.656-3.972 1.196 1.324-.004-8.322.382-20.688-.346-21.396.101.28.302.83.388-.856l-.601-4.813-.191 4.59c-.599-4.84-.469-20.468-.098-23.294.206 8.887.925 4.427.536 16.809.185-.557.509-2.823.611-.035-.216-14.509.113-27.512-.513-42.54zm40.121 106.055l-.089.098c.239-.113.312-.164.089-.098zm-4.669 1.387l-6.524 2.818 10.491-3.388.612-.72c-.891.415-4.498 1.826-5.985 2.093l1.406-.803zm-14.219 5.714c5.362-1.925 4.889-2.394 1.848-1.711 4.9-1.842 2.821-.229 6.064-1.912-.241-.37-6.308 1.816-7.696 2.339l-.216 1.284zm-21.61-29.794l.244 1.601.065-3.944zm.244 1.601l-.065 3.915c.182-.271.359-.538.482-1.177l-.417-2.738zm-.233 14.19l-.056 3.98-.035 5.434.091-9.414zm.15-4.478l-.077.133-.072 4.345.149-4.478zm.018-5.797c-.413.637-.847 1.381-.731 7.042l.635-1.112.096-5.93zm10.769-165.038l.234 4.477.064-.474-.234-4.474zm-.377 25.835c.073 1.107.149 1.946.227 2.708-.045-1.166-.114-2.093-.227-2.708zm2.823 19.205c-.416 5.267-.55-7.265-.734 2.488-.387.859-.886-3.712-.693-8.305.364.365.233 4.475.605 1.651-.421-3.05-.134-4.209-.683-3.146-.342-5.131-.732-5.702-1.09-9.185.242 6.203-.322 19.226.383 27.098.66 4.339 1.561 1.708 2.514 1.725.223-.654.329-11.902-.302-12.326zm.951-8.287c.047-2.438.009-3.182-.07-4.678-.327.404.055 2.709.07 4.678zm-7.196 56.014c.136.465.305 4.875.539 3.927l-.172-6.685c-.023 1.569-.188 2.122-.367 2.758z"/><path d="M93.259 279.842l.074 2.933c.011-.734-.008-1.64-.074-2.933zm-.377 6.008l.084-.318c-.028-.094-.058-.076-.084.318zm-.271 100.845c-.302.371 4.912-1.447 7.437-2.33-2.077.636-4.93 1.451-7.437 2.33zm111.853-36.567l2.571-.598c-.924.163-1.397.249-2.571.598zm36.5-19.076c.058-.071.23-.171.467-.289-.24.111-.4.206-.467.289zm.467-.29c1.649-.751 7.043-2.107 8.846-3.026l-.211.173 3.481-1.311c-3.31 1.081-10.29 3.253-12.116 4.164z"/></g><g fill="#202020"><path d="M410.243 273.791c2.016-2.094 4.027-3.666 3.353-2.795 3.919-4.451 4.312-4.237 4.338-5.295 2.433-2.939 5.648-5.454 2.802-2.189l3.694-4.009.323-.35.859-.298a2.25 2.25 0 001.047-.726c.3-.37.422-.724.474-1.14a2.047 2.047 0 01-.599 1.021 2.142 2.142 0 01-1.008.511l-.66.143-.654.62-.758.717c.109-.223.32-.513.614-.86l.149-.177 1.261-.628c.352-.176.662-.327.964-.689a1.83 1.83 0 00.407-1.334l-.032-.321.032-.305c.086-.81-.391-1.326-.743-1.293.32.311.489.742.449 1.264l-.028.381.026.304c.071.83-.335 1.478-1.149 1.708l-.959.271-.589.608-.249.257.168-.339 1.603-.9.054-.113-.073.038-1.515.798-.114.132c-1.782 2.062-5.405 5.56-6.726 6.762.134-.273-.11-.259 1.355-1.75-10.154 10.089-1.977 3.477-10.233 12.018a43.752 43.752 0 012.117-2.042zm-9.647 7.549l-2.993 4.068-6.062 5.785c.118.253-4.047 4.717-.962 1.959.542-.601 1.616-1.784 2.545-2.68-.26 1.063-7.677 8.077-5.53 6.743 4.578-4.791 5.386-5.422 7.943-8.631 4.332-4.258 7.552-7.293 9.703-9.151 1.214-1.336 1.146-1.761 2.718-3.43l-1.085 1.115-.778-.428c-1.224 1.478-2.561 2.694-4.047 4.205l6.229-7.638c-2.801 1.671-9.282 8.815-12.238 11.303 3.884-2.867-2.436 2.942 4.557-3.22zm7.362-5.336l.168-.172-.168.172zM79.589 134.903c-.016-2.085-.217-2.7-.319-3l.021 23.474c.224-.735.5-7.496.635-2.979.248-2.015.034-8.152-.269-9.042l.342 1.701c-.439-5.408.42-9.103.68-5.576l-.005-.456-.844-7.49-.157-1.397-.077-.685-.05-.833-.151-3.159-.054-1.303c-.025-.397-.026-.733.014-.988.066-.524.146-.821.146-.821-.139.411-.23.799-.29 1.163l-.038 1.1a41.778 41.778 0 00.086 4.342c.019.435.066.703.104 1.054.039.346.077.729.109 1.178.065.899.111 2.061.117 3.717zm325.381 92.295c-2.206-2.095-2.527-2.302-2.342-2a55.001 55.001 0 002.342 2zM81.783 118.406s.278-.277.751-.625a8.289 8.289 0 011.879-1.039 8.475 8.475 0 012.069-.523c.577-.065.961-.063.961-.063-2.512-.066-4.608 1.131-5.66 2.25zm4.832 34.643c.028.01.053.06.09-.063l-.27-2.106v.054c.067.774.126 1.471.18 2.115zm100.348-7.234l1.479.431a50.165 50.165 0 00-1.479-.431zm-97.322 70.822l-.509-10.436c.24 1.391.167-3.644.447-1.445-.038-.795-.134-4.524-.257-3.507l.016 2.129c-.701-5.503-.969-2.17-1.503-11.294-.414 5.665-.034 8.148.286 11.149l.097 2.731.979 8.677.444 1.996zm209.69-89.461l-.119-.042c.088.06.114.061.119.042zm-.599-.207l.48.164c-.475-.317-2.07-1.76-.48-.164zm-218.18-6.6c.012-.229.316-1.014 1.231-1.962 0 0-.872.799-1.44 1.815-.603.999-.843 2.127-.843 2.127a7.34 7.34 0 011.052-1.98zm.021 9.863l.101 8.792.364 3.241c-.139-3.364-.234-7.299-.465-12.033z"/><path d="M173.851 141.224c17.391 5.405-4.513-.568 3.402 2.151 4.849 1.437 6.667 1.604 9.709 2.44-13.869-4.05 2.255-.634-11.692-4.843 2.188-.047 10.247 2.443 14.9 4.12 5.127 2.341-4.811-1.003-6.221-.75 5.605 1.662 4.662 1.232 7.141 1.62 8.701 2.927 18.354 4.945 23.293 7.503 6.378 1.866 6.06 1.423 9.81 2.236.946-.465-9.303-3.353-11.476-4.645.467.213 1.378.631 1.073.642l-5.429-1.883c5.12 1.891-.942.465-3.738-.361-2.025-.627-6.051-1.871-5.438-1.887l3.106.821c-3.868-1.469-8.849-2.25-12.888-3.945-.168-.225 1.429.201 1.698.18-4.81-1.004-9.295-2.458-16.299-4.31l4.217.579c-5.759-.988-18.184-5.168-26.714-8.318.923.421 2.628 1.052 1.547.856-5.138-1.449-8.829-3.141-6.358-2.756-5.149-1.004-18.776-6.487-25.782-7.892l-16.12-3.187-11.083-2.191-5.133-.948-1.445-.267c-.331-.064-.485-.021-.489-.035 1.655.239 3.532.738 5.447 1.186 1.147.45 1.558.73 2.028.969.436.234.716.395.753.478s-.169.087-.705.008l-1.063-.182-2.083-.38 2.04.432c.443.092.813.16 1.14.213l1.689.245c1.11.171 2.514.476 6.175 1.624-2.965-.606-3.911-.142 3.073 2.153 17.707 4.952 29.861 6.916 46.499 11.227.456.658 13.341 4.602 19.548 6.692-2.542-.255-7.219-1.583-12.059-3.006l12.043 3.895 1.884-.484z"/><path d="M132.682 129.886c.424.181.87.348 1.328.517-.235-.117-.63-.275-1.328-.517zm25.784 7.447c-.066-.001-.049.02-.077.032l1.537.448-1.46-.48zm-73.018-18.986c-1.178.423-2.03.909-2.874 1.852.529-.565 1.342-1.134 2.214-1.47.822-.33 1.237-.417.66-.382zm-4.231 1.565s.083-.178.179-.347c.091-.173.197-.337.197-.337a7.233 7.233 0 00-1.041 1.141c-.005.213.133.108.665-.457zm157.627 46.573l1.696.427c-1.005-.31-1.449-.406-1.696-.427zm-45.908-18.334c-6.051-1.87-.942.467-9.484-2.24l2.493.838c-6.222-1.646-16.947-5.2-24.236-7.486.91-.017-4.308-1.738-3.32-1.898-5.009-1.478-9.968-2.946-12.672-3.315-3.037-1.123-7.845-2.218-11.707-3.646 1.572.786-5.86-.89 3.78 1.819-.781-.209-.317.004-1.089-.201 6.03 2.313 8.69 2.479 13.986 4.15 3.083 1.26-5.308-1.228-2.354-.177 6.687 1.858 20.645 6.891 20.514 5.785 4.832 1.458 5.429 1.882 6.807 2.515 7.937 1.384 28.102 9.402 28.45 8.063-2.795-.83-7.313-2.294-11.479-3.305l.311-.902zm-95.945-27.245l1.171.386-1.171-.386z"/><path d="M76.085 187.248l-.904-2.648c-.219-15.081.034-20.533-.004-33.719.124-1.007.202.592.243 1.403l-.052-15.89-.023-4.021-.021-1.923-.013-.932c-.011-.101.018-.45.03-.695l.046-.793.321-5.954c-.015-.492.15-.843.268-1.235.13-.381.274-.75.436-1.103.322-.705.694-1.35 1.094-1.924a11.324 11.324 0 013.574-3.09c1.589-.888 3.478-1.361 5.042-1.392.391-.015.761-.002 1.106.021l1.023.291c.621.181 1.108.332 1.413.439.611.214.492.253-.726.019l3.829.838 1.015.233.513.12c.161.039.379.087.443.112l1.174.376c.08.11-.102.101-.423.029l-.569-.148-.334-.097-.607-.144c-1.648-.391-3.403-.816-3.482-.703 2.152.556 2.966.823 3.487.848-1.838-.314-.955.186-1.692.242-.362.029-1.111-.049-2.733-.384l-1.389-.302c-.537-.161-1.08-.182-1.703-.142-1.24.064-2.811.361-4.478 1.301-1.362.616-1.46.658-.956.194.51-.439 1.761-1.201 3.218-1.58a10.522 10.522 0 012.171-.353c.345-.023.672-.025.973-.021.313.042.611.123.864.164 1.014.19 1.431.178.46-.271-.685-.145-1.311-.39-1.771-.336-.479.01-.882.042-1.219.096-.673.105-1.08.245-1.335.351-.507.227-.422.318-.614.431-1.584.491-2.643 1.192-3.376 1.732-.731.554-1.15.977-1.428 1.226-.542.513-.516.357-.48.142-.359.552-.933 1.405-1.4 2.513-.213.569-.487 1.126-.546 1.847l-.148 2.269a221.33 221.33 0 00-.263 4.557c.009.97.072 1.663.167 2.261.066 8.44-.629-.459-.618 5.054l.848 3.177-.159 9.166c.301 13.269 1.465-1.898 1.947 13.268-.443-1.993-1.185 4.09-1.36 11.149-.032-4.223-.586-12.029-.335-17.482-.663 7.686-.082-10.579-.841-6.59.36 3.799.41 10.132.217 15.071l-.078-1.619c-.089 5.253.798 9.229.461 16.478.028 3.602-.211 2.927-.41 2.294.128 3.045.294 5.77.107 5.779zm-.179-7.847l.083-4.819c-.14 1.144-.135 2.94-.083 4.819zm277.111 149.674l1.084-.986c-.255.198-.659.578-1.084.986zm-266.818 34.36l-.028 2.791a82.84 82.84 0 00.028-2.791zm28.498 12.68l3.827-1.422a48.56 48.56 0 00-3.827 1.422zm214.745-23.547l-.101.092-.423.486.524-.578zm-94.384-12.56a35.3 35.3 0 002.222-.509c-.134-.046-.961.154-2.222.509zm-121.066 36.37l.24-.06.464-.203-.704.263zM88.671 335.84l-.084-1.787c.016.842.048 1.359.084 1.787zm-2.403 3.934a43.492 43.492 0 00-.084-1.735l.084 1.735zm1.67-96.52l-.123-3.757c.014 1.847.062 2.949.123 3.757zm-1.115 86.576c-.039-.219-.077-.438-.115-.583.026.519.076.766.115.583zm284.865-15.854l-.159.163.003.138.156-.301zm5.588-7.334l2.285-2.384a60.598 60.598 0 00-2.285 2.384zm-115.123 62.773c-.123.995-.27 3.33-.41 2.24.177 1.904.606 1.777.41-2.24zm100.333-38.735c.343-.504.808-1.093 1.275-1.682-.896 1.071-1.687 2.006-1.275 1.682zm1.275-1.681c.439-.532.91-1.1 1.305-1.576a53.392 53.392 0 00-1.305 1.576zm-108.643 17.139c.058-.18.105-.44.121-.766-.115.179-.14.436-.121.766zm126.425-43.669c.276-.562 10.116-11.022 1.506-2.559-.115-.773 5.271-5.683 7.438-8.069-1.758 1.549.536-1.107-.124-.765-1.075 1.183-2.29 2.652-4.188 4.487-1.061.654 1.633-2.315 3.92-4.45-2.959 2.489 3.104-3.81-.932-.134-8.085 8.398-13.748 14.385-18.894 20.83 4.591-4.805 9.714-10.192 13.746-13.867l-1.235 2.004c-4.693 4.018-7.129 6.958-11.448 11.206l9.826-9.418c4.827-4.188 1.886-1.099-1.598 2.524.88-.869 1.693-1.636 1.983-1.789zm-3.108 9.858l.173-.15c.127-.154.293-.339.366-.444l-.539.594zM76.929 243.95l-.206-1.169c.093.976.158 1.277.206 1.169zm293.903 72.254l.007-.007a.59.59 0 01-.007.007zM76.865 273.03c-.014-.042-.03-.083-.047-.155.017.104.033.104.047.155zm11.729 7.774c.025-.054.049-.069.074-.196-.03-.621-.055-.32-.074.196zm-11.678-7.752c-.017 0-.033.02-.051-.021.018.021.035.071.051.021zm29.763 116.188s-.454.046-1.152.173c-.244.131.033.104 1.152-.173zm-26.803-1.678l.036-.665-.036.665zm184.726-24.75c.008-1.381-.006-2.417-.029-3.292a67.593 67.593 0 00.029 3.292zM76.818 272.875a16.441 16.441 0 01-.19-1.392c.078.754.138 1.153.19 1.392zm69.599 100.875l-.8.316.495-.129.305-.187zm14.007-4.025c-.456.209-.654.34-.903.478 4.888-1.788 14.067-4.443 14.97-5.337-1.678.548-10.499 2.99-9.116 2.195-3.411 1.234-8.64 2.468-10.472 3.148 5.767-1.498.761.271-3.009 1.672-3.533.943.514-.652-2.517.197l-8.037 2.617 7.041-2.153-1.964 1.207.7-.277c11.795-4.014 1.255.456 13.307-3.747z"/><path d="M159.521 370.203a33.28 33.28 0 00-1.861.733c1.118-.364 1.535-.555 1.861-.733zm48.789-14.517l2.075-.752-2.075.752zM80.947 148.513c-.164.219-.5 7.477-.072 7.347l.133-6.504-.061-.843zm181.341 272.241a5.052 5.052 0 01-1.859-1.205c-.134-.083-.245-.178-.344-.239.114.221.442.588.878.874.43.292.959.488 1.325.57zm-94.836-54.563c-1.249.465-1.792.708-2.077.87.811-.293 1.552-.586 2.077-.87zm94.775 56.024a6.003 6.003 0 001.672.345c.538.035.965.002 1.061.052 1.076-.313 1.84-.893 2.504-1.665.689-.743 1.363-1.489 2.158-2.314-.909.898-1.882 1.936-2.978 2.853a5.071 5.071 0 01-4.417.729zm7.523-3.719l-.129.136.129-.136z"/><path d="M81.127 144.195l-.09-1.93.114 1.004.129-4.993-.069-2.056c.015.323.061.574.108.729l.049-1.6c-.111-.994-.214-2.358-.312-3.889-.046-.783-.101-1.535-.135-2.436l-.077-2.842c.003-.956-.119-1.938.074-2.803.173-.879.539-1.68.993-2.332.912-1.329 2.136-2.001 2.875-2.317a6.291 6.291 0 013.315-.345l3.506.913 1.705.461 1.335.405 2.342.743c-1.287-.412-2.757-.861-3.852-1.148-1.29-.317-2.007-.441-1.416-.144 1.63.527 2.577.951 3.694 1.399 1.08.442 2.135.878 3.316 1.324 2.363.893 5.23 1.83 9.813 2.953l-5.267-1.661 12.123 2.849c4.027 1.691-6.05-1.422-7.797-1.617 9.346 2.474 16.623 6.096 21.139 6.665.453.656 1.216 1.752 7.27 3.623-4.186-1.913 3.729.808.337-.894 2.171.396 6.684 2.305 7.142 2.067l-.626.014c10.079 4.009 13.822 3.925 18.354 4.945 12.408 3.728 17.984 5.829 28.08 8.946.297.437 2.767 2.165 6.818 3.414 2.012.174 11.188 2.87 12.29 2.625-7.152-2.517-6.054-1.422-10.418-2.667-3.419-1.709-.148-.664-4.957-2.563 3.898 1.479 18.022 5.393 22.2 7.304l-1.558-.413c6.834 2.524 7.735 4.281 19.549 7.139l5.619 1.418c-.283-.03-.333.023-.49.027 4.504 1.46 6.091 2.148 7.818 2.806 1.775.674 3.514 1.261 7.827 2.362-.658-.167-.202.042-.884-.134a60.126 60.126 0 004.584 1.526c-.043-1.917-.15-3.822-.259-5.529-.108-1.713-.217-3.233-.264-4.556.236-1.366.353-1.209.452-.488.101.736.184 1.827.354 2.696.046-2.375.029-5.177-.029-7.78-.06-2.637-.162-5.237-.288-7.713a341.66 341.66 0 00-.888-12.664l.277-6.758c.195 4.008.694 8.906.98 7.683-.096-3.716-.318-2.997-.229-8.253.303.896.585 3.102.965 5.573.506-10.87-1.072-2.43-.145-10.037.007-3.415-.436-5.398-.801-5.772l.479-6.188c-.232-.344-.355-2.425-.429-5.046-.07-2.637-.118-5.702-.081-8.492-.087-.359-.223.694-.333 2.152a28.995 28.995 0 00-.09 2.17c-.006.692.009 1.338.054 1.813-.178-.204-.326-1.574-.395-3.457-.021-2.071.031-4.63.103-6.611.11-.11.203-.591.279-1.326.045-.745.244-1.624.801-2.611.554-.958 1.489-1.923 2.717-2.472 1.212-.568 2.675-.701 3.95-.357a5.527 5.527 0 011.736.78c.499.32.94.82 1.375 1.217a92.627 92.627 0 012.174 2.142c1.134 1.167 1.472 1.695.563 1.188l2.278 2.138 2.211 2.136 4.595 4.46 9.391 9.146c6.16 5.997 11.865 11.523 15.599 14.969 2.178 2.559 6.994 7.394 3.777 4.826 8.755 8.76 13.979 12.568 22.482 21.449.633.806-3.936-3.923-3.856-3.384 5.958 5.405 10.045 10.629 19.045 19.26-1.496-1.471-2.07-1.761-2.349-1.896-.04-.269 3.849 3.375 6.24 5.544 1.222 1.341-1.79-1.624-1.158-.817 16.693 17.363 30.604 29.399 47.51 46.367-4.828-4.846-7.113-6.217-7.352-6.082l4.729 4.747c2.055 1.598 5.611 5.156 8.757 7.96.279.451 1.634 1.991.05.622 8.396 9.269 14.708 13.321 24.838 23.592l-.82-.468a6.788 6.788 0 011.622.655c.262.15.516.318.762.504l.404.338.245.237-.258-.209-.404-.304a7.281 7.281 0 00-.776-.453c-.531-.263-1.088-.448-1.633-.619.236.156.472.313.722.455l-12.825-11.204 3.116 3.757-6.526-5.688c3.395 3.9 7.15 6.488 7.243 7.274-.868-.673-2.694-2.562-2.939-2.433 3.366 3.637 3.899 3.654 6.6 6.219-7.641-6.231-21.229-19.841-28.72-26.987-1.207-1.096 1.155.816 1.432.948-3.01-2.963-4.583-4.975-8.464-8.611-2.632-2.037 1.562 2 3.384 3.883-.515.004-1.431-.944-3.533-2.968-.103-.793-11.205-11.449-13.442-14.53-11.133-10.916.869 2.657-9.743-8.255l-2.819-3.61c-6.554-5.943-14.905-13.753-21.891-20.908l1.502 1.477c1.161.824-.374-.92-1.014-1.732-5.174-5.512-10.454-9.833-13.296-13.466-6.514-5.674-16.984-15.522-24.168-22.273-1.359-2.4 9.53 8.647 12.755 11.221l-6.345-6.34c3.928 3.914 5.674 5.264 8.32 7.317-5.462-5.655-7.745-7.027-13.146-12.165.552.269-.064-.522-2.491-2.957l-1.036-.344c-.017-.073-.259-.368-.987-1.141l-9.587-9.164c1.841 2.138 1.637 2.535 4.055 4.96-.663-1.066 1.431.948 3.85 3.377-2.35-1.898 2.173 2.554 1.935 2.689-4.85-4.869-10.866-10.792-14.146-13.883l-.717-1.354c-4.55-4.711-9.618-9.424-12.666-12.658l1.159.821-3.288-3.346-1.322-1.314c-.446-.421-.838-.911-1.377-1.208-1.061-.618-2.443-.564-3.446.067a3.407 3.407 0 00-1.63 2.824l.372 3.806.091.905c.015.11.03.376.045.616l.045.72.179 2.869c.239 3.798.48 7.436.749 10.3.582 3.063-.729 20.564.09 28.466-.063.532-.438-5.427-.658-8.124-.09 5.256.633 9.435.021 11.083.205-11.795-.488.634-.662-4.679.012 5.522.121 11.345.34 14.054-.004-8.938.846 3.174.58-5.874.229 3.13.397 6.77.495 10.58l.061 4.223.033 4.505-.019 8.915-4.078-1.346c-.061-.296-1.644-.927-6.039-2.437l-3.56-.728c-2.827-.933-.052-.172 1.907.322 1.977.5 3.138.731-2.286-1.061l-3.942-1.068a162.215 162.215 0 01-3.738-1.12l-7.99-2.563c-5.261-1.694-10.001-3.149-11.874-3.108-5.738-2.322 11.341 3.09 2.652-.281 5.29 1.219 12.253 3.954 14.137 3.917-5.107-1.439-1.691-1.073-4.951-2.113l-5.75-1.434 1.24.418c-9.634-2.458-24.542-7.476-36.653-11.217-10.419-2.666-17.73-4.063-29.986-8.021 3.731.81-10.091-3.563-2.166-1.734-5.585-2.103-11.306-3.526-11.497-3.311 4.97 1.672 1.732.639 5.902 2.098-2.939-.596-9.484-2.688-12.112-3.741 1.24.418.785.209 1.09.2-5.902-2.098-2.956-.604-7.309-1.845-1.232-.861-9.485-3.135-13.353-4.605l-5.904-1.203c3.265.595-5.426-1.882-6.208-2.536-4.185-1.018-7.775-1.611-13.978-3.697 1.321.305-.077-.222-1.803-.88-1.688-.646-3.91-1.488-3.516-1.586a23.65 23.65 0 00-1.869-.662 2.167 2.167 0 00-1.742.259 2.281 2.281 0 00-.977 1.364c-.159.551-.026 1.124.03 1.643l.098.767c.031.269.062.362.089 1.078.055 1.146.101 2.301.129 3.479.055 2.356.04 4.805-.113 7.458-.1-.33-.38-2.471-.487.63.12 2.443.07 6.72.117 9.334l-.012-.083.012.136c.023 1.28.076 2.084.18 2.116.418 4.474.845 6.78 1.2 15.584.488-.646.297-8.079.14-11.298l-.482-2.782c.735-2.658-.13-7.939.118-9.964.864 5.281.655 20.492 1.187 29.617.679-5.563.783-17.667.698-28.226l-.292 4.651-.01-5.525-.518 5.348c.09-5.234-.044-9.758-.016-14.488.011 5.538-.662 7.696-.556 4.563.478-6.172-.313-6.432-.285-11.149-.044 2.626-.052 6.042-.332 3.84l.178-3.195.033-.67.029-.209.048-.383c.067-.479.029-.897.251-1.246.2-.342.554-.596 1-.632.456-.065.941.256 1.39.556-.042-.226.091-.296.362-.269-.042-.043.757.194 1.325.366l2.004.625c2.795.885 5.861 1.875 6.565 1.749l-3.721-1.251 8.085 2.049c7.123 2.955-6.688-1.414 4.314 2.569 10.258 3.34 10.25 2.442 18.354 4.946-2.809-.386-9.345-2.026-15.864-4.108l3.88 1.475c-2.174-.396-11.18-3.315-15.674-4.771 7.608 1.833-3.431-1.267-6.685-2.753-.763.248 4.037 1.693-1.718.26 5.288 1.668 6.072 1.876 12.742 4.177-7.234-2.406-10.623-3.057-13.774-3.656-.272-.061-.224-.021-.25-.004l-.051.057a.606.606 0 00-.074.116.478.478 0 00-.052.21c-.005.135.068.154-.04.098-.094-.101-.2-.311-.411-.368-.214-.073-.375.083-.489.1l.051.313.068 3.068c.05 2.125.107 4.191.166 5.395l.673-2.18c.292 7.752-1.134 10.446-.438 19.393.403 1.163.135-7.87.213-6.26.426 12.242-.659 16.652-1.164 27.522.202.615.629.488.986 4.29-.405-1.194-.611 1.619-.908-2.658-.17 3.634.127 7.939.285 11.146.236-7.566.582 3.095.824 4.489-.068 3.919-.404-1.194-.521-3.605-.107 3.146-.703 6.885-.097 8.671-.426.124-1.122-8.794-1.233-14.627l-.067 3.932c-.219-2.709-.157-3.216-.091-7.119-.33 3.821-.694 3.444-.997 2.554.062-.5.101.279.162-.2.107-3.143-.009-5.554-.235-4.825-.572-2.826-.356 4.36-.642 6.489l.115 4.797 1.84 16.329c.215 6.976-.224 10.113-.5 15.353l.491 1.438c-.049 6.07-.204 11.798-.827 7.908.164-.219.125-1.021.148-2.338-.066-.174-.114-.479-.152-.862-.029-.126-.058-.196-.086-.301l.282 10.934c-.715-11.038-.892-.551-1.763-2.398l.287 11.149c.274-6.758.425-.124.544 2.274-.287.388-.236 3.402-.158 6.627l-3.162.13c.551.062 1.104.111 1.658.146l1.491.096.001.032.001.137.007.314.021.854.037 1.667c.021 1.08.03 2.079.016 2.89l-.101-.288c-.17 3.621-.122 9.967.011 14.482.164-.206.965 5.585 1.447 8.367.184-7.747.38-3.149.684-3.771-.027.802-.033 2.243.029 2.411.139 1.108.186-1.505.348-1.724-.229-8.234-.293-16.706-.977-20.064-.31 2.528.296 4.309.089 7.138-.19-1.689-.287-3.583-.333-5.709l-.038-3.367-.001-1.822.002-.946.003-.359.005-.144.001-.022v-.006.002c-.013 0 .076.006-.207-.01l-2.28-.141a34.283 34.283 0 01-1.916-.162l4.42-.13.01-3.367.41-2.243-.224-6.884c.217 2.874.646 1.144.729 8.367.387-.922-.089-7.164.04-11.586l-.545-2.262c.303.871.36-8.596.775-1.87l.448 10.943.371-3.042.106 9.251-.282-2.183c.054 2.094.07 3.685.062 4.875l-6.321.13c.458.052.916.094 1.373.127l1.472.093c1.132.08 2.209.125 3.367.178l.088.005v.011l-.002.034-.008.165-.013.52-.039.996a18.43 18.43 0 01-.119 1.374c-.093.706-.206 1.073-.3 1.607-.188 1.067-.299 2.8-.023 9.227.66 4.683.73 9.717.57 18.886-.147-6.635-.465-.682-.847-3.178-.275 6.767.269 9.052.525 12.562-.348 1.724-.633 2.95-.582-3.095-.729-.758.126 7.952-.625 8.503.022 20.026 2.426 16.047 1.487 39.457l-.303-.878c.377 14.866.016 23.442.254 37.208l-.121 1.693-.058.82-.032.434-.033.048a2.504 2.504 0 00-.142.249c-.094.189-.209.441-.214.644-.013.2.028.333.028.333a1.415 1.415 0 01-.338-.241c-.116-.114-.191-.259-.298-.395-.206-.26-.442-.537-.628-.046a13.6 13.6 0 00.247-.593c.068-.665.123-1.341.168-2.018.09-1.354.143-2.726.184-4.11.081-2.768.118-5.586.327-8.427-.202-.58-.349 1.733-.474 2.74.007-3.428.356-5.148.221-9.676-.161.219-.354 5.158-.449 1.436l.479-6.159c-.229-8.24-1.148-4.059-.928-13.737.428 1.8 1.047 5.475 1.149 9.223.093-4.423.259 5.896.515 1.86-.634-6.372-.132-9.448-.529-17.92.088.995.212 1.258.251 3.343l.268-12.293c-.371 3.041-.407-10.154-.958-9.011-.229 13.101.104 9.252-.208 24.18-.125-4.226-.686-9.675-1.201-12.229.021-.13.039-.346.049-.805-.545-2.281-.691.044-1.645 0 .678 6.814.12 11.37.51 19.408.522 1.511.666-4.664.531-8.659l.346 7.081-.24-1.394-.175 17.974c-.028-3.406-.331-4.563-.559-6.34-.021 2.319-.158 4.616-.31 7.059.498-.514.85-.19.84 2.072-.06 5.781-.201 10.28-.398 13.866l-.159 2.524-.177 1.292c-.099.832-.335 1.645-.262 2.394.092.26.239.536.386.737-.035-.372.147-.301.507-.069.359.228.984.583 1.773.624.39.022.806-.03 1.196-.169.388-.148.748-.35 1.088-.513.337-.17.646-.331.911-.48l.19-.109c.075-.04.078-.058.235-.124l.68-.317c-.01.557 5.776-1.5 9.035-2.251 1.508-1.114-1.001-1.195-5.019-.439-3.622 1.439-4.692 1.926-5.099 2.231-.167.23-.082.41-.844 1.064l-.858.355c-.521.215-1.346.257-2.026-.108-.694-.342-1.131-1.043-1.237-1.601-.087-.561-.101-.955-.101-.955s.12.317.243.589c.12.278.336.497.336.497-.086-.36-.056-.723-.052-1.065.004-.344 0-.676-.011-.998l-.087-3.174c-.054-2.229-.057-3.617.258-3.387.209 1.641.25 3.875.292 6.006.021.43.042.854.083 1.231.036.376.098.709.312.908 0 0-.069-.399.013-.785l.115-.739c.161.559.169.861.231 1.129.053.26.063.465.099.693.041.221.111.479.407.702.28.213.878.375 1.629-.041-.49-.13-.388-.175-.073-.254.162-.045.394-.106.655-.202.32-.114.282-.14 1.431-.599-.188.035-.411.085-.662.147-.099.022-.324.086-.32.077l-.13.021a6.465 6.465 0 00-.589.14c-.212.052-.43.139-.662.175a1.332 1.332 0 01-.677-.081c-.42-.165-.651-.539-.663-.805-.015-.277.121-.42.381-.45.179.146.348.413.662.605.318.226.715.171 1.19.128l.373-.043.048-.007.182-.049.369-.102.736-.204a93.1 93.1 0 002.872-.849c1.857-.586 3.569-1.211 4.951-1.886l-.252.188c8.594-2.604 11.445-4.053 14.55-5.38 3.73-.876 8.633-2.865 12.571-4.149l-.017.283 5.535-1.872c-2.505 1.3-6.529 2.058-11.292 3.643l.744.278c-5.691 1.194-9.101 3.206-13.25 4.966 6.096-2.38 17.612-5.462 18.784-6.84l4-.75 1.788-.755c2.981-.556.229.93-5.3 2.801-1.004.188-1.506.283-1.244.092-2.516 1.028-4.771 2.144-11.053 4.019l3.255-1.306c-7.79 2.435-14.805 4.859-17.323 6.164 11.293-3.368 22.35-6.83 32.888-10.197 2.775-2.044 6.277-3.808 7.551-5.294 7.018-2.426 16.581-5.608 22.841-7.199l-.503.373a104.456 104.456 0 008.046-2.624c3.25-.747-2.004 1.208.248.646l10.03-3.545c-.484.644-9.012 3.352-13.051 4.668.752-.28 2.272-.844 1.758-.746-4.769 1.312-13.305 4.853-15.568 4.863-2.26.84 4.512-1.954-3.269.478-5.28 1.408-6.791 2.523-7.273 2.889-.004.279 8.275-2.245 5.509-1.033 4.04-1.317 5.549-2.153 10.805-3.554-4.004 1.304-9.292 3.545-11.555 3.831-7.787 2.988-6.273 3.809-2.511 2.687-1.008-.087 14.333-5.05 3.772-2.23 4.524-1.96 13.063-4.673 19.083-6.91l-.248.183 7.554-2.527c-1.027.472-3.286 1.313-3.282 1.586l10.301-4.011c-5.775 2.331 3.769-.85 6.526-1.504 1.004-.743 5.021-2.328 1.011-1.298-4.519 1.126-2.513 1.026-6.532 2.334l5.512-2.417.508-.096 3.276-1.588c7.781-2.43-3.028 2.233 6.774-1.412l-1.51-.267c11.559-3.557 26.604-7.491 34.649-10.389-2.125 1.099-2.918 2.032.288 1.42-3.549.998-10.599 3.261-15.616 4.923-1.007.188 6.039-2.798 11.558-4.388-3.003-.269-13.552 5.037-14.552 4.117-14.067 4.03-10.057 4.383-22.101 7.478-.003.554-3.286 1.313-3.768 1.953 3.763-.292 15.812-5.048 23.583-7.197-.74.274-2.229.83-2.495 1.019 5.537-1.595 7.769-2.426 11.545-3.829l-.502.094c6.545-2.616 4.265-.94 8.279-1.971 1.504-.56 7.035-2.154 6.036-2.243l7.293-1.789-.522-.451a60.856 60.856 0 012.535-.768l2.883-.826c1.831-.53 3.524-1.06 6.428-2.169l.494-.709-13.83 4.196c2.509-.887 2.824-1.119 3.204-1.364a4.127 4.127 0 01.575-.315l.562-.219c.872-.328 2.261-.813 4.655-1.601-5.318 1.989-3.35 1.441-.123.482 3.254-.968 7.885-2.383 8.203-2.228 1.469-.531 2.938-1.063 4.343-1.509l.171 2.37-.14-1.64c-.136 2.937-.087 4.484-.013 6.19.074 1.693.174 3.539.14 6.82.194-5.146.422-9.42.445-14.566a218.838 218.838 0 00-8.504 2.862c2.202-.795 5.116-1.82 8.625-3.025.194 6.326.354 14.236.365 16.797l.056 2.739.009 1.538a83.16 83.16 0 01-.079 2.892c-.08 1.885-.195 3.732-.226 5.849-.105-4.062-.504-3.35-.83-3.658-.162-.154-.307-.563-.387-1.951a54.876 54.876 0 01-.066-2.906c.018-1.726.038-3.905.065-6.663.101.441.078 2.571.017 3.388.26-1.36.313-4.11.264-7.194-.048-3.09-.197-6.468-.341-9.254l-4.532 1.672c.519.031-.484.475-.627.622-.153.15.549.006 4.263-1.068l-.024.875c.125-1.677.341-.052.485 3.369.073 1.703.128 3.845.145 6.149l-.006 3.53-.028 1.776-.022.86-.026.563-.415-.524c-.104-.129-.207-.368-.285-.493-.077-.139-.13-.23-.13-.23l-.098 8.867-.039-.811c-.533 3.26.104 9.248-.211 15.217.297 4.309.061 20.841.929 13.728-.519 5.357.142 10.06.253 15.904l.339-7.286c.593 8.614.21 6.134 1.153 13.027-.227.697-.412 2.233-.651.833l-.048 4.314c.012.607.358 1.201.882 1.511.52.32 1.195.339 1.725.069.271-.127.483-.34.68-.552l.588-.619c.379-.406.732-.797 1.043-1.158l2.324-2.524a64.274 64.274 0 001.952-2.254c5.794-5.743 7.39-5.958 15.213-14.323 1.622-1.787-1.877.78 3.65-4.41.404-.316-4.725 5.594 1.197-.42 3.799-4.701 10.231-9.733 15.369-15.654 3.082-2.756 8.086-7.883 7.388-6.471-4.705 4.543-11.175 11.161-12 12.329.423-.854-3.498 3.08-.256-.493-7.26 6.72-4.315 4.758-10.771 10.844-.289.575 3.619-2.828 4.835-4.301.517.458-12.128 12.6-5.97 7.61 6.742-6.658 7.716-9.664 14.035-14.958-2.031 2.625-5.922 6.014-8.367 9.483l4.968-4.576 3.111-3.815-.135.277c8.874-7.981 7.294-8.298 14.591-16.083-4.707 4.03.165-1.855-3.329 1.224 4.98-5.104 8.749-8.743 9.271-8.289-9.036 9.831-.02 1.051-8.255 10.259 1.605-1.257-1.363 2.79 3.888-2.354 5.508-6.204-2.158 1.346 3.521-4.655.389-.302.791-.616.658-.341 2.433-2.939 3.226-3.043 6.196-6.573l-.673.868c4.304-3.712 4.049-4.72 7.821-7.848-1.741 1.019 2.02-2.613 3.934-4.979-3.634 3.36-6.046 4.734-12.918 11.663-.547 1.12.116.774-2.579 3.747l4.449-4.521c-.92 1.015-1.584 1.826-2.413 2.771l-4.457 4.159c5.258-5.666 2.447-3.467 4.471-6.086 5.123-4.873 4.045-4.203 7.281-7.253.104.736 10.355-8.92 16.381-14.405l-2.688 2.654c-3.915 4.445 3.227-2.526 3.497-2.566l2.837-3.256c-.545.602-1.239 1.493.119.253 4.046-4.202 3.39-4.379 7.429-8.575.541-.078-2.59 3.754.092 1.315 1.085-.682 4.433-2.956 9.699-8.632.299-.476 1.668-1.943 3.273-3.626-.216.241-.493.537-.58.656l3.886-3.381c-2.701 3.49-6.447 6.075-9.163 9.583l.11.639c-2.42 2.424-5.547 5.874-6.864 7.581 3.755-3.629 4.434-4.505 8.485-8.711.814-.341-1.917 2.743-2.311 3.188l.402-.83c-5.234 4.613-7.002 7.721-13.201 13.78-.94.91-.403.318-.269.041-4.599 5.325-9.965 9.695-14.309 14.998l1.375-1.77c-3.104 3.463-9.172 10.237-15.236 17.006l.095.197c.801-.624-1.613 1.778-2.965 3.012l.004-.009-8.372 9.304a46.817 46.817 0 003.218-2.845c.835-1.177 6.871-6.934 5.674-6.514 2.959-2.489 7.011-7.215 9.158-9.067-3.895 3.395 2.171-2.906 2.595-3.759 1.472-.979 5.383-5.42 5.236-4.612.805-.634-2.01 1.57-3.361 3.318-3.51 4.126 7.26-6.719 2.797-1.67 5.816-6.28 13.889-14.15 19.823-20.694l-3.628 3.357c2.822-2.725 9.313-9.362 9.963-9.693-2.022 2.1-4.436 4.504-7.006 7.207.245.5 6.334-6.338 6.857-6.401l7.039-8.274-3.374 3.333c1.886-2.339 9.172-9.078 14.422-14.223-2.472 3.492-7.828 7.854-13.092 13.527-3.778 4.165 2.945-1.961-.691 1.921 1.094-.855 3.532-3.323 4.614-4.661l1.575-1.391c-2.89 3.818-10.512 11.232-15.117 16.637.39-.489.72-.925.805-1.117-4.032 3.674-7.939 7.595-11.573 11.475 2.134-1.841 2.82-2.727 3.902-3.916.256-.027-3.241 3.569-4.456 5.038 3.631-3.359.926-.379 3.214-2.513-2.166 2.387-4.042 4.198-6.864 6.923-1.613 1.263.948-1.432.426-1.367-2.719 2.994-4.574 3.751-8.489 8.196 5.657-5.464-.965 1.965-2.727 4.035l.948-.916c-1.494 2.032-2.979 3.54-4.444 4.513 2.166-2.387 4.444-4.513 3.522-4.14-1.491 1.516-2.979 3.025-4.599 4.811l1.351-1.745-7.414 7.528c-.941 1.425-2.576 3.741-3.255 5.133-2.011 1.573-4.324 4.251-5.94 6.036l.69-.892c-3.502 3.089-10.662 10.594-11.066 11.427-2.545 2.163 15.282-18.005-1.162-1.163-6.325 6.328-3.259 4.623-6.634 8.47 0 0 .134-.273-.27.04-2.818 2.72-2.837 3.257-5.003 5.643 1.764-1.556 4.175-3.957 4.851-4.831-.548 1.118-5.791 5.741-7.688 8.088 2.313-3.193-5.52 5.184-3.608 2.82-2.895 2.612-5.727 5.477-8.156 8.091a145.384 145.384 0 00-3.3 3.67l-1.344 1.575-.299.359-.143.174c-.052.06-.154.149-.228.222l-.909.873a70.747 70.747 0 00-4.618 3.484l-2.199 1.843-1.129.972c-.364.215-.742.351-1.155.498a9.419 9.419 0 01-5.986.001c-2.188-.71-4.469-2.479-5.543-5.016.335.749.995 1.78 1.979 2.705.969.937 2.259 1.706 3.452 2.173.824.227 1.275.248 1.429.239.155-.015.018-.066-.297-.17-.632-.185-1.975-.68-3.021-1.439-1.069-.732-1.792-1.642-1.891-1.835-.049-.1.049-.024.377.289.34.301.924.854 2.02 1.467-.921-.544-.956-.552-.58-.197.385.337 1.299.918 2.376 1.232 1.877.609 3.813.423 4.957.026 1.162-.392 1.642-.833 1.266-.76a8.416 8.416 0 01-4.225.432 8.307 8.307 0 01-2.901-1.021c-.732-.425-1.154-.799-1.154-.799s.638.445 1.353.758c.712.322 1.477.49 1.477.49-.001 0-.827-.219-1.901-.893-1.072-.658-2.296-1.899-2.932-3.371a7.431 7.431 0 01-.389-1.102c-.042-.19-.095-.352-.111-.561l-.016-.645-.053-2.294-.043-2.207c-.113-.342-.147 1.011-.157 1.725l-.315-6.229c-.043-.581-.017-.889-.019-1.309l.008-1.196.01-2.405-.028-9.667c-.041-6.401-.105-12.613-.065-18.002-.699-1.013-.848-7.646-.931-15.115l-.133-11.231-.027-1.313-.016-.556-.017-.288-.082-1.058c-.063-.65-.145-1.182-.252-1.542.401.583 1.108 1.076 1.399.062.029.55.185 1.35.319 2.463l.049.429.045.707.072 1.491c.038 1.022.051 2.097.021 3.198-.225.703-.479 6.143-.735 2.642.159 12.173.613-1.647 1.133 1.945a340.176 340.176 0 00-.118-6.248c-.054-1.886-.122-4.038-.198-4.898a111.24 111.24 0 00-.508-5.521c-1.895.788-3.474 1.466-4.962 2.056l-.118-.136-.53.22-.531.221-.448.172-.563.209-3.016 1.121c5.035-1.5 5.027-.667-1.511 1.116l.773-.286c-3.782.851-11.322 3.653-17.087 5.429l-3.76 1.674c-5.775 1.777-6.28 1.043-8.307 1.15-9.044 2.807-14.045 5.127-20.331 7.557-3.011.565-16.558 4.771-9.531 2.068-8.042 2.896-5.797 4.273-20.095 7.652l3.515-1.492c-13.328 4.308-32.152 11.028-38.418 12.621 4.535-2.792-17.073 4.04-19.828 3.589.749.065-4.238 1.748-4.923 2.127-1.144.208-3.018.651-4.88 1.516 5.283-1.409-3.263 2.412 6.536-1.232-2.388 1.212-5.153 2.494-8.702 3.905l-2.815 1.084c-.512.188-.969.367-1.567.568l-2.6.726-2.763.752c-.468.105-.97.305-1.429.337-.459.028-.93.028-1.407-.014a9.72 9.72 0 01-5.555-2.362l.526-.246s.613.571 1.714 1.152c1.089.591 2.714 1.077 4.333 1.062.401.016.8-.027 1.228-.156l1.229-.304 2.187-.538 2.142-.526c-.751-.129 3.627-1.508 5.446-2.268A171.44 171.44 0 0194.5 394.2l-.394.104-.184.047-.253.057-.9.192c-.534.11-.939.186-1.244.234-1.216.192-.837-.051-.505-.272.337-.223.634-.426-.566-.183l-1.2.271-.853.212-.496.125c-.167.016-.341.043-.526.049a7.852 7.852 0 01-2.656-.279 7.855 7.855 0 01-3.2-1.782c-.895-.633-1.029-.788-1.426-1.308a6.897 6.897 0 01-.729-1.313 7.83 7.83 0 01-.424-1.249c-.158-.481-.116-1.188-.19-1.951.047.73.063 1.327.16 1.667.099.338.2.484.226.419.041-.073-.018-.332-.025-.894.01-.575-.001-1.417-.045-2.569l-.547-4.099c.22-1.521.365-1.652.47-1.074.052.289.094.755.13 1.313l.149 2.227c.127 1.713.208 3.461.343 4.293.101.396.2.586.225.479.047-.12-.051-.482.031-1.35.087 1.999 1.383 4.282 3.522 5.435a6.699 6.699 0 003.401.819c1.14-.004 2.218-.496 3.224-.81l2.677-.93c.409-.144.695-.266.959-.38l.709-.317c.813-.386 1.077-.616.509-.612l-3.61 1.1a93.75 93.75 0 00-2.945.987c-1.74.515-3.276.304-4.604-.274-1.308-.604-2.549-1.657-3.214-3.487-.36-.891-.312-2.047-.383-3.376l-.061-2.141c-.005-.363-.021-.819-.014-1.143l.023-1.041.287-1.223c-.195-4.04-.659-4.692-.939-6.904.163-.199.285-1.226.332-3.82-.678-6.821-.811-11.349-1.55-17.641.277 8.373.149 11.953.012 15.6-.068 1.823-.138 3.663-.16 6.128-.011 1.232-.01 2.621.009 4.241l.043 2.614.033 1.456.02.768.075 1.132c-.135-1.188-.15-2.229-.216-3.814l-.2-5.069c-.158-3.475-.38-6.704-.745-7.077l.528.161c-.274-5.62-.546-11.237-.372-18.297l.297 4.31c-.367-9.356.801-15.553-.077-22.936-.047 2.608-.031 4.725.049 6.334-.235-4.816-.182-10.857-.093-16.092l-.871-10.829c.262.096.277-6.767.695-3.456.401-7.797-.385-11.473-.516-15.978.561-7.984.25 6.916.979 7.699.244-11.001.023-22.659-.451-28.866-.106 2.243-.197 3.333-.325 3.219.166-.332.123-4.765.128-7.236l-.343-1.698c.232-4.115.434-3.535.692-.034.022-1.292-.035-2.666-.103-4.071l-.103-2.126-.042-1.069-.013-.626.003-.354c.005-.151.001-.23.03-.57l-.024.484c-.026-1.486.007-2.952.176-4.343.086 1.387.138 2.854.17 4.343l.022-.449-.008 8.759c-.005 2.55 0 4.735.102 6.124-.083-3.475-.062-6.095.012-8.341.037-1.123.086-2.152.142-3.147l.087-1.477c.04-.514.035-.841.137-1.871l-.02.402c.25-4.031.493-8.502.272-17.487.164-.219.483 2.794.487-.634-.127-7.943-.707-2.075-1.088-4.556.214 6.115.006 8.959-.426 12.508l-.279-1.632c.145-.247.152-4.087.291-5.218l-.567-.988c.627.456 1.104-5.687.869-10.516-.454 4.879-.431 3.562-1.145 4.889-.679-6.79.664-7.661-.055-15.271.202.57.354 7.214.506 1.473.027-4.752-.462-4.119-.618-7.306.523 3.589.911 2.667 1.532 6.558.067 8.443-.006 3.406.224 11.659l.44-6.986c.086 7.154.599 5.202.799 5.791.529-12.217-.795-9.207-.66-17.067-.359-3.789-.075 7.363-.451 1.435.075-7.35-.342-1.676-.57-9.926l.241 1.381c.31-2.522-.073-5.015-.126-7.933-.159-3.209-1.816 3.634-1.854-9.562.146.646.238.884.299.884l4.393 12.872c-.013-13.37.106-28.777.397-44.26.858-3.647.71 11.05 1.097 10.103l-.174 7.062c-.364-.396-.115-14.795-.757-8.418.264 12.47-.153 18.129.599 29.959.86-3.675-.156-15.582.508-23.277-.056 3.232.04 5.959.163 8.608l.357-23.182-.208-1.847c-.096 5.542-.168 9.375-.2 9.869.074-7.347-.403-13.544-1.033-14.032l-.022 1.305-.197-2.655c.051-1.727.091-3.451.13-5.164zm312.585 72.917c-.358-.273-.657-.472-.903-.594.256.125.085-.13.903.594zm-310.478 70.97l.339-29.097c-1.243 16.994-2.185 28.941-2.16.579l-.09-1.856c-.152 3.707-.171 10.101-.081 16.114.22 2.433.736 7.575 1.213 12.087l.648 5.879c.179 1.524.307 2.474.343 2.431.348-1.724-.032-4.235.074-7.369l-.286 1.232zm-2.083 6.967c-.139 5.554.137 4.29.385 5.151l-.094-5.836c-.062.738-.15 1.103-.291.685zm.633 4.819c.006-.624.018-1.156.051-1.436l-.051 1.436zm.328-108.021l.015.57.057-3.998c-.04.533-.07 1.547-.072 3.428zm-.606 11.273l.455 1.318.052-3.748c-.207.422-.386.862-.507 2.43zm-1.487 36.232c.545 2.284.571 9.936 1.201 10.404.162.488.223-1.122.274-2.928l.051-6.447c-.092-.079-.177-.532-.26-1.289-.078 2.252-.234 3.757-.621 2.845.841-5.792-.601-5.189-.386-11.45-.443-1.992-.437 6.968-.259 8.865zm226.098 142.615c.164-.087.697-.419 1.428-.902l-2.898 3.339c-5.659 5.466-10.754 9.282-15.212 14.839-2.481 2.205-4.028 3.168-5.467 4.126a176.355 176.355 0 013.192-3.036c13.233-14.844 8.168-6.471 18.957-18.366zm-46.873 11.273c.039.812.143 1.103.143 1.103-1.154-17.577-1.49-32.05-1.445-41.526-.457 1.838-.813 10.338-1.002 14.375l-.521-3.577.41-2.233-.474-6.21c-.351 1.736-.278 6.751-.547 10.104.1.291.708 11.025 1.029 14.025l.361-8.576c-.146 2.316-.025 13.693.107 18.205.262.088.665-7.687.098-8.665.387-.926.391 8.037.807 2.369.414 6.717.068 17.403-.123 22.361l-.652.84c-.063 1.36-.046 2.27.01 2.97.051.679.174 1.283.267 1.815.2 1.127.354 2.253.241 5.787-.116-4.186-.286-3.814-.425-3.153-.141.651-.251 1.587-.387-2.017-.082 1.175-.24 1.238-.341 1.929-.05.347-.083.855-.08 1.757l.034 1.673c.012.336.025.704.041 1.107.025.393.007.868.112 1.256a8.483 8.483 0 001.967 2.95 7.993 7.993 0 002.429 1.645c.857.361 1.786.552 2.816.447 1.024-.127 2.164-.503 3.194-1.62 1.46-1.194.712-.346.269.185-.433.523-.535.714 2.506-1.971 1.698-1.678 2.889-2.901 3.733-3.815.734-.848 1.07-1.354 1.327-1.756.476-.781.313-.956.255-1.343a93.06 93.06 0 00-5.451 5.701 74.803 74.803 0 01-2.272 2.46c-.211.21-.432.453-.661.651a5.14 5.14 0 01-.758.51 5.509 5.509 0 01-2.02.643s.201-.039.541-.146c.338-.109.817-.29 1.331-.605.526-.301 1.031-.76 1.581-1.387l1.684-1.827a220.821 220.821 0 002.958-3.303c.383-.439.71-.809.898-1.044l.314-.38c-1.629 1.401-2.844 2.553-3.798 3.544 1.719-1.751 3.069-3.293 4.065-4.611l1.64-2.093-3.297 3.283-2.768 2.717c-1.648 1.569-2.75 2.682-3.19 2.683 0 0 .184-.222.347-.456.166-.231.312-.475.312-.475-.746.517-2.031 1.048-3.337 1.001-1.31-.005-2.472-.567-3.093-.996-.947-.952-1.396-2.292-1.35-3.536l-.112-3.534c-.062-2.166-.068-3.88.129-4.538l.279 2.109-.097-7.669-.034-9.143zm-170.489-3.062c.791.045 1.704.037 2.956-.101a31.628 31.628 0 002.213-.336c.838-.151 1.764-.34 2.805-.575 4.163-.94 10.164-2.638 19.747-5.78l-1.49.554c9.9-2.405 18.609-6.877 30.631-9.874-5.592 2.216-5.296 2.082-11.319 5.003l6.041-2.248c-1.516 1.119 4.51-1.123 9.021-2.524l-3.756 1.95c-2.766.659-9.794 2.811-9.539 2.902 1.51-.563-9.526 2.065-15.321 4.124.752.275 13.062-3.838 7.78-1.323 4.766-1.864 5.518-1.59 10.555-3.368-4.779 1.868-1.006 1.02-4.531 2.513l8.294-2.806c.267.086-12.042 4.2-5.023 2.605 3.265-1.306 12.29-3.83 12.29-4.384l.254.089c6.289-1.875 2.525-1.584 10.296-3.734.01-.281-1.51.009-4.244.934-2.29.85-2.537 1.309-7.304 2.898-2.272.288 5.792-1.784 2.256-1.394-1.757.192-12.553 4.298-9.287 2.438l6.276-1.872c0-.555 4.53-1.96 4.274-2.325 3.758-1.396 7.541-1.973 11.301-3.647 1.515-.839-1.503-.548 5.031-2.331 5.276-.854 20.082-5.711 25.611-7.582l4.766-1.866c-.512-.178-9.288 2.993-6.29 1.601l7.554-2.53-.524.38c2.529-.756 5.036-1.78 7.296-2.618-2.25 1.112-7.768 2.703-6.514 2.882 3.596-1.027 4.202-1.005 7.449-2.146-.704.264-1.304.511-1.19.556 7.287-2.063 6.781-2.797 8.536-3.541 7.038-2.984-7.512 1.687-6.756.853l21.086-7.009c-1.754.745-3.522 1.492-2.771 1.49 5.271-1.406.247.369 7.532-1.97-.733-.556 9.011-3.351 14.093-5.419 1.264-.239 1.966-.365 1.735-.233-.245.135-1.384.516-4.013 1.354.184.07.776-.034 1.56-.229a54.17 54.17 0 002.739-.779l5.463-1.728c.486-.196 1.08-.421 1.798-.683l.194 3.544c.242-2.378.549-1.946.756 3.091l.104.254.183-8.578c-3.407.989-7.08 2.066-10.368 3.09-1.724.537-2.951.935-4.178 1.357-1.194.412-2.226.798-3.029 1.146l1.252-.651c-8.786 2.345-18.576 6.813-22.847 7.202.258-.465-1.765.472-1.773-.079l-6.25 2.416 1.253-.649-10.808 3.555.257-.186-12.059 5.07c.058.223.414.185-1.253.891a49.66 49.66 0 01-4.167 1.429c-.009.003-.009.003-.008.005l-.001-.002c-2.681.779-4.553 1.027-7.871 1.938l10.066-3.253c.703-.634-.277-.747-5.3.56 2.016-.655 2.769-1.214.255-.463-.244.184-6.532 2.334-4.025 1.864-9.536 3.176-25.353 7.118-39.672 12.44 10.313-3.741-8.533 2.157 3.018-1.675-8.285 1.973-6.781 2.797-15.063 5.322-.771.009 4.502-1.398 6.265-2.422-13.798 4.115-22.848 8.308-36.181 12.34l-.715-.285-7.402 2.558zm-5.924-21.408l-.168-8.161-.015.801-.393-8.053c-.19 4.948-.726 8.208-.975 1.282.202.583.449-1.441.566.967.292-4.642.576-14.824-.161-12.169.696 8.918-.938 2.078-.421 9.086-.48-3.761-.264-7.486-.478-11.038.401 3.697.91-.861 1.101-6.415-.119-2.418-.005-8.96-.2-12.978-.45 1.433-.708-2.065-.821 4.48a100.05 100.05 0 01.02-10.281c.077 1.65.133 4.537.296 4.337.414-2.687.396-5.832.573-7.568l-.072-4.141c-.04.405-.09.757-.155 1.007l-.397-4.6c.212 6.127-.208 2.832-.472 2.753.527.164.068-3.944.051-6.042l-.557 4.556c-.279-2.202.402-7.774-.149-6.625-.221 9.667-.126 13.383.04 22.124l.433-3.548c.306 9.862-.742 6.083-.721 17.149.395 4.6.027 16.643.819 16.87-.241-1.388-.704 6.892-.346 10.684.724 4.191.821 16.868 1.151 13.028.009-3.426-.389-8.035.082-10.788l.151 6.644.394-4.359c-.142 2.253.244 2.034.824.998zm4.457-148.717l.01-.257-.002.285-.008-.028z"/><path d="M374.497 311.265c1.224-1.478 4.585-4.798 3.656-4.417.383.221-5.921 6.014-3.656 4.417zm4.289-3.699c.163-.308-.115-.259 1.372-1.769l-4.05 4.203 2.678-2.434zm6.246-2.128c1.903-2.354 3.125-3.829 6.486-7.148 1.989-.52-5.264 5.674-6.092 7.874 6.191-6.054 7.429-8.575 12.403-13.674-2.801 2.189-13.172 12.206-12.797 12.948zm-1.791 3.649l3.24-3.572-.379.293-3.241 3.574zm-80.132 67.362c-.536.077-2.432 2.425-3.515 3.618.94-.91 2.296-2.144 3.515-3.618zm9.285-231.137l26.194 25.752-26.194-25.752zm-50.351 218.257c.306 9.863.865 14.245 1.008 24.294.654-13.214-1.021-17.453-.352-28.549l-.656 4.255zm2.591 3.48c-.612 1.635-.717-7.61-1.165-6.179.148 6.647.582 3.096.529 9.128l.636-2.949zm-9.87 45.662l-.303-2.066-.209-1.426-.05-.467.018.376c0 .092.021.281.044.486l.068.627.182 1.696.25.774zm-12.952-75.45l.997-.461-4.773 1.311zm1.993-.924l-.997.463.997-.463zm9.403 71.562l-.021.694-.017.729.084 1.247.235 3.416.541 3.228-.496-4.99-.185-1.846c-.056-.576-.132-1.209-.119-1.44a1403.1 1403.1 0 00-.022-1.038zm3.282-39.231l.195 3.976c-.036-.79.216-6.229-.195-3.976zm-43.545-22.521l-4.54 1.688.489-.092 4.525-1.682zm41.707-3.216c.049.009.081.021.087.039-.057.208-.099.242-.13.178-.722.409-3.481 1.119-1.532.853a15.65 15.65 0 001.267-.49c.093.513.237-.008.381-.52a.32.32 0 01-.073-.06zm-51.915 13.125a25.77 25.77 0 00-1.888.671c.744-.263 1.368-.486 1.888-.671zm0 0c2.008-.637 4.071-1.103 5.407-1.669-2.568.591-3.456.957-5.407 1.669zm-22.976 7.405l1.832-.546c-1.791.812-.919.499.686-.205 1.925-.628 1.771-.735 1.97-.905l1.131-.551-1.531.664c-2.991.945-4.808 1.546-4.088 1.543zm-87.868 19.563c6.778-1.967 8.543-2.438 8.289-1.974 6.419-1.915 5.238-2.199 9.044-3.561-7.202 2.36-8.729 2.669-17.333 5.535zm17.333-5.534l2.513-.828a57.965 57.965 0 00-2.513.828zm98.635-18.757l-4.011 1.859 1.511-.561zM89.677 383.356c.077.101.265.108.334.211.052-.208-.045-.217-.146-.234-.103-.009-.224-.024-.188.023zm20.283 1.253c.75-.003 5.013-1.496 6.791-1.97-2.528.753-4.779.761-6.791 1.97zm-21.973-13.066c-.023 1.308-.269 3.32-.571 2.448.178 1.901.823 4.474.571-2.448zm9.662 16.904l.998-.187 4.531-1.683zm18.047-.069c5.044-2.058-8.529 1.604.274-1.577-11.637 3.214 1.069.309-7.436 2.933 5.012-1.436 7.613-1.683 7.162-1.356zm-7.162 1.355c-.729.207-1.515.443-2.364.711l2.364-.711zm-27.895-50.072c.046.788.096 1.327.147 1.824a34.14 34.14 0 00-.147-1.824zm-2.53 50.433s.225.669.793 1.569a9.028 9.028 0 002.74 2.753 8.78 8.78 0 003.634 1.306c1.047.123 1.736.032 1.736.032a8.08 8.08 0 01-3.214-.392 8.609 8.609 0 01-3.365-2.099 8.72 8.72 0 01-2.159-3.663c-.055-.17-.091-.343-.136-.515-.022-.186-.029-.381-.044-.57l-.08-1.143-.16-2.246-.16-2.153c-.034-.398-.033-.565-.044-.803l-.027-.658a72.104 72.104 0 00-.128-2.241c-.096-1.247-.216-1.942-.379-1.729a109.878 109.878 0 00-.045 3.428c.003.595 0 1.119.02 1.758l.18 2.578.187 2.395.094 1.104.046.524c.039.156.084.304.129.45.381 1.167.945 2.08 1.442 2.673 0 0-.355-.552-.617-1.146a8.705 8.705 0 01-.443-1.212zm11.224-95.853l.258 3.517.076-4.392c-.098 1.258-.576-1.017-.334.875z"/><path d="M89.68 292.517l-.014.849c.017-.187.023-.456.014-.849zm-8.725 62.537c-.046 2.63-.028 4.733.088 7.132.123-.994.238-7.547-.088-7.132zm7.43-85.576l.112 5.804-.048-6.333zm1.13-27.086l.123-1.001-.234-4.813-.123 1.017zm-12.838 35.425c-.069 3.935.516 7.008.639 5.979l-.026-7.63c-.512 1.939.015 2.117-.114 6.539l-.499-4.888zm80.629-128.899c-1.728-.189-9.623-2.902-9.941-3.344 1.112.205 5.465 1.444 2.819.388l-6.547-1.196c-8.213-3.155 6.696.967 10.92 1.996-8.495-2.809-11.19-3.085-20.261-5.966a58.266 58.266 0 015.64 2.277c.129.661-8.244-2.271-14.301-4.143 3.77 1.466 1.479.966-1.394.298a9.457 9.457 0 00-1.105-.255 325.68 325.68 0 01-.977-.223l.725.229c-.071.047.064.174.554.444 5.123 1.445 8.851 3.146 12.113 4.189-2.935-1.939 11.183 3.315 15.377 4.335l4.767 1.413 1.773.561c.324.213-.22.18-2.98-.497 2.313.535 9.816 2.985 9.214 2.47l17.172 5.434c.522.207 1.042.423 1.417.615.613.131.728.115.664.044 27.636 8.747 55.271 17.494 82.927 26.269l-.021-3.012-.041 2.928-17.348-5.883c5.262 1.335 2.35.381-1.341-.816l-2.155-.707a43.171 43.171 0 01-1.39-.49c-.781-.296-1.19-.51-.725-.521.658.151 1.385.344 2.14.56l1.278.382 2.019.638c2.683.859 5.301 1.747 7.3 2.458.674.054-.421-.444-1.562-.964-1.148-.523-2.339-1.067-2.054-1.167a216.642 216.642 0 00-5.241-1.73l-1.577-.479-1.27-.353c-1.63-.434-3.025-.73-4.416-1.02-2.78-.579-5.541-1.13-10.118-2.699.476-.232 3.423.368-2.628-1.5l1.558.412c-9.79-2.678-7.282-3.177-13.669-4.153l.319-.452c-4.505-1.013-13.037-3.716-17.867-5.173l.318-.006c-13.669-3.704-7.61-2.28-22.831-6.844l7.156 1.625c-5.147-1.899-6.527-1.636-10.257-2.892.299-.012-.454-.655 3.118.377l-18.66-4.936c-4.504-1.016.775.648 1.389 1.079zm-23.009-8.123a83.981 83.981 0 00-3.376-1.092l3.376 1.092zm131.559 29.984l.006 10.464c.031-3.201.041-6.598-.006-10.464zm-158.247-37.244c3.104 1.271-2.501-.394-3.118-.377l11.415 3.612c.01-.21 1.208-.068 1.035-.318l-9.332-2.917z"/><path d="M119.094 138.183c.429-.013 1.675.251 3.064.565l-6.252-1.979c-.006.159.652.513 3.188 1.414zm2.071-10.716l2.026.624 3.103.82zm31.326 10.877c-2.32-1.059-6.968-2.289-8.523-2.7 5.279 1.664 2.958 1.05 8.523 2.7zm-5.522-5.215l5.139 1.447-.456-.208zm116.812-6.793l-.035-2.607a72.258 72.258 0 00.035 2.607z"/><path d="M264.283 178.574c.196-6.981.316-7.912.417-5.98.101 1.911.181 6.613.299 10.454-3.493-.982-6.085-1.639-3.521-.556 1.324.391 2.648.782 4 1.211l-.195-8.737.203 1.254-.066-14.545c-.088.434-.154.84-.211 1.2l-.15 1.586c-.095.882-.191 1.268-.375.905l.029-2.933.031-1.506c.022-.884.048-1.54.075-2.035.055-.991.118-1.342.192-1.598.148-.513.336-.651.566-4.787l-.066-12.604.109 1.021c-.008-1.062-.053-1.53-.113-1.895l-.113-21.236-.078-14.6-.035-1.534c-.083-.391-.132-.616-.209-.714-.077-.102-.201-.077-.296-.011-.195.095-.422.492-.69-.628 0 .713-.023 1.497-.049 2.316l-.053 7.097c-.006 4.542.078 8.06.443 8.44-.102-.301-.303-.894-.389.922l.6 5.18.191-4.939c.598 5.208.465 22.029.094 25.07-.203-9.565-.924-4.765-.532-18.09-.185.599-.51 3.038-.61.038.105 7.807.075 15.208.097 22.68.011 3.736.034 7.49.094 11.32l.311 18.234zm46.795-35.384l-.134-.041c.225.175.308.221.134.041z"/><path d="M307.437 139.421l-5.886-4.876 8.43 8.35.964.255c-.831-.652-3.952-3.414-4.954-4.692l1.446.963zm-12.44-10.819c4.483 4.182 4.665 3.53 2.492.976 4.172 3.785 1.65 2.547 4.831 4.847.211-.391-4.87-5.118-6.052-6.189l-1.271.366zm-28.071-28.51c-.01-.01.354.008.364.018l-.412-.458c-.196-.249-.476-.405-.476-.405s.174.193.301.411c.127.22.223.434.223.434zm.364.018l.782.876c.058-.2.104-.405.009-.675 0 0-.226-.078-.422-.127a3.618 3.618 0 00-.369-.074zm7.982 8.315a333.853 333.853 0 004.289 4.421l-4.289-4.421zm-3.302-3.515l.047.156 3.255 3.358a6635.599 6635.599 0 01-3.302-3.514zm-3.897-3.924c-.031.114-.067.226-.089.341l-.014.087-.005.043c.012.028.043.075.066.114.102.164.229.348.388.559.638.844 1.8 2.119 3.994 4.232l-.396-1.296-2.223-2.291-1.527-1.574-.194-.215zm-84.304 44.472l4.664 1.234-.467-.215-4.661-1.233zm26.388 8.768c1.158.291 2.041.491 2.847.665-1.21-.336-2.181-.572-2.847-.665zm20.555 3.56c5.277 2.111-7.619-1.84 2.33 1.51.765.648-4.076-.364-8.729-2.042.485-.229 4.661 1.234 1.877-.039-3.256-.591-4.359-1.242-3.435-.373-5.367-1.344-6.071-1.158-9.751-1.951 6.436 1.788 19.625 6.564 27.914 8.455 4.651.783 2.223-.932 2.53-1.834-.603-.427-12.11-4.189-12.736-3.726zm-8.213-3.603c-2.486-.838-3.262-1.044-4.82-1.456.315.443 2.795.829 4.82 1.456zm35.017.059c-.137-.5-.305-5.247-.539-4.226l.172 7.195c.022-1.689.187-2.284.367-2.969z"/><path d="M257.221 160.366l-.072-3.156c-.012.79.006 1.765.072 3.156zm.379-6.466l-.084.342c.027.102.057.082.084-.342zm29.849-32.962c-.257.114 2.121 2.27 3.313 3.354-.908-.941-2.147-2.301-3.313-3.354zm86.076 84.62l1.855 2.15c-.62-.795-.939-1.201-1.855-2.15zm35.919 25.815c.094.022.271.14.5.311-.223-.176-.393-.284-.5-.311zm.5.311c1.522 1.215 5.508 5.68 7.261 6.965l-.264-.122 2.966 2.688c-2.671-2.629-8.206-8.221-9.963-9.531z"/></g></svg>