<svg xmlns="http://www.w3.org/2000/svg" width="500" height="500" viewBox="0 0 500 500"><path vector-effect="non-scaling-stroke" transform="matrix(.77 0 0 .77 86.327 21.59)" d="M11.296 0a3.5 3.5 0 00-2.958 1.63l-6.272 9.917A2 2 0 00.5 13.5v518.543a2 2 0 002 2h32.438c.367 0 .728.101 1.042.293l57.477 35.109c1.306.798 2.975-.107 3.041-1.614l10.052-6.64a3.5 3.5 0 001.571-2.92v-24.228h271.702a2.02 2.02 0 002.008-1.792l9.634-6.364a3.5 3.5 0 001.571-2.92V3.5a3.5 3.5 0 00-3.5-3.5H11.296zm367.546 530.63l-.625.413H98.514c-2.735 0-5.014 2.212-5.014 5v29.913l-55.956-34.18a4.995 4.995 0 00-2.606-.733H3.5V14.5h.015l.167.105.067-.105h375.093v516.13zm3-1.981l7.969-5.265a.497.497 0 00.225-.417V5.389l-8.194 8.194V528.65zM379.682 11.5l8.5-8.5H11.296a.5.5 0 00-.423.233L5.646 11.5h374.036zM105.121 534.043h-6.607a2.011 2.011 0 00-2.014 2v28.191l8.397-5.546a.5.5 0 00.224-.417v-24.228z" stroke-width="0" fill-rule="evenodd" id="l1h7mINpAU6SdzuH8Bmel"/><path vector-effect="non-scaling-stroke" transform="translate(233.52 245.2)" d="M-144.113-212.344h288.226v397.987H-75.164v26.701l-43.537-26.7h-25.412z" stroke="#000" fill="#0f90c1" id="VBPx1eLQhmzF22lZoKXCe"/></svg>