<svg height="512" id="Calque_1" version="1.1" viewBox="0 0 512 512" width="512" xml:space="preserve" xmlns="http://www.w3.org/2000/svg"><path d="M251.964 83.453a4.951 4.951 0 00-1.285 2.285L91.464 244.953A5 5 0 0095 253.488h79.168l-53.936 169.988a4.997 4.997 0 004.766 6.513h130.5c.171 0 .333-.034.5-.051.167.017.329.051.5.051H387a4.998 4.998 0 004.764-6.513L337.83 253.488h79.168a4.997 4.997 0 005-4.999c0-1.301-.508-2.58-1.465-3.536L261.322 85.74a4.954 4.954 0 00-1.285-2.286c-1.104-1.104-2.595-1.562-4.036-1.417-1.442-.145-2.932.312-4.037 1.416zm75.001 162.082a5 5 0 00-.73 4.465l53.935 169.989H256.5c-.171 0-.333.033-.5.05-.167-.017-.329-.05-.5-.05H131.832L185.766 250a5 5 0 00-4.764-6.512h-73.93L256 94.559l148.929 148.93H331a5 5 0 00-4.035 2.046z" fill="none"/><g fill="#202020"><path d="M355.698 245.989c-2.7.056-5.055-.255-4.039-.395-5.499.377-5.617-.052-6.329.678-3.53.358-7.295-.138-3.279-.434l-10.177.446 6.084.113c-.828.303-3.259.258-5.724.225-1.565-.029-1.638-.035-2.058.199-.342.208-.493.521-.439.742 0 0 .115-.188.381-.378.133-.093.306-.18.503-.234.05-.01.101-.025.152-.031.118-.015-.071-.002.115-.016l.127-.004.064-.002h.02l-.097.001h.039l.257-.001.516-.002 5.508-.03-.55.201c2.508-.217 7.38-.126 9.078-.041-.268.1-.097.262-2.04.28 13.301.046 3.583-1.061 14.619-1.262-.691.013-1.549.004-2.731-.055zm11.297 1.484l4.64-.761 7.783.196c.089-.263 5.758-.475 1.92-.706-.751.042-2.234.12-3.433.096.434-.284 3.021-.354 5.215-.426a68.164 68.164 0 002.857-.135c.737-.063.915-.153.189-.296l-6.531.126c-1.479.045-2.662.129-4.557.36-5.644-.053-9.753-.183-12.388-.391-1.675.086-1.91.435-4.039.504l1.445-.022.229.853c1.775-.18 3.453-.095 5.423-.112l-9.111.997c2.938.799 11.891.33 15.467.662-4.435-.72 3.535-.358-5.109-.945zm-8.342-1.433zM148.782 374.546c-.571 1.851-.552 2.456-.54 2.753l6.581-20.794c-.42.583-2.584 6.487-1.442 2.445-.802 1.71-2.325 7.209-2.287 8.089l.152-1.61c-1.102 4.923-2.96 7.934-2.216 4.732l-.124.406-2.603 13.775c1.64-4.84.639-3.926 2.479-9.796zm184.189-98.169c.929 2.67 1.111 2.977 1.094 2.646a49.275 49.275 0 00-1.094-2.646zM145.698 387.563l-.816 4.314c.392-1.705.675-3.225.816-4.314zm1.49-31.215c-.024-.017-.034-.069-.104.029l-.335 1.947.015-.048.424-1.928zm48.509 58.251l1.431-.037c-.522.004-.993.018-1.431.037zm-33.514-115.48l-2.449 9.396c.162-1.305-1.184 3.176-.833 1.144-.187.716-1.144 4.048-.741 3.185l.583-1.891c-.88 5.085.313 2.215-1.743 10.457 1.987-4.892 2.323-7.206 2.863-9.96l.675-2.448 1.506-7.98.139-1.903zm215.438 104.852l.084.085c-.048-.087-.07-.098-.084-.085zm.426.421l-.342-.336c.264.462.97 2.332.342.336zM145.75 385.899c.084.166.066.747-.052 1.664l.606-3.221-.554 1.557z"/><path d="M146.531 378.384l2.375-7.816.565-2.98c-.814 3.02-1.83 6.534-2.94 10.796zm36.263 35.803c16.921-.107-4.157.824 3.618 1.021 4.698-.096 6.355-.486 9.285-.609-13.421.334 1.819-1.287-11.716-1.08 1.925-.707 9.762-.771 14.354-.58 5.199.682-4.542.5-5.72 1.168 5.431-.111 4.475-.236 6.779-.615 8.528.158 17.646-.838 22.738.107 6.173-.15 5.767-.477 9.317-.836.707-.729-9.182-.383-11.469-.957.474.063 1.398.186 1.131.287l-5.337-.152c5.066.254-.704.729-3.412.785-1.97.016-5.885.047-5.346-.154l2.982-.156c-3.838-.23-8.469.531-12.523.137-.212-.164 1.322-.24 1.555-.342-4.542.498-8.923.469-15.646.82l3.897-.723c-5.378.801-17.557.572-25.997.15.936.123 2.623.209 1.61.348-4.958.174-8.702-.322-6.406-.703-2.376.294-6.861.178-11.592.075l-1.782-.037c-.105-.001-.074-.003-.083-.004l-.009-.005-.018-.008-.034-.014a.242.242 0 00-.122-.023c-.088.009-.208.073-.558.247l-.049.016c.004-.014-.287.146-.573-.093-.142-.122-.279-.354-.379-.753l-.036-.156-.017-.084-.008-.043c-.001-.021.018-.103.026-.151l.26-1.373.529-2.802 2.837-15.018a65.267 65.267 0 01-.901 3.498c-1.439 2.437-1.815 3.877-.924-.911-1.115 4.625-.081 3.051-2.212 9.854.542-2.763.061-3.656-2.076 2.831l-.511 1.869-.247.918-.098.38-.069.295-.49 2.209a50.407 50.407 0 00-.627 3.587 82.784 82.784 0 004.463-.641 53.204 53.204 0 001.764-.338c.043-.007.046-.014.121-.021l.226-.021.453-.042.905-.085 1.816-.168c4.854-.447 9.829-.873 15.36-1.192.589.488 13.109.352 19.194.467-2.323.525-6.838.674-11.525.781l11.76.07 1.532-1.03z"/><path d="M143.147 415.832c.427.043.868.068 1.322.091-.242-.04-.637-.072-1.322-.091zm24.928-.699c-.059.018-.039.033-.059.053l1.487-.037c-.504-.007-1.072-.014-1.428-.016zm-24.588-25.754l.535-2.742-.531 2.098c-.155.704-.195 1.05-.004.644zm1.853-2.994l.028.577.382-1.063c-.068-.144-.193-.052-.41.486zm102.114 32.226l1.622-.107c-.977.009-1.398.052-1.622.107z"/><path d="M201.643 415.018c-5.884.048-.704.729-9.028.733l2.443.045c-5.973.313-16.471.168-23.568.193.801-.291-4.304-.354-3.474-.805-4.852.105-9.656.207-12.155.672-3.006-.152-7.572.258-11.393.065 1.613.273-5.44.925 3.859.591-.751.037-.28.1-1.021.137 5.99.381 8.393-.265 13.553-.273 3.085.27-5.046.436-2.134.543 6.444-.251 20.221.324 19.794-.689 4.689-.072 5.337.152 6.735.338 7.418-1.082 27.531.463 27.463-.918-2.708.055-7.121.025-11.095.32l.021-.952zm-61.076-16.198l-.359 1.087.359-1.087zm26.274-69.572l.117 2.619c-4.032 13.422-5.806 18.174-9.477 29.863-.401.854-.026-.586.164-1.316-2.505 8.242-6.583 20.469-8.084 26.571-.835 2.61-3.285 9.381-2.714 6.705-.328 1.295-.714 2.772-1.207 4.226-.432.289.95-3.3.723-3.465-.388 1.152-.592 1.585-.579 1.883.353-2.034-1.692 1.689 1.213-7.398 1.841-3.292-1.917 6.335-.46 4.509.962-3.015.542-2.762.527-3.051 1.238-3.839 1.406-3.674 1.523-3.411.22-1.552 2.098-6.277 2.368-8.431 2.31-7.495.47.597 2.01-4.289l.085-3.07 2.729-8.069c3.444-11.841-1.93 1.238 1.875-12.339-.138 1.898 2.279-3.265 4.431-9.463-1.157 3.75-2.824 10.831-4.596 15.584 2.792-6.606-2.896 9.394-1.051 6.091.725-3.474 2.458-9.098 4.031-13.413l-.381 1.458c1.562-4.626 1.834-8.415 4.194-14.732.986-3.199 1.025-2.529 1.036-1.908.734-2.739 1.341-5.203 1.523-5.154zm-2.037 7.004l-1.434 4.242c.455-.971.955-2.563 1.434-4.242zm225.405-112.961l.913 1.011c-.181-.238-.534-.615-.913-1.011zm-291.96 24.396c-.431-.003-.861-.006-1.299-.006l1.892-1.861-1.91 1.869 1.317-.002zm44.418-49.692l2.539-2.819a42.12 42.12 0 00-2.539 2.819zm225.717 3.388l-.085-.094-.455-.391.54.485zm-141.763-84.537a31.5 31.5 0 001.625-1.361c-.134.016-.735.531-1.625 1.361zM142.2 198.514l.173-.151.293-.368-.466.519zm-8.619 51.645l1.66-.084c-.782.016-1.262.047-1.66.084zm-3.656-2.403a37.641 37.641 0 001.613-.084l-1.613.084zm41.366 28.306l-.939 3.365c.505-1.64.77-2.63.939-3.365zm-32.125-27.751c.203-.039.406-.077.542-.115-.484.026-.713.076-.542.115zm266.955-5.535l-.182-.177-.286-.147.468.324zm-2.832 3.295l-3.941.07a82.372 82.372 0 003.941-.07zM268.614 102.008c.566.74 1.997 2.378 1.183 1.761 1.375 1.126 1.595.74-1.183-1.761zm119.618 130.381c.287.125.621.335.97.562-.618-.443-1.102-.782-.97-.562zm.969.562l.943.672a15.448 15.448 0 00-.943-.672zM251.793 103.55c-.203.122-.489.34-.841.67.181-.019.472-.274.841-.67z"/><path d="M395.931 246.005c-.241.101-4.696.261-7.387.409-2.667.148-3.479.284 4.405.335-.074.314-2.64.387-5.708.401l-3.911-.001c-1.063 0-2.046.008-2.793.047 2.172.147-1.081.404-.421.628l2.486-.151 1.496-.057.828-.01 1.231.007c.43.072.41.138.055.195-.326.057-1.169.105-1.635.141-1.152.071-2.81.093-4.262.04 3.579.332-4.543.499.523.753l8.609-.161 9.796-.211c6.057-.169 11.253-.405 15.6-.771l-2.639-2.32 2.215 2.145c-7.939.137-17.006.262-23.851.037l2.774-.544c4.008.226 7.339.266 10.463.25l9.791-.083-.884-.891c.282.292.564.583.863.882l-17.173-.276c-4.359-.226-5.024-.366-3.978-.46 1.063-.095 3.896-.146 6.92-.195-1.525-.01-2.938-.043-3.413-.139zm1.364-4.773l-.186-.016c-.095.02-.236.032-.277.055l.463-.039zm-215.316 37.545l-.132 1.098c.185-.893.209-1.178.132-1.098zm220.512-38.26l.006.006a.698.698 0 01-.006-.006zm-212.052 10.887c-.001.059 0 .117-.01.221.022-.149.006-.149.01-.221zm-12.293-1.063c-.017.028-.037.049-.045.086.102.055.097-.005.045-.086zm12.25 1.032c.017 0 .04-.028.043.031-.01-.031-.009-.103-.043-.031zm-48.226-38.617s-.36.227-.885.626c-.143.214.077.077.885-.626zm-18.91 17.771l-.377.292.377-.292zM265.93 95.859a255.356 255.356 0 00-3.785-3.743 176.308 176.308 0 003.785 3.743zm-75.501 155.766c-.048.417-.14 1.013-.319 2.014.2-1.103.285-1.674.319-2.014zm-22.238-68.777l-.522.606.354-.316.168-.29zm9.854-9.288c-.283.371-.388.566-.531.789 3.256-3.576 9.706-9.678 10.04-10.831-1.149 1.169-7.399 6.939-6.615 5.675-2.279 2.484-6.086 5.717-7.301 7.066 4.133-3.686.768-.077-1.733 2.7-2.52 2.281.122-.781-2.021 1.21l-5.508 5.599 4.891-4.784-1.076 1.863.456-.531c8.002-8.367 1.271-.118 9.398-8.756zm-.531.789a28.491 28.491 0 00-1.215 1.408c.766-.779 1.026-1.119 1.215-1.408zm34.088-32.79l1.386-1.511-1.386 1.511zm-60.287 220.522c.218-.144 2.58-6.47 2.135-6.484l-1.956 5.72-.179.764zm150.534-222.589l-1.589-1.604-.357-.263c.28.369 1.387 1.365 1.946 1.867zM182.27 167.577c-.828.92-1.169 1.357-1.332 1.616.543-.59 1.026-1.152 1.332-1.616zm119.159-27.066c.591.763 1.456 1.892 1.482 2.148 1.381 1.387 2.512 2.201 3.978 3.553-1.634-1.545-3.444-3.415-5.46-5.701zm5.58 5.811l-.12-.109.12.109z"/><path d="M149.928 365.85l-.457 1.736.173-.924-1.527 4.383a64.4 64.4 0 01-.513 1.842c.077-.291.104-.526.103-.678l-.497 1.401c-.695 3.655-3.167 12.517-3.72 15.123-.881 3.402-2.077 7.529-2.924 10.086.763-2.377 1.681-5.563 1.146-4.688-1.776 4.754-3.222 6.881-5.266 15.411l1.542-4.894-1.261 5.545-.819 4.152c-1.387 3.067.709-3.805.943-5.676a76.546 76.546 0 01-.794 2.845c-.259.854-.53 1.682-.811 2.498-.56 1.627-1.16 3.219-1.72 4.733 2.678.146 5.244.242 7.091-.161.158.244.381.569 1.323.828.917.259 2.71.45 5.634.426-4.245-.557 3.53-.357.047-.953 2.034-.279 6.567.176 6.906-.189l-.551.201c10.053.773 13.344-.438 17.645-.836 12.038-.199 17.566.117 27.383.035.386.326 3.059 1.227 6.998 1.191 1.831-.441 10.715-.646 11.622-1.215-7.042-.236-5.761.477-9.977.609-3.509-.596-.318-.588-5.11-.943 3.868.23 17.478-.311 21.713.248l-1.495.078c6.762.338 8.054 1.74 19.32.893l5.375-.348c-.259.057-.289.123-.427.174 2.802.019 4.468.097 5.753.178l3.551.228-.082-.005c1.431.036 3.36.003 6.888-.182-.75.039-.279.102-1.042.14 5.538.317 11.122-.323 15.308-.458 2.556.472-.606.465-2.187.808 9.741.181 20.253-.633 26.303-1.21l6.279.275c-3.725.196-8.275.696-7.139.981 3.453-.096 2.784-.319 7.668-.229-.833.303-2.882.585-5.178.966 10.101.504 2.258-1.072 9.326-.146 3.174.006 5.016-.437 5.363-.802l5.749.478c.639-.466 7.736-.493 12.388-.564.568-.201-3.744-.496-5.508-.315.348-.365 5.296-.538 8.479-.532 1.166.976 20.836-.145 17.074 1.005l22.809-.389-3.118-9.21a417.535 417.535 0 00-2.842-8.126c-.685-3.047-2.589-9.096-1.003-5.611-3.477-10.97-6.226-16.324-9.426-27.291-.169-.938 1.57 4.919 1.757 4.433-2.63-6.997-3.714-13.071-7.466-24.034.606 1.853.97 2.333 1.148 2.561-.093.242-1.755-4.422-2.811-7.23-.429-1.631.79 2.103.623 1.164-6.315-21.471-12.735-37.319-19.424-58.546 1.909 6.063 3.252 8.156 3.524 8.141l-1.872-5.938c-1.033-2.189-2.445-6.646-3.857-10.299-.03-.494-.48-2.347.252-.543-1.549-5.961-3.282-10.45-5.158-15.257-.938-2.403-1.912-4.887-2.916-7.673a158.059 158.059 0 01-1.529-4.435l-.195-.603a6.636 6.636 0 01-.283-2.6c.087-1.174.581-2.437 1.285-3.369l-.104.177c-.047.083-.256.433-.37.707a6.628 6.628 0 00-.581 2.66 6.361 6.361 0 00.235 1.777c.195.673.387 1.046.584 1.572l1.241 3.122 3.381 8.501-.934-4.441 2.992 7.47c-1.108-4.676-3.156-8.399-2.864-9.098.438.924 1.134 3.263 1.409 3.256-1.209-4.443-1.666-4.678-2.803-7.946 3.706 8.386 9.095 25.423 12.236 34.516.532 1.419-.621-1.162-.799-1.387 1.219 3.73 1.635 6.069 3.293 10.726 1.329 2.797-.412-2.324-1.106-4.658.45.209.8 1.383 1.672 3.95-.287.709 4.337 14.239 4.825 17.751 4.527 13.761.505-2.591 4.579 10.953l.745 4.195c2.895 7.695 6.471 17.7 9.167 26.592l-.609-1.86c-.622-1.171-.11.928.062 1.874 1.896 6.765 4.449 12.572 5.203 16.796 2.987 7.453 7.443 20.045 10.505 28.679.045 2.577-4.208-11.194-5.798-14.687l2.522 7.943c-1.567-4.908-2.449-6.762-3.782-9.579 2.078 7.003 3.419 9.098 5.69 15.642-.354-.453-.191.465.77 3.511l.74.717c-.021.068.051.416.319 1.365l4.864 14.344c-.774-3.135-.339-3.167-1.68-7.413.087.746-.172.213-.604-.99a89.672 89.672 0 01-.768-2.259l-.736-2.293c1.148 2.563-.683-3.042-.411-3.058l3.095 9.668 3.359 10.231-3.372.054-2.372-.449c-2.137-.028-4.27-.034-6.376-.028l-5.57.04c-2.883.032-5.521.063-7.585-.002l1.301-.24c-7.301-.136-14.489.155-20.972-.282-6.512.516-14.71.946-20.032 1.485-2.847.582-19.108-.726-26.45.094-.494-.063 5.043-.438 7.548-.658-4.884-.089-8.767.635-10.297.022 10.959.204-.589-.487 4.348-.663-5.131.013-10.542.124-13.059.344 8.304-.007-2.95.846 5.458.578-6.515.516-15.405.723-23.168.524.076-.264-.88-.387-3.774-.495l-2.334.384c-3.633-.069 7.023-.455-.289-.59-.561.049-1.164.089-1.813.12l-.13-2.494c-.054.48-.098.963-.132 1.446l-.043.726-.011.197c-.007.098-.01.141-.009.115l-.003.001-.031.003-.124.004-.273.011c-.257.009-.519.019-.784.027-.531.013-1.08.024-1.641.037l-3.496.023-7.213-.034c-4.666-.01-8.725.072-10.249.633-5.735-.479 10.913-.484 2.27-1.07 5.028-.438 11.963.063 13.621-.541-4.928.172-1.799-.512-4.978-.518l-5.496.373 1.216.023c-9.223.57-23.836.297-35.614.393-9.977.609-16.845 1.49-28.811 1.424 3.533-.357-9.938-.344-2.405-.999-5.537-.315-11.004.058-11.113.321 4.872.092 1.713.086 5.817.215-2.77.32-9.155.307-11.778.098 1.216.023.753-.039 1.021-.139-5.817-.215-2.788.318-6.992.451-.667-.224-2.987-.254-5.621-.257l-6.004-.005c-1.983-.009-3.821-.031-5.22-.09-2.178.15-4.355.3-6.328.3l.33-2.16c-.904 4.236 2.743-8.14 3.566-9.454l1.105-4.311.14-.55.088-.388.162-.726.346-1.494a79.244 79.244 0 012.077-7.201c-.551 2.46 1.979-5.19 2.417-5.163 3.537-9.799 4.105-16.783 7.669-25.996.002.322-.333 2.304.641-.411.573-2.199 1.823-5.972 2.513-8.301l-.011.076.026-.124c.338-1.141.514-1.869.424-1.929.859-4.088 1.101-6.26 3.238-14.164-.647.425-2.555 7.064-3.31 9.963l-.323 2.609c-1.449 2.132-2.109 7.07-2.915 8.788.661-4.938 5.138-18.346 7.196-26.587-2.211 4.722-5.713 15.408-8.602 24.785l1.586-4.03-1.544 4.896 1.998-4.58c-1.557 4.608-2.702 8.655-4.059 12.836 1.547-4.908 2.794-6.615 1.813-3.872-2.19 5.321-1.509 5.79-2.863 9.959.78-2.313 1.748-5.335 1.396-3.3-3.172 8.061-3.514 10.401-6.488 17.704 1.07-.683-2.893 9.385-2.614 10.709l1.168-3.456-1.871 7.522a25.38 25.38 0 01-.764 1.679c-.228.506-.335.654-.362.572-.031-.071.033-.421.104-.78l.143-.831c.1-.554.169-.994-.018-.657-.094.168-.252.53-.504 1.169l-.108.283c-.056.155-.114.317-.174.489l-.398 1.13-1.014 2.922c-2.222 6.892-3.338 10.821-4.1 13.762 5.096-.233 8.376-.544 15.994-.582-2.944.326-8.968.621-16.254.773.88-3.017 1.92-6.427 3.018-9.873l-2.342 6.611c.367-1.619 1.782-6.259 3.407-11.436l3.162-9.903c-1.666 7.082 1.188-3.184 2.599-6.198-.261-.719-1.6 3.742-.293-1.612-1.549 4.913-1.74 5.644-3.89 11.836 4.486-13.438 2.31-12.631 6.422-24.297-1.522 5.496 1.242-1.69 1.665-2.276.758-2.573 2.297-7.792 2.863-9.96l-1.255 1.727c1.901-6.954 4.018-8.907 5.87-17.042-.058-1.151-2.342 6.929-1.964 5.48 3.037-10.971 5.311-14.549 8.848-24.022-.02-.605-.462-.622.266-4.097.05 1.18 1.038-1.249.118 2.628 1.184-3.167 2.111-7.069 2.862-9.957-2.352 6.629.316-2.917.477-4.225 1.167-3.45.049 1.18-.517 3.351.987-2.754 2.605-5.885 2.531-7.65.44.02-1.404 8.128-2.938 13.327l1.17-3.461c-.554 2.465-.755 2.895-1.915 6.332 1.388-3.284 1.629-2.841 1.668-1.96-.2.425-.018-.277-.21.128-.987 2.75-1.553 4.921-1.133 4.344-.249 2.676 1.566-3.753 2.436-5.552l1.239-4.283 2.837-15.018c1.757-6.243 3.057-8.888 4.794-13.445l-.064-1.422c1.754-5.361 3.512-10.388 3.011-6.754-.218.145-.406.866-.798 2.026.014.174-.026.458-.097.809-.008.121 0 .191-.002.293l2.805-9.769c-2.422 9.992.695.759 1.006 2.657l2.862-9.96c-2.162 5.902-.441-.02.121-2.179.653-.438 2.519-7.953 3.684-11.398l.015.286c.59-1.578 1.319-3.776 2.044-6.083l.45-1.461.231-.812c.129-.534.331-1.026.295-1.498-.095.084-.324-.467-.963-.811-.621-.377-1.545-.333-2.025-.081.482.081.679.346.751.486.072.152.035.228-.025.26-.127.059-.389.021-.487.195-.075-.132-.324-.249-.398-.188-.272.076.111.262-.033.444.288.113.485.41.477.708-.008.146-.037.292-.054.444l-.029.231-.014.118c-.005.029.002.02-.013.08l-.083.302c-.878 3.198-1.531 5.875-1.677 7.464 1.005-2.146.929-3.905 1.921-6.348-.708 3.753-2.273 8.386-4.208 14.441l-1.022 1.862-1.723 6.164c.601-2.61-.294-1.208 1.658-7.631-.628.7-1.929 6.371-3.296 10.249l-.117 2.168c-.044-.863-2.76 7.504-1.265 1.421l2.65-9.826-1.209 2.581 2.5-8.225-.345 2.019c1.909-6.639 2.475-7.527 3.012-8.437.269-.454.531-.914.95-2.101.21-.593.458-1.368.767-2.415l.51-1.785.294-1.067c.051-.188.104-.381.157-.581.045-.171.137-.494.111-.444-.245-.363-.354-.459-.494-.583-.142-.131-.27-.168-.524-.233.197-.074.296-.19.318-.335.037-.146-.045-.32.211-.511a1.853 1.853 0 00-.518-.076l-.719.005a46.63 46.63 0 00-2.953.133c-1.724.134-3.07.334-4.701.462-1.602-.348-2.741-.633 2.876-.582.704-.729-7.389.126-7.901-.625-9.304.011-13.032.618-17.152 1.104-2.06.243-4.219.456-7.222.55-1.501.047-3.214.064-5.231.04l-3.266-.068-4.041-.138.247-.047.251-.048c.064-.018.104-.037.158-.056l.408-.151-10.393.122-9.918.053-18.174-.003c6.002-5.985 12.046-12.022 19.18-19.296l7.149-6.604.652-.601.396-.345.692-.594 1.228-1.053 1.198-1.027a62.122 62.122 0 00-1.442 1.674l-.805.984-.379.481-.179.231-.09.117-.159.186c-1.673 1.964-2.408 3.033-.555 1.443-3.267 2.715-6.609 5.879-9.946 9.1-3.357 3.242-6.703 6.536-10.522 10.06-.249.535 2.778-2.285 4.167-3.498-2.848 2.841-5.074 4.809-8.017 7.679 1.47.02 3.219.021 5.402-.018-.021-.08-1.958-.169-3.068-.249-1.116-.08-1.417-.152 1.681-.2l9.173.479c7.026-.114 8.932-.401 11.019-.632a46.092 46.092 0 013.862-.275c.872-.029 1.908-.048 3.195-.053l2.13.004 2.334.028-.333.083-.612.085-1.466.178c-1.064.12-2.299.24-3.661.351-2.718.221-5.972.401-9.189.453 3.686.046 1.161.111-1.538.196-2.683.085-5.576.19-2.223.318 5.917-.317 9.864-.35 14.361-.353l5.924-.015a134.09 134.09 0 005.09-.161c-.924.088-1.168.212-3.105.251l11.422.268c-2.826-.371 9.435-.407 8.372-.958-12.173-.229-8.596.104-22.467-.208 3.927-.125 8.991-.686 11.363-1.201.121.021.321.039.748.049 2.12-.545-.041-.691 0-1.645-3.166.339-5.807.369-8.591.363l-4.365-.001c-2.146.013-4.594.051-7.352.149-1.196.261.285.427 2.883.512 1.284.042 2.869.063 4.416.066a82.842 82.842 0 003.021-.047l-3.416.173-5.146.173 2.089-.24-25.204-.175c4.867-.028 7.053-.331 9.795-.559-3.084-.021-5.906-.158-8.731-.31-.308.296-.851.541-1.943.688.09-.232.553-.774 1.472-1.687 5.871-5.788 10.541-10.257 14.204-13.641a235.941 235.941 0 015.319-4.778l.449-.381.688-.548 1.269-.975.86-.91c-1.635.913 4.747-6.044 6.732-8.767.256.489 4.139-3.692 6.52-5.691.738-1.594-1.408-.63-4.425 1.686-4.746 5.529-2.484 3.274-4.355 6.257l-7.879 8.62 1.509-2.192c-.533.496-1.054.998-1.558 1.496l-2.097 2.112-3.845 3.969c-2.187 2.263-3.57 3.65-3.794 3.43 1.41-1.706 3.685-4.039 5.952-6.364l1.696-1.744 1.552-1.622c.644-.704 1.229-1.376 1.693-1.99l-1.442 1.279-.529.47-.671.619-.737.686 1.883-2.099c.388-.426.709-.754.99-1.021.561-.532.957-.815 1.388-1.125.863-.62 1.869-1.35 4.623-4.408-2.516 1.76.5-.553 2.736-3.296-2.262 1.735-10.125 10.341-9.021 7.952 2.742-3.303 10.921-9.416 14.281-14.053l-.123.269c5.982-5.816 7.688-8.256 9.667-10.695 2.718-2.303 5.891-6.061 8.589-8.805l.12.253 3.76-3.916c-1.487 2.168-4.507 4.489-7.755 7.836l.757-.063c-4.213 3.389-6.122 6.551-8.771 9.797 3.99-4.59 12.2-12.03 12.529-13.715l3.004-2.304 1.143-1.396c2.241-1.714.634.717-3.122 4.63-.754.578-1.13.868-1.001.593-1.625 1.935-2.99 3.838-7.376 8.065l2.114-2.482c-5.387 5.337-10.128 10.346-11.623 12.523 7.886-7.597 15.529-15.178 22.782-22.463 1.36-2.928 3.464-5.912 3.828-7.733 4.743-5.012 11.264-11.734 15.767-15.703l-.246.533a89.842 89.842 0 005.512-5.607c2.375-1.992-1.109 1.88.516.462l6.741-7.23c-.101.761-5.978 6.641-8.746 9.456.499-.555 1.507-1.673 1.122-1.376-3.383 3.112-8.87 9.723-10.767 10.665-1.499 1.665 2.862-3.566-2.519 1.765-3.766 3.406-4.505 5.003-4.737 5.521.129.245 5.885-5.373 4.137-3.174 2.768-2.814 3.638-4.167 7.389-7.557-2.744 2.79-6.122 6.926-7.886 8.109-5.122 5.818-3.46 5.911-.833 3.38-.889.339 9.64-10.318 2.109-3.502 2.869-3.576 8.753-9.465 12.748-13.901l-.121.262 5.145-5.321c-.639.835-2.137 2.5-2.003 2.738l6.747-7.749c-3.744 4.416 2.763-2.296 4.768-4.004.49-1.062 3.112-4.103.232-1.549-3.261 2.846-1.623 1.932-4.377 4.731l3.481-4.383.381-.293 1.998-2.736c5.382-5.33-1.482 3.197 5.02-4.026l-1.396.39c8.02-7.871 18.79-17.51 24.171-23.355-1.263 1.834-1.486 2.977.917 1.121-2.507 2.334-7.354 7.217-10.779 10.736-.757.58 3.743-4.933 7.624-8.596-2.651 1.004-8.991 9.985-10.268 9.594-9.902 9.319-6.365 7.973-15.013 15.641.26.485-2.137 2.5-2.237 3.258 3.022-1.807 10.885-10.926 16.391-16.007-.491.545-1.478 1.644-1.612 1.918 3.894-3.675 5.374-5.322 7.879-8.103l-.377.289c4.255-4.983 3.137-2.58 6.019-5.135.998-1.108 4.886-4.781 4.005-4.446l5.277-4.569-.653-.179c2.752-2.801 3.635-3.134 5.898-5.904l-.256-.489-7.025 6.767c3.373-3.617.617-1.331 4.38-5.25-3.883 4.698 3.241-2.828 4.01-2.905l2.615-3.034-.623.821a19.368 19.368 0 002.483-2.466l1.078-1.234c.461-.503.739-.804 1.98-2.021l-.968.889-.616.537-1.114.959a90.148 90.148 0 00-2.141 1.896c-1.425 1.309-2.896 2.781-4.708 4.857 1.311-1.52 3.312-3.742 5.156-5.757l2.542-2.755 2.826-2.919c2.797-2.966 5.25-5.33 7.608-7.557 2 2.11 3.942 4.193 6.145 6.434-3.443-3.334-3.928-3.486-4.112-3.32-.178.174-.081.641-2.032-1.127-1.381 1.515-3.831 4-8.431 8.457.249-.392 1.657-1.768 2.219-2.242-.647.41-1.636 1.283-2.798 2.412l-.72.709-.58.596-1.204 1.302c-1.625 1.804-3.279 3.802-4.347 5.052.872-.323-1.485 2.17 2.777-1.79-.762.587-.049-.432 1.372-2.058a70.708 70.708 0 012.565-2.77l2.233-2.225c.786-.768 1.577-1.523 2.343-2.233l-.363.949-.328.915c1.753-1.724 3.506-3.447 5.259-5.2l2.905 2.985-.767-.712c1.462 1.84 3.557 3.898 6.007 6.273 1.779 1.704 3.8 3.61 5.65 5.683 3.04 2.622 13.735 13.65 9.676 8.363 3.152 3.887 6.709 6.508 10.628 10.27l-4.548-5.027c6.079 5.24 4.179 3.881 9.375 7.744.298.618 1.176 1.76.087 1.008 7.573 7.635 18.267 18.66 23.208 22.641 5.334 5.386 5.484 6.917 13.276 14.167 1.667 1.501-.687-1.782 4.124 3.365.292.379-5.228-4.359.363 1.14 4.4 3.498 9.026 9.525 14.556 14.271 2.549 2.875 7.317 7.52 5.979 6.896-4.215-4.378-10.369-10.383-11.467-11.139.809.378-2.848-3.264.484-.264-6.225-6.765-4.437-3.995-10.078-10.005-.545-.259 2.601 3.391 3.977 4.512-.46.514-11.724-11.253-7.129-5.489 6.184 6.268 9.049 7.101 13.931 13.009-2.459-1.866-5.591-5.5-8.85-7.736l4.237 4.63 3.57 2.866-.264-.12c7.385 8.277 7.746 6.742 14.997 13.504-3.721-4.397 1.784.093-1.063-3.167 4.748 4.624 8.124 8.129 7.668 8.648-9.164-8.368-1.014.019-9.604-7.599 1.155 1.505-2.643-1.216 2.133 3.667 5.789 5.093-1.222-2.034 4.365 3.232.277.364.566.741.306.623 2.749 2.242 2.82 3.003 6.121 5.744l-.813-.619c3.428 4.02 4.408 3.738 7.292 7.267-.921-1.644 2.449 1.855 4.663 3.618-3.113-3.386-4.353-5.665-10.793-12.047-1.061-.488-.751.139-3.522-2.356l4.202 4.132c-.946-.852-1.705-1.463-2.586-2.23l-3.854-4.151c5.279 4.871 3.258 2.237 5.712 4.096 4.519 4.769 3.911 3.753 6.738 6.767-.714.126 8.237 9.672 13.314 15.29l-2.465-2.498c-4.148-3.619 2.323 3.023 2.352 3.282l3.041 2.621c-.563-.504-1.397-1.143-.249.124l1.675 1.587 1.465 1.33c.888.785 1.624 1.398 2.375 2.025 1.5 1.252 3.062 2.566 6.018 5.445-.047.184-1.459-.937-2.4-1.615-.95-.687-1.452-.952.056.677.327.514 1.008 1.527 2.278 3.058 1.283 1.544 3.116 3.566 6.094 6.448l-1.755.046c-.37.125-2.65.195-5.403.249.365-.018.837-.03.973-.054l-6.675-.356c1.799-.225 3.796-.226 5.945-.183 2.134.043 4.422.128 6.38.076a50.882 50.882 0 00-2.515-2.246l-1.458-.708c-2.646-2.644-6.605-6.279-8.5-7.785 3.645 3.771 4.615 4.546 9.178 8.953-.094.143-1.04-.597-1.98-1.384-.945-.792-1.899-1.645-2.14-1.859l1.232.805c-2.039-2.349-4.235-4.366-6.439-6.33-2.221-1.981-4.515-3.975-7.329-6.858-.844-.875-.292-.378-.029-.258-4.974-4.248-8.999-9.269-13.96-13.271l1.658 1.264-15.864-14.094-.193.098c.574.75-1.658-1.493-2.8-2.754l.008.004-8.677-7.747a40.224 40.224 0 002.63 3.003c1.105.763 6.444 6.382 6.081 5.242 2.297 2.766 6.712 6.507 8.423 8.513-3.137-3.637 2.726 1.991 3.533 2.37.894 1.384 5.038 5 4.264 4.887.582.754-1.443-1.882-3.082-3.125-3.854-3.239 6.224 6.766 1.512 2.639 2.926 2.694 6.216 5.918 9.536 9.155l4.963 4.801 2.314 2.18 1.959 1.766-2.623-2.893 2.122 2.16 2.451 2.464c1.597 1.611 2.929 2.987 2.914 3.132-1.67-1.592-3.511-3.441-5.593-5.391-.29.082.842 1.213 2.06 2.395 1.217 1.18 2.547 2.438 2.371 2.491 1.878 1.546 3.923 3.257 5.563 4.898a7.251 7.251 0 01-.715.402c.572.004 1.145.008 1.707.008l-1.492-1.53c.496.403 1.105.962 1.825 1.66-1.699.029-4.268-.021-6.931-.084l-7.779-.173c1.447-.341 3.305-.364 5.655-.324 2.318.041 5.188.144 7.783.054l-.765-.71c-1.832-1.638-1.702-1.263-1.616-.948.102.33.177.616-1.27-.708.143.258.6.769 1.181 1.343-.819.005-1.574.055-1.975.148l-1.642-.131c.578-.195 1.525-.319 2.663-.412l-4.133-3.758c-1.362-1.237-2.701-2.419-3.854-3.292.309.21.604.401.772.46a50.453 50.453 0 00-1.503-1.705l-.902-.955-1.335-1.358a199.813 199.813 0 00-5.409-5.231c1.7 1.993 2.53 2.624 3.64 3.625.016.246-3.329-3-4.703-4.12 3.112 3.383.333.879 2.311 3.011-2.226-2.004-3.906-3.75-6.435-6.375-1.161-1.512 1.347.864 1.304.362-2.792-2.516-3.456-4.279-7.605-7.898 5.069 5.263-1.861-.861-3.796-2.487l.85.882c-1.907-1.369-3.309-2.749-4.194-4.127 2.226 2.004 4.194 4.127 3.867 3.251-1.408-1.385-2.813-2.766-4.478-4.265l1.637 1.24-7-6.885c-1.34-.857-3.518-2.352-4.835-2.958-1.446-1.884-3.948-4.021-5.612-5.517l.836.634c-2.855-3.269-9.842-9.909-10.63-10.27-1.997-2.378 16.825 14.103 1.163-1.163-5.881-5.876-4.344-2.979-7.936-6.099 0 0 .259.12-.029-.258-2.523-2.623-3.041-2.621-5.266-4.626 1.439 1.646 3.67 3.887 4.489 4.508-1.06-.489-5.333-5.383-7.529-7.13 2.998 2.119-4.805-5.141-2.594-3.381-4.833-5.399-10.651-10.522-13.663-12.885-2.92-4.024-6.162-6.015-11.541-11.906.849.883 2.504 2.371 3.655 3.642 3.563 2.862-5.655-6.022-.391-1.399-1.112-1.002-.262.111.878 1.141 1.937 1.857 3.876 3.489 3.559 2.853l-4.282-4.901 1.688 1.518-6.54-7.398c-.26-.119.306.623.598 1.001-7.895-8.271-17.375-17.274-24.399-24.414-.782-.115-3.067-2.088-5.996-4.847L256 100.69a64.987 64.987 0 00-2.048 2.247l-.415.495-.095.118-.193.217-.427.478a50.213 50.213 0 00-1.463 1.716c1.25-1.818 1.589-3.157.435-2.414l.497-.556.268-.316.17-.228.84-1.114c.645-.832 1.509-1.856 2.432-2.718l.119.128c.151.31.779 1.106 1.146 1.648.374.55.486.843-.19.347 2.254 2.142 2.273 1.945 1.785 1.176-.459-.74-1.527-2.152-.629-1.622-.79-.766-1.535-1.471-2.23-2.114a128.47 128.47 0 00-3.173 3.532l-.709.821-1.002 1.119-1.905 2.149c-2.465 2.794-4.665 5.329-7.005 7.873l-.258.025-4.002 4.445c3.517-3.386 3.906-2.655-.738 1.597l.514-.569c-2.772 2.302-7.775 7.858-11.775 11.784l-2.363 3.012c-4.006 3.933-4.78 3.5-6.432 4.43-6.264 6.179-9.363 10.267-13.488 14.979-2.261 1.735-11.643 10.992-7.024 5.736-5.38 5.844-2.839 6.12-13.245 14.965l2.244-2.752c-9.15 9.256-21.77 22.885-26.276 26.858 2.483-4.307-12.422 10.567-14.952 11.31.66-.252-2.729 3.273-3.124 3.887-.863.652-2.226 1.813-3.38 3.335 3.768-3.409-1.595 3.45 4.905-3.771-2.859 4.084-6.854 9.036-14.491 16.612l-.258-.487 6.131-5.905c-.882.333 2.236-2.744 3.378-4.14-11.404 10.985.593-2.338-10.803 9.155-.864 1.347-.248.531-3.126 3.601.693-.706 1.039-1.186.928-1.208-.055-.011-.224.092-.521.339-.148.123-.328.282-.542.481l-.57.545-.491.789-.436.733c-.808.497-1.059.542-.93.266.123-.271.608-.845 1.132-1.447l.773-.888c.365-.405.678-.76.879-1.011.402-.504.357-.596-.604.147 4.126-4.712 11.624-12.522 9.722-11.572-3.695 3.522-5.095 5.368-6.542 7.25-.723.941-1.458 1.891-2.498 3.063l-.841.925-.901.946a51.807 51.807 0 01-1.919 1.868l-.943.538c-1.896 2.173-1.5 2.432-2.029 3.358-.365.134-1.052.648-2.387 1.917l-1.33 1.968 4.662-.475a57.789 57.789 0 004.256-.624c-3.297.203-5.279.188-6.538.113l3.066-2.736c1.062-.983 2.169-2.09 3.937-4.078-.379.533-1.561 1.849-2.43 2.942-.883 1.106-1.385 1.923-.684 1.737l-1.082.334-.68.919c2.356-.2 4.184-.34 6.211-.203l-2.041.297a19.242 19.242 0 012.763-.043l1.208.089.601.054 1.25.053c3.383.137 6.538.209 9.967-.23-2.423-.047-4.389-.031-5.885.049 4.475-.235 10.088-.182 14.952-.093l10.062-.871c-.088.262 6.288.277 3.211.695 7.245.401 10.66-.385 14.846-.516l1.15.095.503.057.469.063c.517.076.613.118.403.136a6.533 6.533 0 01-.532.011c-.218.003-.628-.019-.805.001l-1.71.063c-2.625.083-6.268.188-6.631.552 2.555.061 5.149.093 7.692.099.34.004.584-.007 1.001.009l1.393.069 2.758.13 1.363.061c.458.014.91.025 1.293.151a8.914 8.914 0 012.285.943 9.12 9.12 0 013.335 3.396 9.28 9.28 0 011.174 4.199c.006.346.022.674-.035 1.015l-.236 1.035-.441 1.98-.741 3.485 1.031-3.36c.245-.751.388-1.098.432-1.019-.144.239-.604 1.913-1.139 3.958l-.098.369-.081.249-.163.508-.326 1.028-.596 1.884-.151 1.607c-1.377 3.575-1.407 3.001-.669-.178-1.169 3.465-1.858 7.816-3.468 11.256.747-3.036 1.808-6.423 2.774-9.447l1.328-4.177.515-1.719.203-.737c.065-.256.105-.381.175-.731-.079.344-.123.452-.182.665l-.165.56-.32 1.068-.609 1.947a106.09 106.09 0 01-1.113 3.288c-.707 1.979-1.357 3.609-2.038 5.344-1.362 3.468-2.844 7.356-5.137 15.303-.218.145.325-2.621-.643.414-2.112 7.072.09 2.052-.244 4.363 1.515-5.479 2.514-7.937 3.923-10.948l-.193 1.529c-.207.175-1.293 3.574-1.745 4.533l.263 1.047c-.47-.594-2.652 4.702-3.785 9.05 1.805-4.184 1.412-3.023 2.466-3.983-1.262 6.218-2.787 6.584-4.241 13.541-.032-.566 1.691-6.496-.069-1.458-1.361 4.2-.718 3.787-1.465 6.657.511-3.337-.118-2.639.384-6.271 2.31-7.498.964-3.015 3.065-10.393l-2.384 6.054c1.929-6.362.892-4.789.867-5.371-3.94 10.659-1.831 8.395-4.17 15.314-.723 3.464 2.141-6.498.833-1.135-2.138 6.486-.146 1.587-2.247 8.963l.159-1.296c-1.005 2.14-1.341 4.463-2.11 7.063-.751 2.891 2.752-2.669-.922 9.028.043-.616.021-.854-.037-.873l-.568-12.729a1974 1974 0 01-12.823 39.077c-1.843 2.97 2.431-10.002 1.796-9.279l2.152-6.202c.235.461-4.051 13.139-1.646 7.685 3.255-11.123 5.244-16.009 7.853-26.713-1.853 2.995-4.233 13.846-7.029 20.461.962-2.846 1.638-5.29 2.265-7.673l-6.859 20.422-.321 1.698c1.649-4.878 2.796-8.251 2.965-8.68-2.136 6.484-3.424 12.117-2.961 12.739l.388-1.149-.559 2.411-1.568 4.539zm188.073-76.357c.184.378.35.668.506.871-.163-.21-.135.074-.506-.871zm-160.245-44.771c.965.017 1.927.011 2.881.051a4.158 4.158 0 012.549 1.181 4.199 4.199 0 011.136 3.945c-.114.462-.29.904-.432 1.354l-4.04 12.191c1.487-3.66 2.879-7.082 3.98-9.682 1.008-2.412 2.021-4.374 2.148-5.201.094-.396.169-.467.253-.125.083.344.106 1.098-.271 2.295l-.604 2.179-.396 1.376-.447 1.481-2.444 7.817-.436 1.672c.593-1.619 1.344-3.842 2.146-6.33l1.23-3.888c.416-1.342.862-2.911 1.275-4.333.122-.585.313-1.302.234-2.151a5.278 5.278 0 00-.943-2.631c-.593-.831-1.468-1.557-2.542-1.875a5.373 5.373 0 00-1.635-.253c-.552.007-1.094.097-1.612.148l-5.277.648c-1.416.179-2.298.307-2.258.343.801.174 1.785.166 2.932.127l1.768-.061a22.744 22.744 0 011.688.008l-.883-.286zm-6.273-2.083c-5.16-.139-3.986.137-4.787.385l5.423-.094c-.686-.063-1.025-.15-.636-.291zm-4.478.633c.58.006 1.075.018 1.333.051l-1.333-.051zm-4.615 80.079l.146-.51-1.178 3.523c.186-.458.501-1.347 1.032-3.013zm3.747-9.799l-.063-1.305-1.103 3.304c.314-.312.609-.648 1.166-1.999zm11.604-31.638c.122-2.188 2.249-8.972 1.781-9.577-.017-.481-.528.926-1.085 2.51l-1.862 5.694c.065.098.02.524-.115 1.22.708-1.971 1.28-3.257 1.392-2.331-2.431 4.874-.887 4.777-2.852 10.257-.136 1.898 2.378-6.039 2.741-7.773zm163.112-101.987c.077.155.379.657.819 1.345l-3.117-2.678c-5.072-5.265-8.573-10.045-13.775-14.148-2.039-2.315-2.912-3.773-3.786-5.127a146.405 146.405 0 012.815 2.972c13.848 12.238 5.952 7.649 17.044 17.636zm-58.642-60.209c.561.505.824.624.824.624a613.611 613.611 0 01-15.859-14.243 518.853 518.853 0 01-6.326-5.988 327.16 327.16 0 01-4.85-4.757l-.815.81c.182-.082.456-.259.815-.525 1.904 2.412 5.09 5.99 7.467 8.594l-2.719-1.981c.018.018-.344-.488-.518-.807l-.447-.737-3.287-2.617c.408.656 1.179 1.525 2.023 2.454l1.278 1.409.799.889.81.932c.262.121 7.744 6.744 9.943 8.488l-5.381-5.89c1.419 1.625 8.979 9.015 12.037 11.885.244-.127-4.579-5.52-5.624-5.762-.334-.882 5.558 5.004 2.128.986 4.706 4.12 11.482 11.386 14.604 14.779l.091 1.013c3.395 3.753 2.97 1.859 6.949 6.372-5.31-5.131.378 1.388-3.81-2.73 1.151 1.5-.461.515 3.735 4.641 4.074 2.854 4.003 4.769 7.815 7.504 1.998 2.378-2.722-1.987 1.502 2.399 5.258 4.617 5.203 4.102 5.953 3.964-4.492-4.742-5.765-4.61-9.433-8.494l8.271 6.75c-1.276-1.492-2.289-2.527-3.18-3.356 1.554 1.465 2.948 2.635 4.201 3.576l1.959 1.508c-4.252-4.261-8.021-8.052-8.501-8.909l.803.372c-1.31-1.705-3.921-4.006-5.211-4.981-3.835-3.788-7.942-7.295-8.495-8.407l1.644 1.25c-4.748-4.628-5.297-5.123-11.195-11.015zM127.047 221.479c3.629-2.05 7.457-4.483 20.57-17.872l-.988 1.097c7.174-6.182 12.365-13.676 21.04-21.25-3.645 4.24-3.459 4.001-7.131 9.034l4.006-4.453c-.742 1.602 3.255-2.84 6.379-5.923l-2.228 3.251c-2.01 1.716-6.893 6.492-6.634 6.467 1.001-1.114-7.021 5.731-10.911 9.917.763-.07 9.149-8.736 5.907-4.363 3.119-3.593 3.88-3.664 7.266-7.292-3.126 3.601-.36 1.305-2.612 4.062l5.634-5.87c.265-.034-8.12 8.633-2.981 4.346 2.123-2.486 8.504-8.411 8.241-8.895l.256-.027c4.392-4.23 1.369-2.424 6.875-7.505-.125-.25-1.264.629-3.122 2.564-1.52 1.686-1.509 2.188-4.758 5.542-1.772 1.188 4.018-3.946 1.233-2.147-1.384.893-8.503 8.928-6.643 5.959l4.383-4.223c-.263-.484 2.875-3.579 2.486-3.792 2.494-2.769 5.397-4.831 7.76-7.843.875-1.357-1.522.142 3.119-4.108 4.026-2.922 14.156-13.267 17.912-17.18l3.117-3.594c-.514.056-6.38 6.442-4.523 3.99l5.144-5.323-.26.548c1.766-1.702 3.385-3.63 4.885-5.294-1.361 1.899-5.241 5.563-4.103 5.202 2.533-2.38 3.052-2.61 5.238-4.945-.466.521-.853.983-.736.976 5.142-4.804 4.367-5.237 5.488-6.61 4.494-5.506-5.509 4.57-5.271 3.53l14.384-14.812c-1.121 1.373-2.25 2.754-1.62 2.443 3.76-3.401.383.221 5.391-4.825-.89-.173 5.999-6.661 9.243-10.52 1.877-1.441 2.262-1.738-1.36 1.896.762-.071 5.5-5.075 7.263-6.775.918-1.089 2.579-2.85 3.586-4.012-1.625 1.281-1.221.445 1.777-2.848l.122-.267c-5.272 5.083-13.647 12.705-16.532 16.296l.743-1.085c-6.267 5.67-12.367 13.607-15.771 15.708-.004-.513-1.258 1.139-1.527.663l-4.103 4.686.745-1.083-7.391 7.559.128-.268-7.721 9.398c.154.171.436-.01-.629 1.294a42.308 42.308 0 01-2.822 2.965c-.005.007-.005.007-.004.008l-.002-.002c-1.881 1.786-3.336 2.775-5.69 4.938l6.91-6.99c.29-.843-.587-.538-4.187 2.674 1.382-1.403 1.75-2.201-.005-.51-.118.261-4.378 4.731-2.495 3.288-6.502 6.703-17.916 16.667-27.416 27.217 6.887-7.518-6.143 5.402 1.74-2.707-6.023 5.139-4.367 5.237-10.125 10.857-.644.326 3.118-3.077 4.112-4.697-9.636 9.282-15.246 16.673-24.53 25.69l-.736.047c-1.692 1.775-3.566 3.747-5.516 5.798zm-18.797 19.656a201.44 201.44 0 01-3.038 3.123l4.037-.107-.774-.015 8.532-.393c-2.271-.095-3.896-.276-4.07-.465-.184-.188 1.025-.385 4.12-.51-.792.202.715.449-1.624.566 3.743.292 13.65.576 11.103-.161-8.342.696-1.382-.938-7.668-.421 1.841-.24 3.372-.306 4.883-.339l2.223-.042 1.118-.035 1.245-.063c-3.435.401.801.91 5.961 1.101 2.246-.119 8.325-.005 12.058-.2-1.331-.45 1.919-.708-4.162-.821a86.372 86.372 0 019.552.02c-1.534.077-4.215.133-4.03.296 2.496.414 5.419.396 7.033.573l3.848-.072a6.177 6.177 0 01-.937-.155l4.274-.397c-5.693.212-2.631-.208-2.558-.472-.153.527 3.665.068 5.614.051l-4.233-.557c2.046-.279 7.224.402 6.155-.149-8.981-.221-12.435-.126-20.557.04l3.297.433c-9.164.306-5.652-.742-15.935-.721-1.068.099-2.569.15-4.223.183l-4.53.078c-2.552.057-4.845.162-5.387.558.654-.121-.476-.296-2.028-.398-1.572-.101-3.592-.127-5.381.052a29.68 29.68 0 01-1.196.157c1.152-1.978 7.386-8.362 4.829-6.235-1.052 1.045-2.108 2.239-3.176 3.363-1.076 1.132-2.176 2.206-3.566 3.263l3.808-4.021-3.573 3.016c1.75-1.552.885-1.232-1.044-.124zm57.136 55.67l-.082.225.083-.252-.001.027z"/><path d="M406.714 244.767c-1.641.18-6.896.15-5.254.538-.831-.427 9.313-.065 5.254-.538zm-6.749-.417c-.178.102.333.265-1.893.28l5.955-.108-4.062-.172zm-8.892-2.912c-.896.159-1.707.283-2.731.364-.513.041-1.08.07-1.742.088-.688.018-1.322.023-2.503.016-.87-.52 1.204-.592 2.626-.656 1.61-.064 3.566-.119 3.728-.604a34.22 34.22 0 00-4.686.218l-.663.078-.93.083c-2.45.226-4.723.475-8.031.519.82.108 2.271.206 3.992.277l2.737.088 2.754.041c3.105.018 5.785-.117 5.449-.512zm.837-1.314l-2.437.235.328.061 2.461-.235zm-45.629-63.295c-.056-.515-2.253-2.26-3.366-3.262.846.874 1.989 2.138 3.366 3.262zm28.561 206.519l-10.621-32.438 10.621 32.438zM264.696 98.245c6.696 6.264 9.972 8.747 16.675 15.249-4.109-4.573-7.157-7.259-10.029-9.772-1.436-1.257-2.828-2.47-4.287-3.855a73.183 73.183 0 01-2.253-2.232l-1.733-1.806-1.934-2.074 1.921 2.386 1.257 1.576.383.528zm4.118.453c.32.753-1.056-.37-2.436-1.524l-.514-.431-.254-.212-.389-.348-1.338-1.169c-.738-.622-1.109-.864-.791-.387l2.214 2.118c.421.383.695.617.954.833.5.414.789.609 1.061.795.543.373 1.018.713 2.98 2.713l-1.487-2.388zm22.213 36.517l-2.19-1.74 1.664 1.499zm-60.037-23.551l.618-.814-3.386 3.112zm1.234-1.63l-.617.815.617-.815zm55.349 23.584l2.829 3.013 1.643 1.246zm-23.455-28.098l2.751 2.474c-.545-.491-3.94-4.243-2.751-2.474zm-53.156 25.803l-3.013 3.345.368-.282 3.003-3.334zm36.742-23.24c2.137-1.472-5.123 5.302-1.115 1.882 3.253-3.354 1.738-2.187 1.115-1.882zm-40.608 36.098a22.53 22.53 0 00-1.267 1.364l1.267-1.364zm0 0c1.384-1.384 2.896-2.641 3.749-3.687-1.876 1.576-2.448 2.261-3.749 3.687zm-15.782 15.937l1.279-1.231c-1.119 1.446-.535.814.478-.462 1.319-1.341 1.139-1.372 1.225-1.602l.689-.947-.971 1.211c-2.063 2.057-3.304 3.33-2.7 3.031zm-64.52 53.31c4.76-4.512 6.019-5.651 6.025-5.141 4.482-4.318 3.355-4.08 5.906-6.837-4.929 5.03-6.066 5.929-11.931 11.978zm11.931-11.977l1.717-1.759a49.455 49.455 0 00-1.717 1.759zm73.948-57.047l-2.486 3.276 1.002-1.112zm-92.888 75.774c.876-.843 2.243-2.233 3.007-2.821-.011-.506-3.881 3.663-3.007 2.821zm22.94-12.816c.628-.313 3.5-3.374 4.768-4.52-1.765 1.698-3.652 2.634-4.768 4.52zm-41.954 33.961c1.55-1.517 4.201-3.821 3.723-2.915 1.755-2.009 3.781-4.947-3.723 2.915zm33.436-25.536l.749-.574 3.007-3.338zm15.128-7.503c3.26-3.875-6.403 4.917-.519-1.489-8.249 7.604 1.044-.171-4.853 5.625 3.528-3.32 5.595-4.607 5.372-4.136zm-5.372 4.137a75.389 75.389 0 00-1.648 1.595l1.648-1.595zm-13.932 29.706c-.733.046-1.233.096-1.696.147.577-.035 1.128-.08 1.696-.147zm-4.488-10.778l4.885-5.811c-.816.97-1.991 2.258-3.278 3.643l-1.984 2.123-.998 1.063-.171.188-.113.13-.22.254c-1.163 1.345-1.877 2.281-1.301 2.165a17.052 17.052 0 001.806-1.814l.192-.229c.077-.09.077-.104.277-.319l.873-.976c.538-.614.982-1.147 1.292-1.557l-1.26 1.14zm46.691 19.472l-3.268.258 4.08.076c-1.169-.098.945-.577-.812-.334z"/><path d="M173.835 251.168l-.789-.014c.173.017.424.023.789.014zm-56.687-8.725a74.4 74.4 0 00-5.972.088c.513.123 5.895.237 5.972-.088zm61.064 10.253l.065-.223.071-.243.016-.074.083-.389c.059-.278.105-.538.105-.538s-.073.289-.154.586l-.126.451-.271.878.211-.448zm-8.667 23.652l-.398.85-1.13 4.333.403-.863zm21.074-31.577a8.865 8.865 0 00-2.044-3.214 8.342 8.342 0 00-2.402-1.687c-1.45-.633-2.213-.579-1.6-.328 0 0 .598.201 1.427.676.822.477 1.852 1.277 2.64 2.299a9.4 9.4 0 011.614 3.112c.275.918.325 1.552.325 1.553.07-1.36-.18-2.081-.701-3.088a10.714 10.714 0 00-1.229-1.771 10.864 10.864 0 00-2.68-2.279s.381.169.918.499a9.639 9.639 0 011.808 1.446 9.822 9.822 0 011.924 2.782zm-20.316 181.754c-1.583.342-9.337.144-9.744-.182 1.042-.141 5.246-.275 2.605-.482l-6.135.84c-8.16-.523 6.203-1.104 10.233-1.4-8.313-.109-10.777.443-19.621.439 2.608.076 4.257.285 5.634.465.15.296-1.834.378-4.593.393l-12.123-.016c6.692.256 2.846.473-2.484.705-.939.018-1.581.052-2.051.092l-1.831.082h1.351c-.144.066.091.146 1.007.256 2.428-.043 4.671-.045 6.799-.022l3.105.049.668.017.381.017.746.037c1.96.104 3.701.229 5.292.232-3.144-.961 10.836-.222 14.836-.519l4.619-.094 1.728-.002c.347.105-.145.237-2.779.428 2.199-.189 9.532-.123 8.855-.432l16.736-.014a15.75 15.75 0 011.428.156c.58-.061.677-.109.601-.158l30.342-.026 15.171-.013 7.585-.006 3.792-.004 1.896-.001.948-.001.309.001.108.003.011.001.098-2.022.136-2.185c.036-.617.088-1.233.158-1.849l.13 6.08 12.231-.019c-3.597-.075-6.709-.293-10.418-.398 3.264-.375.61-.35-1.813-.386l-.13-5.277a42.731 42.731 0 00-.2 2.556l-.097 1.545-.04.772-.018.383h.003l-.054-.005-.18-.01-.515-.017c-.38-.014-.719-.03-.984-.055-.529-.049-.759-.126-.421-.25.394-.035.817-.063 1.259-.083l.638-.027.201-.006.075-.002h.002-.002c0-.009-.002.018 0-.019l.011-.213.1-1.701.095-1.49c.033-.46.075-.92.127-1.379l.13 4.816c2.027-.04 4.216.023 5.71.123.813-.305-2.296-.574-1.938-.938a66.726 66.726 0 00-3.773-.058l-.13-3.943a34.13 34.13 0 00-.177 2.206l-.088 1.339-.02.339-.002.045-.051.001-.181.001-.442.016-1.014.045c-.653.036-1.264.082-1.851.134-1.173.104-2.25.233-3.376.354-2.25.24-4.694.445-8.489.352.356-.365 3.135-.684-2.75-.635l1.496-.078c-9.423.408-7.342-.826-13.273.176l.156-.527c-4.274.396-12.591.4-17.277.473l.28-.102c-13.147.604-7.38.127-22.143.381l6.794-.615c-5.093-.254-6.241.414-9.897.346.262-.102-.586-.488 2.867-.584l-17.913.938c-4.273.396.87.387 1.535.611z"/><path d="M147.642 425.74a75.146 75.146 0 00-3.297-.02l3.297.02zm125.964 1.626l-5.123.006c1.587.032 3.241.042 5.123-.006zm-145.71-17.795c-2.064 5.606 1.096-4.715.651-3.983l-6.001 18.946c.291-.242-.03 1.521.346.947l5.004-15.91z"/><path d="M124.249 427.849c.906-.143 3.328-.268 5.945-.389l-8.575.003.927-2.93c-.163.143-.516.912-1.341 3.232.783.023 1.793.05 3.044.084zm11.933-10.841l1.272-.018 2.001-.156zm26.885.894c-2.352-.309-6.815-.074-8.307.004 5.143-.01 2.914.107 8.307-.004zm-6.355-3.301l4.957-.174-.462-.06zm154.753 10.683l2.423-.035a60.489 60.489 0 00-2.423.035zm-42.538.511c11.825.59-7.748.494-4.032 1.251l6.435-.252-.547.203 7.848-.068c-1.61-.348-2.82-.369-2.47-.734 10.477.141 3.303.433 10.989.893l11.71-.069-.947.109c.986-.008 1.422-.054 1.76-.113l39.465-.235c7.18-.292-3.971-.656 1.324-1.195-8.321.003-20.688-.383-21.396.346.28-.101.83-.302-.856-.388l-4.813.601 4.589.19c-4.839.599-20.468.47-23.294.099 8.887-.206 4.427-.925 16.809-.536-.556-.185-2.823-.509-.035-.61-14.508.212-27.511-.118-42.539.508zm106.054-40.121l.098.089c-.113-.24-.165-.313-.098-.089zm1.386 4.668l2.819 6.523-3.389-10.49-.72-.612c.416.891 1.827 4.498 2.093 5.985l-.803-1.406zm5.714 14.218c-1.925-5.362-2.394-4.889-1.71-1.848-1.843-4.9-.23-2.82-1.913-6.064-.37.241 1.817 6.308 2.34 7.696l1.283.216zm-29.791 21.613l1.601-.246-3.944-.063zm1.601-.246l3.916.065c-.271-.182-.539-.358-1.178-.482l-2.738.417zm14.189.234l3.981.057 5.435.035-9.416-.092zm-4.477-.15l.133.077 4.345.072-4.478-.149z"/><path d="M357.807 425.993c.636.413 1.381.847 7.041.731l-1.112-.636-5.929-.095zm-165.04-10.769l4.478-.234-.474-.064-4.475.234zm25.835.377a68.16 68.16 0 002.708-.227c-1.165.046-2.092.114-2.708.227zm19.206-2.822c5.266.416-7.266.549 2.487.734.859.387-3.712.885-8.305.693.365-.365 4.475-.234 1.652-.605-3.05.422-4.21.135-3.147.684-5.131.342-5.702.732-9.185 1.09 6.202-.242 19.226.321 27.098-.383 4.339-.66 1.707-1.561 1.725-2.514-.653-.224-11.901-.33-12.325.301zm-8.287-.951c-2.438-.047-3.182-.01-4.678.07.403.326 2.709-.056 4.678-.07zm56.013 7.195c.466-.136 4.875-.305 3.928-.539l-6.686.173c1.569.022 2.123.187 2.758.366z"/><path d="M279.844 418.73l2.933-.073c-.734-.012-1.64.007-2.933.073zm6.009.377l-.318-.084c-.094.029-.077.058.318.084zm100.844.269c.37.302-1.448-4.911-2.331-7.437.636 2.077 1.451 4.93 2.331 7.437zm-36.569-111.852l-.598-2.571c.164.924.249 1.397.598 2.571zm-19.077-36.5c-.071-.058-.171-.229-.288-.467.11.24.207.401.288.467zm-.288-.467c-.751-1.649-2.107-7.043-3.027-8.846l.174.211-1.312-3.481c1.081 3.311 3.253 10.29 4.165 12.116z"/></g><g fill="#202020"><path d="M273.792 101.746c-2.094-2.015-3.666-4.027-2.795-3.353-4.451-3.918-4.237-4.311-5.296-4.337-2.938-2.433-5.454-5.648-2.188-2.802l-4.01-3.695-.354-.326-.294-.855c-.159-.464-.441-.832-.723-1.047a2.124 2.124 0 00-1.143-.474c.405.109.714.279 1.024.6.216.232.418.586.508 1.007l.139.655.624.659.718.758c-.223-.109-.513-.321-.861-.615l-.184-.155-.621-1.254c-.173-.348-.334-.671-.687-.963a1.844 1.844 0 00-1.339-.409l-.319.032-.303-.032c-.812-.086-1.33.393-1.297.744.311-.319.745-.49 1.268-.45l.368.028.313-.025c.837-.068 1.479.331 1.71 1.149l.272.96.607.587.258.25-.34-.168-.9-1.602-.113-.053.038.072.8 1.515.13.113c2.062 1.782 5.561 5.406 6.763 6.726-.274-.133-.259.111-1.75-1.355 10.089 10.155 3.477 1.977 12.018 10.233a45.426 45.426 0 01-2.041-2.118zm7.549 9.647l4.068 2.993 5.784 6.063c.253-.119 4.718 4.046 1.96.961-.601-.542-1.785-1.616-2.68-2.545 1.063.26 8.077 7.677 6.742 5.53-4.79-4.578-5.421-5.386-8.631-7.943-4.257-4.332-7.292-7.551-9.15-9.703-1.336-1.213-1.761-1.146-3.43-2.717l1.115 1.084-.429.778c1.479 1.224 2.695 2.561 4.206 4.047l-7.638-6.229c1.671 2.8 8.815 9.281 11.302 12.238-2.865-3.884 2.943 2.436-3.219-4.557zm-5.336-7.362l-.172-.169.172.169zM134.9 432.401c-2.085.015-2.699.217-3 .318l23.474-.021c-.735-.224-7.496-.5-2.979-.635-2.015-.248-8.152-.034-9.042.269l1.701-.342c-5.408.438-9.102-.421-5.576-.68l-.456.004-7.49.844-1.397.158-.685.077-.833.049-3.16.151-1.303.054c-.397.025-.733.026-.987-.014a6.668 6.668 0 01-.821-.146c.411.139.799.231 1.163.291l1.1.038c.68.018 1.258.022 1.77.019a44.381 44.381 0 002.571-.104c.435-.02.703-.066 1.055-.104.346-.039.729-.076 1.178-.109a53.762 53.762 0 013.717-.117zm92.299-325.384c-2.095 2.206-2.302 2.527-2 2.342a55.217 55.217 0 002-2.342zM118.405 430.205s-.277-.278-.625-.752a8.237 8.237 0 01-1.038-1.88 8.463 8.463 0 01-.523-2.069c-.066-.576-.063-.961-.063-.961-.066 2.513 1.129 4.609 2.249 5.662zm34.641-4.831c.01-.028.06-.053-.063-.091l-2.106.271h.054a851.66 851.66 0 012.115-.18zm-7.231-100.349l.431-1.479a46.504 46.504 0 00-.431 1.479zm70.82 97.322l-10.436.51c1.391-.24-3.644-.167-1.445-.447-.795.038-4.524.134-3.507.257l2.129-.016c-5.503.7-2.17.969-11.294 1.503 5.665.414 8.148.034 11.149-.285 1.018-.036 1.869-.066 2.731-.098l8.678-.979 1.995-.445zm-89.458-209.691l-.042.119c.06-.087.061-.113.042-.119zm-.207.601l.164-.481c-.317.475-1.76 2.07-.164.481zm-6.603 218.179c-.229-.012-1.014-.315-1.962-1.231 0 0 .798.872 1.815 1.44.999.604 2.127.843 2.127.843a7.256 7.256 0 01-1.98-1.052z"/><path d="M130.23 431.417l8.792-.102 3.241-.363c-3.365.138-7.3.233-12.033.465zm10.994-93.281c5.405-17.391-.568 4.514 2.151-3.402 1.437-4.849 1.604-6.667 2.44-9.709-4.05 13.868-.635-2.256-4.843 11.692-.047-2.189 2.443-10.247 4.12-14.9 2.341-5.127-1.003 4.811-.75 6.221 1.662-5.605 1.232-4.661 1.62-7.141 2.927-8.701 4.946-18.354 7.503-23.293 1.866-6.378 1.423-6.06 2.237-9.811-.465-.945-3.354 9.304-4.646 11.476.213-.467.631-1.378.642-1.072l-1.883 5.429c1.891-5.12.465.941-.361 3.737-.627 2.025-1.871 6.051-1.887 5.438l.821-3.106c-1.469 3.868-2.25 8.849-3.945 12.888-.225.168.201-1.429.18-1.698-1.004 4.811-2.458 9.296-4.31 16.3l.58-4.218c-.988 5.76-5.169 18.184-8.318 26.714.421-.923 1.052-2.627.856-1.546-1.449 5.138-3.141 8.829-2.756 6.358-1.004 5.148-6.487 18.775-7.892 25.781l-3.187 16.12-2.191 11.083-.948 5.132-.267 1.445c-.064.331-.021.485-.035.489.24-1.655.738-3.532 1.186-5.448.45-1.146.729-1.556.969-2.026.234-.436.395-.716.478-.753.083-.038.087.168.008.705l-.182 1.063-.38 2.082.432-2.039c.092-.443.16-.813.213-1.14l.245-1.689c.171-1.11.476-2.514 1.624-6.175-.606 2.965-.142 3.91 2.153-3.073 4.953-17.707 6.916-29.861 11.227-46.499.658-.456 4.602-13.341 6.692-19.548-.255 2.541-1.583 7.219-3.006 12.059l3.895-12.043-.485-1.883z"/><path d="M129.885 379.305c.181-.425.348-.87.518-1.328-.117.236-.275.63-.518 1.328zm7.448-25.784c-.001.066.019.05.031.077l.448-1.537a534.49 534.49 0 01-.479 1.46zm-18.987 73.019c.423 1.179.909 2.03 1.851 2.875-.564-.53-1.134-1.343-1.469-2.216-.33-.821-.416-1.236-.382-.659zm1.563 4.231s-.177-.082-.346-.179a5.194 5.194 0 01-.337-.197c.397.447.72.723 1.141 1.041.213.005.108-.133-.458-.665zm46.577-157.628l.427-1.696c-.311 1.005-.406 1.45-.427 1.696zm-18.335 45.909c-1.87 6.051.467.942-2.24 9.483l.838-2.492c-1.646 6.222-5.2 16.947-7.486 24.235-.017-.909-1.738 4.309-1.898 3.32-1.478 5.009-2.946 9.967-3.315 12.672-1.124 3.037-2.219 7.845-3.646 11.707.786-1.572-.89 5.859 1.819-3.781-.209.781.004.317-.201 1.09 2.313-6.03 2.479-8.689 4.15-13.986 1.26-3.083-1.228 5.308-.177 2.354 1.858-6.687 6.891-20.646 5.785-20.514 1.458-4.833 1.882-5.43 2.514-6.808 1.384-7.938 9.403-28.102 8.064-28.45-.83 2.795-2.294 7.313-3.305 11.479l-.902-.309zm-27.245 95.944l.386-1.17-.386 1.17z"/><path d="M187.246 435.904l-2.649.904c-15.081.219-20.533-.034-33.719.004-1.007-.123.592-.202 1.403-.242l-15.89.052-4.021.023-1.923.02-.932.013c-.101.011-.451-.018-.696-.029l-.793-.046-5.955-.322c-.491.016-.842-.151-1.235-.268a12.335 12.335 0 01-3.027-1.531 11.326 11.326 0 01-3.089-3.575c-.888-1.589-1.36-3.479-1.39-5.042-.015-.392-.002-.762.02-1.106l.291-1.023c.182-.621.332-1.108.439-1.413.214-.611.253-.492.019.726l.837-3.828.233-1.016.12-.513c.039-.163.086-.378.111-.442l.376-1.174c.11-.08.101.103.029.423l-.148.569-.097.333-.144.606c-.391 1.648-.816 3.402-.703 3.481.556-2.151.823-2.965.847-3.486-.314 1.838.186.954.242 1.692.03.361-.049 1.11-.384 2.732l-.302 1.389c-.16.538-.182 1.081-.142 1.704.064 1.24.361 2.812 1.3 4.479.616 1.362.658 1.461.194.956-.439-.511-1.201-1.761-1.579-3.219a10.52 10.52 0 01-.353-2.172 12.123 12.123 0 01-.021-.973c.043-.313.123-.611.165-.864.19-1.014.178-1.431-.271-.461-.145.685-.391 1.311-.336 1.771.01.48.042.883.096 1.22.106.674.245 1.08.351 1.336.227.507.318.423.431.614.49 1.585 1.191 2.644 1.731 3.377.555.731.977 1.15 1.226 1.428.513.542.357.516.142.48.552.359 1.405.934 2.513 1.4.569.213 1.126.487 1.846.548.733.048 1.497.098 2.269.147 1.544.101 3.127.2 4.558.264.97-.009 1.663-.072 2.261-.167 8.44-.066-.459.628 5.054.617l3.177-.848 9.166.158c13.269-.301-1.898-1.465 13.268-1.947-1.993.443 4.09 1.185 11.149 1.36-4.224.032-12.03.586-17.482.335 7.686.663-10.579.082-6.59.842 3.799-.36 10.132-.41 15.071-.217l-1.619.078c5.253.089 9.229-.799 16.478-.461 3.603-.028 2.928.211 2.294.409 3.049-.125 5.774-.292 5.783-.105zm-7.847.179l-4.82-.083c1.144.139 2.941.135 4.82.083zm149.677-277.11l-.986-1.083c.198.253.577.658.986 1.083zm34.357 266.818l2.791.027a80.034 80.034 0 00-2.791-.027zm12.682-28.496l-1.422-3.827c.5 1.53.956 2.708 1.422 3.827zm-23.546-214.746l.092.101.487.423-.579-.524zm-12.562 94.383a35.46 35.46 0 00-.509-2.222c-.046.135.155.963.509 2.222zm36.371 121.067a13.19 13.19 0 00-.061-.24l-.202-.464.263.704zm-40.541 25.319l-1.787.084a25.58 25.58 0 001.787-.084zm3.936 2.402c-.644.021-1.258.049-1.736.085l1.736-.085zm-96.521-1.669l-3.757.123c1.846-.015 2.949-.062 3.757-.123zm86.575 1.115a9.446 9.446 0 00-.583.115c.52-.025.767-.076.583-.115zm-15.849-284.864l.163.159.137-.002-.3-.157zm-7.334-5.589l-2.384-2.285a58.502 58.502 0 002.384 2.285zm62.766 115.123c.995.123 3.33.27 2.24.409 1.905-.176 1.778-.606-2.24-.409zm-38.728-100.332c-.504-.342-1.093-.807-1.683-1.275 1.072.896 2.006 1.686 1.683 1.275zm-1.683-1.275l-1.575-1.305c.545.467 1.076.908 1.575 1.305zm17.136 108.642a3.023 3.023 0 00-.766-.121c.179.115.436.139.766.121zm-43.666-126.424c-.562-.276-11.022-10.117-2.558-1.506-.774.115-5.684-5.272-8.069-7.438 1.549 1.757-1.108-.537-.765.124 1.183 1.076 2.652 2.29 4.486 4.188.655 1.061-2.314-1.632-4.449-3.919 2.489 2.959-3.81-3.104-.134.931 8.398 8.085 14.385 13.748 20.83 18.894-4.805-4.591-10.193-9.714-13.867-13.746l2.004 1.235c4.017 4.694 6.958 7.129 11.205 11.449l-9.417-9.827c-4.188-4.827-1.099-1.885 2.524 1.598-.868-.88-1.636-1.694-1.79-1.983zm9.859 3.107l-.15-.172c-.155-.127-.339-.293-.444-.367l.594.539zm-68.38 301.505l-1.169.206c.976-.092 1.276-.157 1.169-.206zm72.256-293.902l-.007-.007c.07.061.085.077.007.007zm-43.176 293.968c-.042.014-.083.029-.155.047.104-.018.104-.034.155-.047zm7.774-11.731c-.054-.025-.069-.049-.196-.074-.621.031-.321.057.196.074zm-7.753 11.68c0 .016.02.033-.021.051.021-.018.072-.035.021-.051zm116.191-29.762s.046.454.173 1.151c.131.245.105-.033-.173-1.151zm-1.681 26.801l-.664-.036.664.036zm-24.751-184.727c-1.381-.008-2.417.006-3.292.029 1.008.014 2.098.012 3.292-.029zm-89.936 187.786c-.292.057-.707.117-1.392.189.756-.078 1.154-.138 1.392-.189zm100.877-69.598c.11.277.213.537.316.801l-.128-.495-.188-.306zm-4.023-14.007c.209.456.339.654.477.902-1.788-4.887-4.442-14.066-5.336-14.969.547 1.678 2.989 10.499 2.194 9.115 1.234 3.411 2.468 8.641 3.148 10.472-1.497-5.767.271-.761 1.673 3.01.943 3.533-.652-.515.196 2.517l2.618 8.037-2.154-7.041 1.207 1.964-.277-.7c-4.015-11.795.456-1.255-3.746-13.307z"/><path d="M370.202 352.469c.27.732.517 1.372.734 1.861-.363-1.116-.556-1.534-.734-1.861zm-14.516-48.788l-.751-2.075c.14.391.469 1.297.751 2.075zM148.51 431.043c.219.164 7.477.5 7.347.072l-6.504-.133-.843.061zm272.241-181.341a5.042 5.042 0 01-1.206 1.859c-.083.133-.178.244-.239.343.22-.115.588-.441.874-.877.293-.43.489-.959.571-1.325zm-54.56 94.837c.465 1.248.709 1.793.87 2.077-.293-.811-.586-1.553-.87-2.077zm56.021-94.775a6.078 6.078 0 00.347-1.672c.034-.538.002-.964.052-1.061-.313-1.075-.892-1.84-1.664-2.504-.742-.689-1.489-1.363-2.314-2.158.898.909 1.937 1.881 2.853 2.977a5.07 5.07 0 01.726 4.418zm-3.715-7.524l.135.129-.135-.129z"/><path d="M144.192 430.862l-1.93.09 1.004-.114-4.993-.129-2.056.068c.323-.015.574-.061.729-.107l-1.6-.05c-.994.111-2.358.215-3.889.312-.783.046-1.535.102-2.436.135l-2.843.077c-.955-.003-1.938.119-2.803-.074a6.222 6.222 0 01-2.332-.994c-1.328-.912-2-2.136-2.316-2.876a6.299 6.299 0 01-.345-3.314l.913-3.506.461-1.704.405-1.336.743-2.343c-.412 1.288-.861 2.758-1.148 3.853-.317 1.289-.441 2.006-.144 1.415.526-1.63.951-2.576 1.399-3.693.442-1.08.878-2.135 1.324-3.316.893-2.362 1.83-5.23 2.953-9.813l-1.661 5.267 2.849-12.122c1.691-4.027-1.422 6.051-1.617 7.797 2.474-9.347 6.096-16.623 6.665-21.139.656-.454 1.752-1.216 3.623-7.271-1.913 4.187.808-3.729-.894-.337.396-2.171 2.305-6.684 2.067-7.142l.014.626c4.009-10.079 3.925-13.821 4.945-18.354 3.728-12.408 5.829-17.983 8.946-28.08.437-.297 2.165-2.767 3.415-6.817.174-2.012 2.871-11.188 2.625-12.29-2.517 7.152-1.422 6.054-2.667 10.419-1.709 3.419-.664.147-2.563 4.957 1.479-3.898 5.394-18.022 7.304-22.2l-.412 1.559c2.524-6.835 4.281-7.736 7.139-19.55l1.418-5.619c-.03.282.023.333.027.49 1.46-4.504 2.148-6.092 2.807-7.817.673-1.776 1.26-3.514 2.362-7.827-.168.658.042.202-.134.884a60.106 60.106 0 001.526-4.583c-1.917.043-3.822.15-5.529.258-1.713.108-3.233.218-4.556.265-1.366-.236-1.209-.353-.488-.453.736-.1 1.827-.184 2.696-.355a195.578 195.578 0 00-7.78.03 272.12 272.12 0 00-7.713.288 344.39 344.39 0 00-12.665.887l-6.758-.277c4.008-.195 8.906-.694 7.683-.979-3.716.095-2.997.318-8.253.228.897-.303 3.102-.584 5.573-.965-10.87-.506-2.43 1.072-10.037.145-3.416-.006-5.398.436-5.772.801l-6.188-.478c-.344.232-2.425.355-5.047.429-2.637.069-5.702.118-8.492.081-.359.087.694.222 2.152.333.76.063 1.478.084 2.17.09.692.005 1.338-.01 1.813-.055-.204.178-1.574.327-3.456.395-2.071.021-4.63-.031-6.611-.103-.111-.11-.592-.203-1.326-.278-.745-.045-1.624-.245-2.611-.802-.957-.554-1.923-1.489-2.472-2.717-.568-1.211-.701-2.675-.357-3.95.161-.641.438-1.23.78-1.736.32-.499.821-.94 1.217-1.375a88.658 88.658 0 012.143-2.174c1.167-1.134 1.694-1.472 1.188-.562l2.137-2.279 2.136-2.21 4.46-4.595 9.146-9.391c5.997-6.16 11.523-11.865 14.969-15.599 2.559-2.177 7.394-6.993 4.826-3.777 8.76-8.754 12.568-13.979 21.449-22.482.806-.633-3.923 3.936-3.384 3.856 5.405-5.958 10.628-10.045 19.26-19.044-1.471 1.495-1.761 2.07-1.895 2.348-.269.041 3.374-3.848 5.544-6.24 1.341-1.222-1.625 1.79-.817 1.159 17.363-16.693 29.399-30.604 46.366-47.51-4.846 4.828-6.217 7.113-6.082 7.352l4.747-4.73c1.598-2.054 5.156-5.611 7.96-8.757.451-.279 1.991-1.634.622-.05 9.269-8.396 13.32-14.708 23.591-24.837l-.467.818a6.867 6.867 0 01.655-1.62c.15-.262.318-.516.504-.763l.337-.404.238-.246-.21.258-.304.405a7.088 7.088 0 00-.453.776c-.263.532-.448 1.088-.619 1.631.156-.235.313-.471.455-.72l-11.203 12.824 3.757-3.116-5.688 6.526c3.9-3.395 6.488-7.151 7.274-7.244-.673.868-2.562 2.694-2.433 2.94 3.637-3.366 3.654-3.9 6.22-6.6-6.231 7.64-19.841 21.228-26.987 28.719-1.096 1.207.816-1.155.948-1.431-2.963 3.01-4.975 4.583-8.611 8.464-2.037 2.632 2-1.562 3.883-3.384.004.514-.944 1.431-2.968 3.533-.793.103-11.449 11.205-14.53 13.442-10.916 11.133 2.657-.869-8.255 9.743l-3.61 2.82c-5.943 6.554-13.753 14.905-20.907 21.891l1.477-1.503c.823-1.161-.92.375-1.733 1.014-5.512 5.174-9.833 10.454-13.466 13.296-5.673 6.513-15.522 16.983-22.273 24.167-2.4 1.359 8.647-9.531 11.221-12.755l-6.34 6.344c3.914-3.927 5.264-5.673 7.317-8.32-5.655 5.461-7.027 7.746-12.165 13.146.269-.552-.522.065-2.957 2.491l-.344 1.036c-.073.017-.368.259-1.141.987l-9.165 9.587c2.138-1.841 2.535-1.637 4.96-4.054-1.066.663.948-1.432 3.377-3.85-1.898 2.349 2.554-2.173 2.689-1.935-4.868 4.85-10.792 10.867-13.883 14.147l-1.353.717c-4.711 4.55-9.424 9.618-12.658 12.666l.821-1.159-3.346 3.288-1.314 1.322c-.421.447-.911.838-1.208 1.377-.618 1.061-.565 2.443.066 3.446a3.407 3.407 0 002.824 1.63l3.806-.373.905-.09c.11-.015.375-.03.616-.045l.72-.045 2.869-.179c3.798-.239 7.436-.48 10.3-.75 3.064-.582 20.565.729 28.467-.089.532.063-5.427.438-8.124.657 5.256.09 9.435-.633 11.083-.021-11.795-.206.634.488-4.68.662 5.522-.011 11.346-.122 14.054-.34-8.938.005 3.175-.846-5.874-.579 3.13-.23 6.771-.398 10.58-.496l4.223-.061 4.505-.033 8.916.018-1.346 4.077c-.296.061-.927 1.644-2.437 6.039l-.728 3.56c-.934 2.826-.172.053.322-1.907.5-1.977.731-3.138-1.061 2.286l-1.068 3.941a162.244 162.244 0 01-1.12 3.739l-2.563 7.989c-1.694 5.262-3.149 10.002-3.108 11.875-2.322 5.737 3.09-11.342-.281-2.652 1.219-5.29 3.954-12.254 3.917-14.137-1.439 5.107-1.073 1.69-2.113 4.95l-1.433 5.751.417-1.24c-2.458 9.634-7.475 24.542-11.217 36.653-2.667 10.419-4.063 17.73-8.021 29.985.81-3.731-3.563 10.092-1.734 2.166-2.103 5.585-3.526 11.306-3.311 11.497 1.672-4.971.639-1.732 2.098-5.902-.596 2.938-2.688 9.484-3.741 12.111.418-1.24.209-.784.2-1.09-2.098 5.902-.604 2.956-1.845 7.31-.861 1.232-3.136 9.485-4.606 13.353l-1.203 5.904c.596-3.265-1.882 5.426-2.536 6.208-1.018 4.185-1.611 7.775-3.697 13.978.304-1.321-.222.077-.88 1.804-.645 1.687-1.488 3.911-1.586 3.517a23.374 23.374 0 00-.662 1.868 2.166 2.166 0 00.259 1.742c.313.494.816.84 1.364.978.551.159 1.124.026 1.643-.03l.763-.098c.269-.031.361-.062 1.077-.089 1.146-.056 2.301-.101 3.479-.129a91.526 91.526 0 017.458.112c-.33.1-2.471.381.63.487 2.443-.12 6.72-.07 9.334-.117l-.083.012.136-.012c1.28-.023 2.084-.076 2.116-.18 4.474-.418 6.78-.845 15.584-1.2-.646-.488-8.079-.298-11.298-.14l-2.782.482c-2.658-.736-7.939.129-9.964-.118 5.281-.864 20.492-.655 29.617-1.188-5.563-.679-17.667-.783-28.226-.698l4.651.291-5.525.011 5.348.518c-5.234-.09-9.758.044-14.488.016 5.538-.011 7.696.662 4.563.556-6.172-.477-6.432.314-11.149.286 2.626.044 6.042.051 3.84.331l-3.195-.178-.67-.033-.209-.029-.383-.048c-.479-.067-.897-.028-1.246-.251a1.266 1.266 0 01-.631-1.001c-.065-.455.256-.941.556-1.39-.227.041-.296-.092-.269-.362l.014-.106.005-.029.027-.1.058-.205.262-.887.625-2.005c.885-2.795 1.875-5.86 1.749-6.564l-1.252 3.721 2.05-8.085c2.955-7.123-1.414 6.688 2.569-4.313 3.341-10.258 2.442-10.251 4.946-18.354-.386 2.809-2.025 9.345-4.108 15.864l1.475-3.88c-.397 2.174-3.316 11.18-4.772 15.674 1.833-7.608-1.267 3.43-2.754 6.685.248.763 1.694-4.036.26 1.718 1.668-5.287 1.876-6.072 4.177-12.741-2.407 7.233-3.058 10.623-3.656 13.774-.061.271-.022.227-.005.251l.057.052a.606.606 0 00.116.074c.077.038.15.052.21.052.135.006.154-.067.098.04-.101.095-.312.2-.369.411-.073.215.083.376.1.489l.312-.052 3.067-.067a255.96 255.96 0 005.395-.166l-2.18-.674c7.752-.292 10.446 1.134 19.393.438 1.163-.404-7.87-.136-6.26-.214 12.242-.426 16.652.658 27.522 1.163.615-.202.488-.629 4.29-.986-1.194.405 1.619.611-2.658.908 3.634.17 7.939-.128 11.146-.285-7.566-.236 3.095-.582 4.489-.824 3.919.067-1.194.403-3.605.521 3.146.107 6.885.702 8.671.097.124.426-8.794 1.122-14.627 1.233l3.932.067c-2.709.219-3.216.157-7.119.091 3.821.33 3.444.694 2.554.997-.5-.062.279-.101-.2-.161-3.143-.107-5.554.009-4.825.235-2.826.572 4.36.356 6.489.642l4.797-.115 16.329-1.841c6.977-.215 10.113.224 15.353.5l1.438-.491c6.07.05 11.798.204 7.908.826-.219-.163-1.021-.124-2.338-.147-.174.066-.479.114-.862.152-.126.029-.196.058-.301.086l10.934-.282c-11.038.715-.551.892-2.398 1.763l11.149-.286c-6.758-.274-.124-.426 2.274-.544.388.287 3.403.235 6.629.157l.132 3.144c.063-.559.112-1.119.148-1.68l.094-1.45.033-.001.137-.001.31-.007.854-.021 1.667-.037c1.08-.021 2.079-.03 2.889-.017l-.288.102c3.621.17 9.968.121 14.482-.012-.206-.164 5.585-.965 8.367-1.447-7.746-.184-3.149-.379-3.771-.684.802.027 2.243.033 2.411-.029 1.108-.139-1.505-.186-1.724-.348-8.234.229-16.706.293-20.064.977 2.528.311 4.309-.295 7.138-.088-1.689.19-3.582.286-5.708.332l-3.367.038-1.821.001-.946-.002-.355-.004-.144-.005-.023-.001h-.006.002l-.007.142-.144 2.3a35.182 35.182 0 01-.164 1.941l-.132-4.401-3.369-.01-2.243-.41-6.884.224c2.874-.218 1.144-.646 8.367-.729-.922-.386-7.164.09-11.586-.039l-2.262.545c.871-.304-8.596-.36-1.87-.776l10.943-.447-3.042-.371 9.251-.106-2.183.282c2.095-.054 3.686-.07 4.877-.062l.132 6.302c.052-.465.095-.929.128-1.391l.095-1.488c.081-1.14.127-2.23.181-3.391.007-.021.02-.004.049-.008l.162.008.516.014.995.039c.584.031 1.021.072 1.374.119.705.093 1.073.205 1.606.299 1.068.188 2.801.3 9.227.023 4.683-.66 9.717-.73 18.886-.57-6.635.148-.682.465-3.178.848 6.768.275 9.052-.27 12.562-.525 1.724.348 2.95.633-3.095.582-.758.729 7.952-.127 8.503.625 20.026-.023 16.047-2.426 39.457-1.488l-.877.303c14.865-.377 23.441-.016 37.207-.254l1.693.121.82.058.436.032.048.033c.068.045.152.094.249.142.189.094.442.21.644.214a1 1 0 00.333-.027c-.049.09-.126.225-.241.338-.114.116-.259.191-.395.299-.26.205-.537.441-.047.627-.22-.097-.413-.178-.593-.246a60.135 60.135 0 00-2.019-.168 110.047 110.047 0 00-4.109-.184c-2.769-.081-5.587-.117-8.428-.326-.579.201 1.733.348 2.741.473-3.429-.006-5.148-.355-9.676-.221.218.16 5.157.354 1.435.449l-6.159-.48c-8.24.229-4.058 1.148-13.737.928 1.8-.428 5.475-1.047 9.223-1.148-4.423-.094 5.896-.26 1.86-.516-6.372.635-9.448.133-17.92.529.995-.088 1.258-.213 3.343-.252l-12.293-.268c3.042.371-10.154.408-9.011.959 13.101.229 9.252-.105 24.181.207-4.227.125-9.676.686-12.229 1.201-.13-.021-.346-.039-.805-.049-2.281.545.044.691 0 1.645 6.814-.678 11.37-.119 19.408-.51 1.512-.521-4.663-.666-8.658-.531l7.08-.346-1.394.24 17.974.176c-3.406.027-4.563.33-6.34.559 2.319.02 4.616.158 7.059.309-.513-.498-.19-.85 2.072-.84 5.782.06 10.28.201 13.866.398l2.524.158 1.293.178c.832.099 1.645.335 2.394.263.26-.092.537-.239.737-.387-.372.035-.301-.146-.068-.507.228-.358.583-.984.624-1.773a3.075 3.075 0 00-.169-1.195c-.147-.388-.349-.748-.512-1.088-.17-.338-.331-.646-.48-.911l-.109-.19c-.041-.076-.058-.076-.124-.234l-.317-.68c.557.01-1.501-5.776-2.252-9.035-1.113-1.508-1.194 1.001-.439 5.02 1.439 3.621 1.927 4.692 2.231 5.098.23.167.411.082 1.064.844l.356.858c.214.521.256 1.346-.11 2.026-.342.693-1.043 1.131-1.601 1.235a8.675 8.675 0 01-.955.101c0 .001.317-.12.589-.242.278-.119.497-.336.497-.336-.36.086-.723.056-1.065.051-.344-.004-.676.001-.998.011l-3.175.088c-2.229.054-3.616.057-3.387-.258 1.641-.21 3.874-.251 6.007-.292.431-.021.855-.041 1.232-.083.375-.036.709-.098.908-.312 0 0-.399.068-.785-.014l-.739-.115c.559-.16.861-.168 1.128-.23.26-.053.466-.063.694-.099.221-.041.479-.111.702-.406.213-.28.375-.878-.04-1.63-.13.49-.175.389-.254.074-.045-.162-.106-.395-.202-.656-.114-.32-.14-.28-.599-1.43.035.188.085.411.147.662.088.332.081.357.098.449.033.179.082.378.14.589.052.212.139.431.175.662.032.231.003.473-.081.678-.165.42-.539.65-.806.662-.276.015-.419-.12-.45-.381.146-.179.414-.348.606-.661.226-.318.171-.716.128-1.191l-.043-.373-.007-.048-.049-.181-.101-.369-.204-.735a89.614 89.614 0 00-.85-2.872c-.585-1.857-1.21-3.569-1.885-4.952l.188.253c-2.604-8.594-4.052-11.444-5.38-14.55-.875-3.731-2.865-8.634-4.148-12.571l.282.018-1.872-5.536c1.301 2.506 2.059 6.53 3.643 11.293l.279-.744c1.194 5.69 3.205 9.102 4.965 13.25-2.38-6.096-5.462-17.612-6.84-18.784l-.749-4-.755-1.788c-.556-2.981.929-.229 2.8 5.301.188 1.004.283 1.506.093 1.243 1.028 2.516 2.144 4.771 4.019 11.054l-1.306-3.255c2.435 7.789 4.859 14.805 6.164 17.322-3.368-11.293-6.831-22.35-10.198-32.889-2.044-2.774-3.808-6.276-5.293-7.551-2.427-7.018-5.609-16.581-7.2-22.841l.373.504a104.052 104.052 0 00-2.623-8.046c-.748-3.25 1.207 2.004.646-.248l-3.546-10.03c.644.483 3.352 9.012 4.668 13.051-.28-.752-.844-2.271-.746-1.758 1.312 4.77 4.854 13.305 4.863 15.568.84 2.26-1.954-4.512.479 3.269 1.408 5.28 2.523 6.791 2.889 7.273.278.005-2.246-8.275-1.034-5.509-1.316-4.039-2.153-5.549-3.554-10.805 1.305 4.003 3.545 9.292 3.832 11.555 2.987 7.787 3.809 6.273 2.687 2.511-.088 1.009-5.05-14.332-2.23-3.772-1.96-4.523-4.674-13.063-6.911-19.083l.184.247-2.528-7.554c.472 1.026 1.313 3.286 1.587 3.282l-4.012-10.301c2.332 5.774-.85-3.77-1.504-6.526-.742-1.004-2.328-5.021-1.298-1.011 1.126 4.519 1.026 2.513 2.335 6.531l-2.418-5.512-.096-.508-1.588-3.275c-2.43-7.781 2.233 3.027-1.412-6.774l-.267 1.51c-3.557-11.559-7.491-26.604-10.389-34.648 1.099 2.124 2.032 2.918 1.42-.288.998 3.55 3.261 10.599 4.923 15.616.188 1.007-2.798-6.039-4.388-11.558-.269 3.003 5.037 13.552 4.117 14.552 4.03 14.067 4.383 10.057 7.478 22.102.554.003 1.313 3.286 1.953 3.768-.292-3.764-5.048-15.813-7.197-23.583.274.74.83 2.229 1.019 2.495-1.595-5.536-2.426-7.769-3.829-11.545l.094.502c-2.616-6.546-.94-4.266-1.971-8.279-.56-1.505-2.154-7.034-2.243-6.036l-1.789-7.293-.451.522a60.4 60.4 0 01-.768-2.535l-.825-2.881c-.53-1.831-1.061-3.524-2.17-6.428l-.709-.494 4.195 13.828c-.886-2.509-1.118-2.824-1.363-3.204a3.851 3.851 0 01-.196-.333l-.119-.241-.218-.56c-.329-.872-.813-2.261-1.602-4.655 1.989 5.317 1.441 3.351.483.123-.968-3.255-2.384-7.885-2.228-8.202-.532-1.47-1.064-2.94-1.512-4.348l2.366-.171-1.64.14c2.937.136 4.485.086 6.19.012 1.693-.074 3.539-.173 6.82-.139-5.144-.194-9.417-.422-14.562-.445a218.03 218.03 0 002.864 8.509 601.545 601.545 0 01-3.027-8.629c6.325-.194 14.232-.354 16.792-.366l2.741-.056 1.538-.008c.999.007 1.95.039 2.893.079 1.884.08 3.731.195 5.848.225-4.062.105-3.35.504-3.658.83-.154.163-.563.307-1.95.387-.694.04-1.633.064-2.907.066l-6.665-.065c.441-.101 2.571-.078 3.388-.016-1.359-.26-4.108-.313-7.192-.265-3.089.048-6.466.198-9.251.341l1.673 4.537c.031-.519.475.484.622.627.15.153.006-.55-1.069-4.267l.871.023c-1.677-.124-.052-.34 3.368-.485 1.704-.072 3.846-.127 6.149-.144l3.531.005 1.776.029.862.022.562.027-.524.415c-.132.104-.368.207-.494.285l-.231.129 8.869.098-.811.039c3.26.534 9.248-.103 15.217.211 4.309-.296 20.841-.061 13.728-.928 5.357.519 10.06-.142 15.905-.253l-7.287-.338c8.614-.593 6.134-.21 13.027-1.154.697.227 2.233.413.833.652l4.316.048a1.837 1.837 0 001.512-.881c.32-.519.339-1.195.07-1.725-.127-.271-.34-.484-.553-.68l-.618-.587c-.406-.38-.797-.733-1.158-1.043l-2.523-2.324a65.351 65.351 0 00-2.254-1.952c-5.743-5.794-5.958-7.39-14.323-15.213-1.787-1.622.78 1.876-4.409-3.651-.317-.404 5.594 4.725-.421-1.197-4.701-3.799-9.733-10.232-15.653-15.37-2.757-3.082-7.884-8.085-6.472-7.387 4.543 4.705 11.161 11.174 12.329 12-.854-.423 3.08 3.498-.493.256 6.72 7.259 4.758 4.315 10.844 10.771.575.289-2.828-3.619-4.301-4.835.458-.516 12.6 12.129 7.61 5.97-6.658-6.743-9.664-7.716-14.957-14.036 2.624 2.031 6.014 5.922 9.482 8.368l-4.576-4.968-3.815-3.111.278.134c-7.982-8.874-8.299-7.294-16.084-14.59 4.03 4.707-1.855-.165 1.224 3.329-5.104-4.981-8.743-8.749-8.289-9.27 9.832 9.036 1.052.02 10.259 8.255-1.257-1.606 2.79 1.363-2.354-3.888-6.204-5.508 1.346 2.158-4.655-3.521-.302-.388-.616-.791-.341-.658-2.939-2.433-3.043-3.226-6.573-6.196l.868.673c-3.712-4.304-4.72-4.049-7.847-7.821 1.018 1.742-2.613-2.02-4.979-3.934 3.36 3.634 4.733 6.046 11.662 12.918 1.12.547.774-.116 3.747 2.58l-4.52-4.45c1.015.921 1.825 1.584 2.77 2.414l4.16 4.456c-5.666-5.257-3.468-2.447-6.086-4.47-4.873-5.123-4.203-4.046-7.253-7.282.735-.104-8.921-10.355-14.405-16.38l2.653 2.687c4.445 3.915-2.526-3.227-2.565-3.497l-3.257-2.837c.603.544 1.493 1.24.254-.119-4.202-4.046-4.379-3.39-8.575-7.429-.078-.541 3.754 2.59 1.314-.092-.681-1.084-2.956-4.433-8.631-9.699-.476-.299-1.943-1.667-3.626-3.274.241.216.536.494.656.581l-3.382-3.886c3.49 2.702 6.075 6.448 9.583 9.164l.64-.111c2.423 2.42 5.874 5.547 7.58 6.865-3.628-3.756-4.504-4.435-8.711-8.486-.341-.815 2.743 1.917 3.188 2.31l-.829-.402c4.613 5.235 7.721 7.002 13.78 13.202.91.94.317.403.041.269 5.325 4.599 9.695 9.965 14.998 14.309l-1.771-1.375 17.006 15.236.198-.094c-.625-.8 1.778 1.613 3.012 2.965l-.009-.005 9.303 8.373a46.83 46.83 0 00-2.845-3.217c-1.177-.835-6.934-6.872-6.513-5.674-2.49-2.959-7.216-7.011-9.068-9.159 3.395 3.896-2.905-2.171-3.759-2.595-.979-1.471-5.42-5.382-4.612-5.236-.633-.805 1.57 2.009 3.319 3.362 4.125 3.509-6.719-7.261-1.67-2.797-6.281-5.817-14.151-13.889-20.694-19.823l3.357 3.627c-2.726-2.822-9.363-9.312-9.694-9.962 2.1 2.022 4.504 4.435 7.207 7.005.501-.245-6.337-6.333-6.4-6.857l-8.275-7.04 3.333 3.374c-2.339-1.886-9.077-9.171-14.223-14.421 3.492 2.472 7.854 7.828 13.527 13.092 4.166 3.778-1.96-2.946 1.921.691-.855-1.093-3.322-3.532-4.66-4.614l-1.391-1.576c3.817 2.89 11.232 10.512 16.637 15.117-.489-.389-.925-.72-1.117-.805 3.673 4.033 7.594 7.939 11.474 11.574-1.841-2.134-2.727-2.821-3.916-3.902-.026-.256 3.569 3.241 5.038 4.456-3.359-3.63-.378-.925-2.513-3.213 2.387 2.166 4.198 4.042 6.923 6.864 1.264 1.614-1.431-.948-1.367-.425 2.995 2.718 3.751 4.574 8.197 8.489-5.464-5.657 1.965.965 4.034 2.727l-.915-.948c2.032 1.494 3.539 2.979 4.512 4.444-2.387-2.166-4.512-4.444-4.139-3.523 1.515 1.492 3.025 2.979 4.811 4.599l-1.746-1.35 7.528 7.414c1.425.941 3.742 2.576 5.133 3.254 1.573 2.011 4.252 4.325 6.036 5.941l-.892-.69c3.089 3.502 10.594 10.662 11.427 11.066 2.163 2.545-18.004-15.282-1.163 1.163 6.328 6.325 4.623 3.259 8.471 6.634 0 0-.274-.134.04.269 2.719 2.818 3.256 2.837 5.643 5.003-1.557-1.764-3.958-4.175-4.832-4.851 1.118.548 5.741 5.792 8.088 7.688-3.193-2.313 5.184 5.52 2.821 3.608 2.611 2.895 5.476 5.727 8.09 8.157a147.147 147.147 0 003.67 3.3l1.575 1.344.359.298.174.144c.062.054.15.155.223.229l.873.909a70.124 70.124 0 003.484 4.618l1.842 2.199.973 1.129c.213.363.349.742.496 1.155a9.417 9.417 0 01-.002 5.987c-.71 2.187-2.479 4.468-5.017 5.541.749-.335 1.78-.995 2.705-1.979.938-.969 1.707-2.258 2.175-3.451.227-.824.249-1.275.239-1.429-.015-.155-.066-.018-.17.297-.185.632-.68 1.974-1.44 3.021-.732 1.069-1.643 1.791-1.836 1.889-.1.05-.023-.048.29-.376.3-.34.854-.923 1.467-2.019-.545.92-.552.956-.198.58.338-.385.919-1.299 1.234-2.376.609-1.876.424-3.813.028-4.957-.392-1.162-.832-1.642-.759-1.265a8.38 8.38 0 01.429 4.226 8.307 8.307 0 01-1.021 2.901c-.426.732-.8 1.154-.8 1.154s.445-.637.758-1.352c.323-.711.491-1.476.491-1.476s-.219.827-.894 1.9c-.658 1.072-1.9 2.295-3.372 2.93a7.397 7.397 0 01-1.103.388c-.189.042-.351.096-.56.11l-.646.016-2.294.053-2.207.043c-.342.113 1.012.147 1.725.158l-6.229.315c-.582.043-.888.016-1.309.019l-1.196-.009-2.405-.01c-3.218.01-6.466.02-9.667.028-6.401.041-12.613.105-18.002.064-1.013.699-7.646.849-15.115.932l-11.231.133-1.313.027-.555.016-.287.017-1.058.082c-.651.063-1.182.145-1.542.251.583-.4 1.075-1.107.061-1.398.55-.029 1.35-.186 2.463-.319l.429-.049.706-.045 1.491-.072a49.753 49.753 0 013.198-.021c.703.225 6.143.479 2.642.735 12.173-.158-1.647-.612 1.945-1.132a340.23 340.23 0 00-6.247.118c-1.886.054-4.037.122-4.897.198a110.15 110.15 0 00-5.521.508c.79 1.896 1.468 3.475 2.058 4.964l-.136.118.219.529.222.531.172.449.209.563 1.121 3.017c-1.5-5.035-.667-5.027 1.116 1.511l-.286-.773c.851 3.781 3.653 11.321 5.429 17.087l1.674 3.76c1.777 5.775 1.043 6.28 1.15 8.308 2.807 9.044 5.127 14.045 7.558 20.33.564 3.012 4.771 16.559 2.068 9.532 2.896 8.042 4.273 5.797 7.651 20.095l-1.492-3.516c4.308 13.328 11.029 32.152 12.621 38.418-2.791-4.535 4.041 17.072 3.59 19.828.065-.748 1.748 4.238 2.127 4.923.207 1.144.651 3.018 1.516 4.881-1.409-5.283 2.411 3.263-1.232-6.536 1.212 2.388 2.494 5.152 3.905 8.701l1.084 2.815c.188.513.366.968.567 1.567l.727 2.6.752 2.764c.105.468.306.97.336 1.429.028.46.028.93-.014 1.407a9.73 9.73 0 01-2.364 5.555l-.246-.526s.572-.613 1.153-1.714c.591-1.089 1.077-2.714 1.063-4.334.016-.4-.026-.8-.155-1.228l-.304-1.229-.538-2.187-.526-2.142c-.129.752-1.508-3.629-2.269-5.447a168.551 168.551 0 011.33 4.646c.036.138.07.27.104.395l.047.184.057.254.192.899c.11.534.186.939.234 1.245.192 1.216-.051.836-.272.505-.223-.338-.426-.634-.184.565l.272 1.2.212.853.124.496c.017.167.043.341.05.526.05.736.002 1.637-.281 2.656a7.843 7.843 0 01-1.783 3.199c-.633.894-.788 1.028-1.308 1.426a6.941 6.941 0 01-1.313.728 7.845 7.845 0 01-1.25.424 3.43 3.43 0 01-.872.122l-1.079.068c.73-.047 1.327-.063 1.668-.16.338-.099.484-.199.418-.227-.073-.04-.331.019-.894.025a48.69 48.69 0 00-2.568.045l-4.099.547c-1.521-.219-1.652-.365-1.074-.47.289-.052.755-.094 1.313-.13l2.225-.149c1.714-.127 3.461-.208 4.294-.343.396-.101.586-.2.479-.225-.12-.047-.483.05-1.351-.031 2-.087 4.284-1.382 5.436-3.521a6.705 6.705 0 00.821-3.401c-.003-1.141-.495-2.218-.809-3.225l-.931-2.676a13.613 13.613 0 00-.379-.961l-.317-.708c-.386-.813-.616-1.077-.612-.51l1.1 3.61a93.75 93.75 0 00.987 2.945c.514 1.74.303 3.276-.276 4.604-.604 1.308-1.658 2.549-3.488 3.213-.891.36-2.048.312-3.376.383l-2.141.061c-.363.005-.82.021-1.143.014l-1.041-.023-1.223-.287c-4.04.195-4.692.66-6.903.939-.2-.162-1.227-.285-3.821-.332-6.821.678-11.349.811-17.641 1.551 8.374-.277 11.953-.149 15.6-.013 1.823.067 3.663.138 6.128.16 1.232.011 2.621.01 4.241-.009l2.615-.044 1.455-.033.768-.02 1.131-.074c-1.188.135-2.227.149-3.813.215l-5.069.2c-3.475.158-6.703.381-7.077.744l.161-.527c-5.62.273-11.237.545-18.296.371l4.309-.297c-9.355.367-15.553-.801-22.935.078 2.607.047 4.724.031 6.333-.049-4.815.234-10.857.182-16.092.092l-10.829.871c.096-.262-6.767-.277-3.456-.695-7.797-.4-11.473.385-15.978.516-7.983-.561 6.916-.25 7.699-.979-11-.244-22.659-.023-28.866.451 2.243.107 3.333.197 3.219.326-.332-.166-4.765-.123-7.236-.129l-1.697.344c-4.116-.232-3.536-.434-.035-.693-1.292-.021-2.665.035-4.07.104-.702.033-1.413.068-2.125.103l-1.069.042-.63.013-.354-.003c-.15-.006-.23-.002-.566-.031l.484.024c-1.487.026-2.953-.007-4.345-.177 1.388-.085 2.854-.138 4.345-.17l-.449-.022 8.758.009c2.55.006 4.734.001 6.123-.102-3.475.084-6.094.062-8.34-.012a128.58 128.58 0 01-3.147-.142l-1.476-.088c-.51-.039-.85-.035-1.871-.138l.402.021c-4.031-.251-8.502-.494-17.489-.272-.219-.164 2.794-.483-.634-.487-7.943.128-2.075.707-4.556 1.088 6.115-.214 8.959-.006 12.508.427l-1.632.278c-.247-.145-4.087-.151-5.218-.291l-.989.567c.457-.628-5.687-1.104-10.515-.869 4.879.454 3.561.431 4.889 1.145-6.79.679-7.661-.663-15.271.056.57-.202 7.214-.354 1.473-.507-4.752-.026-4.119.462-7.306.618 3.589-.522 2.667-.911 6.558-1.531 8.443-.068 3.406.006 11.659-.224l-6.986-.44c7.154-.087 5.202-.6 5.792-.8-12.217-.529-9.207.796-17.067.66-3.789.359 7.363.074 1.436.45-7.351-.074-1.676.342-9.926.57l1.381-.24c-2.522-.311-5.015.073-7.933.126-3.209.159 3.634 1.816-9.562 1.854.646-.146.884-.238.884-.299l12.872-4.393c-13.37.013-28.777-.106-44.26-.397-3.647-.857 11.05-.71 10.103-1.097l7.062.175c-.396.364-14.795.115-8.417.757 12.47-.264 18.128.153 29.958-.599-3.675-.86-15.582.155-23.277-.508 3.232.056 5.959-.04 8.608-.163l-23.182-.357-1.847.209c5.542.095 9.375.168 9.869.199-7.347-.074-13.544.403-14.032 1.032l1.305.022-2.655.197c-1.719-.053-3.443-.093-5.157-.133zm72.92-312.586c-.273.358-.472.657-.594.903.126-.256-.129-.085.594-.903zm70.967 310.48l-29.097-.34c16.994 1.244 28.941 2.186.58 2.16l-1.857.09c3.707.152 10.101.172 16.114.082 2.433-.221 7.575-.736 12.087-1.214l5.879-.647c1.524-.18 2.474-.308 2.431-.344-1.724-.348-4.235.033-7.369-.074l1.232.287zm6.967 2.082c5.554.139 4.29-.137 5.151-.385l-5.835.094c.738.062 1.103.15.684.291zm4.819-.633c-.624-.006-1.156-.018-1.436-.051l1.436.051zm-108.02-.327l.57-.016-3.998-.057c.532.039 1.546.071 3.428.073zm11.273.605l1.318-.454c-1.223-.018-2.471-.034-3.748-.052.421.205.862.385 2.43.506zm36.232 1.486c2.284-.546 9.936-.571 10.404-1.201.488-.161-1.122-.223-2.927-.274l-6.448-.051c-.079.092-.532.177-1.289.259 2.252.078 3.757.234 2.845.621-5.792-.842-5.189.601-11.45.387-1.993.443 6.967.438 8.865.259zm142.617-226.097c-.086-.164-.419-.697-.901-1.428l3.338 2.898c5.466 5.659 9.282 10.755 14.839 15.212 2.205 2.481 3.168 4.028 4.126 5.467a179.924 179.924 0 01-3.036-3.192c-14.843-13.232-6.47-8.167-18.366-18.957zm11.269 46.871c.812-.039 1.103-.142 1.103-.142-17.577 1.154-32.05 1.489-41.525 1.444 1.837.458 10.338.813 14.374 1.002l-3.577.521-2.233-.41-6.21.474c1.736.351 6.752.278 10.104.547.291-.1 11.025-.708 14.025-1.029l-8.576-.36c2.316.146 13.693.025 18.205-.108.089-.262-7.687-.665-8.665-.097-.926-.388 8.037-.392 2.369-.808 6.717-.414 17.403-.068 22.361.124l.84.652c1.36.063 2.27.046 2.971-.01.678-.05 1.282-.173 1.814-.266 1.127-.201 2.253-.354 5.787-.242-4.186.117-3.814.287-3.153.425.651.141 1.587.251-2.017.387 1.174.081 1.238.24 1.928.34.348.049.856.083 1.758.08l1.673-.034 1.106-.041c.394-.026.869-.007 1.257-.113a8.492 8.492 0 002.95-1.964 7.987 7.987 0 001.646-2.428c.361-.857.552-1.785.448-2.816-.126-1.024-.502-2.165-1.618-3.194-1.194-1.46-.346-.712.185-.269.523.433.714.535-1.971-2.506-1.678-1.698-2.901-2.888-3.814-3.733-.849-.735-1.354-1.071-1.757-1.328-.781-.476-.956-.313-1.343-.255a93.502 93.502 0 005.701 5.453 71.718 71.718 0 012.46 2.272c.21.211.454.432.651.661.184.226.355.478.509.758.308.559.55 1.232.642 2.02 0 0-.039-.201-.146-.541a6.1 6.1 0 00-.604-1.332c-.301-.526-.758-1.031-1.386-1.581l-1.826-1.684a231.397 231.397 0 00-3.304-2.958c-.438-.383-.809-.711-1.044-.899l-.38-.314c1.401 1.629 2.553 2.844 3.545 3.798-1.752-1.719-3.294-3.07-4.612-4.066l-2.093-1.64 3.283 3.297 2.717 2.767c1.569 1.649 2.681 2.75 2.683 3.191 0 0-.223-.183-.456-.347a7.12 7.12 0 00-.476-.312c.518.746 1.047 2.032 1 3.337-.006 1.309-.568 2.471-.998 3.092-.952.947-2.293 1.394-3.537 1.348l-3.533.112c-2.167.061-3.881.068-4.539-.129l2.11-.279-7.67.096c-2.215.012-4.656.021-9.142.037zm-3.058 170.493c.046-.791.038-1.704-.1-2.956a31.717 31.717 0 00-.336-2.213 65.613 65.613 0 00-.575-2.805c-.941-4.163-2.638-10.164-5.78-19.747l.554 1.49c-2.406-9.9-6.877-18.609-9.875-30.631 2.216 5.592 2.082 5.295 5.003 11.318l-2.248-6.04c1.119 1.516-1.123-4.51-2.523-9.021l1.95 3.755c.659 2.767 2.811 9.795 2.902 9.54-.563-1.51 2.065 9.525 4.124 15.32.275-.752-3.839-13.062-1.323-7.78-1.864-4.767-1.591-5.518-3.369-10.555 1.869 4.779 1.021 1.006 2.514 4.531l-2.807-8.294c.087-.267 4.201 12.043 2.606 5.023-1.306-3.266-3.831-12.289-4.385-12.29l.09-.254c-1.876-6.289-1.585-2.525-3.734-10.296-.281-.011.008 1.51.934 4.244.85 2.29 1.309 2.536 2.898 7.304.288 2.271-1.784-5.793-1.395-2.257.193 1.757 4.298 12.554 2.439 9.287l-1.873-6.276c-.554 0-1.96-4.53-2.325-4.274-1.396-3.758-1.973-7.541-3.647-11.301-.839-1.515-.547 1.504-2.33-5.03-.854-5.276-5.712-20.082-7.583-25.611l-1.866-4.766c-.178.512 2.993 9.287 1.601 6.289l-2.53-7.554.38.524c-.755-2.529-1.779-5.036-2.618-7.296 1.112 2.25 2.703 7.768 2.883 6.515-1.027-3.597-1.006-4.202-2.146-7.449.264.704.511 1.304.556 1.189-2.063-7.286-2.797-6.78-3.541-8.535-2.984-7.038 1.687 7.512.853 6.756l-7.008-21.087c.744 1.755 1.491 3.522 1.489 2.771-1.406-5.271.37-.247-1.97-7.532-.556.733-3.351-9.011-5.419-14.093-.239-1.264-.365-1.966-.233-1.734.135.244.516 1.384 1.354 4.013.07-.185-.034-.776-.229-1.561a53.576 53.576 0 00-.779-2.738l-1.728-5.464a59.653 59.653 0 01-.685-1.801l3.542-.193c-2.378-.243-1.946-.549 3.091-.757l.254-.103-8.575-.183c.99 3.407 2.066 7.081 3.091 10.37.537 1.724.934 2.95 1.356 4.178.413 1.195.799 2.227 1.146 3.03l-.651-1.253c2.345 8.786 6.814 18.576 7.202 22.847-.465-.258.472 1.766-.079 1.773l2.416 6.251-.649-1.254 3.555 10.809-.185-.257 5.069 12.059c.224-.058.185-.414.891 1.253a48.942 48.942 0 011.429 4.167c.004.009.004.009.006.009l-.003.001c.779 2.681 1.027 4.553 1.938 7.87l-3.253-10.066c-.633-.703-.747.277.56 5.301-.655-2.017-1.214-2.77-.463-.256.184.244 2.334 6.532 1.865 4.025 3.175 9.536 7.118 25.354 12.439 39.672-3.74-10.313 2.158 8.533-1.675-3.019 1.974 8.286 2.797 6.781 5.322 15.064.01.771-1.397-4.503-2.422-6.266 4.115 13.798 8.309 22.849 12.34 36.181l-.284.716c.782 2.268 1.653 4.785 2.557 7.403zm-21.41 5.922l-8.161.168.802.016-8.054.393c4.948.189 8.209.725 1.283.975.583-.201-1.442-.449.966-.566-4.642-.293-14.824-.576-12.169.16 8.919-.695 2.078.938 9.086.422-3.76.48-7.486.264-11.038.479 3.697-.402-.861-.91-6.415-1.102-2.418.119-8.96.006-12.978.199 1.433.451-2.065.709 4.48.822-2.401.117-6.118.211-10.281-.02 1.65-.078 4.537-.133 4.337-.297-2.687-.414-5.832-.395-7.568-.572l-4.141.072c.405.039.757.09 1.007.154l-4.6.398c6.127-.213 2.832.207 2.753.471.165-.527-3.944-.068-6.042-.051l4.556.557c-2.201.279-7.774-.402-6.624.15 9.666.221 13.382.125 22.123-.041l-3.548-.432c9.862-.307 6.083.742 17.149.721 4.601-.395 16.643-.027 16.871-.818-1.388.24 6.891.703 10.683.346 4.191-.725 16.868-.822 13.028-1.152-3.425-.008-8.035.389-10.788-.082l6.644-.15-4.359-.395c2.253.142 2.034-.245.998-.825zm-148.717-4.457a69.893 69.893 0 01-.257-.011l.285.003-.028.008z"/><path d="M311.267 137.492c-1.479-1.224-4.798-4.585-4.418-3.657.222-.382 6.015 5.923 4.418 3.657zm-3.7-4.289c-.307-.163-.259.115-1.768-1.373l4.203 4.05-2.435-2.677zm-2.128-6.246c-2.353-1.903-3.828-3.125-7.147-6.486-.52-1.99 5.674 5.263 7.874 6.092-6.054-6.192-8.576-7.429-13.674-12.403 2.188 2.802 12.205 13.172 12.947 12.797zm3.648 1.791l-3.57-3.239.293.378 3.573 3.242zm67.362 80.133c.077.537 2.425 2.432 3.618 3.515-.91-.94-2.144-2.296-3.618-3.515zm-231.136-9.287l25.752-26.195-25.752 26.195zm218.253 50.352c9.862-.306 14.244-.866 24.294-1.009-13.215-.654-17.454 1.022-28.549.352l4.255.657zm3.478-2.592c1.635.612-7.61.717-6.179 1.166 6.647-.149 3.096-.583 9.128-.53l-2.949-.636zm45.661 9.87l-2.066.303-1.424.21c-.281.029-.468.05-.468.05l.376-.019c.092 0 .279-.021.485-.044l.627-.067 1.696-.183.774-.25zm-75.444 12.954l-.462-.996 1.312 4.773zm-.926-1.993l.464.997-.464-.997zm71.56-9.404l.695.02.728.018a5707.814 5707.814 0 004.662-.32l3.229-.54-4.991.495-1.845.186c-.578.057-1.207.132-1.439.118l-1.039.023zm-39.232-3.283l3.976-.196c-.789.038-6.229-.214-3.976.196zm-22.516 43.548l1.687 4.541-.092-.491-1.681-4.524zm-3.217-41.708c.01-.049.021-.082.04-.088.205.057.239.098.176.128.409.721 1.12 3.484.854 1.534-.206-.59-.365-.994-.49-1.268.51-.094-.008-.236-.519-.38a.309.309 0 01-.061.074zm13.126 51.916c.197.622.422 1.272.672 1.888l-.672-1.888zm0 0c-.637-2.008-1.103-4.07-1.669-5.406.591 2.567.957 3.454 1.669 5.406zm7.404 22.975l-.545-1.831c.811 1.79.499.919-.206-.686-.628-1.925-.735-1.771-.904-1.971l-.551-1.131.664 1.53c.945 2.993 1.545 4.81 1.542 4.089zm19.565 87.868c-1.967-6.778-2.438-8.543-1.974-8.288-1.915-6.419-2.2-5.238-3.561-9.045 2.359 7.203 2.667 8.73 5.535 17.333zm-5.535-17.333l-.828-2.513c.324 1.055.584 1.83.828 2.513zm-18.757-98.633l1.859 4.009-.561-1.509zm24.623 118.182c.101-.077.108-.266.211-.335-.207-.052-.217.046-.234.146-.01.103-.024.223.023.189zm1.254-20.282c-.003-.75-1.496-5.013-1.97-6.79.752 2.526.76 4.777 1.97 6.79zm-13.07 21.971c1.309.023 3.32.27 2.449.572 1.901-.18 4.474-.824-2.449-.572zm16.908-9.66l-.187-.998-1.684-4.532zm-.07-18.046c-2.058-5.045 1.604 8.528-1.577-.274 3.214 11.638.309-1.068 2.933 7.436-1.437-5.013-1.683-7.614-1.356-7.162zm1.356 7.161c.207.729.443 1.515.71 2.364l-.71-2.364zm-50.076 27.892a38.908 38.908 0 001.824-.146c-.619.035-1.212.08-1.824.146zm50.434 2.533s.668-.225 1.569-.794a9.022 9.022 0 002.754-2.738 8.788 8.788 0 001.307-3.634c.123-1.047.032-1.736.032-1.736a8.09 8.09 0 01-.393 3.215 8.586 8.586 0 01-2.1 3.363 8.718 8.718 0 01-3.663 2.157c-.17.056-.344.092-.515.137l-.571.043-1.143.08-2.246.16-2.153.16c-.398.034-.563.033-.802.044l-.658.027c-.855.038-1.617.08-2.241.128-1.247.096-1.942.216-1.729.379 1.107.033 2.271.047 3.428.045.594-.003 1.12 0 1.757-.02l2.578-.18 2.395-.188 1.104-.094.524-.047c.157-.037.304-.084.45-.128 1.168-.381 2.081-.945 2.673-1.441 0 0-.552.355-1.146.617a8.578 8.578 0 01-1.211.445zm-95.853-11.226l3.517-.258-4.391-.076c1.257.098-1.018.576.874.334zm-1.724-.348l.85.014a8.85 8.85 0 00-.85-.014zm62.538 8.727c2.629.045 4.733.027 7.131-.088-.994-.123-7.546-.238-7.131.088zm-85.577-7.432l5.804-.111-6.333.049zm-27.087-1.13l-1.001-.123-4.812.236 1.017.122zm35.426 12.839c3.935.07 7.008-.516 5.979-.639l-7.63.025c1.939.512 2.117-.015 6.54.115l-4.889.499zm-128.898-80.631c-.189 1.728-2.902 9.622-3.344 9.94.205-1.111 1.444-5.465.388-2.818l-1.197 6.547c-3.155 8.213.967-6.696 1.996-10.92-2.809 8.495-3.085 11.189-5.966 20.261a58.266 58.266 0 012.277-5.64c.661-.13-2.271 8.244-4.143 14.301 1.465-3.77.965-1.479.297 1.394a9.204 9.204 0 00-.254 1.106l-.223.977.229-.726c.047.071.174-.064.444-.554 1.445-5.122 3.146-8.851 4.189-12.112-1.939 2.935 3.315-11.184 4.335-15.377l1.413-4.767.561-1.773c.214-.324.18.22-.497 2.98.535-2.313 2.985-9.816 2.471-9.215l5.434-17.172c.207-.522.423-1.043.615-1.417.131-.613.115-.729.043-.664 8.748-27.636 17.495-55.271 26.27-82.927l-3.013.021 2.929.04-5.883 17.348c1.334-5.263.38-2.351-.816 1.341l-.707 2.155c-.174.516-.342.999-.49 1.39-.296.782-.51 1.19-.521.726.151-.658.344-1.386.56-2.141l.382-1.278.638-2.019c.86-2.683 1.747-5.302 2.458-7.301.054-.674-.444.421-.965 1.562-.523 1.148-1.067 2.339-1.167 2.054a222.658 222.658 0 00-1.73 5.241l-.48 1.577-.353 1.271c-.434 1.63-.73 3.024-1.02 4.415-.579 2.78-1.13 5.54-2.699 10.118-.232-.476.368-3.423-1.5 2.629l.412-1.559c-2.678 9.79-3.177 7.282-4.153 13.67l-.452-.319c-1.012 4.505-3.716 13.037-5.173 17.866l-.006-.317c-3.704 13.669-2.28 7.609-6.844 22.83l1.625-7.155c-1.9 5.147-1.636 6.527-2.892 10.257-.011-.299-.655.454.378-3.117l-4.937 18.659c-1.013 4.505.651-.773 1.081-1.388zm-8.123 23.01a80.405 80.405 0 00-1.092 3.376l1.092-3.376z"/><path d="M170.778 246.132l10.464-.005a462.832 462.832 0 00-10.464.005zm-37.244 158.246c1.271-3.104-.394 2.502-.377 3.118l3.612-11.415c-.21-.01-.068-1.208-.318-1.034l-2.917 9.331zm4.648-11.485c-.012-.43.251-1.676.566-3.064l-1.979 6.252c.158.007.512-.652 1.413-3.188zm-10.716-2.071l.624-2.025.82-3.104zm10.877-31.326c-1.059 2.319-2.289 6.969-2.7 8.523 1.664-5.278 1.051-2.957 2.7-8.523zm-5.214 5.521l1.447-5.137-.208.456zm-6.793-116.81l-2.607.034a70.52 70.52 0 002.607-.034z"/><path d="M178.573 247.704c-6.981-.196-7.912-.316-5.98-.417 1.912-.1 6.614-.181 10.455-.298-.982 3.492-1.638 6.083-.555 3.519.391-1.323.782-2.647 1.21-3.999l-8.738.196 1.254-.203-14.544.066c.433.087.84.154 1.2.21l1.586.15c.882.095 1.268.191.905.375l-2.933-.028-1.506-.032a66.628 66.628 0 01-2.035-.075c-.991-.054-1.342-.119-1.598-.192-.514-.148-.651-.336-4.788-.567l-12.603.066 1.02-.109c-1.061.008-1.53.054-1.895.113l-21.236.114-14.601.078-1.534.036c-.39.083-.615.131-.714.208-.102.078-.077.202-.011.296.095.195.492.422-.629.691a78.3 78.3 0 012.316.048l7.097.053c4.542.006 8.06-.079 8.44-.443-.301.101-.894.302.922.388l5.18-.6-4.939-.191c5.208-.598 22.029-.465 25.07-.094-9.565.204-4.765.924-18.091.533.599.185 3.039.51.038.611 7.807-.106 15.208-.076 22.68-.097 3.736-.011 7.489-.034 11.32-.094l18.237-.312zm-35.382-46.795l-.041.134c.174-.224.221-.308.041-.134zm-3.769 3.642l-4.876 5.886 8.349-8.43.255-.963c-.652.831-3.414 3.952-4.693 4.954l.965-1.447zm-10.819 12.439c4.182-4.483 3.53-4.665.976-2.492 3.785-4.172 2.548-1.65 4.847-4.831-.391-.211-5.118 4.869-6.189 6.051l.366 1.272zm-28.51 28.072c-.01.01.008-.354.018-.364l-.458.413c-.249.196-.405.476-.405.476s.193-.174.411-.301c.22-.128.434-.224.434-.224zm.018-.364l.876-.782c-.2-.057-.405-.103-.675-.008 0 0-.078.225-.127.421a3.318 3.318 0 00-.074.369zm8.314-7.981a340.342 340.342 0 004.421-4.289l-4.421 4.289zm-3.514 3.301l.155-.046 3.358-3.255-3.513 3.301z"/><path d="M100.987 243.915c.114.032.226.067.341.089l.087.014.043.004c.029-.013.076-.043.114-.067.163-.102.347-.228.558-.388.844-.638 2.119-1.8 4.232-3.994l-1.296.397-2.29 2.222-1.575 1.528c-.128.118-.214.195-.214.195zm44.471 84.304l1.234-4.665-.215.467-1.233 4.661zm8.768-26.388c.291-1.158.492-2.041.665-2.848-.336 1.21-.572 2.183-.665 2.848zm3.561-20.556c2.111-5.276-1.841 7.619 1.51-2.329.648-.766-.364 4.075-2.042 8.729-.229-.485 1.234-4.661-.04-1.877-.591 3.256-1.242 4.358-.373 3.435-1.344 5.367-1.158 6.071-1.951 9.751 1.788-6.436 6.564-19.625 8.455-27.913.783-4.651-.932-2.224-1.834-2.53-.426.601-4.189 12.108-3.725 12.734zm-3.604 8.213c-.838 2.486-1.044 3.263-1.456 4.82.443-.315.829-2.795 1.456-4.82zm.059-35.015c-.5.136-5.247.304-4.227.538l7.195-.171c-1.688-.023-2.283-.188-2.968-.367zm6.124.294l-3.155.073c.788.012 1.764-.007 3.155-.073zm-6.466-.378l.342.084c.102-.028.082-.058-.342-.084zm-32.961-29.851c.113.257 2.27-2.121 3.353-3.314-.94.91-2.301 2.149-3.353 3.314zm84.62-86.075l2.15-1.855c-.796.619-1.202.939-2.15 1.855zm25.815-35.919c.022-.094.14-.272.311-.5-.177.223-.285.392-.311.5zm.31-.5c1.215-1.522 5.68-5.508 6.964-7.261l-.121.264 2.688-2.966c-2.629 2.671-8.22 8.204-9.531 9.963z"/></g></svg>