<svg width="37" height="37" viewBox="0 0 37 37" fill="none" xmlns="http://www.w3.org/2000/svg"><g clip-path="url(#clip0_1_607)"><path d="M.94 18.048c0-8.146 0-12.22 2.53-14.75C6 .768 10.074.768 18.22.768h1.44c8.145 0 12.218 0 14.749 2.53 2.53 2.53 2.53 6.604 2.53 14.75v1.44c0 8.146 0 12.218-2.53 14.749-2.53 2.53-6.604 2.53-14.75 2.53h-1.44c-8.145 0-12.218 0-14.749-2.53C.94 31.707.94 27.633.94 19.487v-1.44z" fill="#07F"/><path d="M20.095 26.703c-8.205 0-12.885-5.625-13.08-14.985h4.11c.134 6.87 3.165 9.78 5.564 10.38v-10.38h3.87v5.925c2.37-.255 4.86-2.955 5.7-5.925h3.87c-.645 3.66-3.345 6.36-5.265 7.47 1.92.9 4.995 3.255 6.165 7.515h-4.26c-.915-2.85-3.194-5.055-6.21-5.355v5.355h-.465z" fill="#fff"/></g><defs><clipPath id="clip0_1_607"><path fill="#fff" transform="translate(.94 .768)" d="M0 0h36v36H0z"/></clipPath></defs></svg>