<svg width="196" height="226" viewBox="0 0 196 226" fill="none" xmlns="http://www.w3.org/2000/svg"><path fill-rule="evenodd" clip-rule="evenodd" d="M43.02 28.859a3.493 3.493 0 00-3.303 2.684l-1.123 4.726.372.089c-.02.123-.029.25-.025.38l4.228 143.701a2.004 2.004 0 002.058 1.944l39.79-1.104.338 11.491a.497.497 0 01-.27.458l-4.965 2.551 1.375 2.669 4.964-2.551a3.492 3.492 0 001.895-3.21l-.338-11.491 61.453-1.704a1.992 1.992 0 001.362-.588l.297.485 3.808-2.327a3.492 3.492 0 001.67-3.087l-4.375-144.646a3.508 3.508 0 00-3.602-3.399l-105.61 2.93zm108.339 146.87l2.01-1.227a.498.498 0 00.238-.441l-4.322-142.88-2.124 2.315c.011.078.019.158.021.24l4.177 141.993zm-6.723-143.923l2.604-2.836-104.132 2.888a.499.499 0 00-.472.383l-.572 2.409 102.572-2.844zM87.928 178.198l60.453-1.677-4.168-141.702L41.97 37.654l4.168 141.702 38.79-1.075-3.923-133.36 3-.082 3.923 133.359z" fill="#000"/><path d="M40.156 36.895a.499.499 0 01.483-.516l104.231-3.266a.5.5 0 01.516.484l4.746 143.686c.01.306-.207.507-.454.515-12.982.413-55.647 1.805-65.34 2.121-1.97.065-3.415 1.72-3.343 3.622l.44 11.722a.5.5 0 01-.748.452l-.74 1.303.74-1.303-25.395-14.473a3.51 3.51 0 00-1.855-.458l-8.018.275a.502.502 0 01-.518-.484l-4.745-143.68z" fill="#FEFFE0" stroke="#000" stroke-width="3"/><path d="M52.207 68.621l.084-12.96 7.119-.487-.084 12.96-1.804.123.076-11.664-3.512.241-.075 11.664-1.804.123zm9.135-.626l.084-12.96 3.208-.22c.777-.053 1.393.049 1.849.305.466.246.804.628 1.013 1.146.21.52.312 1.157.307 1.915-.004.682-.13 1.283-.378 1.8a2.902 2.902 0 01-1.061 1.24c-.47.3-1.057.473-1.759.521l-1.42.098-.04 6.031-1.803.124zm1.85-7.451l.83-.057c.522-.036.932-.123 1.231-.26.299-.138.513-.356.642-.652.13-.308.197-.728.2-1.261.004-.62-.04-1.09-.134-1.415-.083-.324-.268-.541-.555-.65-.286-.108-.733-.14-1.34-.1l-.845.059-.028 4.336zm9.122 6.843c-.872.06-1.568-.063-2.087-.369-.52-.305-.889-.765-1.108-1.38-.22-.624-.327-1.363-.321-2.216l.032-4.912c.005-.853.122-1.592.35-2.215.237-.635.613-1.13 1.126-1.485.523-.366 1.221-.58 2.094-.639.873-.06 1.563.058 2.072.354.509.295.873.74 1.092 1.332.23.592.343 1.315.337 2.168l-.032 4.928c-.005.843-.127 1.587-.365 2.232a3.236 3.236 0 01-1.111 1.547c-.513.377-1.206.595-2.079.655zm.01-1.424c.478-.033.84-.154 1.087-.363a1.65 1.65 0 00.5-.865 5.67 5.67 0 00.136-1.273l.037-5.68a5.037 5.037 0 00-.12-1.223c-.083-.346-.246-.602-.49-.766-.243-.176-.604-.247-1.083-.214s-.847.154-1.103.364c-.246.198-.413.476-.5.833a5.245 5.245 0 00-.136 1.241l-.037 5.68c-.003.48.037.898.12 1.255.082.346.246.612.489.798.254.175.62.246 1.1.213zm4.447 3.325l.023-3.648.59-.04c.183-.162.36-.355.531-.58.182-.226.35-.515.5-.866.162-.363.309-.821.44-1.374.131-.563.248-1.264.349-2.103a38.4 38.4 0 00.259-3.04l.232-3.854 5.411-.371-.075 11.664 1.245-.086-.024 3.648-1.388.095-.129-2.342-6.417.44-.159 2.362-1.389.095zm2.29-3.803l4.182-.287.067-10.32-2.091.144-.147 2.936a36.32 36.32 0 01-.226 2.927c-.09.784-.201 1.437-.332 1.957-.12.51-.261.93-.423 1.26-.151.32-.318.582-.5.787-.171.203-.348.402-.53.596zm8.563.708l.084-12.96 2.969-.203c.585-.04 1.09-.01 1.515.088.435.098.796.27 1.081.517.286.248.497.574.632.98.136.397.202.872.198 1.426-.003.534-.075 1.003-.216 1.407a2.12 2.12 0 01-.613.953c-.267.242-.614.41-1.04.503.52.082.94.256 1.257.522.318.255.55.602.695 1.04.157.426.234.949.23 1.567a5.821 5.821 0 01-.202 1.533c-.13.468-.335.871-.614 1.21a2.995 2.995 0 01-1.042.823c-.417.2-.912.318-1.487.358l-3.447.236zm1.812-1.42l1.213-.083c.809-.055 1.347-.279 1.616-.67.279-.403.421-1.026.427-1.868.003-.544-.068-.993-.215-1.345-.136-.364-.363-.626-.681-.785-.307-.171-.727-.238-1.26-.202l-1.069.074-.031 4.88zm.04-6.255l1.07-.074c.51-.035.91-.131 1.198-.29a1.38 1.38 0 00.611-.745c.12-.328.18-.748.184-1.26.004-.598-.084-1.023-.263-1.278-.179-.254-.46-.4-.843-.438-.382-.048-.882-.051-1.5-.009l-.43.03-.027 4.064zm6.519 7.101l.084-12.96 1.596-.109-.058 8.976 3.841-9.235 1.293-.089-.084 12.96-1.58.108.059-9.12-3.81 9.377-1.341.092zm8.698-.596l.084-12.96 1.804-.123-.037 5.6 3.321-.228.036-5.6 1.804-.124-.084 12.96-1.804.124.039-6.064-3.32.227-.039 6.064-1.804.124zm8.775 1.365l.009-1.392c.553.016.979-.013 1.277-.087.309-.075.523-.201.641-.38.129-.169.194-.392.196-.669a6.426 6.426 0 00-.089-1.017l-2.48-11.345 1.708-.117 1.05 5.445.628 4.067.601-4.119 1.01-5.619 1.723-.118-2.389 11.71c-.11.53-.203.995-.28 1.395a4.2 4.2 0 01-.294 1.028 1.588 1.588 0 01-.547.693c-.246.177-.592.307-1.04.391-.436.083-1.011.128-1.724.134zm6.058-2.382l.009-1.344a2.46 2.46 0 00.638-.092c.203-.056.379-.17.529-.34.161-.17.301-.431.42-.78.119-.35.223-.82.312-1.413.089-.593.168-1.339.238-2.24l.476-6.925 5.682-.39-.084 12.96-1.803.124.075-11.616-2.331.16-.339 5.573a36.648 36.648 0 01-.222 2.27 9.485 9.485 0 01-.394 1.77 4.014 4.014 0 01-.663 1.277c-.268.338-.61.59-1.026.758-.416.167-.922.25-1.517.248zm10.249-.703l.084-12.96 1.596-.109-.058 8.976 3.841-9.235 1.293-.089-.084 12.96-1.58.108.059-9.12-3.811 9.377-1.34.092zm-74.86 23.268c-.703.049-1.287-.045-1.754-.28a2.257 2.257 0 01-1.046-1.08c-.23-.484-.344-1.068-.34-1.75l.003-.433 1.692-.116-.001.24c0 .075.004.144.014.207.018.553.122 1 .31 1.338.19.339.567.489 1.13.45.416-.028.73-.146.944-.352.215-.218.36-.505.437-.862.077-.368.116-.786.12-1.255.004-.672-.141-1.222-.437-1.65-.294-.427-.857-.64-1.687-.636a.666.666 0 00-.16-.005l-.175.012-.16.011.01-1.376.143-.01.176-.012a.982.982 0 01.144-.025c.82-.11 1.385-.362 1.696-.756.322-.406.485-.95.489-1.633.004-.587-.11-1.048-.342-1.384-.221-.347-.624-.501-1.21-.461-.564.039-.97.248-1.216.627-.247.369-.394.843-.44 1.422l-.002.208-.001.208-1.708.117.003-.432c.004-.694.136-1.294.394-1.802a2.98 2.98 0 011.125-1.213c.491-.3 1.088-.474 1.79-.523.713-.048 1.314.049 1.801.293.499.232.874.59 1.126 1.074.263.472.392 1.055.388 1.749-.005.778-.18 1.425-.523 1.939a2.59 2.59 0 01-1.347 1.067c.382.102.71.282.985.54.275.259.486.602.632 1.029.146.416.217.918.214 1.505-.005.767-.116 1.447-.333 2.037-.216.58-.56 1.04-1.03 1.382-.47.342-1.088.539-1.855.591zm4.142-.428l2.83-13.148 1.74-.119 2.677 12.77-1.708.118-.57-3.224-2.633.18-.644 3.307-1.692.116zm2.584-4.735l2.155-.147-1.048-5.766-1.107 5.913zm9.623 3.898l.084-12.96 7.12-.487-.085 12.96-1.804.123.076-11.664-3.512.241-.075 11.664-1.804.123zm8.432-.578l2.83-13.148 1.74-.119 2.677 12.77-1.708.118-.57-3.224-2.633.18-.644 3.307-1.692.116zm2.584-4.735l2.155-.147-1.048-5.766-1.107 5.913zm5.975 4.148l.084-12.96 3.209-.22c.776-.052 1.393.05 1.849.306.466.245.804.627 1.013 1.146.21.519.312 1.157.307 1.914-.004.683-.13 1.283-.379 1.801-.237.517-.59.93-1.06 1.24-.47.299-1.057.472-1.76.52l-1.42.098-.04 6.032-1.803.123zm1.851-7.451l.83-.057c.522-.036.932-.122 1.23-.26.3-.138.514-.355.643-.652.13-.307.196-.728.2-1.261.004-.619-.041-1.09-.135-1.414-.083-.325-.267-.542-.554-.65-.286-.108-.733-.142-1.34-.1l-.846.058-.028 4.336zm5.646 8.905l.01-1.392c.552.015.978-.014 1.276-.088.31-.074.523-.201.641-.38.129-.168.194-.391.196-.669a6.418 6.418 0 00-.09-1.017l-2.479-11.345 1.708-.117 1.05 5.445.628 4.068.6-4.12 1.011-5.618 1.724-.119-2.39 11.71c-.11.53-.203.996-.28 1.395a4.153 4.153 0 01-.294 1.028 1.588 1.588 0 01-.547.693c-.246.177-.592.307-1.04.391-.436.084-1.011.128-1.724.135zm-43.81 19.028l.323-12.976 1.772-.122 2.214 10.355 2.367-10.669 1.756-.12.155 12.943-1.452.1-.083-9.398-2.248 9.557-1.021.07-2.11-9.258-.205 9.417-1.468.101zm10.57-.725l.083-12.96 5.012-.343-.008 1.344-3.209.22-.028 4.288 2.602-.179-.008 1.28-2.602.179-.03 4.752 3.24-.223-.009 1.296-5.044.346zm9.739-.524c-.915.063-1.627-.08-2.135-.429-.498-.35-.846-.843-1.044-1.48-.187-.637-.278-1.356-.273-2.156l.03-4.576c.005-.875.106-1.644.302-2.308.206-.664.56-1.19 1.063-1.576.513-.397 1.227-.628 2.143-.69.808-.056 1.446.05 1.912.316.477.266.815.67 1.014 1.21.209.54.31 1.2.306 1.978l-.007 1.024-1.708.117.006-.912c.003-.48-.02-.9-.072-1.258-.04-.37-.165-.65-.377-.838-.212-.188-.567-.265-1.067-.23-.511.034-.884.172-1.12.412-.236.23-.392.55-.469.96a8.981 8.981 0 00-.105 1.398l-.033 5.136c-.004.651.046 1.165.15 1.541.104.366.277.621.521.764.244.143.573.201.988.172.49-.033.842-.164 1.056-.392.214-.239.35-.552.405-.939.056-.388.085-.838.088-1.35l.007-.96 1.708-.117-.007.96c-.005.79-.105 1.495-.3 2.116a3.008 3.008 0 01-1 1.476c-.47.362-1.13.573-1.982.631zm4.177-.43l2.752-6.01c-.573-.216-1.033-.606-1.38-1.169-.337-.574-.503-1.325-.497-2.253.005-.693.136-1.315.395-1.866.26-.561.688-1.017 1.286-1.367.598-.35 1.397-.56 2.397-.629L84 89.471l-.084 12.96-1.804.123.035-5.376-1.022.07-.207.015a3.747 3.747 0 00-.207-.002l-2.27 5.545-2.011.138zm5.056-7.016l.67-.046.033-4.991-.719.049c-.808.055-1.421.273-1.839.654-.406.38-.612.975-.618 1.785-.005.918.176 1.587.546 2.01.37.422 1.012.602 1.927.54zm11.545 8.229l-.128-2.342-6.976.478.084-12.96 1.804-.123-.076 11.663 3.672-.251.075-11.664 1.804-.124-.076 11.664 1.23-.084-.024 3.648-1.389.095zm2.826-2.545l.084-12.96 5.012-.343-.009 1.344-3.208.22-.028 4.288 2.602-.179-.008 1.28-2.602.179-.031 4.751 3.24-.222-.008 1.296-5.044.346zm6.5-.446l.084-12.96 2.969-.203c.585-.04 1.091-.01 1.515.088.436.098.796.27 1.082.518.286.247.496.574.632.98.136.396.202.871.198 1.426a4.34 4.34 0 01-.217 1.406 2.12 2.12 0 01-.612.953c-.268.243-.614.41-1.04.504.52.081.939.255 1.257.521.317.256.549.602.695 1.04.157.426.233.949.229 1.568a5.825 5.825 0 01-.201 1.533c-.131.467-.336.87-.614 1.21a2.994 2.994 0 01-1.043.822c-.416.199-.911.319-1.486.358l-3.448.236zm1.812-1.42l1.213-.082c.809-.056 1.348-.28 1.616-.67.279-.404.422-1.027.427-1.87.004-.543-.068-.992-.214-1.344-.136-.364-.363-.625-.681-.785-.308-.17-.728-.238-1.26-.201l-1.069.073-.032 4.88zm.041-6.255l1.069-.073c.511-.035.911-.132 1.199-.29.288-.17.492-.418.611-.746s.18-.748.184-1.26c.004-.597-.084-1.023-.263-1.277-.179-.255-.46-.4-.843-.438-.383-.049-.883-.052-1.5-.01l-.431.03-.026 4.064zm6.409 9.204l-.267-.717c.288-.116.513-.302.674-.558.172-.247.259-.535.261-.866l-.91.063.012-1.84 1.756-.12-.012 1.807c-.004.566-.129 1.022-.376 1.369-.247.358-.626.646-1.138.862zm-58.76 19.925l.084-12.959 3.208-.22c.777-.054 1.393.048 1.85.305.465.245.803.627 1.013 1.146.21.518.311 1.156.306 1.914-.004.682-.13 1.283-.378 1.801a2.904 2.904 0 01-1.061 1.24c-.47.299-1.056.472-1.759.52l-1.42.098-.04 6.032-1.803.123zm1.851-7.451l.83-.057c.522-.036.932-.123 1.23-.26.299-.138.513-.355.643-.652.13-.308.196-.728.2-1.261.003-.619-.041-1.09-.135-1.414-.083-.325-.268-.542-.554-.65-.287-.108-.733-.142-1.34-.1l-.846.058-.028 4.336zm5.818 6.925l.084-12.959 5.013-.344-.01 1.344-3.208.22-.028 4.288 2.602-.178-.008 1.28-2.602.178-.03 4.752 3.24-.222-.009 1.296-5.044.345zm9.325-.495c-.702.048-1.287-.045-1.753-.28a2.254 2.254 0 01-1.046-1.079c-.231-.486-.344-1.07-.34-1.752l.003-.432 1.692-.116-.002.24c0 .074.005.143.015.207.018.553.121.999.31 1.338.19.339.566.489 1.13.45.415-.028.73-.146.944-.352.214-.218.36-.505.436-.862a6.37 6.37 0 00.12-1.256c.005-.672-.14-1.221-.436-1.649-.295-.428-.857-.64-1.687-.636a.666.666 0 00-.16-.005l-.175.012-.16.011.01-1.376.143-.01.175-.012a.973.973 0 01.144-.026c.82-.109 1.385-.361 1.696-.756.322-.406.485-.95.49-1.633.003-.586-.11-1.047-.343-1.383-.22-.348-.624-.501-1.21-.461-.563.038-.969.248-1.216.627-.247.369-.394.843-.44 1.421l-.001.208-.001.208-1.708.118.002-.432c.005-.694.136-1.295.395-1.803a2.98 2.98 0 011.125-1.212c.49-.3 1.088-.475 1.79-.523.713-.049 1.313.049 1.801.293.499.232.874.59 1.126 1.074.263.472.392 1.055.388 1.748-.005.779-.18 1.425-.524 1.939-.333.514-.782.87-1.347 1.068.383.102.711.282.986.54.275.259.485.602.632 1.029.146.416.217.918.213 1.504-.005.768-.116 1.448-.332 2.038a2.924 2.924 0 01-1.03 1.382c-.47.342-1.089.539-1.855.591zm4.673 1.503l.009-1.392c.553.015.978-.014 1.277-.088.309-.074.522-.201.64-.379.13-.169.194-.392.196-.67a6.397 6.397 0 00-.089-1.017l-2.48-11.345 1.709-.117 1.05 5.446.627 4.067.601-4.12 1.01-5.618 1.724-.118-2.39 11.71c-.11.53-.203.995-.28 1.395a4.146 4.146 0 01-.294 1.027 1.588 1.588 0 01-.547.694c-.245.176-.592.307-1.04.391-.436.083-1.01.128-1.723.134zm6.057-2.383l.009-1.344c.234-.005.447-.035.639-.091a1.09 1.09 0 00.529-.34c.16-.171.3-.431.42-.781.119-.349.223-.82.312-1.413.089-.592.168-1.339.238-2.239l.475-6.925 5.683-.39-.084 12.96-1.804.124.075-11.616-2.33.16-.34 5.572a37.416 37.416 0 01-.221 2.27 9.47 9.47 0 01-.395 1.771 4.006 4.006 0 01-.662 1.276 2.44 2.44 0 01-1.026.758c-.416.168-.922.25-1.518.248zm10.25-.702l.083-12.96 1.804-.124-.035 5.392.51-.035c.937-.064 1.708-.005 2.313.178.605.171 1.055.519 1.35 1.043.305.522.454 1.28.448 2.272-.005.672-.088 1.253-.251 1.744-.163.48-.415.887-.758 1.22-.332.331-.754.59-1.265.774-.501.173-1.103.283-1.805.332l-2.395.164zm1.811-1.42l.59-.04c.544-.038.986-.126 1.327-.267a1.51 1.51 0 00.787-.79c.172-.374.261-.913.266-1.617.005-.886-.16-1.503-.499-1.853-.338-.35-.965-.494-1.88-.431l-.559.038-.032 4.96zm7.496.782l.076-11.616-2.187.15.009-1.344 6.113-.419-.008 1.344-2.123.145-.076 11.616-1.803.124zm4.471-.307l2.83-13.148 1.74-.119 2.677 12.77-1.708.117-.569-3.223-2.634.18-.644 3.307-1.692.116zm2.584-4.735l2.155-.148-1.048-5.765-1.107 5.913zm6.975 4.08l.075-11.616-2.187.15.009-1.344 6.114-.419-.009 1.344-2.123.145-.075 11.616-1.804.124zm8.477-.437c-.873.059-1.569-.064-2.088-.369-.519-.306-.889-.765-1.108-1.379-.219-.625-.326-1.364-.321-2.217l.032-4.912c.006-.854.122-1.592.349-2.215.239-.635.614-1.13 1.127-1.485.524-.366 1.222-.579 2.094-.639.873-.06 1.564.058 2.072.354.509.295.873.739 1.092 1.332.231.592.343 1.315.337 2.168l-.031 4.928c-.006.842-.128 1.586-.366 2.232a3.241 3.241 0 01-1.111 1.547c-.513.377-1.206.595-2.078.655zm.009-1.424c.479-.033.841-.154 1.087-.363.246-.219.413-.508.5-.866.088-.368.133-.793.136-1.272l.037-5.68a5.045 5.045 0 00-.12-1.224c-.082-.346-.246-.601-.489-.766-.244-.175-.605-.246-1.084-.213-.479.033-.846.154-1.103.363-.246.198-.413.476-.5.834a5.239 5.239 0 00-.136 1.241l-.037 5.68c-.003.48.037.898.12 1.255.083.346.246.612.489.798.254.175.621.245 1.1.213zm5.26.918l.324-12.976 1.771-.121 2.215 10.355 2.367-10.669 1.756-.121.155 12.944-1.453.099-.082-9.398-2.248 9.558-1.022.07-2.11-9.259-.204 9.418-1.469.1zm-76.02 25.555l.025-3.648.59-.041c.182-.161.359-.355.53-.58a3.64 3.64 0 00.5-.866 7.9 7.9 0 00.44-1.373 19.92 19.92 0 00.349-2.103 38.39 38.39 0 00.259-3.041l.232-3.854 5.412-.371-.076 11.664 1.245-.085-.023 3.648-1.39.095-.128-2.342-6.416.44-.16 2.362-1.388.095zm2.291-3.804l4.182-.286.067-10.32-2.09.143-.148 2.937a36.366 36.366 0 01-.226 2.926c-.09.785-.2 1.437-.332 1.958-.12.509-.261.929-.423 1.26-.15.32-.317.582-.5.786-.171.204-.348.403-.53.596zm11.866.626c-.872.06-1.568-.063-2.088-.368-.519-.306-.888-.766-1.108-1.38-.219-.624-.326-1.363-.32-2.217l.032-4.912c.005-.853.122-1.591.349-2.215.238-.634.614-1.129 1.127-1.484.523-.367 1.221-.58 2.094-.64.872-.059 1.563.059 2.072.354.508.296.873.74 1.092 1.333.23.592.343 1.314.337 2.168l-.032 4.927c-.005.843-.127 1.587-.365 2.232a3.236 3.236 0 01-1.111 1.548c-.513.376-1.206.594-2.079.654zm.01-1.424c.478-.033.84-.153 1.087-.362a1.65 1.65 0 00.5-.866 5.73 5.73 0 00.136-1.273l.037-5.68a5.032 5.032 0 00-.12-1.223c-.083-.346-.246-.601-.49-.766-.243-.175-.604-.246-1.083-.214-.48.033-.847.154-1.104.364-.245.198-.412.476-.5.834a5.282 5.282 0 00-.135 1.241l-.037 5.679c-.003.48.037.899.12 1.256.082.346.245.612.489.798.254.174.62.245 1.1.212zm5.292.917l.084-12.96 2.969-.203c.585-.041 1.09-.011 1.515.088.435.098.796.27 1.081.517.286.247.497.574.632.98.136.396.202.871.198 1.426-.003.533-.075 1.002-.216 1.406a2.12 2.12 0 01-.612.954c-.268.242-.615.41-1.04.503.52.082.939.255 1.256.521.318.256.55.603.696 1.04.156.427.233.949.229 1.568a5.815 5.815 0 01-.202 1.533 3.25 3.25 0 01-.614 1.21 3.004 3.004 0 01-1.042.823c-.416.199-.912.318-1.486.357l-3.448.237zm1.812-1.42l1.213-.083c.809-.055 1.347-.279 1.616-.671.279-.402.421-1.025.427-1.868.003-.544-.068-.992-.215-1.345-.136-.363-.363-.625-.68-.785-.308-.17-.728-.238-1.26-.201l-1.07.073-.031 4.88zm.04-6.256l1.07-.073c.51-.035.91-.132 1.198-.29.289-.169.492-.418.612-.746.119-.328.18-.748.183-1.26.004-.597-.084-1.023-.263-1.277s-.46-.4-.843-.438c-.382-.048-.882-.051-1.5-.009l-.43.029-.027 4.064zm9.822 7.019c-.873.06-1.569-.063-2.088-.368-.519-.306-.888-.766-1.108-1.38-.22-.624-.326-1.363-.32-2.217l.031-4.912c.006-.853.122-1.591.35-2.214.238-.635.613-1.13 1.126-1.485.524-.366 1.222-.58 2.095-.639.872-.06 1.563.058 2.072.353.508.296.872.74 1.092 1.333.23.592.342 1.314.337 2.168l-.032 4.928c-.006.842-.127 1.586-.366 2.232a3.238 3.238 0 01-1.11 1.547c-.514.376-1.206.595-2.079.654zm.01-1.424c.478-.032.84-.153 1.087-.362.246-.219.412-.508.5-.866a5.7 5.7 0 00.136-1.273l.036-5.68a5.037 5.037 0 00-.12-1.223c-.082-.346-.245-.601-.489-.766-.243-.175-.605-.246-1.084-.213-.478.032-.846.154-1.103.363-.246.198-.412.476-.5.834a5.277 5.277 0 00-.135 1.241l-.037 5.68c-.003.48.036.898.12 1.255.082.346.245.612.489.798.254.174.62.245 1.1.212zm4.318.984l.008-1.344c.234-.006.447-.036.64-.092a1.09 1.09 0 00.528-.34c.16-.171.3-.431.42-.781.12-.349.223-.82.312-1.412a32.44 32.44 0 00.238-2.24l.476-6.925 5.682-.39-.084 12.96-1.803.124.075-11.616-2.33.16-.34 5.572a37.534 37.534 0 01-.222 2.271 9.477 9.477 0 01-.394 1.77 4.024 4.024 0 01-.663 1.277 2.45 2.45 0 01-1.026.758c-.416.167-.922.25-1.517.248zm10.248-.703l.085-12.96 1.803-.123-.035 5.392.511-.035c.937-.065 1.707-.006 2.313.177.605.172 1.055.519 1.349 1.043.305.523.454 1.28.448 2.272-.004.672-.088 1.253-.251 1.744a3.017 3.017 0 01-.757 1.22c-.332.332-.754.59-1.266.774-.501.173-1.103.284-1.805.332l-2.395.164zm1.813-1.42l.59-.04c.543-.037.985-.126 1.326-.267.352-.152.615-.415.787-.79.173-.374.261-.913.266-1.617.006-.885-.16-1.503-.499-1.853-.338-.35-.964-.494-1.88-.431l-.558.038-.032 4.96zm6.075.879l.084-12.959 1.804-.124-.036 5.6 3.32-.228.036-5.6 1.804-.123-.084 12.959-1.804.124.04-6.064-3.321.228-.039 6.064-1.804.123zm8.948-.613l.084-12.96 1.804-.124-.035 5.392.511-.035c.936-.064 1.707-.005 2.312.178.605.171 1.055.519 1.349 1.043.306.522.455 1.28.448 2.272-.004.672-.087 1.253-.25 1.744-.163.48-.415.887-.758 1.22-.332.331-.754.59-1.265.774-.502.173-1.103.283-1.806.332l-2.394.164zm1.812-1.42l.591-.04c.543-.038.985-.126 1.326-.267.352-.152.614-.415.787-.79.172-.374.261-.913.266-1.617.005-.886-.161-1.503-.499-1.853-.338-.35-.965-.494-1.88-.431l-.559.038-.032 4.96zm5.978.886l.084-12.96 1.803-.124-.083 12.96-1.804.124zm7.824-3.303l-.476-10.155 1.724-.118-.641 10.231-.607.042zm-.56 2.805l.011-1.76 1.724-.118-.011 1.76-1.724.118zm-25.059 28.555l1.201-6.513.64-.017 1.542 6.443-.6.015-.365-1.727-1.543.04-.284 1.744-.591.015zm.952-2.201l1.375-.036-.777-3.477-.598 3.513zm3.211 2.094l-.166-6.478 1.391-.036c.293-.007.542.024.747.093.204.07.37.175.496.316.126.14.219.311.277.513.064.195.099.413.105.653.005.208-.016.411-.064.61a1.214 1.214 0 01-.235.502.858.858 0 01-.49.277c.253.063.453.178.602.345.148.161.251.353.31.576.065.217.1.443.106.677a3.53 3.53 0 01-.054.73 1.526 1.526 0 01-.224.598 1.205 1.205 0 01-.454.42c-.194.101-.444.155-.748.163l-1.599.041zm.596-.471l.872-.023c.421-.011.698-.132.831-.365.138-.233.2-.592.188-1.077a2.327 2.327 0 00-.114-.694.89.89 0 00-.34-.463c-.152-.114-.359-.167-.62-.16l-.888.022.071 2.76zm-.083-3.231l.88-.023c.25-.006.441-.059.572-.159a.79.79 0 00.269-.415c.049-.177.07-.386.064-.626a1.615 1.615 0 00-.128-.645.692.692 0 00-.378-.366c-.178-.075-.432-.109-.763-.1l-.575.014.059 2.32zm4.301 3.578l-.154-6.006-1.224.032-.012-.472 3.023-.078.012.472-1.191.031.154 6.006-.608.015zm4.049-.023c-.432.011-.772-.063-1.022-.222a1.388 1.388 0 01-.53-.691 3.445 3.445 0 01-.17-1.036l-.069-2.687a3.09 3.09 0 01.125-1.027c.099-.296.267-.528.503-.694.241-.166.572-.254.993-.265.416-.011.746.061.99.215.249.153.429.375.537.666.109.285.168.625.179 1.02l.069 2.695c.01.389-.032.734-.126 1.035-.088.296-.25.532-.486.709-.235.177-.566.271-.993.282zm-.012-.488c.282-.007.497-.069.643-.185a.871.871 0 00.292-.487c.053-.21.076-.45.069-.722l-.075-2.935a2.571 2.571 0 00-.106-.71.8.8 0 00-.316-.456c-.152-.108-.37-.159-.652-.151-.288.007-.508.069-.66.185a.834.834 0 00-.3.471 2.824 2.824 0 00-.061.714l.075 2.935c.007.272.04.511.098.718a.92.92 0 00.324.472c.158.108.381.158.669.151zm4.182.381c-.437.011-.778-.071-1.023-.246a1.396 1.396 0 01-.506-.715 3.633 3.633 0 01-.163-1.021l-.066-2.575c-.01-.4.026-.753.109-1.059a1.34 1.34 0 01.486-.725c.235-.176.566-.27.993-.281.389-.01.695.057.917.2.228.144.394.353.497.628.103.269.159.593.169.972l.01.392-.576.015-.01-.376a3.192 3.192 0 00-.09-.726.794.794 0 00-.284-.465c-.142-.109-.346-.159-.612-.152-.294.007-.513.074-.66.2a.91.91 0 00-.283.512c-.042.22-.059.474-.052.762l.071 2.759c.008.319.044.585.108.797.07.212.18.369.332.472.152.103.362.151.628.144.272-.007.473-.071.604-.192a.838.838 0 00.259-.495c.043-.214.06-.463.053-.745l-.011-.424.576-.015.01.384c.009.379-.027.716-.11 1.011-.078.29-.227.521-.447.692-.214.171-.524.261-.929.272zm2.477-.144l-.166-6.478 2.343-.06.012.472-1.727.044.062 2.432 1.408-.037.011.448-1.407.036.068 2.672 1.744-.045.011.456-2.359.06zm3.195-.082l-.167-6.478 1.552-.039c.389-.01.698.054.925.192.228.138.39.334.487.588.103.253.159.553.168.9a2.33 2.33 0 01-.131.851 1.256 1.256 0 01-.472.629c-.22.16-.514.245-.881.254l-.952.025.078 3.063-.607.015zm.517-3.534l.776-.02c.261-.007.471-.05.629-.128a.724.724 0 00.35-.401c.07-.184.101-.43.093-.739-.009-.331-.047-.586-.116-.765a.611.611 0 00-.346-.376c-.156-.07-.378-.102-.666-.094l-.784.02.064 2.503zm3.349 3.435l-.167-6.478 1.392-.035a2.17 2.17 0 01.747.092c.204.07.369.175.496.316.126.141.219.312.277.513.064.196.099.413.105.653.005.208-.016.412-.065.61a1.202 1.202 0 01-.235.502.858.858 0 01-.489.277c.253.063.453.178.601.345.148.161.252.353.311.576.064.217.099.443.106.677.006.256-.012.5-.054.73a1.543 1.543 0 01-.225.598 1.187 1.187 0 01-.453.42c-.195.101-.444.155-.748.163l-1.599.041zm.596-.471l.871-.023c.422-.011.699-.132.831-.365.138-.233.201-.592.189-1.077a2.327 2.327 0 00-.114-.694.896.896 0 00-.34-.463c-.152-.114-.359-.167-.62-.16l-.888.023.071 2.759zm-.083-3.231l.879-.023c.251-.006.442-.059.573-.159a.796.796 0 00.269-.415c.049-.177.07-.386.064-.625a1.624 1.624 0 00-.129-.645.686.686 0 00-.377-.367c-.178-.075-.432-.109-.763-.1l-.576.014.06 2.32zm3.493 3.599l-.166-6.478.544-.013.131 5.134 1.964-5.188.472-.012.166 6.478-.544.013-.132-5.158-1.955 5.212-.48.012zm5.746-.067c-.437.011-.778-.071-1.022-.246a1.398 1.398 0 01-.507-.715 3.669 3.669 0 01-.162-1.02l-.066-2.575c-.01-.4.026-.753.109-1.06.088-.306.25-.548.485-.724.236-.177.567-.271.994-.282.389-.01.695.057.917.201.228.143.393.352.496.627.103.27.16.594.169.972l.01.392-.576.015-.009-.376a3.187 3.187 0 00-.091-.726.792.792 0 00-.284-.465c-.141-.108-.345-.159-.612-.152-.293.007-.513.074-.659.201a.901.901 0 00-.283.511c-.042.22-.06.474-.052.762l.07 2.759c.008.32.045.586.109.797.069.212.18.369.332.472.152.103.361.151.628.144.272-.007.473-.071.603-.192a.833.833 0 00.26-.494 3.41 3.41 0 00.052-.746l-.01-.424.575-.015.01.384c.01.379-.027.716-.11 1.011-.078.29-.227.521-.446.692-.215.171-.524.262-.93.272zm-41.982 4.118l-.008-.336-.009-.336c-.008-.331.025-.59.1-.779a.66.66 0 01.454-.388l.142.197a.509.509 0 00-.29.295c-.044.124-.063.306-.057.546l.328-.008.02.791-.68.018zm1.08-.028l-.009-.336-.008-.336c-.009-.33.025-.59.1-.779a.657.657 0 01.454-.387l.141.196a.508.508 0 00-.288.296c-.045.123-.065.305-.058.545l.327-.008.02.792-.679.017zm3.226 4.831c-.384.01-.69-.057-.918-.201a1.222 1.222 0 01-.496-.627 3.002 3.002 0 01-.169-.972l-.007-.288.576-.015.006.264c.007.277.035.519.083.726a.837.837 0 00.292.473c.142.108.348.159.62.152.294-.007.511-.074.651-.201a.897.897 0 00.275-.519c.048-.22.068-.474.061-.762l-.032-1.239-1.384.035-.01-.416 1.383-.035-.028-1.096a2.839 2.839 0 00-.116-.797c-.065-.217-.173-.374-.325-.472-.152-.103-.358-.151-.619-.144-.272.007-.476.071-.612.192a.89.89 0 00-.259.494c-.043.21-.061.455-.053.738l.008.312-.576.015-.007-.272c-.01-.379.024-.713.102-1.003.083-.296.235-.529.454-.7.22-.171.53-.262.93-.272.437-.011.775.074 1.015.254.244.175.416.414.514.715.099.302.153.642.162 1.02l.066 2.568c.01.399-.028.755-.116 1.067a1.3 1.3 0 01-.478.724c-.23.177-.561.271-.993.282zm2.637-.1l-.166-6.478 1.391-.035c.294-.008.543.023.747.093.205.069.37.174.496.315a1.3 1.3 0 01.278.513c.063.196.098.414.104.654.006.207-.016.411-.064.609a1.218 1.218 0 01-.235.503.863.863 0 01-.489.276c.252.063.452.178.601.345.148.161.252.354.311.576.064.217.099.443.105.678.007.256-.011.499-.053.729a1.537 1.537 0 01-.225.598 1.194 1.194 0 01-.453.42c-.195.101-.445.155-.749.163l-1.599.041zm.596-.471l.872-.023c.421-.01.698-.132.831-.365.138-.233.201-.592.188-1.077a2.289 2.289 0 00-.114-.693.893.893 0 00-.34-.464c-.152-.113-.359-.167-.62-.16l-.888.023.071 2.759zm-.083-3.231l.88-.023c.251-.006.441-.059.572-.158a.796.796 0 00.27-.415 2.2 2.2 0 00.064-.626 1.624 1.624 0 00-.129-.645.69.69 0 00-.378-.367c-.178-.075-.432-.109-.762-.1l-.576.015.059 2.319zm3.493 3.599l-.166-6.477 2.343-.06.013.471-1.728.045.062 2.431 1.408-.036.011.448-1.407.036.068 2.671 1.744-.045.012.456-2.36.06zm3.195-.081l-.166-6.478 1.551-.04c.389-.01.698.054.925.192.228.138.39.334.488.588.102.253.158.553.167.9.008.304-.036.588-.13.852-.09.258-.247.467-.473.628-.219.16-.513.245-.881.255l-.952.024.079 3.063-.608.016zm.517-3.535l.776-.02c.261-.006.471-.049.629-.128a.724.724 0 00.35-.401c.07-.183.101-.429.093-.739-.009-.33-.047-.585-.116-.765a.608.608 0 00-.345-.375c-.157-.071-.379-.103-.667-.095l-.784.02.064 2.503zm3.341 3.436l-.166-6.478 2.343-.06.012.471-1.728.045.063 2.431 1.407-.036.012.448-1.408.036.069 2.671 1.743-.045.012.456-2.359.061zm4.7-.041c-.437.011-.778-.071-1.023-.246a1.392 1.392 0 01-.506-.715 3.632 3.632 0 01-.163-1.02l-.066-2.575c-.01-.4.026-.753.109-1.059.088-.307.25-.548.486-.725.235-.177.566-.271.993-.282.389-.01.695.057.917.201.228.143.393.353.497.627.103.27.159.594.169.972l.01.392-.576.015-.01-.376a3.132 3.132 0 00-.091-.726.79.79 0 00-.284-.465c-.141-.108-.345-.159-.612-.152-.293.007-.513.074-.659.201a.901.901 0 00-.283.511c-.042.22-.06.474-.052.762l.071 2.759c.008.32.044.586.108.797.07.212.18.369.332.472.152.103.362.151.628.144.272-.007.473-.071.603-.191a.833.833 0 00.26-.495c.042-.215.06-.463.053-.746l-.011-.424.576-.015.01.384c.009.379-.027.716-.111 1.012-.077.29-.226.52-.446.691-.214.171-.524.262-.929.272zm3.285-.164l-.154-6.006-1.224.031-.012-.472 3.023-.077.012.472-1.191.03.154 6.006-.608.016zm2.16-.056l1.201-6.513.64-.016 1.541 6.443-.599.015-.365-1.727-1.543.039-.284 1.744-.591.015zm.951-2.201l1.376-.035-.777-3.477-.599 3.512zm3.212 2.095l-.166-6.478 1.391-.036c.293-.007.542.024.747.093.204.069.37.175.496.315.126.141.219.312.277.513.064.196.099.414.105.654.005.208-.016.411-.064.61-.043.193-.122.36-.236.502a.863.863 0 01-.489.277c.253.063.453.177.601.344.149.162.252.354.311.577.065.217.1.442.106.677a3.6 3.6 0 01-.054.73 1.542 1.542 0 01-.224.598 1.195 1.195 0 01-.454.419c-.195.101-.444.156-.748.164l-1.599.041zm.596-.472l.872-.022c.421-.011.698-.133.83-.366.138-.233.201-.592.189-1.077a2.325 2.325 0 00-.114-.693.893.893 0 00-.34-.464c-.152-.113-.359-.166-.62-.16l-.888.023.071 2.759zm-.083-3.231l.88-.022c.25-.007.441-.06.572-.159a.8.8 0 00.269-.415c.049-.177.07-.386.064-.626a1.633 1.633 0 00-.128-.645.686.686 0 00-.378-.366c-.178-.076-.432-.109-.763-.101l-.576.015.06 2.319zm4.301 3.579l-.154-6.006-1.224.032-.012-.472 3.023-.078.012.472-1.192.031.155 6.006-.608.015zm4.049-.024c-.432.011-.773-.063-1.022-.222a1.38 1.38 0 01-.53-.69 3.449 3.449 0 01-.171-1.036l-.068-2.687a3.07 3.07 0 01.125-1.028 1.34 1.34 0 01.503-.693c.241-.166.572-.255.993-.265.416-.011.746.06.99.214.249.154.428.376.537.667.109.285.168.625.178 1.019l.07 2.696c.01.389-.032.734-.126 1.035-.088.296-.25.532-.486.709-.235.177-.567.27-.993.281zm-.013-.487c.283-.008.497-.069.644-.185a.88.88 0 00.292-.488c.053-.209.076-.45.069-.722l-.075-2.935a2.602 2.602 0 00-.106-.709.8.8 0 00-.316-.456c-.152-.108-.37-.159-.652-.152-.288.008-.508.069-.66.185a.84.84 0 00-.3.472 2.821 2.821 0 00-.062.714l.076 2.935c.007.272.039.511.098.718a.92.92 0 00.324.472c.158.108.381.158.668.151zm2.542-4.307l-.15-.212a.485.485 0 00.289-.28c.045-.124.065-.308.058-.553l-.32.008-.02-.792.672-.017.008.336.009.336c.009.33-.025.592-.1.786-.075.189-.224.318-.446.388zm1.08-.028l-.15-.212a.486.486 0 00.289-.279c.045-.124.064-.309.058-.554l-.32.008-.02-.792.671-.017.009.336.009.336c.008.33-.025.593-.1.787-.075.188-.224.318-.446.387z" fill="#000"/></svg>